<?xml version="1.0" encoding="utf-8"?>
<!-- Generator: Adobe Illustrator 17.0.0, SVG Export Plug-In . SVG Version: 6.00 Build 0)  -->
<!DOCTYPE svg PUBLIC "-//W3C//DTD SVG 1.1//EN" "http://www.w3.org/Graphics/SVG/1.1/DTD/svg11.dtd">
<svg version="1.1" id="icon" xmlns="http://www.w3.org/2000/svg" xmlns:xlink="http://www.w3.org/1999/xlink" x="0px" y="0px"
	 width="128px" height="128px" viewBox="0 0 128 128" enable-background="new 0 0 128 128" xml:space="preserve">
<ellipse fill="#B8CBCD" cx="64.5" cy="114.188" rx="47.667" ry="11.813"/>
<path fill="#B9E3ED" d="M100.5,75c0,0-5.363,14.718-26,17.535L70.5,53h16c2.475,0,6-2.025,6-4.5s-3.525-4.5-6-4.5h-17l-1-15h-8
	l-1,15h-16c-2.475,0-5,2.025-5,4.5s1.525,4.5,4,4.5h16l-4,39.651C33.107,90.18,27.5,75,27.5,75s-5,2.399-5,4c0,13,19,32,35,32
	c0.17,0,6.831,11.002,7,11c0.169,0.002,6.83-11,7-11c18,0,36-20,36-33C107.5,76.096,100.5,75,100.5,75z"/>
<path fill="#324654" d="M64.582,124c-0.028,0-0.056,0-0.085,0c-1.195,0-1.198-0.005-5.202-6.454
	c-0.959-1.544-2.185-3.518-2.86-4.571C39.209,112.182,20.5,92.456,20.5,79c0-1.897,2.064-3.85,6.135-5.803
	c0.507-0.244,1.095-0.261,1.616-0.051c0.522,0.211,0.931,0.633,1.126,1.161c0.207,0.547,5.173,13.146,23.342,16.08L56.288,55H42.5
	c-3.477,0-6-2.734-6-6.5c0-3.462,3.271-6.5,7-6.5h14.129l0.875-13.133C58.575,27.816,59.447,27,60.5,27h8
	c1.053,0,1.925,0.816,1.996,1.867L71.371,42H86.5c3.185,0,8,2.592,8,6.5s-4.815,6.5-8,6.5H72.712l3.564,35.225
	c17.419-3.222,22.147-15.382,22.347-15.917c0.332-0.89,1.245-1.432,2.186-1.284c5.767,0.903,8.69,2.577,8.69,4.976
	c0,14.362-18.436,34.236-36.937,34.979c-0.677,1.055-1.903,3.029-2.862,4.574C65.797,123.84,65.697,124,64.582,124z M24.504,79.302
	C24.812,90.891,42.648,109,57.5,109c1.197,0,1.197,0,5.194,6.438c0.565,0.91,1.222,1.968,1.806,2.901
	c0.582-0.931,1.239-1.987,1.802-2.896c4-6.443,4-6.443,5.198-6.443c16.951,0,33.516-19.053,33.99-30.502
	c-0.642-0.391-2.173-0.884-3.817-1.243c-2.079,4.094-9.145,14.838-26.902,17.262c-0.541,0.075-1.082-0.075-1.508-0.41
	c-0.426-0.336-0.698-0.83-0.752-1.37l-4-39.535c-0.057-0.563,0.127-1.123,0.506-1.542C69.395,51.239,69.935,51,70.5,51h16
	c1.816,0,4-1.536,4-2.5s-2.184-2.5-4-2.5h-17c-1.053,0-1.925-0.816-1.996-1.867L66.629,31h-4.258l-0.876,13.133
	C61.425,45.184,60.553,46,59.5,46h-16c-1.486,0-3,1.262-3,2.5c0,1.153,0.524,2.5,2,2.5h16c0.565,0,1.104,0.239,1.483,0.659
	c0.379,0.419,0.563,0.979,0.506,1.542l-4,39.651c-0.054,0.533-0.319,1.022-0.736,1.357c-0.417,0.336-0.951,0.488-1.483,0.429
	C36.502,92.585,29.039,82.251,26.599,77.76C25.632,78.342,24.818,78.932,24.504,79.302z"/>
<path opacity="0.2" fill="#324654" d="M64.727,120.002c-0.162,0-0.349,0.001-0.513,0c-1.466,0-1.677-0.339-5.764-6.921
	c-0.84-1.353-1.889-3.043-2.583-4.137C38.327,107.746,19.5,87.71,19.5,74c0-1.657,1.343-3,3-3c1.657,0,3,1.343,3,3
	c0,11.188,17.473,29,32,29c1.753,0,1.753,0,6.047,6.915c0.299,0.482,0.625,1.007,0.953,1.533c0.327-0.526,0.653-1.051,0.953-1.533
	C69.747,103,69.747,103,71.5,103c16.693,0,33-18.982,33-30c0-1.657,1.343-3,3-3c1.657,0,3,1.343,3,3
	c0,14.632-18.566,34.829-37.372,35.951c-0.694,1.094-1.74,2.779-2.578,4.129C66.463,119.662,66.252,120.002,64.727,120.002z"/>
<path fill="#B9E3ED" d="M64.5,6.428c-7.89,0-14.286,6.396-14.286,14.286C50.214,28.604,56.61,34,64.5,34
	c7.89,0,14.286-5.396,14.286-13.286C78.786,12.824,72.39,6.428,64.5,6.428z M64.5,26.156c-3.005,0-5.442-2.437-5.442-5.442
	c0-3.006,2.437-5.442,5.442-5.442c3.005,0,5.442,2.437,5.442,5.442C69.942,23.72,67.505,26.156,64.5,26.156z"/>
<path fill="#324654" d="M64.5,36c-9.284,0-16.286-6.572-16.286-15.286c0-8.98,7.306-16.286,16.286-16.286
	s16.286,7.306,16.286,16.286C80.786,29.428,73.784,36,64.5,36z M64.5,8.428c-6.774,0-12.286,5.512-12.286,12.286
	C52.214,27.253,57.381,32,64.5,32c7.119,0,12.286-4.747,12.286-11.286C76.786,13.939,71.274,8.428,64.5,8.428z M64.5,28.156
	c-4.104,0-7.442-3.339-7.442-7.442s3.339-7.442,7.442-7.442c4.103,0,7.442,3.339,7.442,7.442S68.603,28.156,64.5,28.156z
	 M64.5,17.271c-1.898,0-3.442,1.544-3.442,3.442c0,1.898,1.545,3.442,3.442,3.442c1.898,0,3.442-1.545,3.442-3.442
	C67.942,18.816,66.398,17.271,64.5,17.271z"/>
<path fill="#B9E3ED" d="M48.083,48.374c0,4.695-3.389,8.5-8.083,8.5c-4.694,0-8.5-3.805-8.5-8.5s3.806-8.5,8.5-8.5
	C44.694,39.874,48.083,43.679,48.083,48.374z"/>
<path fill="#324654" d="M40,58.874c-5.79,0-10.5-4.71-10.5-10.5c0-5.79,4.71-10.5,10.5-10.5c5.654,0,10.083,4.612,10.083,10.5
	S45.654,58.874,40,58.874z M40,41.874c-3.584,0-6.5,2.916-6.5,6.5s2.916,6.5,6.5,6.5c3.468,0,6.083-2.794,6.083-6.5
	C46.083,44.668,43.468,41.874,40,41.874z"/>
<path fill="#B9E3ED" d="M96.5,48.374c0,4.695-3.806,8.5-8.5,8.5c-4.694,0-7.5-3.805-7.5-8.5s2.806-8.5,7.5-8.5
	C92.694,39.874,96.5,43.679,96.5,48.374z"/>
<path fill="#324654" d="M88,58.874c-5.505,0-9.5-4.416-9.5-10.5s3.995-10.5,9.5-10.5c5.79,0,10.5,4.71,10.5,10.5
	C98.5,54.164,93.79,58.874,88,58.874z M88,41.874c-3.799,0-5.5,3.265-5.5,6.5c0,3.235,1.701,6.5,5.5,6.5c3.584,0,6.5-2.916,6.5-6.5
	S91.584,41.874,88,41.874z"/>
<polygon fill="#B9E3ED" points="91.27,69.564 115.5,70 116.27,93.938 "/>
<path fill="#324654" d="M116.271,95.938c-0.512,0-1.015-0.196-1.397-0.568l-25-24.374c-0.587-0.573-0.766-1.445-0.45-2.202
	c0.315-0.757,1.035-1.246,1.882-1.229l24.229,0.436c1.066,0.019,1.929,0.87,1.963,1.935l0.761,23.655
	c0.02,0.113,0.03,0.229,0.03,0.348c0,1.104-0.895,2-2,2C116.283,95.938,116.277,95.938,116.271,95.938z M96.279,71.655
	l17.833,17.386l-0.55-17.075L96.279,71.655z"/>
<polygon fill="#B9E3ED" points="38.833,70.354 14.5,71 13.833,95.354 "/>
<path fill="#324654" d="M13.833,97.354c-0.267,0-0.535-0.053-0.79-0.163c-0.753-0.324-1.231-1.073-1.209-1.892l0.667-24.354
	c0.029-1.063,0.884-1.916,1.946-1.945l24.333-0.647c0.829-0.011,1.567,0.458,1.891,1.21c0.323,0.752,0.156,1.626-0.423,2.204l-25,25
	C14.865,97.15,14.353,97.354,13.833,97.354z M16.447,72.949l-0.477,17.44l17.902-17.903L16.447,72.949z"/>
<path fill="#324654" d="M64.5,125c-1.754,0-1.754,0-6.054-6.926c-0.839-1.351-1.886-3.038-2.579-4.131
	c-12.72-0.87-26.16-11.661-32.504-22.563l-6.741,6.741c-0.858,0.858-2.149,1.114-3.269,0.65C12.231,98.307,11.5,97.213,11.5,96V71
	c0-1.657,1.343-3,3-3h25c1.213,0,2.307,0.731,2.771,1.852c0.464,1.121,0.208,2.411-0.65,3.269L34.542,80.2
	c3.353,3.599,8.775,7.416,17.289,9.016L55.182,56h-5.76c-2.253,2.336-5.887,3.874-9.422,3.874c-6.341,0-11.5-5.159-11.5-11.5
	s5.159-11.5,11.5-11.5c3.586,0,7.246,1.637,9.487,4.126h7.206l0.314-4.707c-5.942-2.844-9.793-8.84-9.793-15.58
	c0-9.532,7.754-17.286,17.286-17.286c9.531,0,17.286,7.754,17.286,17.286c0,6.739-3.851,12.736-9.793,15.58L72.307,41H78.9
	c2.196-2.549,5.597-4.126,9.1-4.126c6.341,0,11.5,5.159,11.5,11.5s-5.159,11.5-11.5,11.5c-3.37,0-6.692-1.481-8.885-3.874h-5.296
	l3.342,33.028c9.459-2.021,14.875-6.813,17.77-10.52l-6.524-6.361c-0.874-0.852-1.145-2.148-0.685-3.278
	C88.181,67.739,89.28,67,90.5,67h25c1.657,0,3,1.343,3,3v24.374c0,1.207-0.723,2.295-1.835,2.764
	c-1.11,0.469-2.396,0.226-3.26-0.616l-6.457-6.295c-6.282,11.663-20.016,22.891-33.82,23.724c-0.695,1.095-1.742,2.782-2.581,4.134
	C66.253,125,66.253,125,64.5,125z M24.173,83.327c0.192,0,0.385,0.019,0.577,0.056c0.98,0.192,1.8,0.859,2.188,1.78
	C31.475,95.943,45.509,108,57.5,108c1.753,0,1.753,0,6.044,6.91c0.3,0.484,0.628,1.011,0.956,1.538
	c0.326-0.524,0.651-1.048,0.95-1.529C69.747,108,69.747,108,71.5,108c13.263,0,27.356-12.624,31.71-23.954
	c0.362-0.942,1.173-1.639,2.159-1.854c0.984-0.215,2.013,0.078,2.736,0.783l4.395,4.285V73H97.874l3.072,2.996
	c1.014,0.988,1.199,2.551,0.443,3.749c-3.133,4.964-10.739,13.614-26.484,15.763c-0.807,0.107-1.624-0.113-2.262-0.616
	c-0.639-0.504-1.046-1.245-1.129-2.055l-4-39.535c-0.085-0.844,0.19-1.684,0.759-2.313C68.843,50.359,69.652,50,70.5,50h10.07
	c1.015,0,1.961,0.513,2.515,1.364c0.977,1.501,2.952,2.51,4.916,2.51c3.033,0,5.5-2.467,5.5-5.5s-2.467-5.5-5.5-5.5
	c-2.004,0-4.065,1.1-5.014,2.674C82.443,46.449,81.468,47,80.416,47H69.5c-1.58,0-2.888-1.225-2.993-2.8l-0.646-9.681
	c-0.092-1.376,0.766-2.637,2.079-3.057c4.692-1.501,7.845-5.82,7.845-10.747c0-6.223-5.063-11.286-11.286-11.286
	c-6.223,0-11.286,5.063-11.286,11.286c0,4.927,3.153,9.247,7.845,10.747c1.313,0.42,2.171,1.681,2.079,3.057L62.493,44.2
	C62.388,45.775,61.08,47,59.5,47H48c-1.052,0-2.027-0.551-2.57-1.452c-0.903-1.5-3.289-2.674-5.43-2.674c-3.033,0-5.5,2.467-5.5,5.5
	s2.467,5.5,5.5,5.5c2.088,0,4.6-1.149,5.485-2.51C46.039,50.513,46.985,50,48,50h10.5c0.848,0,1.656,0.359,2.225,0.988
	c0.569,0.629,0.845,1.47,0.76,2.313l-4,39.651c-0.081,0.799-0.479,1.532-1.104,2.036c-0.625,0.502-1.427,0.736-2.225,0.643
	c-14.108-1.63-21.963-8.398-26.068-13.789c-0.91-1.194-0.796-2.877,0.266-3.938L32.257,74H17.5v14.757l4.552-4.551
	C22.62,83.638,23.385,83.327,24.173,83.327z"/>
</svg>
