<?xml version="1.0" encoding="utf-8"?>
<!-- Generator: Adobe Illustrator 17.0.0, SVG Export Plug-In . SVG Version: 6.00 Build 0)  -->
<!DOCTYPE svg PUBLIC "-//W3C//DTD SVG 1.1//EN" "http://www.w3.org/Graphics/SVG/1.1/DTD/svg11.dtd">
<svg version="1.1" id="icon" xmlns="http://www.w3.org/2000/svg" xmlns:xlink="http://www.w3.org/1999/xlink" x="0px" y="0px"
	 width="128px" height="128px" viewBox="0 0 128 128" enable-background="new 0 0 128 128" xml:space="preserve">
<ellipse fill="#B8CBCD" cx="63.167" cy="112.981" rx="47.667" ry="11.813"/>
<path fill="#FFFFFF" d="M94.5,42.667c0,3.59-11.446,6.5-30.5,6.5c-19.054,0-30.5-2.91-30.5-6.5c0-3.59,11.446-6.5,30.5-6.5
	C83.054,36.167,94.5,39.077,94.5,42.667z"/>
<path fill="#FFFFFF" d="M33.5,42.667c0-3.59,11.446-6.5,30.5-6.5c19.054,0,30.5,2.91,30.5,6.5l-8,71c0,3.59-3.446,6.5-22.5,6.5
	c-19.054,0-23.5-2.91-23.5-6.5L33.5,42.667z"/>
<path fill="#B2EDA6" d="M90.5,75.167l-4,38.5c0,3.59-3.446,6.5-22.5,6.5c-19.054,0-23.5-2.91-23.5-6.5l-3-38.5c0,0,4-7,27-7
	C85.5,68.167,90.5,75.167,90.5,75.167"/>
<path fill="#3C663E" d="M59.499,80.168c-0.87,0-1.671-0.573-1.922-1.451l-12-42c-0.304-1.063,0.312-2.169,1.373-2.473
	c1.063-0.306,2.169,0.312,2.473,1.373l12,42c0.304,1.063-0.312,2.169-1.373,2.473C59.866,80.142,59.681,80.168,59.499,80.168z"/>
<path opacity="0.2" fill="#3C663E" d="M81.504,118.167c-0.112,0-0.226-0.006-0.34-0.019c-1.646-0.185-2.831-1.671-2.646-3.317l8-71
	c0.187-1.646,1.674-2.822,3.317-2.645c1.646,0.185,2.831,1.671,2.646,3.317l-8,71C84.309,117.035,83.01,118.167,81.504,118.167z"/>
<path fill="#3C663E" d="M90.5,76.667c-1.027,0-1.874-0.774-1.987-1.772c-1.045-1.223-8.541-3.728-25.205-3.728
	c-15.868,0-22.417,2.403-23.195,3.616c-0.06,1.051-0.932,1.884-1.997,1.884c-1.105,0-2-0.896-2-2c0-6.525,17.037-7.5,27.192-7.5
	c6.849,0,29.192,0.541,29.192,7.5C92.5,75.771,91.604,76.667,90.5,76.667z"/>
<path fill="#3C663E" d="M65.308,84.167c-6.849,0-29.192-0.541-29.192-7.5c0-1.104,0.895-2,2-2c1.027,0,1.874,0.775,1.987,1.772
	c1.045,1.223,8.541,3.728,25.205,3.728c15.87,0,22.418-2.403,23.195-3.616c0.061-1.051,0.932-1.884,1.997-1.884c1.104,0,2,0.896,2,2
	C92.5,83.192,75.463,84.167,65.308,84.167z"/>
<path fill="#3C663E" d="M46.5,38.002c-1.254,0-2.423-0.792-2.844-2.046l-7.313-21.789H18.5c-1.657,0-3-1.343-3-3s1.343-3,3-3h20
	c1.289,0,2.434,0.823,2.844,2.045l8,23.834c0.527,1.571-0.318,3.271-1.889,3.799C47.138,37.951,46.816,38.002,46.5,38.002z"/>
<circle fill="#3C663E" cx="54.5" cy="107.167" r="3"/>
<circle fill="#3C663E" cx="76" cy="99.667" r="2.5"/>
<circle fill="#3C663E" cx="61.5" cy="97.167" r="2"/>
<path fill="#FFBAB0" stroke="#783741" stroke-width="4" stroke-linecap="round" stroke-linejoin="round" stroke-miterlimit="10" d="
	M81.852,35.583"/>
<path fill="#FFBAB0" stroke="#783741" stroke-width="4" stroke-linecap="round" stroke-linejoin="round" stroke-miterlimit="10" d="
	M85.355,10.96"/>
<line fill="#F6E89A" x1="46.5" y1="113.667" x2="39.5" y2="42.667"/>
<path fill="#FFFFFF" d="M46.496,116.667c-1.524,0-2.829-1.157-2.981-2.706l-7-71c-0.163-1.648,1.042-3.117,2.691-3.279
	c1.64-0.164,3.117,1.043,3.279,2.692l7,71c0.163,1.648-1.042,3.117-2.691,3.279C46.694,116.662,46.595,116.667,46.496,116.667z"/>
<path fill="#3C663E" d="M64,123.167c-13.673,0-26.332-1.136-26.498-9.336l-6.987-70.87c-0.01-0.098-0.015-0.195-0.015-0.294
	c0-7.852,18.218-9.5,33.5-9.5c15.282,0,33.5,1.648,33.5,9.5c0,0.112-0.006,0.225-0.019,0.336l-7.983,70.85
	C89.339,121.577,79.185,123.167,64,123.167z M36.553,43.056l6.933,70.316c0.01,0.098,0.015,0.195,0.015,0.294
	c0,0.035,0.234,3.5,20.5,3.5c18.094,0,19.5-2.679,19.5-3.5c0-0.112,0.006-0.225,0.019-0.336l7.919-70.282
	c-1.701-1.399-9.92-3.882-27.437-3.882C46.451,39.167,38.234,41.658,36.553,43.056z"/>
<path fill="#3C663E" d="M64,51.167c-9.772,0-32.5-0.828-32.5-8.5c0-1.104,0.895-2,2-2c1.104,0,2,0.896,2,2
	c0.572,1.351,8.564,4.5,28.5,4.5c19.935,0,27.928-3.149,28.513-4.586c0-1.104,0.89-1.957,1.994-1.957s1.993,0.939,1.993,2.043
	C96.5,50.339,73.771,51.167,64,51.167z"/>
<line fill="#FFBAB0" x1="69.5" y1="78.167" x2="91.355" y2="12.46"/>
<path fill="#783741" d="M69.5,80.168c-0.209,0-0.422-0.033-0.631-0.104c-1.049-0.349-1.615-1.48-1.267-2.528l21.856-65.707
	c0.348-1.048,1.482-1.619,2.528-1.267c1.049,0.349,1.615,1.481,1.267,2.528L71.397,78.798C71.119,79.636,70.338,80.168,69.5,80.168z
	"/>
<path fill="#FFBAB0" d="M67.767,22.63c-1.724,4.722,5.081,11.541,15.198,15.234c10.117,3.691,19.716,2.855,21.438-1.865
	L92.347,13.61L67.767,22.63z"/>
<path fill="#783741" d="M94.899,43.167C94.898,43.167,94.898,43.167,94.899,43.167c-4.026,0-8.509-0.859-12.963-2.484
	c-12.05-4.399-19.353-12.602-16.988-19.081c0.303-0.83,0.956-1.483,1.785-1.788l24.58-9.02c1.4-0.516,2.968,0.081,3.675,1.393
	l12.057,22.389c0.406,0.755,0.471,1.646,0.177,2.451C105.798,40.928,101.306,43.167,94.899,43.167z M70.568,24.797
	c0.643,2.689,5.406,7.322,13.425,10.249c3.748,1.368,7.621,2.121,10.905,2.121h0.001c2.977,0,4.984-0.617,5.991-1.364l-9.952-18.48
	L70.568,24.797z"/>
</svg>
