<?xml version="1.0" encoding="UTF-8"?><svg id="Layer_1" xmlns="http://www.w3.org/2000/svg" xmlns:xlink="http://www.w3.org/1999/xlink" viewBox="0 0 1366 250"><defs><style>.cls-1{fill:#c496ff;}.cls-1,.cls-2,.cls-3,.cls-4,.cls-5,.cls-6,.cls-7,.cls-8{stroke-miterlimit:10;}.cls-1,.cls-3,.cls-5,.cls-6,.cls-8{stroke:#1b1464;stroke-width:3px;}.cls-9,.cls-10,.cls-7{fill:#fff;}.cls-9,.cls-11{stroke:#707070;}.cls-12{fill:#585858;}.cls-13{fill:#daceff;}.cls-14{clip-path:url(#clippath-2);}.cls-2{stroke:#666;}.cls-2,.cls-4,.cls-15{fill:none;}.cls-16,.cls-17,.cls-18{isolation:isolate;}.cls-17{font-size:10.65px;}.cls-17,.cls-18{fill:#707070;font-family:SegoeUI, 'Segoe UI';}.cls-3{fill:#ff75b6;}.cls-4{stroke:#998675;}.cls-5{fill:#f6ff77;}.cls-19{clip-path:url(#clippath-1);}.cls-20{fill:gray;}.cls-21{fill:#c2b8b0;}.cls-22{clip-path:url(#clippath);}.cls-23{fill:#fefcef;}.cls-6{fill:#7eff8e;}.cls-7{stroke:#999;}.cls-24{fill:#8a8a8a;}.cls-25{fill:#d1ffad;}.cls-11{fill:#757575;}.cls-26{fill:#666;}.cls-8{fill:#8ae0ff;}.cls-18{font-size:8.17px;}</style><clipPath id="clippath"><rect class="cls-15" x="1105.79" y="177.02" width="42.69" height="42.6"/></clipPath><clipPath id="clippath-1"><rect class="cls-15" x="1156.31" y="177.02" width="42.69" height="42.6"/></clipPath><clipPath id="clippath-2"><rect class="cls-15" x="1206.82" y="177.02" width="42.69" height="42.6"/></clipPath></defs><g id="ABOUT" class="cls-16"><text class="cls-17" transform="translate(327.17 16.15)"><tspan x="0" y="0">ABOUT</tspan></text></g><rect id="Rectangle_7" class="cls-23" width="1366" height="250"/><g id="Group_4"><g class="cls-22"><g id="Group_3"><path id="Path_1" class="cls-24" d="m1148.05,198.53c0,11.65-9.46,21.09-21.13,21.09s-21.13-9.44-21.13-21.09c0-11.65,9.46-21.09,21.13-21.09,11.67,0,21.13,9.44,21.13,21.09h0"/><path id="Path_2" class="cls-10" d="m1139.4,188.38c-1.07.62-2.23,1.06-3.44,1.29-1.03-1.08-2.46-1.69-3.96-1.68-2.97-.02-5.4,2.36-5.42,5.32,0,0,0,0,0,0,0,.41.05.82.14,1.21-4.34-.2-8.4-2.22-11.17-5.56-.48.81-.74,1.73-.73,2.68,0,1.79.91,3.45,2.41,4.43-.86-.03-1.7-.25-2.45-.67v.07c.02,2.55,1.84,4.74,4.35,5.22-.8.21-1.64.24-2.45.09.73,2.18,2.76,3.66,5.06,3.7-1.93,1.48-4.3,2.28-6.73,2.28-.43,0-.86-.03-1.29-.08,2.49,1.57,5.37,2.4,8.31,2.39,8.38.13,15.29-6.55,15.41-14.92,0-.08,0-.15,0-.23,0-.23,0-.46-.01-.69,1.06-.75,1.97-1.68,2.7-2.76-.99.43-2.04.71-3.11.84,1.13-.66,1.97-1.71,2.38-2.94"/><path id="Path_3" class="cls-24" d="m1148.05,198.53c0,11.65-9.46,21.09-21.13,21.09s-21.13-9.44-21.13-21.09c0-11.65,9.46-21.09,21.13-21.09,11.67,0,21.13,9.44,21.13,21.09h0"/><path id="Path_4" class="cls-10" d="m1139.4,188.38c-1.07.62-2.23,1.06-3.44,1.29-1.03-1.08-2.46-1.69-3.96-1.68-2.97-.02-5.4,2.36-5.42,5.32,0,0,0,0,0,0,0,.41.05.82.14,1.21-4.34-.2-8.4-2.22-11.17-5.56-.48.81-.74,1.73-.73,2.68,0,1.79.91,3.45,2.41,4.43-.86-.03-1.7-.25-2.45-.67v.07c.02,2.55,1.84,4.74,4.35,5.22-.8.21-1.64.24-2.45.09.73,2.18,2.76,3.66,5.06,3.7-1.93,1.48-4.3,2.28-6.73,2.28-.43,0-.86-.03-1.29-.08,2.49,1.57,5.37,2.4,8.31,2.39,8.38.13,15.29-6.55,15.41-14.92,0-.08,0-.15,0-.23,0-.23,0-.46-.01-.69,1.06-.75,1.97-1.68,2.7-2.76-.99.43-2.04.71-3.11.84,1.13-.66,1.97-1.71,2.38-2.94"/><path id="Path_5" class="cls-24" d="m1148.05,198.53c0,11.65-9.46,21.09-21.13,21.09s-21.13-9.44-21.13-21.09c0-11.65,9.46-21.09,21.13-21.09,11.67,0,21.13,9.44,21.13,21.09h0"/><path id="Path_6" class="cls-10" d="m1139.4,188.38c-1.07.62-2.23,1.06-3.44,1.29-1.03-1.08-2.46-1.69-3.96-1.68-2.97-.02-5.4,2.36-5.42,5.32,0,0,0,0,0,0,0,.41.05.82.14,1.21-4.34-.2-8.4-2.22-11.17-5.56-.48.81-.74,1.73-.73,2.68,0,1.79.91,3.45,2.41,4.43-.86-.03-1.7-.25-2.45-.67v.07c.02,2.55,1.84,4.74,4.35,5.22-.8.21-1.64.24-2.45.09.73,2.18,2.76,3.66,5.06,3.7-1.93,1.48-4.3,2.28-6.73,2.28-.43,0-.86-.03-1.29-.08,2.49,1.57,5.37,2.4,8.31,2.39,8.38.13,15.29-6.55,15.41-14.92,0-.08,0-.15,0-.23,0-.23,0-.46-.01-.69,1.06-.75,1.97-1.68,2.7-2.76-.99.43-2.04.71-3.11.84,1.13-.66,1.97-1.71,2.38-2.94"/></g></g></g><g id="Group_6"><g class="cls-19"><g id="Group_5"><path id="Path_7" class="cls-12" d="m1198.99,198.32c0,11.76-9.56,21.3-21.34,21.3s-21.34-9.54-21.34-21.3,9.56-21.3,21.34-21.3,21.34,9.54,21.34,21.3"/><rect id="Rectangle_2" class="cls-10" x="1164.84" y="194.06" width="6.1" height="17.04"/><path id="Path_8" class="cls-10" d="m1167.42,191.22c1.72,0,3.11-1.39,3.11-3.11s-1.39-3.11-3.11-3.11c-1.72,0-3.11,1.39-3.11,3.11,0,1.72,1.39,3.11,3.11,3.11"/><path id="Path_9" class="cls-10" d="m1190.99,201.87c0-4.79-1.03-7.99-6.63-7.99-2.69,0-4.49.99-5.23,2.4h-.08v-2.4h-4.96v17.75h5.18v-8.8c0-2.32.44-4.57,3.32-4.57s3.06,2.65,3.06,4.72v8.65h5.34v-9.75Z"/><path id="Path_10" class="cls-12" d="m1198.99,198.32c0,11.76-9.56,21.3-21.34,21.3s-21.34-9.54-21.34-21.3,9.56-21.3,21.34-21.3,21.34,9.54,21.34,21.3"/><rect id="Rectangle_3" class="cls-10" x="1164.84" y="194.06" width="6.1" height="17.04"/><path id="Path_11" class="cls-10" d="m1167.42,191.22c1.72,0,3.11-1.39,3.11-3.11s-1.39-3.11-3.11-3.11c-1.72,0-3.11,1.39-3.11,3.11,0,1.72,1.39,3.11,3.11,3.11"/><path id="Path_12" class="cls-10" d="m1190.99,201.87c0-4.79-1.03-7.99-6.63-7.99-2.69,0-4.49.99-5.23,2.4h-.08v-2.4h-4.96v17.75h5.18v-8.8c0-2.32.44-4.57,3.32-4.57s3.06,2.65,3.06,4.72v8.65h5.34v-9.75Z"/><path id="Path_13" class="cls-12" d="m1198.99,198.32c0,11.76-9.56,21.3-21.34,21.3s-21.34-9.54-21.34-21.3,9.56-21.3,21.34-21.3,21.34,9.54,21.34,21.3"/><rect id="Rectangle_4" class="cls-10" x="1164.84" y="194.06" width="6.1" height="17.04"/><path id="Path_14" class="cls-10" d="m1167.42,191.22c1.72,0,3.11-1.39,3.11-3.11s-1.39-3.11-3.11-3.11c-1.72,0-3.11,1.39-3.11,3.11,0,1.72,1.39,3.11,3.11,3.11"/><path id="Path_15" class="cls-10" d="m1190.99,201.87c0-4.79-1.03-7.99-6.63-7.99-2.69,0-4.49.99-5.23,2.4h-.08v-2.4h-4.96v17.75h5.18v-8.8c0-2.32.44-4.57,3.32-4.57s3.06,2.65,3.06,4.72v8.65h5.34v-9.75Z"/></g></g></g><g id="Group_8"><g class="cls-14"><g id="Group_7"><path id="Path_16" class="cls-11" d="m1249.51,198.14c0,11.86-9.64,21.48-21.52,21.48s-21.52-9.61-21.52-21.48c0-11.86,9.63-21.48,21.52-21.48,11.89,0,21.52,9.61,21.52,21.48"/><path id="Path_17" class="cls-9" d="m1236.23,184.72h-16.51c-2.87,0-5.19,2.32-5.19,5.19v16.47c0,2.86,2.33,5.18,5.2,5.19h16.5c2.87,0,5.2-2.32,5.2-5.19v-16.47c0-2.86-2.33-5.18-5.2-5.18m1.49,3.1h.59s0,4.55,0,4.55l-4.54.02-.02-4.55h3.97Zm-13.58,7.56c1.53-2.11,4.48-2.58,6.6-1.06,2.11,1.53,2.59,4.47,1.06,6.58-1.53,2.11-4.48,2.58-6.6,1.06-1.23-.89-1.96-2.31-1.96-3.83,0-.99.32-1.95.9-2.75m14.67,10.99c0,1.42-1.16,2.58-2.58,2.58h-16.51c-1.42,0-2.57-1.16-2.57-2.58v-10.99h4.02c-1.53,3.76.28,8.04,4.04,9.57,3.76,1.53,8.06-.28,9.59-4.03.72-1.77.72-3.76,0-5.53h4.02v10.99Z"/><path id="Path_18" class="cls-11" d="m1249.51,198.14c0,11.86-9.64,21.48-21.52,21.48s-21.52-9.61-21.52-21.48c0-11.86,9.63-21.48,21.52-21.48,11.89,0,21.52,9.61,21.52,21.48"/><path id="Path_19" class="cls-9" d="m1236.23,184.72h-16.51c-2.87,0-5.19,2.32-5.19,5.19v16.47c0,2.86,2.33,5.18,5.2,5.19h16.5c2.87,0,5.2-2.32,5.2-5.19v-16.47c0-2.86-2.33-5.18-5.2-5.18m1.49,3.1h.59s0,4.55,0,4.55l-4.54.02-.02-4.55h3.97Zm-13.58,7.56c1.53-2.11,4.48-2.58,6.6-1.06,2.11,1.53,2.59,4.47,1.06,6.58-1.53,2.11-4.48,2.58-6.6,1.06-1.23-.89-1.96-2.31-1.96-3.83,0-.99.32-1.95.9-2.75m14.67,10.99c0,1.42-1.16,2.58-2.58,2.58h-16.51c-1.42,0-2.57-1.16-2.57-2.58v-10.99h4.02c-1.53,3.76.28,8.04,4.04,9.57,3.76,1.53,8.06-.28,9.59-4.03.72-1.77.72-3.76,0-5.53h4.02v10.99Z"/><path id="Path_20" class="cls-11" d="m1249.51,198.14c0,11.86-9.64,21.48-21.52,21.48s-21.52-9.61-21.52-21.48c0-11.86,9.63-21.48,21.52-21.48,11.89,0,21.52,9.61,21.52,21.48"/><path id="Path_21" class="cls-9" d="m1236.23,184.72h-16.51c-2.87,0-5.19,2.32-5.19,5.19v16.47c0,2.86,2.33,5.18,5.2,5.19h16.5c2.87,0,5.2-2.32,5.2-5.19v-16.47c0-2.86-2.33-5.18-5.2-5.18m1.49,3.1h.59s0,4.55,0,4.55l-4.54.02-.02-4.55h3.97Zm-13.58,7.56c1.53-2.11,4.48-2.58,6.6-1.06,2.11,1.53,2.59,4.47,1.06,6.58-1.53,2.11-4.48,2.58-6.6,1.06-1.23-.89-1.96-2.31-1.96-3.83,0-.99.32-1.95.9-2.75m14.67,10.99c0,1.42-1.16,2.58-2.58,2.58h-16.51c-1.42,0-2.57-1.16-2.57-2.58v-10.99h4.02c-1.53,3.76.28,8.04,4.04,9.57,3.76,1.53,8.06-.28,9.59-4.03.72-1.77.72-3.76,0-5.53h4.02v10.99Z"/></g></g></g><g id="HOME" class="cls-16"><text class="cls-18" transform="translate(250.65 40.48)"><tspan x="0" y="0">HOME</tspan></text></g><path id="Path_22" class="cls-21" d="m273.35,39.81c3.12,12.6-43.89,35.09-105.02,50.23-61.12,15.14-113.2,17.2-116.32,4.6s43.89-35.09,105.02-50.23c61.12-15.14,113.2-17.2,116.32-4.6"/><path id="Path_23" class="cls-25" d="m272.72,36.65c3.12,12.6-43.89,35.09-105.02,50.23-61.12,15.14-113.2,17.2-116.32,4.6-3.12-12.6,43.89-35.09,105.02-50.23,61.12-15.14,113.2-17.2,116.32-4.6"/><path id="Path_27" class="cls-13" d="m69.29,67.63v-29.48c0-3.83,2.06-5.89,5.89-5.89h7.72c3.83,0,5.89,2.06,5.89,5.89v29.48c0,3.83-2.06,5.9-5.89,5.9h-7.72c-3.83,0-5.89-2.06-5.89-5.9"/><path id="Path_28" class="cls-13" d="m92.93,52.83c0-12.5,9.67-21.57,22.75-21.57,5.12-.08,10.13,1.47,14.3,4.44,1.65,1.24,2.15,3.91-.14,5.19l-2.03,1.13c-2.96,1.64-5.09-.51-7.79-.51-3.02,0-5.25,2.1-5.25,4.98s2.23,5,5.25,5c2.03,0,3.41-1.12,4.59-2.45,1.64-1.86,2.88-1.99,5.04-1.99h4.13c3.43,0,4.66,2.67,4.66,5.78,0,12.56-9.67,21.63-22.75,21.63s-22.75-9.08-22.75-21.63"/><path id="Path_29" class="cls-13" d="m141.39,52.83c0-12.5,9.67-21.57,22.75-21.57s22.75,9.08,22.75,21.57-9.67,21.63-22.75,21.63-22.75-9.08-22.75-21.63m32.17-6.42c0-2.88-2.23-4.98-5.26-4.98s-5.25,2.1-5.25,4.98,2.23,5,5.25,5,5.26-2.1,5.26-5"/><path id="Path_30" class="cls-13" d="m191.02,67.63v-30.98c0-4.64,4.6-6.32,8.39-3.67l12.59,8.8v-3.63c0-3.83,2.06-5.89,5.9-5.89h7.72c3.83,0,5.9,2.06,5.9,5.89v29.47c0,3.83-2.06,5.9-5.9,5.9h-28.71c-3.83,0-5.9-2.06-5.9-5.9m19.61-6.66c0-2.88-2.23-4.98-5.26-4.98s-5.25,2.1-5.25,4.98,2.23,5,5.25,5,5.26-2.1,5.26-5"/><path id="Path_31" class="cls-13" d="m236.23,67.63v-6.75c0-4.13,1.3-5.69,5.1-5.69h2.27c1.5,0,1.35-.96.29-2.17l-1.61-1.83c-2.63-2.99-3.87-5.96-3.86-8.67.02-6.04,4.29-10.26,12.75-10.26h14.91c3.83,0,5.9,2.06,5.9,5.9v6.54c0,4.09-1.47,5.89-4.8,5.89h-2.3c-1.37,0-1.1.91-.21,1.97l1.72,2.03c2.59,3.06,3.88,5.99,3.86,8.68-.05,6.05-4.31,10.24-12.89,10.24h-15.23c-3.83,0-5.9-2.06-5.9-5.9"/><path id="Path_32" class="cls-5" d="m62.96,70.58v-29.47c0-3.83,2.06-5.89,5.89-5.89h7.72c3.83,0,5.89,2.06,5.89,5.89v29.47c0,3.83-2.06,5.9-5.89,5.9h-7.72c-3.83,0-5.89-2.06-5.89-5.9"/><path id="Rectangle_8" class="cls-4" d="m67.9,35.22h9.63c2.73,0,4.94,2.21,4.94,4.94h0v31.38c0,2.73-2.21,4.94-4.94,4.94h-9.62c-2.73,0-4.94-2.21-4.94-4.94v-31.38c0-2.73,2.21-4.94,4.94-4.94h0Z"/><path id="Path_33" class="cls-8" d="m86.6,55.79c0-12.5,9.67-21.57,22.75-21.57,5.12-.08,10.13,1.47,14.3,4.44,1.65,1.24,2.15,3.91-.14,5.19l-2.03,1.13c-2.96,1.64-5.09-.51-7.79-.51-3.02,0-5.25,2.1-5.25,4.98s2.23,5,5.25,5c2.03,0,3.41-1.12,4.59-2.45,1.65-1.86,2.88-1.99,5.04-1.99h4.13c3.43,0,4.66,2.67,4.66,5.78,0,12.56-9.67,21.63-22.75,21.63s-22.75-9.08-22.75-21.63"/><path id="Path_34" class="cls-4" d="m86.6,55.79c0-12.5,9.67-21.57,22.75-21.57,5.12-.08,10.13,1.47,14.3,4.44,1.65,1.24,2.15,3.91-.14,5.19l-2.03,1.13c-2.96,1.64-5.09-.51-7.79-.51-3.02,0-5.25,2.1-5.25,4.98s2.23,5,5.25,5c2.03,0,3.41-1.12,4.59-2.45,1.65-1.86,2.88-1.99,5.04-1.99h4.13c3.43,0,4.66,2.67,4.66,5.78,0,12.56-9.67,21.63-22.75,21.63s-22.75-9.08-22.75-21.63Z"/><path id="Path_35" class="cls-3" d="m135.05,55.79c0-12.5,9.67-21.57,22.75-21.57s22.75,9.08,22.75,21.57-9.67,21.63-22.75,21.63-22.75-9.08-22.75-21.63m32.17-6.43c0-2.88-2.23-4.98-5.26-4.98s-5.25,2.1-5.25,4.98,2.23,5,5.25,5,5.26-2.1,5.26-5"/><path id="Path_36" class="cls-4" d="m135.05,55.79c0-12.5,9.67-21.57,22.75-21.57s22.75,9.08,22.75,21.57-9.67,21.63-22.75,21.63-22.75-9.08-22.75-21.63Zm32.17-6.43c0-2.88-2.23-4.98-5.26-4.98s-5.25,2.1-5.25,4.98,2.23,5,5.25,5,5.26-2.1,5.26-5Z"/><path id="Path_37" class="cls-6" d="m184.68,70.58v-30.98c0-4.64,4.6-6.32,8.39-3.67l12.59,8.8v-3.63c0-3.83,2.06-5.89,5.9-5.89h7.72c3.83,0,5.9,2.06,5.9,5.89v29.47c0,3.83-2.06,5.9-5.9,5.9h-28.71c-3.83,0-5.9-2.06-5.9-5.9m19.61-6.66c0-2.88-2.23-4.98-5.26-4.98s-5.25,2.1-5.25,4.98,2.23,5,5.25,5,5.26-2.1,5.26-5"/><path id="Path_38" class="cls-4" d="m184.68,70.58v-30.98c0-4.64,4.6-6.32,8.39-3.67l12.59,8.8v-3.63c0-3.83,2.06-5.89,5.9-5.89h7.72c3.83,0,5.9,2.06,5.9,5.89v29.47c0,3.83-2.06,5.9-5.9,5.9h-28.71c-3.83,0-5.9-2.06-5.9-5.9Zm19.61-6.66c0-2.88-2.23-4.98-5.26-4.98s-5.25,2.1-5.25,4.98,2.23,5,5.25,5,5.26-2.1,5.26-5h0Z"/><path id="Path_39" class="cls-1" d="m229.9,70.58v-6.75c0-4.13,1.3-5.69,5.1-5.69h2.27c1.5,0,1.35-.96.29-2.17l-1.61-1.83c-2.63-2.99-3.87-5.96-3.86-8.67.02-6.04,4.29-10.26,12.75-10.26h14.91c3.83,0,5.9,2.06,5.9,5.9v6.54c0,4.09-1.47,5.89-4.8,5.89h-2.3c-1.37,0-1.1.91-.21,1.97l1.72,2.03c2.59,3.06,3.88,5.99,3.86,8.68-.05,6.05-4.31,10.24-12.89,10.24h-15.23c-3.83,0-5.9-2.06-5.9-5.9"/><path id="Path_40" class="cls-4" d="m229.9,70.58v-6.75c0-4.13,1.3-5.69,5.1-5.69h2.27c1.5,0,1.35-.96.29-2.17l-1.61-1.83c-2.63-2.99-3.87-5.96-3.86-8.67.02-6.04,4.29-10.26,12.75-10.26h14.91c3.83,0,5.9,2.06,5.9,5.9v6.54c0,4.09-1.47,5.89-4.8,5.89h-2.3c-1.37,0-1.1.91-.21,1.97l1.72,2.03c2.59,3.06,3.88,5.99,3.86,8.68-.05,6.05-4.31,10.24-12.89,10.24h-15.23c-3.83,0-5.9-2.06-5.9-5.89Z"/><rect id="Rectangle_9" class="cls-15" x="51.23" y="28.39" width="232.21" height="89.78"/><ellipse class="cls-20" cx="1179.76" cy="83.7" rx="84" ry="23.5"/><rect class="cls-7" x="451.44" y="77" width="486" height="29"/><g><path class="cls-26" d="m346.28,54.4v.07c-.07.47-.27.84-.57,1.17h.02c-.77.85-2.76,1.67-3.9,1.94-.84.17-1.74.27-2.66.27-.7,0-1.39-.07-2.11-.25h.02c-1.02-.3-2.11-.65-2.56-1.44-.1-.15-.2-.27-.3-.47l.62-.45c.89.65,2.16.89,3.21.94,1.27.05,2.76-.1,4.03-.4.47-.07,1.17-.55,1.72-.9h-.05c.22-.07.32-.3.35-.52.05-.32-.15-.65-.37-.85-.89-.67-2.61-1.12-4.18-1.47l-.4-.07c-.72-.15-1.39-.32-2.06-.57-.6-.22-1.99-.82-2.36-1.27l.02.1-.05-.07-.05-.2c-.17-.2-.3-.45-.32-.57-.12-.45-.02-.92.12-1.34.42-1.29,1.77-2.49,2.98-3.18.62-.37,1.74-.87,2.66-.87.4,0,.85.12,1.22.27h.37c.52.22.7.62.82.94.05.15.07.27.22.42.17.75-.32,1.09-.8,1.39-.1.05-.17.1-.52.47l-.42-.42c0-.17-.05-.32-.05-.5.07-.07.05-.22.05-.4-.3-.22-.6-.35-.87-.22l-.27.07c-.47.12-1.19.32-1.64.62-.62.42-1.29,1.04-1.59,1.52l-.37.7c.2.4.65.65.99.75.15.05.35.12.5.15.6.22,1.17.4,1.84.52,1.69.27,4.45,1.09,5.72,2.19.45.47.87,1.17.99,1.91Z"/><path class="cls-26" d="m360.78,57.06c0,.6-.92.85-1.34.85-.77,0-1.29-.55-1.74-1.17v.02l-.12-.2c-.22-.42-.52-1.24-.77-2.01l-.27.05c-.65,1.14-1.91,1.86-3.11,2.06-.35.07-.82.12-1.27.12-.37,0-.72-.02-1.07-.15l-.3-.07c-.92-.25-2.44-.99-2.91-2.24-.62-1.71-.6-3.31-.6-5.12v-.65c-.15-.37-.25-.77-.25-1.12,0-.12.07-.45.1-.65.02-.15.05-.37.05-.55,0-.05,0-.15-.02-.22l-.02-.17c0-.5.55-.9,1.09-.9.77,0,1.22.67,1.22,1.81,0,.32-.02.7-.07,1.04-.02.32-.07.67-.07.97,0,1.99-.07,6.41,3.01,6.41,2.46,0,3.28-2.76,3.55-4.85.02-.4.05-.77.05-1.12,0-.42-.02-.94-.07-1.34v-.12s.02-.1.02-.15c0-.27-.05-.52-.12-.75-.05-.2-.07-.42-.07-.65,0-.52.25-1.42,1.07-1.42.92,0,1.04.7,1.14,1.27.05.22.05.4.15.6.17,1.34.2,2.39.27,3.33.02.65.05,1.44.12,2.31.1,1.02.72,3.53,1.49,4.15h.25l.42.15c.12.17.2.32.2.45Z"/><path class="cls-26" d="m370.18,57.11c-.35.2-.55.35-.72.47-.7.42-1.84.67-2.93.67-.42,0-.92-.02-1.29-.07-1.04-.2-2.19-.52-2.76-1.09-.55-.02-1.27-.1-1.44-.85-.15-.5-.27-1.17-.07-1.67l-.02-.35v-.27c-.02-.67-.05-1.54-.05-2.21l-.02-2.98v-.22c0-.65,0-1.54.85-2.09.32-.07.57-.07.77.02l.2-.22c.8-.97,1.79-2.24,3.11-2.24.5,0,1.14.22,1.59.45.25.17.97.75,1.17,1.04.47.72.67,1.47.67,2.21,0,.42-.1.97-.27,1.64h.45c.89,0,1.91.22,2.41,1.12.62.77.97,1.81.97,2.81,0,.72-.15,1.42-.47,2.04v-.02c-.52.85-1.32,1.34-2.11,1.81Zm-.1-5.2c-.1-.05-.17-.12-.22-.17-.12-.07-.2-.17-.4-.05-.4-.1-.67-.12-.94-.12-.97,0-1.99.42-2.96.87l-.17.07h.02l-.8.35.05-.02c-.15,0-.37.02-.5.05-.37.05-.72.1-1.19.02.02,1.02.2,1.91.6,2.81.89.45,1.84.85,2.71.72.99-.17,2.29-.67,3.21-1.32.57-.5,1.02-1.12,1.02-1.86,0-.4-.15-.85-.42-1.34Zm-2.73-4.23c.05-.4-.12-.67-.32-.87-.07-.07-.25-.5-.67-.75-1.04-.17-2.83,1.69-3.18,2.63l-.07.9c-.02.27-.05.42-.07.52-.02.12-.05.15,0,.8l.75-.17c.72-.3,1.89-.45,2.51-1.02.4-.37.92-.94,1.07-2.04Z"/><path class="cls-26" d="m385.67,54.4v.07c-.07.47-.27.84-.57,1.17h.02c-.77.85-2.76,1.67-3.9,1.94-.84.17-1.74.27-2.66.27-.7,0-1.39-.07-2.11-.25h.02c-1.02-.3-2.11-.65-2.56-1.44-.1-.15-.2-.27-.3-.47l.62-.45c.89.65,2.16.89,3.21.94,1.27.05,2.76-.1,4.03-.4.47-.07,1.17-.55,1.72-.9h-.05c.22-.07.32-.3.35-.52.05-.32-.15-.65-.37-.85-.89-.67-2.61-1.12-4.18-1.47l-.4-.07c-.72-.15-1.39-.32-2.06-.57-.6-.22-1.99-.82-2.36-1.27l.02.1-.05-.07-.05-.2c-.17-.2-.3-.45-.32-.57-.12-.45-.02-.92.12-1.34.42-1.29,1.77-2.49,2.98-3.18.62-.37,1.74-.87,2.66-.87.4,0,.85.12,1.22.27h.37c.52.22.7.62.82.94.05.15.07.27.22.42.17.75-.32,1.09-.8,1.39-.1.05-.17.1-.52.47l-.42-.42c0-.17-.05-.32-.05-.5.07-.07.05-.22.05-.4-.3-.22-.6-.35-.87-.22l-.27.07c-.47.12-1.19.32-1.64.62-.62.42-1.29,1.04-1.59,1.52l-.37.7c.2.4.65.65.99.75.15.05.35.12.5.15.6.22,1.17.4,1.84.52,1.69.27,4.45,1.09,5.72,2.19.45.47.87,1.17.99,1.91Z"/><path class="cls-26" d="m397.08,56.09c-.55.1-1.44.55-1.84.72-.77.42-1.64.89-2.83.82-2.01-.15-3.33-.57-4.82-1.86-.6-.57-1.04-1.74-1.24-2.83-.2-1.74.7-5.34,1.62-6.94.77-1.32,2.41-2.34,4.25-2.34.32,0,.67.02.97.07l-.02-.02.4.17h-.02c.22.15.45.32.97.4.2.4.47.67.67.85l.12.1c.32.35.65.57.82,1.12-.12.25-.15.52-.17.72v.15c-.02.62-.1,1.24-1.04,1.49-.42.12-.75-.1-.99-.27l-.07-.07c-.07-.07-.22-.15-.4-.25-.12-.27-.2-.55-.27-.8l-.1-.32v.05l-.05-.22c-.15-.57-.32-1.09-.77-1.49-.8.05-2.41,1.19-2.54,1.76-.6.92-1.04,3.01-1.04,4.82,0,1.27.2,2.39.62,2.78.85.87,1.99,1.12,3.16,1.12.42,0,.84-.02,1.27-.1.3-.07,3.28-1.12,3.9-1.94.2-.1.25-.22.35-.42l.1-.17v.02c.2-.35.4-.7.87-.87l.65.3c.25,1.39-1.29,2.59-2.49,3.46Z"/><path class="cls-26" d="m411.57,55.55c0,1.17-1.74,1.67-2.81,1.67-.32,0-.67-.02-1.02-.05-.35-.02-.8-.07-1.12-.07-.4-.17-.8-.32-1.27-.5-.94-.37-1.99-.8-3.48-1.59.12.52.2.97.2,1.37,0,.47-.25,1.04-.87,1.39-.4-.07-.7-.2-.82-.3l-.42-.27c-.35-2.26-.55-4.67-.75-6.91-.1-1.24-.2-2.51-.35-3.65.02-.35.2-1.37,1.47-1.37h.25c.42-.5.92-.75,1.44-1.02l.1-.02.15-.02.55-.15c.22,0,.47-.02.72-.02.27-.02.57-.02.85-.02,1.59,0,3.36.77,4.1,2.16.22.4.27.8.27,1.14,0,.42-.07.82-.2,1.17l-.27.55h.02c-.52,1.09-1.12,2.04-2.19,2.91-.7.55-1.39.85-1.99,1.07l-.97.32,2.11,1.04c1.04.55,2.49,1.22,3.55,1.22.35,0,.7,0,1.04-.12l.7-.47h.57c.32.2.42.37.42.57Zm-4.95-7.8c0-.82-.25-1.27-.87-1.67-.12-.07-.35-.22-.5-.3-.22-.12-.47-.2-.67-.2-.25,0-.5.02-.72.07l-.17.05c-1.42.32-1.62.45-1.94,1.37-.12.42-.17.9-.17,1.42,0,.32,0,.75.02,1.04,0,.35.02.67.02.97,0,.37-.02.7-.05.94.05.12.05.27.05.37.17,0,.32,0,.4-.02.82-.15,1.54-.32,2.36-.94l.27-.22c.12-.07.35-.3.52-.45l.1-.02c.27-.27.5-.6.7-.97.02-.07.05-.12.17-.3l.4-.62h-.02c.07-.12.1-.3.1-.52Z"/><path class="cls-26" d="m415.45,54.38c.07.42.15.87.15,1.37,0,.75-.2,1.47-.94,1.79v-.02c-.47.17-1.27-.15-1.34-.72l-.07-.55c-.05-.5-.1-1.12-.1-1.59.02-.42-.02-1.02-.07-1.52l-.02-.25c-.05-.4-.07-.9-.07-1.34-.02-.77-.22-2.24-.42-3.53-.02-.27-.07-.55-.12-.75v.02c-.07-.42-.12-.92-.17-1.44l-.02.07c0-.07-.02-.12-.02-.17-.02-.25-.07-.57-.07-.77,0-.27.07-.57.32-.77h-.02c.3-.2.57-.3.82-.3.52,0,.9.37,1.04.99.3,1.17.42,2.63.55,4.1v-.02l.05.62c.15,1.52.32,3.11.47,4.2l.07.4.02.17Z"/><path class="cls-26" d="m426.76,57.11c-.35.2-.55.35-.72.47-.7.42-1.84.67-2.93.67-.42,0-.92-.02-1.29-.07-1.04-.2-2.19-.52-2.76-1.09-.55-.02-1.27-.1-1.44-.85-.15-.5-.27-1.17-.07-1.67l-.02-.35v-.27c-.02-.67-.05-1.54-.05-2.21l-.02-2.98v-.22c0-.65,0-1.54.85-2.09.32-.07.57-.07.77.02l.2-.22c.8-.97,1.79-2.24,3.11-2.24.5,0,1.14.22,1.59.45.25.17.97.75,1.17,1.04.47.72.67,1.47.67,2.21,0,.42-.1.97-.27,1.64h.45c.89,0,1.91.22,2.41,1.12.62.77.97,1.81.97,2.81,0,.72-.15,1.42-.47,2.04v-.02c-.52.85-1.32,1.34-2.11,1.81Zm-.1-5.2c-.1-.05-.17-.12-.22-.17-.12-.07-.2-.17-.4-.05-.4-.1-.67-.12-.94-.12-.97,0-1.99.42-2.96.87l-.17.07h.02l-.8.35.05-.02c-.15,0-.37.02-.5.05-.37.05-.72.1-1.19.02.02,1.02.2,1.91.6,2.81.89.45,1.84.85,2.71.72.99-.17,2.29-.67,3.21-1.32.57-.5,1.02-1.12,1.02-1.86,0-.4-.15-.85-.42-1.34Zm-2.73-4.23c.05-.4-.12-.67-.32-.87-.07-.07-.25-.5-.67-.75-1.04-.17-2.83,1.69-3.18,2.63l-.07.9c-.02.27-.05.42-.07.52-.02.12-.05.15,0,.8l.75-.17c.72-.3,1.89-.45,2.51-1.02.4-.37.92-.94,1.07-2.04Z"/><path class="cls-26" d="m440.49,55.79l-.17.17c-1.52.82-2.24,1.07-4.8,1.07-1.07,0-1.64-.3-2.34-.62v-.02l-.3-.15.02.02c-.9-.4-1.67-1.04-2.04-1.94v.02c-.1-.35-.15-.62-.15-.85,0-1.02.99-2.14,1.79-2.91-1.17-.62-2.56-1.59-2.56-3.06,0-.57.22-1.17.55-1.64,1.24-.77,3.08-1.52,4.7-1.52,1.04,0,1.99.27,3.18,1.34l-.22.17c0,.35,0,.72-.42.72-.22,0-.57-.05-.99-.22-.32,0-.62,0-.94-.02-.3,0-.6-.02-.9-.02-1.09,0-2.11.15-2.81,1.04,0,.3.07.42.15.52l.3.37c.55.5,1.22.75,2.01.75.47,0,.94-.05,1.34-.17.3-.02.52-.2.77-.4.27-.22.6-.47.99-.47h.12c.3-.17.62-.17.99-.17h.42c.42.4.75.89.75,1.39,0,.02,0,.17-.02.25-.89.82-2.19,1.17-3.23,1.42-1.14.22-2.36.55-3.11,1.54-.3.27-.65.65-.65,1.07,0,1.04,1.17,1.37,1.94,1.54.47.05.97.07,1.47.07s1.12,0,1.62-.07h.1l.35-.17-.02.02c.8-.3,1.67-.65,2.29-1.96.3.25.6.4.89.6l.2.35c-.02.72-.72,1.57-1.27,1.94Z"/></g><g><path class="cls-26" d="m1132.72,149.96c-.17.07-.27.12-.37.12-.2,0-.35-.17-.47-.42l-4.13.8c-.52.35-1.04.42-1.57.5-.4.05-.94.15-1.37.32l-.25.02c0,.94.25,2.96.5,3.73.52-.07,1.22-.12,1.76-.17.75-.05,1.59-.1,2.49-.32.42-.15.89-.17,1.37-.17.62,0,1.71.02,1.71.65,0,.32-.22.55-.47.8l-.02.02c-.08,0-.22.1-.5.2v-.02c-.82.3-2.63.89-5.1.89h-.62c-.12,0-.17,0-.42.15.1.55.1.97.1,1.42,0,.25-.02.52-.02.8v.7c0,.67.1,1.39.37,1.91-.17.57-.5,1.09-1.47,1.22-.17-.02-.42-.22-.57-.4h.02c-.5-.55-.62-3.03-.72-4.82-.05-.7-.1-1.37-.15-1.72v-.15s.03-.15.03-.22c0-.94-.22-2.01-.45-3.03-.2-.9-.4-1.74-.4-2.34,0-.9.8-.99,1.29-.99.12,0,.3.02.45.05.15.02.37.02.52.02.8,0,1.67-.25,2.39-.45l.52-.12c1.52-.37,2.86-.6,4.28-.75l.42.12c.65.1,1.34.3,1.34.75,0,.17-.1.45-.27.77l-.25.15h.02Z"/><path class="cls-26" d="m1133.89,155.08c0-2.58,2.76-6.46,5.05-6.46.4,0,.6.07.79.15h-.03l.27.1.32.1c.2.22.42.5.82.65.15.3.32.35.57.37.6.02,1.22.07,1.69.62.05.1.35.35.42.42,1.37,1.52,2.59,2.96,2.59,5.39,0,2.83-3.01,6.06-5.97,6.06-3.85,0-6.54-2.73-6.54-7.41Zm7.41-3.78c0,.17-.03.45-.12.77-.22-.12-.42-.35-.52-.55l-.35.3c-.35-.32-.6-.75-.62-.99l-.05-.2-.15-.25-.5.25h.03s-.3.15-.75.27c-.15.05-.25.25-.37.42l-.15.17-.15.22v-.02l-.2.27c-.7.82-1.22,1.57-1.22,2.98,0,2.93,1.59,5.54,4.13,5.54,1.86,0,3.78-2.26,3.78-4.15,0-1.74-1.32-3.9-2.78-5.05Z"/><path class="cls-26" d="m1157.65,160.57c-1.04.75-2.06,1.17-3.28,1.17-.5,0-1.12-.02-1.59-.07l-.52-.02c-.32-.02-.7-.05-.99-.05-.25,0-.47,0-.7.02-.27.32-.62.4-.99.4-.25,0-.55-.1-.8-.25l-.45-.57c-.1-.77-.12-1.44-.12-2.14,0-.62,0-1.29.02-1.89,0-.2.03-.52.03-.8v-.75c0-.62-.07-1.39-.15-2.01l-.03-.25c-.07-.67-.15-1.39-.15-2.09v-.12c0-.77,0-1.91,1.09-1.91.57,0,1.24.4,1.24.99,0,.42.02.85.05,1.12,0,.12.03.27.03.4.05.52.1,1.14.07,2.96-.02.4-.02.84-.02,1.29,0,.82-.05,1.49.12,3.46,0,.05-.05.12-.22.3.77-.07.94-.07,1.17-.07.55,0,1.19.07,1.71.15.07,0,.17.02.3.02l.9.1c1.04-.2,2.39-.5,2.86-1.64.27-.4.67-.62,1.14-.75.37.3.47.52.47.67.05.6-.32,1.22-.7,1.89-.1.1-.42.25-.5.45Z"/><path class="cls-26" d="m1169.76,160.57c-1.04.75-2.06,1.17-3.28,1.17-.5,0-1.12-.02-1.59-.07l-.52-.02c-.32-.02-.7-.05-.99-.05-.25,0-.47,0-.7.02-.27.32-.62.4-.99.4-.25,0-.55-.1-.79-.25l-.45-.57c-.1-.77-.12-1.44-.12-2.14,0-.62,0-1.29.03-1.89,0-.2.02-.52.02-.8v-.75c0-.62-.08-1.39-.15-2.01l-.02-.25c-.08-.67-.15-1.39-.15-2.09v-.12c0-.77,0-1.91,1.09-1.91.57,0,1.24.4,1.24.99,0,.42.02.85.05,1.12,0,.12.02.27.02.4.05.52.1,1.14.08,2.96-.03.4-.03.84-.03,1.29,0,.82-.05,1.49.12,3.46,0,.05-.05.12-.22.3.77-.07.95-.07,1.17-.07.55,0,1.19.07,1.72.15.07,0,.17.02.3.02l.89.1c1.04-.2,2.39-.5,2.86-1.64.27-.4.67-.62,1.14-.75.37.3.47.52.47.67.05.6-.32,1.22-.7,1.89-.1.1-.42.25-.5.45Z"/><path class="cls-26" d="m1172.03,155.08c0-2.58,2.76-6.46,5.05-6.46.4,0,.6.07.79.15h-.03l.27.1.32.1c.2.22.42.5.82.65.15.3.32.35.57.37.6.02,1.22.07,1.69.62.05.1.35.35.42.42,1.37,1.52,2.59,2.96,2.59,5.39,0,2.83-3.01,6.06-5.97,6.06-3.85,0-6.54-2.73-6.54-7.41Zm7.41-3.78c0,.17-.03.45-.12.77-.22-.12-.42-.35-.52-.55l-.35.3c-.35-.32-.6-.75-.62-.99l-.05-.2-.15-.25-.5.25h.03s-.3.15-.75.27c-.15.05-.25.25-.37.42l-.15.17-.15.22v-.02l-.2.27c-.7.82-1.22,1.57-1.22,2.98,0,2.93,1.59,5.54,4.13,5.54,1.86,0,3.78-2.26,3.78-4.15,0-1.74-1.32-3.9-2.78-5.05Z"/><path class="cls-26" d="m1202.06,160.92c-.55.47-2.49.87-3.51.87-1.27-.02-3.03-.72-3.95-1.64-.17-.25-.22-.15-.8-1.19-.2.45-.47.87-.77,1.09-.17.17-.32.37-.47.57-.15.22-.4.55-.67.8l-.52.4-.07.07v-.02c-.37.32-.75.57-1.19.8-.27.15-.6.22-.99.22-1.17,0-2.24-.92-2.71-1.84-.32-.77-.47-1.69-.47-2.61,0-1.14.17-2.31.35-3.41,0-.05.02-.15.02-.22.1-.55.17-1.12.22-1.62,0-.5.07-.89.12-1.34,0-.05.03-.15.03-.25.07-.45.22-1.27.67-1.27.2,0,.47.1.79.4.65.6.62,1.79.57,2.46,0,.25-.07.5-.22.85,0,.1-.05.27-.05.37v-.02l-.12.89c0,.1-.05.22-.05.32-.15.85-.32,1.89-.32,2.63,0,.7.1,1.37.37,1.86.27.52.5.82.67.82s.45-.1.8-.3h-.03c1.09-.47,1.86-1.62,2.59-2.63.65-.94.94-2.19.82-3.26-.05-.45-.03-1.09.05-1.62.07-.57.57-.87,1.07-.87.42,0,.87.2,1,.62v-.02c.1.5.15,1.07.15,1.67s-.08,1.27-.15,1.86l-.1.82c.4,1.24,1.34,2.54,2.58,2.71.22.02.55.05.79.05.8,0,1.62-.15,2.21-.6h-.03c.4-.27.47-.82.55-1.44v-.12s.03-.05.03-.07c.03-.25.05-.6.05-.82,0-.89-.2-1.99-.37-2.96-.2-.84-.45-1.57-.7-2.14v.02c-.1-.27-.25-.55-.35-.82-.17-.47-.37-.7-.57-.92-.05-.02-.22-.2-.27-.25-.1-.32.15-.87.65-.87,1.19,0,1.52.85,1.84,1.64v-.02c.1.32.35.77.62,1.09.1.92.3,1.67.52,2.46l.12.5c.25.85.45,1.71.5,2.41.08,1.39-.05,2.81-1.29,3.88Z"/><path class="cls-26" d="m1224.66,162.06c0,.6-.92.85-1.34.85-.77,0-1.29-.55-1.74-1.17v.02l-.12-.2c-.22-.42-.52-1.24-.77-2.01l-.27.05c-.65,1.14-1.91,1.86-3.11,2.06-.35.07-.82.12-1.27.12-.37,0-.72-.02-1.07-.15l-.3-.07c-.92-.25-2.44-.99-2.91-2.24-.62-1.71-.6-3.31-.6-5.12v-.65c-.15-.37-.25-.77-.25-1.12,0-.12.07-.45.1-.65.03-.15.05-.37.05-.55,0-.05,0-.15-.02-.22l-.03-.17c0-.5.55-.9,1.09-.9.77,0,1.22.67,1.22,1.81,0,.32-.02.7-.08,1.04-.02.32-.07.67-.07.97,0,1.99-.07,6.41,3.01,6.41,2.46,0,3.28-2.76,3.55-4.85.03-.4.05-.77.05-1.12,0-.42-.02-.94-.08-1.34v-.12s.03-.1.03-.15c0-.27-.05-.52-.12-.75-.05-.2-.07-.42-.07-.65,0-.52.25-1.42,1.07-1.42.92,0,1.04.7,1.14,1.27.05.22.05.4.15.6.17,1.34.2,2.39.27,3.33.03.65.05,1.44.12,2.31.1,1.02.72,3.53,1.49,4.15h.25l.42.15c.12.17.2.32.2.45Z"/><path class="cls-26" d="m1236.52,159.4v.07c-.08.47-.27.84-.57,1.17h.02c-.77.85-2.76,1.67-3.9,1.94-.84.17-1.74.27-2.66.27-.7,0-1.39-.07-2.11-.25h.02c-1.02-.3-2.11-.65-2.56-1.44-.1-.15-.2-.27-.3-.47l.62-.45c.89.65,2.16.89,3.21.94,1.27.05,2.76-.1,4.03-.4.47-.07,1.17-.55,1.72-.9h-.05c.22-.07.32-.3.35-.52.05-.32-.15-.65-.37-.85-.89-.67-2.61-1.12-4.18-1.47l-.4-.07c-.72-.15-1.39-.32-2.06-.57-.6-.22-1.99-.82-2.36-1.27l.02.1-.05-.07-.05-.2c-.17-.2-.3-.45-.32-.57-.12-.45-.03-.92.12-1.34.42-1.29,1.76-2.49,2.98-3.18.62-.37,1.74-.87,2.66-.87.4,0,.84.12,1.22.27h.37c.52.22.7.62.82.94.05.15.07.27.22.42.17.75-.32,1.09-.8,1.39-.1.05-.17.1-.52.47l-.42-.42c0-.17-.05-.32-.05-.5.07-.07.05-.22.05-.4-.3-.22-.6-.35-.87-.22l-.27.07c-.47.12-1.19.32-1.64.62-.62.42-1.29,1.04-1.59,1.52l-.37.7c.2.4.65.65.99.75.15.05.35.12.5.15.6.22,1.17.4,1.84.52,1.69.27,4.45,1.09,5.72,2.19.45.47.87,1.17,1,1.91Z"/></g><g><path class="cls-10" d="m1147.84,91.09c-.55.1-1.44.55-1.84.72-.77.42-1.64.89-2.83.82-2.01-.15-3.33-.57-4.82-1.86-.6-.57-1.04-1.74-1.24-2.83-.2-1.74.7-5.34,1.62-6.94.77-1.32,2.41-2.34,4.25-2.34.32,0,.67.02.97.07l-.03-.02.4.17h-.03c.22.15.45.32.97.4.2.4.47.67.67.85l.12.1c.32.35.65.57.82,1.12-.12.25-.15.52-.17.72v.15c-.02.62-.1,1.24-1.04,1.49-.42.12-.75-.1-.99-.27l-.07-.07c-.07-.07-.22-.15-.4-.25-.12-.27-.2-.55-.27-.8l-.1-.32v.05l-.05-.22c-.15-.57-.32-1.09-.77-1.49-.79.05-2.41,1.19-2.54,1.76-.6.92-1.04,3.01-1.04,4.82,0,1.27.2,2.39.62,2.78.84.87,1.99,1.12,3.16,1.12.42,0,.85-.02,1.27-.1.3-.07,3.28-1.12,3.9-1.94.2-.1.25-.22.35-.42l.1-.17v.02c.2-.35.4-.7.87-.87l.65.3c.25,1.39-1.29,2.59-2.49,3.46Z"/><path class="cls-10" d="m1150.15,85.08c0-2.58,2.76-6.46,5.05-6.46.4,0,.6.07.79.15h-.03l.27.1.32.1c.2.22.42.5.82.65.15.3.32.35.57.37.6.02,1.22.07,1.69.62.05.1.35.35.42.42,1.37,1.52,2.59,2.96,2.59,5.39,0,2.83-3.01,6.06-5.97,6.06-3.85,0-6.54-2.73-6.54-7.41Zm7.41-3.78c0,.17-.03.45-.12.77-.22-.12-.42-.35-.52-.55l-.35.3c-.35-.32-.6-.75-.62-.99l-.05-.2-.15-.25-.5.25h.03s-.3.15-.75.27c-.15.05-.25.25-.37.42l-.15.17-.15.22v-.02l-.2.27c-.7.82-1.22,1.57-1.22,2.98,0,2.93,1.59,5.54,4.13,5.54,1.86,0,3.78-2.26,3.78-4.15,0-1.74-1.32-3.9-2.78-5.05Z"/><path class="cls-10" d="m1176.63,90.2c0,.15-.1.3-.22.45v.4c-.17-.02-.32-.02-.45-.02-.6,0-.82.17-1.09.32l-.12.07c-.35.22-.75.47-1.14.47-.2,0-.47-.07-.77-.25-2.06,0-3.53-1.64-4.72-3.43v.02l-.25-.45-1.84-2.29c0,1.32.3,2.91.3,4.45,0,.2-.02.37-.02.55v.42c0,.12.02.25.02.4,0,.4-.1,1.27-.89,1.27-.45,0-.9-.17-1.24-.37-.07-1.29-.12-2.61-.15-4l-.08-2.71c-.02-.75-.07-1.62-.17-2.49v-.27l.47-.47-.2-.22s.1-.07.1-.07c-.02-.1-.02-.2-.02-.3,0-.32.17-.92,1.04-.92.57,0,1.14.5,1.34,1.02l.02.22c.15,1.34,2.44,3.83,3.03,4.6.72,1.22,2.09,3.01,3.33,3.31h-.02c.25.07.65.12,1.19.12-.2-.97-.35-2.01-.35-2.81,0-1.29.22-2.54.22-3.83,0-.8-.08-1.54-.3-2.26,0,0,.03-.2.05-.25-.08-.3-.15-.6-.15-.97,0-.27.12-1.07.57-1.07.52,0,.99.15,1.34.37.05.12.07.17.1.17l-.03.22c.03.17.07.32.3.5,0,1.52.12,2.86.12,4.67v.72c.08.47.08,1.04.08,1.62,0,.22-.03.47-.03.7,0,.85.07,1.64.5,2.11v-.05l.1.15s.02.12.02.17Z"/><path class="cls-10" d="m1189.34,81.13h-1.34c-.35,0-.75.02-1.07.07-.32.02-1.02.07-1.34.07-.45-.02-.99-.02-1.44.1.02.3.05.55.02.67,0,.55.08,1.67.12,2.31l.05.72c.05.5.08.97.08,1.29,0,.17-.02.35-.02.52v.55c-.03.3-.03.7-.03,1.02,0,.82.07,1.64.52,3.26,0,.22-.15.37-.55.7h.03c-.32.22-.77.32-1.22.12-.82-.45-.9-2.01-.92-3.16,0-.27,0-.55-.02-.72-.03-.25-.03-.65-.03-.9,0-.4,0-.85.03-1.27,0-.85-.1-2.49-.17-3.53l-.1-1.39h-.37c-.47,0-1.07.05-1.62.1l-.4.4c-.47.22-1.86-.05-1.71-.12-.15-.02-.25-.1-.37-.22-.2-.15-.27-.42-.27-.72,0-.47.2-.97.52-1.24l-.02.02c.2-.15.45-.25.72-.25.22,0,.5.05.75.2,1.64-.25,3.36-.37,5.1-.37s3.63.12,5.67.5c.05.15.12.22.17.25.32.15.65.32.65.55,0,.12-.07.32-.3.55l-.79-.05c-.1-.07-.17-.05-.3-.02Z"/><path class="cls-10" d="m1200.85,88.46c0,.32.05.97.1,1.32l.05.42c.05.3.1.6.05.94.12.47-.02,1.17-.67,1.27-1.14.05-1.54-1.44-1.59-2.24,0-.1-.02-.17-.02-.22v-.15c-.02-.17-.05-.47-.05-.65-.02-.02.07-.22.22-.37-.4,0-.6,0-.85.02h.03c-.42.02-.99.05-1.54.05-.75,0-1.59-.05-2.24-.17h-.12s-.17.02-.27.02c-.05.55-.05.72-.05.92,0,.62.05,1.22.2,1.96.07.32-.05.67-.42.99h.02c-.2.12-.42.22-.7.22-.22,0-.47-.05-.67-.25-.67-.65-.67-1.69-.65-2.71.02-.72.02-1.44-.27-1.96,0-.3.02-.67.05-.97h.25c.03-.32.03-.87.03-1.17,0-.57-.03-1.19-.07-1.72-.05-.7-.1-1.42-.1-2.24,0-.47.32-.65.79-.87.27-.02.62-.02.92.1,1.22-1.81,2.51-2.19,3.38-2.24,1.24-.07,2.14,1.04,2.68,2.41v-.05c.55,1.49.82,3.03,1,4.15l.07.67c.02.4.1.72.22.97.32.07.47.25.52.52.1.37,0,.67-.3.99Zm-2.39-1.74c-.05-.17-.07-.4-.07-.6,0-.07-.03-.15-.03-.22-.05-.52-.12-1.22-.25-1.69-.25-1.04-.6-2.26-1.12-3.36l-.2-.3c-2.24.42-2.66,3.73-2.83,6.19h.57c.67.02,1.29.05,2.01.05.52,0,1.02,0,1.91-.07Z"/><path class="cls-10" d="m1212.88,91.09c-.55.1-1.44.55-1.84.72-.77.42-1.64.89-2.83.82-2.01-.15-3.33-.57-4.82-1.86-.6-.57-1.04-1.74-1.24-2.83-.2-1.74.7-5.34,1.62-6.94.77-1.32,2.41-2.34,4.25-2.34.32,0,.67.02.97.07l-.03-.02.4.17h-.02c.22.15.45.32.97.4.2.4.47.67.67.85l.12.1c.32.35.65.57.82,1.12-.12.25-.15.52-.17.72v.15c-.02.62-.1,1.24-1.04,1.49-.42.12-.75-.1-.99-.27l-.08-.07c-.07-.07-.22-.15-.4-.25-.12-.27-.2-.55-.27-.8l-.1-.32v.05l-.05-.22c-.15-.57-.32-1.09-.77-1.49-.79.05-2.41,1.19-2.54,1.76-.6.92-1.04,3.01-1.04,4.82,0,1.27.2,2.39.62,2.78.84.87,1.99,1.12,3.16,1.12.42,0,.84-.02,1.27-.1.3-.07,3.28-1.12,3.9-1.94.2-.1.25-.22.35-.42l.1-.17v.02c.2-.35.4-.7.87-.87l.65.3c.25,1.39-1.29,2.59-2.49,3.46Z"/><path class="cls-10" d="m1226.46,81.13h-1.34c-.35,0-.75.02-1.07.07-.32.02-1.02.07-1.34.07-.45-.02-1-.02-1.44.1.03.3.05.55.03.67,0,.55.07,1.67.12,2.31l.05.72c.05.5.07.97.07,1.29,0,.17-.02.35-.02.52v.55c-.02.3-.02.7-.02,1.02,0,.82.07,1.64.52,3.26,0,.22-.15.37-.55.7h.03c-.32.22-.77.32-1.22.12-.82-.45-.89-2.01-.92-3.16,0-.27,0-.55-.02-.72-.02-.25-.02-.65-.02-.9,0-.4,0-.85.02-1.27,0-.85-.1-2.49-.17-3.53l-.1-1.39h-.37c-.47,0-1.07.05-1.62.1l-.4.4c-.47.22-1.87-.05-1.71-.12-.15-.02-.25-.1-.37-.22-.2-.15-.27-.42-.27-.72,0-.47.2-.97.52-1.24l-.03.02c.2-.15.45-.25.72-.25.22,0,.5.05.75.2,1.64-.25,3.36-.37,5.1-.37s3.63.12,5.67.5c.05.15.12.22.17.25.32.15.65.32.65.55,0,.12-.08.32-.3.55l-.79-.05c-.1-.07-.17-.05-.3-.02Z"/></g><g><path class="cls-26" d="m345.81,145.13h-1.34c-.35,0-.75.02-1.07.07-.32.02-1.02.07-1.34.07-.45-.02-.99-.02-1.44.1.02.3.05.55.02.67,0,.55.07,1.67.12,2.31l.05.72c.05.5.07.97.07,1.29,0,.17-.02.35-.02.52v.55c-.02.3-.02.7-.02,1.02,0,.82.07,1.64.52,3.26,0,.22-.15.37-.55.7h.02c-.32.22-.77.32-1.22.12-.82-.45-.9-2.01-.92-3.16,0-.27,0-.55-.02-.72-.02-.25-.02-.65-.02-.9,0-.4,0-.85.02-1.27,0-.85-.1-2.49-.17-3.53l-.1-1.39h-.37c-.47,0-1.07.05-1.62.1l-.4.4c-.47.22-1.86-.05-1.71-.12-.15-.02-.25-.1-.37-.22-.2-.15-.27-.42-.27-.72,0-.47.2-.97.52-1.24l-.02.02c.2-.15.45-.25.72-.25.22,0,.5.05.75.2,1.64-.25,3.36-.37,5.1-.37s3.63.12,5.67.5c.05.15.12.22.17.25.32.15.65.32.65.55,0,.12-.07.32-.3.55l-.8-.05c-.1-.07-.17-.05-.3-.02Z"/><path class="cls-26" d="m356.1,155.19l-.4.37c-.92.82-1.86,1.24-3.16,1.24-2.34,0-5.29-1.59-5.72-4.75-.52-.12-1.04-.25-1.04-.94,0-.75.47-.92.92-1.02.52-2.81,3.18-4.55,6.09-4.55,1.59,0,4.35.8,4.35,3.08,0,2.51-3.85,3.33-5.77,3.43-.2,0-.47.02-.7.05-.22,0-.4.02-.55.02-.32.02-.92.05-1.22.05.45,1.52,1.91,2.98,3.65,2.98.57,0,1.72-.5,2.24-1.07.42-.12.87-.5,1.22-.85.42-.4.97-.87,1.64-.99l.45.45c-.25.99-1.24,1.81-2.01,2.49Zm-1.09-6.19c-.22-1.44-.92-1.94-1.76-1.94-2.09,0-4.3,1.71-4.5,3.06h.47c.12,0,.25.02.4.02h1.12c.99,0,3.6-.25,4.28-1.14Z"/><path class="cls-26" d="m367.42,146.89c-.02.35-.2.45-.57.45-.02,0-.1-.05-.2-.1-.17.02-.42-.05-.6-.12,0,0-.12.02-.25.02h-.82c-2.19,0-3.65,2.49-3.65,4.52,0,.8.15,1.62.27,2.34l.1.5s.02.1.02.12c0,.07.02.17.07.25l-.02-.02c.07.3.12.62.12.82,0,.75-.67.97-1.29.85-.55-.15-.77-1.39-.99-2.49l-.05-.22c-.02-.25-.17-.82-.37-1.44-.07-.22-.12-.5-.2-.77-.27-1.04-.67-2.49-.67-2.71,0-.15-.02-.42-.05-.6-.05-.57-.1-1.24.27-1.69l-.02.05c.17-.15.4-.32.65-.32.72,0,.97.84,1.19,1.74.94-1.32,2.88-2.44,4.18-2.44.8,0,1.84.47,2.64.85l.1.05c.07.17.12.42.15.37Z"/><path class="cls-26" d="m384.99,153.85c0,.52-.17,2.26-1.04,2.51-.42.15-1.34-.07-1.34-.77,0-.2.1-.62.17-.92l.07-.37c.1-.35.2-.72.2-1.19,0-2.14-1.52-5.02-3.83-5.02-.67,0-1.81.35-2.63,1.62.05.2.1.35.17.42.02.1.05.25.05.67,0,.35.05.7.15,1.09,0,.02.02.07.02.07.1.52.2,1.12.12,1.72-.07.55-.32,1.96-1.04,2.49-1.02-.05-1.17-.6-1.27-1.22-.02-.2-.07-.42-.17-.67v-.37c-.02-.52.02-.94.07-1.44.05-.37.07-.82.07-1.19,0-1.74-1.22-3.31-2.98-3.31-.97,0-1.24.72-1.24,1.69,0,2.06.02,4.15.17,6.21-.12.35-.35.47-.57.55l.05-.02-.1.02c-.1,0-.17.05-.27.05-1.12-.12-1.19-.87-1.24-1.62-.02-.3-.05-.67-.22-.99.12-.77.12-1.47.12-2.16s0-1.42.12-2.09l-.05-.27c-.02-.2-.05-.42-.1-.52-.15-.5-.22-.94-.22-1.39,0-.42.17-1.17.9-1.17.37,0,.77.3,1.02.62.6-.32,1.29-.52,1.77-.52,1.52,0,2.86.92,3.8,2.14.8-1.04,1.69-1.86,3.68-1.86,2.93,0,3.78,1.19,4.87,3.26.5,1.04.72,2.73.72,3.98Zm-15.19,2.61h.02-.02Z"/><path class="cls-26" d="m393.27,156.06c-1.04.45-1.91.65-2.63.65-.57,0-1.19-.15-1.91-.35l-.55-.1c-.32-.15-.65-.27-.87-.4l-.55-.27-.2-.2s-.07-.12-.1-.15c-.2-.22-.45-.57-.45-.94,0-.07.12-.45.22-.82,1.32,1.04,2.76,1.76,4,1.76.67,0,3.11-.52,3.11-1.29,0-.47-1.22-.85-2.51-1.34l-.7-.25c-1.39-.5-2.88-1.17-3.6-2.01-.42-.5-.77-1.07-.77-1.52,0-.72.62-1.27,1.14-1.71l.57-.5c.92-.82,1.62-1.42,3.36-1.42.8,0,.9.05,1.04.22.05.07.47.47.57.57.07.25.1.32.17.5l.05.1.12.17c.12.25.27.52.27.89,0,.27-.2.65-.57,1.02-.7-.35-.89-.55-1.04-.77l-.12-.12h.02c-.32-.35-.65-.7-1.02-.7-.52,0-2.66,1.19-2.66,1.74,0,.32.1.5.37.7v-.02c.92.82,2.06,1.22,3.03,1.52.72.17,1.67.47,2.19.75.94.42,1.99,1.19,1.99,2.29,0,.72-1.34,1.81-1.99,2.01Zm-.65-9.57h.02l-.02-.1v.1Z"/><path class="cls-26" d="m414.26,156.21c-.55,0-1.34-.05-1.86-.3-.52-.25-1.52-1.49-2.09-2.44l-.35.55s-.02.05-.05.07l-.1.15v-.02c-.22.37-.52.67-.87.92-.92.47-2.68.94-3.65.94-1.07,0-2.51-.75-2.88-1.77v.02c-.17-.42-.27-.97-.27-1.47,0-1.57.6-3.43,1.64-4.77.92-1.22,1.99-2.29,3.75-2.29.57,0,1.24.1,1.59.47.02.05.12.15.17.2.25.25.62.62.85.72.2.05.4.15.72.15h.12s.05-.02.07-.02c.22.62.25,1.12.25,1.54v.77c0,1.69.67,3.43,1.64,4.6.22.27.45.6.99.6.5,0,.99-.02,1.47-.27,0,0,.05-.1.07-.12.2-.2.35-.3.55-.3.07,0,.15,0,.2.02l.25.42c-.2.62-1.44,1.62-2.21,1.62Zm-5-6.14l-.22-1.07c-.2-.2-.32-.4-.4-.55-.27-.35-.72-.7-1.09-.87-1.07.27-1.96,1.29-2.49,2.26-.52.85-.92,1.57-.92,2.54,0,.67.1,1.39.5,1.74.1.1.37.1.57.1h.15c2.29,0,4.03-1.17,4.03-3.6l-.12-.55Z"/><path class="cls-26" d="m425.89,156.14c-.02.45-.57.72-.89.72-.35,0-.45-.1-.62-.25-.05-.05-.12-.07-.3-.1-.12-.4-.1-.4-.1-.5,0-.27.07-.42.17-.6,0,0,0-.02.02-.05v.02c.07-.15.17-.25.02-.6l.2-.25v-.27c0-1.27-.35-2.44-.67-3.65-.2-.42-.94-2.73-3.01-2.73-1.94,0-2.81,1.14-2.81,3.13,0,.8.27,1.81.52,2.61l.15.5c-.1.17-.1.3-.1.42s.02.27.05.42c.02.15.05.35.05.55,0,.57-.47.92-1.09.92-.35,0-.6-.15-.77-.35-.07-.05-.12-.15-.22-.2-.3-.45-.42-.92-.42-1.42,0-.25-.02-.47-.05-.72-.02-.15-.02-.32-.02-.47-.02-.42-.05-.89-.05-1.19,0-.42-.07-1.19-.22-1.54l-.3-1.67c-.17-.35-.35-.72-.35-1.04,0-.25.1-.42.3-.67.27-.07.45-.1.55-.1.55,0,.87.27,1.04.6.82-.89,1.99-1.34,3.06-1.52.37-.07.75-.1,1.12-.1,3.18,0,3.95,2.58,4.52,4.72l.22.75.1.35c.22.62.35,1.34.35,2.04l-.02.99c-.05.42-.12.85-.42,1.24Zm-1.69-.87l-.02.05s.02,0,.02-.05Z"/><path class="cls-26" d="m440.22,157.03c-.15,0-.32.07-.5.2-.99-.1-1.59-.65-1.96-1.29-.17-.37-.47-1.07-.67-1.79-.35.27-.87.65-1.22.87-1.19.77-2.46,1.27-3.93,1.27-2.09,0-4.08-3.06-4.08-4.92,0-1.22.92-2.49,2.16-3.45,1.19-.9,2.66-1.47,3.83-1.47.82,0,1.71.4,2.49.94v-.87c0-.35-.17-1.27-.35-2.16s-.37-1.79-.37-2.29c0-.4.4-.77.82-.77.45,0,.97.25,1.17.62.4,1.47.94,6.11.94,7.53,0,1.86.17,3.8.75,5.54.17.5.52.7.92.8l.82.27.17.45c-.15.45-.6.5-.99.52Zm-3.9-6.59c-.5-.27-.57-.65-.67-.99-.07-.22-.12-.5-.32-.7-.1,0-.3-.05-.47-.15l-.17-.07c-.27-.12-.6-.32-.94-.32-.8,0-1.76.45-2.51,1.14-.7.67-1.22,1.47-1.22,2.31,0,1.44,1.12,2.81,2.49,2.81.75,0,1.62-.3,2.39-.77.92-.65,1.64-1.54,1.64-2.59,0-.2-.1-.5-.2-.67Z"/><path class="cls-26" d="m457.02,155.09c-.55.1-1.44.55-1.84.72-.77.42-1.64.89-2.83.82-2.01-.15-3.33-.57-4.82-1.86-.6-.57-1.04-1.74-1.24-2.83-.2-1.74.7-5.34,1.62-6.94.77-1.32,2.41-2.34,4.25-2.34.32,0,.67.02.97.07l-.02-.02.4.17h-.02c.22.15.45.32.97.4.2.4.47.67.67.85l.12.1c.32.35.65.57.82,1.12-.12.25-.15.52-.17.72v.15c-.02.62-.1,1.24-1.04,1.49-.42.12-.75-.1-.99-.27l-.07-.07c-.07-.07-.22-.15-.4-.25-.12-.27-.2-.55-.27-.8l-.1-.32v.05l-.05-.22c-.15-.57-.32-1.09-.77-1.49-.8.05-2.41,1.19-2.54,1.76-.6.92-1.04,3.01-1.04,4.82,0,1.27.2,2.39.62,2.78.85.87,1.99,1.12,3.16,1.12.42,0,.84-.02,1.27-.1.3-.07,3.28-1.12,3.9-1.94.2-.1.25-.22.35-.42l.1-.17v.02c.2-.35.4-.7.87-.87l.65.3c.25,1.39-1.29,2.59-2.49,3.46Z"/><path class="cls-26" d="m463.41,156.86c-1.04,0-2.34-.99-3.06-1.77-.77-.77-1.44-2.49-1.47-3.48-.02-1.17.37-2.61,1.34-3.75.75-.92,1.14-1.17,1.94-1.72.65-.42,1.89-.5,2.68-.4.75.1,1.81.22,1.81,1.07-.02.07-.05.37-.07.52-.02.15-.05.3-.05.4,0,.12.12.25.3.35l.35.37.25.27c.6.65,1.14,1.29,1.27,2.36.32,2.76-2.29,5.77-5.29,5.77Zm1.02-8.13c0-.8-.3-1.29-.87-1.29h-.1s.02.1-.12.25l-.2-.27c-.94.67-2.26,2.71-2.26,3.98,0,1.02,1.32,4,2.49,4,1.67,0,3.38-2.11,3.31-3.85-.02-.77-.6-2.49-2.24-2.81Z"/><path class="cls-26" d="m480.34,156.14c-.02.45-.57.72-.89.72-.35,0-.45-.1-.62-.25-.05-.05-.12-.07-.3-.1-.12-.4-.1-.4-.1-.5,0-.27.07-.42.17-.6,0,0,0-.02.02-.05v.02c.07-.15.17-.25.02-.6l.2-.25v-.27c0-1.27-.35-2.44-.67-3.65-.2-.42-.94-2.73-3.01-2.73-1.94,0-2.81,1.14-2.81,3.13,0,.8.27,1.81.52,2.61l.15.5c-.1.17-.1.3-.1.42s.02.27.05.42c.02.15.05.35.05.55,0,.57-.47.92-1.09.92-.35,0-.6-.15-.77-.35-.07-.05-.12-.15-.22-.2-.3-.45-.42-.92-.42-1.42,0-.25-.02-.47-.05-.72-.02-.15-.02-.32-.02-.47-.02-.42-.05-.89-.05-1.19,0-.42-.07-1.19-.22-1.54l-.3-1.67c-.17-.35-.35-.72-.35-1.04,0-.25.1-.42.3-.67.27-.07.45-.1.55-.1.55,0,.87.27,1.04.6.82-.89,1.99-1.34,3.06-1.52.37-.07.75-.1,1.12-.1,3.18,0,3.95,2.58,4.52,4.72l.22.75.1.35c.22.62.35,1.34.35,2.04l-.02.99c-.05.42-.12.85-.42,1.24Zm-1.69-.87l-.02.05s.02,0,.02-.05Z"/><path class="cls-26" d="m494.67,157.03c-.15,0-.32.07-.5.2-.99-.1-1.59-.65-1.96-1.29-.17-.37-.47-1.07-.67-1.79-.35.27-.87.65-1.22.87-1.19.77-2.46,1.27-3.93,1.27-2.09,0-4.08-3.06-4.08-4.92,0-1.22.92-2.49,2.16-3.45,1.19-.9,2.66-1.47,3.83-1.47.82,0,1.71.4,2.49.94v-.87c0-.35-.17-1.27-.35-2.16-.17-.9-.37-1.79-.37-2.29,0-.4.4-.77.82-.77.45,0,.97.25,1.17.62.4,1.47.94,6.11.94,7.53,0,1.86.17,3.8.75,5.54.17.5.52.7.92.8l.82.27.17.45c-.15.45-.6.5-.99.52Zm-3.9-6.59c-.5-.27-.57-.65-.67-.99-.07-.22-.12-.5-.32-.7-.1,0-.3-.05-.47-.15l-.17-.07c-.27-.12-.6-.32-.94-.32-.8,0-1.76.45-2.51,1.14-.7.67-1.22,1.47-1.22,2.31,0,1.44,1.12,2.81,2.49,2.81.75,0,1.62-.3,2.39-.77.92-.65,1.64-1.54,1.64-2.59,0-.2-.1-.5-.2-.67Z"/><path class="cls-26" d="m496.34,144.43c-.2,0-.37.02-.65.02-.42-.05-.85-.45-.85-.94,0-.62.5-.99,1.17-.99.47,0,1.14.32,1.24.97l-.05.1c0,.1.02.17.02.22.02.07.05.17.05.22l-.02.07c-.1.17-.4.32-.92.32Zm1.27,11.66c-.4,0-1.02-.2-1.22-.7-.1-.37-.27-1.09-.32-1.52-.05-.45-.07-1.04-.1-1.64-.07-1.09-.17-2.41-.45-3.33l-.17-.75c0-.17,0-.32.05-.47l.02-.2c0-.57.42-.8.9-.8.45,0,.94.27.99.7.02.22.05.5.1.7l.1.6c.3,1.71.72,4.4.67,4.8-.02.22.02.5.1.77.1.3.15.55.15.82,0,.35-.22,1.02-.82,1.02Z"/><path class="cls-26" d="m507.84,148.63l-.05-.37c-.27.05-1.94.57-2.01.6-.65.25-.97.35-1.69.52,0,.27.02.45.05.55,0,.1.02.15.02.25.07.97.17,2.31.4,3.16.27.94.62,1.84,1.07,1.84.15,0,.67-.47,1.17-1.17.17.37.37.75.37.87,0,.2-.52.92-.72,1.14l-.8.32c-.2.07-.4.15-.77.15-1.02,0-1.72-1.29-2.19-2.66-.4-1.37-.65-3.31-.75-4.18-.37,0-.45.05-.55.07-.27.12-.67.2-1.04.2-.07,0-.22.02-.35.07-.4.1-.82.15-1.02-.22l-.55-.75c.6-.62,1.86-1.12,2.83-1.19l.4-.02c-.15-1.12-.2-2.21-.2-3.23,0-.94.07-1.81.15-2.24.2-.05.97-.85.75-.6.65.07,1.27.47,1.67,1.74,0,.6-.12.55-.17.85l.02,3.08.84-.12c.77-.1,1.72-.2,2.26-.2.45,0,.92.05,1.27.17l.27.37c-.02.2-.25.62-.7.99Z"/><path class="cls-26" d="m509.96,144.43c-.2,0-.37.02-.65.02-.42-.05-.85-.45-.85-.94,0-.62.5-.99,1.17-.99.47,0,1.14.32,1.24.97l-.05.1c0,.1.02.17.02.22.02.07.05.17.05.22l-.02.07c-.1.17-.4.32-.92.32Zm1.27,11.66c-.4,0-1.02-.2-1.22-.7-.1-.37-.27-1.09-.32-1.52-.05-.45-.07-1.04-.1-1.64-.07-1.09-.17-2.41-.45-3.33l-.17-.75c0-.17,0-.32.05-.47l.02-.2c0-.57.42-.8.9-.8.45,0,.94.27.99.7.02.22.05.5.1.7l.1.6c.3,1.71.72,4.4.67,4.8-.02.22.02.5.1.77.1.3.15.55.15.82,0,.35-.22,1.02-.82,1.02Z"/><path class="cls-26" d="m517.57,156.86c-1.04,0-2.34-.99-3.06-1.77-.77-.77-1.44-2.49-1.47-3.48-.02-1.17.37-2.61,1.34-3.75.75-.92,1.14-1.17,1.94-1.72.65-.42,1.89-.5,2.68-.4.75.1,1.81.22,1.81,1.07-.02.07-.05.37-.07.52-.02.15-.05.3-.05.4,0,.12.12.25.3.35l.35.37.25.27c.6.65,1.14,1.29,1.27,2.36.32,2.76-2.29,5.77-5.29,5.77Zm1.02-8.13c0-.8-.3-1.29-.87-1.29h-.1s.02.1-.12.25l-.2-.27c-.94.67-2.26,2.71-2.26,3.98,0,1.02,1.32,4,2.49,4,1.67,0,3.38-2.11,3.31-3.85-.02-.77-.6-2.49-2.24-2.81Z"/><path class="cls-26" d="m534.5,156.14c-.02.45-.57.72-.89.72-.35,0-.45-.1-.62-.25-.05-.05-.12-.07-.3-.1-.12-.4-.1-.4-.1-.5,0-.27.07-.42.17-.6,0,0,0-.02.02-.05v.02c.07-.15.17-.25.02-.6l.2-.25v-.27c0-1.27-.35-2.44-.67-3.65-.2-.42-.94-2.73-3.01-2.73-1.94,0-2.81,1.14-2.81,3.13,0,.8.27,1.81.52,2.61l.15.5c-.1.17-.1.3-.1.42s.02.27.05.42c.02.15.05.35.05.55,0,.57-.47.92-1.09.92-.35,0-.6-.15-.77-.35-.07-.05-.12-.15-.22-.2-.3-.45-.42-.92-.42-1.42,0-.25-.02-.47-.05-.72-.02-.15-.02-.32-.02-.47-.02-.42-.05-.89-.05-1.19,0-.42-.07-1.19-.22-1.54l-.3-1.67c-.17-.35-.35-.72-.35-1.04,0-.25.1-.42.3-.67.27-.07.45-.1.55-.1.55,0,.87.27,1.04.6.82-.89,1.99-1.34,3.06-1.52.37-.07.75-.1,1.12-.1,3.18,0,3.95,2.58,4.52,4.72l.22.75.1.35c.22.62.35,1.34.35,2.04l-.02.99c-.05.42-.12.85-.42,1.24Zm-1.69-.87l-.02.05s.02,0,.02-.05Z"/><path class="cls-26" d="m543.15,156.06c-1.04.45-1.91.65-2.63.65-.57,0-1.19-.15-1.91-.35l-.55-.1c-.32-.15-.65-.27-.87-.4l-.55-.27-.2-.2s-.07-.12-.1-.15c-.2-.22-.45-.57-.45-.94,0-.07.12-.45.22-.82,1.32,1.04,2.76,1.76,4,1.76.67,0,3.11-.52,3.11-1.29,0-.47-1.22-.85-2.51-1.34l-.7-.25c-1.39-.5-2.88-1.17-3.6-2.01-.42-.5-.77-1.07-.77-1.52,0-.72.62-1.27,1.14-1.71l.57-.5c.92-.82,1.62-1.42,3.36-1.42.8,0,.9.05,1.04.22.05.07.47.47.57.57.07.25.1.32.17.5l.05.1.12.17c.12.25.27.52.27.89,0,.27-.2.65-.57,1.02-.7-.35-.89-.55-1.04-.77l-.12-.12h.02c-.32-.35-.65-.7-1.02-.7-.52,0-2.66,1.19-2.66,1.74,0,.32.1.5.37.7v-.02c.92.82,2.06,1.22,3.03,1.52.72.17,1.67.47,2.19.75.94.42,1.99,1.19,1.99,2.29,0,.72-1.34,1.81-1.99,2.01Zm-.65-9.57h.02l-.02-.1v.1Z"/></g><g><path class="cls-26" d="m346.84,220.09c-.55.1-1.44.55-1.84.72-.77.42-1.64.89-2.83.82-2.01-.15-3.33-.57-4.82-1.86-.6-.57-1.04-1.74-1.24-2.83-.2-1.74.7-5.34,1.62-6.94.77-1.32,2.41-2.34,4.25-2.34.32,0,.67.02.97.07l-.02-.02.4.17h-.02c.22.15.45.32.97.4.2.4.47.67.67.85l.12.1c.32.35.65.57.82,1.12-.12.25-.15.52-.17.72v.15c-.02.62-.1,1.24-1.04,1.49-.42.12-.75-.1-.99-.27l-.07-.07c-.07-.07-.22-.15-.4-.25-.12-.27-.2-.55-.27-.8l-.1-.32v.05l-.05-.22c-.15-.57-.32-1.09-.77-1.49-.8.05-2.41,1.19-2.54,1.76-.6.92-1.04,3.01-1.04,4.82,0,1.27.2,2.39.62,2.78.85.87,1.99,1.12,3.16,1.12.42,0,.84-.02,1.27-.1.3-.07,3.28-1.12,3.9-1.94.2-.1.25-.22.35-.42l.1-.17v.02c.2-.35.4-.7.87-.87l.65.3c.25,1.39-1.29,2.59-2.49,3.46Z"/><path class="cls-26" d="m353.23,221.86c-1.04,0-2.34-.99-3.06-1.77-.77-.77-1.44-2.49-1.47-3.48-.02-1.17.37-2.61,1.34-3.75.75-.92,1.14-1.17,1.94-1.72.65-.42,1.89-.5,2.68-.4.75.1,1.81.22,1.81,1.07-.02.07-.05.37-.07.52-.02.15-.05.3-.05.4,0,.12.12.25.3.35l.35.37.25.27c.6.65,1.14,1.29,1.27,2.36.32,2.76-2.29,5.77-5.29,5.77Zm1.02-8.13c0-.8-.3-1.29-.87-1.29h-.1s.02.1-.12.25l-.2-.27c-.94.67-2.26,2.71-2.26,3.98,0,1.02,1.32,4,2.49,4,1.67,0,3.38-2.11,3.31-3.85-.02-.77-.6-2.49-2.24-2.81Z"/><path class="cls-26" d="m368.67,219.97c-.97.97-2.39,1.34-3.9,1.34-1.02,0-2.01-.4-2.71-.7l.17,2.36v-.05l.22,2.91.1.99c.05.47.1,1.04.1,1.54,0,.42-.02,1.24-.94,1.44-.17-.12-.27-.2-.35-.2-.32-.1-.65-.17-.7-.6-.1-.6-.15-1.72-.2-2.46v-.82c-.02-.7-.05-1.54-.15-2.16-.12-.89-.17-1.79-.22-2.63,0-.15-.02-.27-.02-.4,0-.3-.02-.67-.05-1.04-.4-.32-.55-.55-.67-.8l.02.07-.05-.12-.12-.25c-.1-.17-.15-.32-.35-.55,0-.2.1-.4.3-.52l.1-.05c.2,0,.47.1.75.25l-.12-1.89c-.07-.8-.12-1.71-.12-2.36,0-.47.37-1.44,1.09-1.44.27,0,.57.17.77.37.87-.75,2.39-1.17,3.13-1.17.99,0,1.86.32,2.61.82.75.5,1.34,1.09,1.76,1.74.37.7.8,2.46.8,3.08-.02,1.49-.5,2.54-1.24,3.28Zm-2.11-6.66c-.57-.42-1.27-.65-2.04-.65-1.49,0-2.01.99-2.46,2.14.05.37.02,1.12,0,1.72-.02.55-.05.97-.05,1.42,0,.37,0,.77.07,1.09l.42.12.45.15c.7.27,1.59.5,2.24.5.94,0,1.79-.42,2.31-1.04.5-.62.75-1.54.65-2.54-.12-1.27-.72-2.31-1.59-2.91Z"/><path class="cls-26" d="m380.08,230.01c-.27,0-.35.12-.42.22-.12.15-.3.32-.52.42-.65.45-2.36.94-3.48.94-.37,0-.8-.05-1.04-.17-2.01-.12-4.47-1.89-5.79-3.43l.37-.4s.27.07.42.1c.35.1.57.25.77.42.12.15.32.35.65.32,1.02.94,2.98,1.54,4.2,1.54.85,0,1.67-.17,2.46-.62,1.94-.45,2.46-4.1,2.46-5.79,0-.82-.15-1.76-.3-2.63l-.05-.3c-.1-.7-.27-1.34-.3-2.34-1.44,1.39-3.85,3.18-5.27,3.18-1.71,0-2.86-1.86-2.88-3.38-.15-1.42-.4-3.68-.45-4.33-.15-.25-.25-.47-.25-.67,0-.22.1-.45.2-.65.35-.62,1.22-1.07,1.32-1.07,1.44,0,1.32.67,1.17,1.37l.02-.05v.02c-.12.62.02,2.09-.17,2.83v.2s.02.15.02.22l.02.25c.07,1.29.22,3.48.97,3.48.99,0,2.54-1.14,3.33-1.77,1.02-.82,1.52-2.16,1.52-3.53,0-.4-.05-.65-.1-.82,0-.05-.02-.1-.02-.15l-.07-.3c-.07-.27-.12-.52-.12-.82s.1-.6.55-.87c.02,0,.15-.02.17-.07,1.49.1,1.67,2.26,1.64,3.43v.4c0,1.27.22,2.78.5,4.28.25,1.49.5,3.16.5,4.72,0,.3,0,.62-.02.9-.1,1.74-.62,3.36-1.99,4.9Z"/><path class="cls-26" d="m391.69,211.89c-.02.35-.2.45-.57.45-.02,0-.1-.05-.2-.1-.17.02-.42-.05-.6-.12,0,0-.12.02-.25.02h-.82c-2.19,0-3.65,2.49-3.65,4.52,0,.8.15,1.62.27,2.34l.1.5s.02.1.02.12c0,.07.02.17.07.25l-.02-.02c.07.3.12.62.12.82,0,.75-.67.97-1.29.85-.55-.15-.77-1.39-.99-2.49l-.05-.22c-.02-.25-.17-.82-.37-1.44-.07-.22-.12-.5-.2-.77-.27-1.04-.67-2.49-.67-2.71,0-.15-.02-.42-.05-.6-.05-.57-.1-1.24.27-1.69l-.02.05c.17-.15.4-.32.65-.32.72,0,.97.84,1.19,1.74.94-1.32,2.88-2.44,4.18-2.44.8,0,1.84.47,2.64.85l.1.05c.07.17.12.42.15.37Z"/><path class="cls-26" d="m393.78,209.43c-.2,0-.37.02-.65.02-.42-.05-.85-.45-.85-.94,0-.62.5-.99,1.17-.99.47,0,1.14.32,1.24.97l-.05.1c0,.1.02.17.02.22.02.07.05.17.05.22l-.02.07c-.1.17-.4.32-.92.32Zm1.27,11.66c-.4,0-1.02-.2-1.22-.7-.1-.37-.27-1.09-.32-1.52-.05-.45-.07-1.04-.1-1.64-.07-1.09-.17-2.41-.45-3.33l-.17-.75c0-.17,0-.32.05-.47l.02-.2c0-.57.42-.8.9-.8.45,0,.94.27.99.7.02.22.05.5.1.7l.1.6c.3,1.71.72,4.4.67,4.8-.02.22.02.5.1.77.1.3.15.55.15.82,0,.35-.22,1.02-.82,1.02Z"/><path class="cls-26" d="m406.96,228.49c-1.07.94-4.08,2.04-5.49,2.04-1.62,0-2.73-.67-3.9-1.39-.22-.1-.52-.3-.77-.42-.4-.35-1.42-1.74-1.67-2.56-.12-.12-.15-.25-.15-.35,0-.52.05-.72.12-.72.1,0,.32.22.6.52l.05-.07c1.74,2.14,3.26,3.18,5.79,3.18s4.67-.77,4.67-3.68c0-1.79-.45-4.08-1.14-5.89-.25.12-.4.2-.6.37l-.27.17c-.27.2-.6.4-.97.6-.57.3-1.24.65-2.01.75-1.74.22-3.36-.85-3.9-2.54-.1-.3-.37-1.24-.35-1.94.07-2.81.82-5.82,4.35-5.82,1.19,0,2.34.6,3.26,1.34.15-.05.32-.05.37-.05,1.62,0,1.86,2.81,1.99,4.8.05.72.1,1.29.15,1.49.55,2.11.94,4.33.94,6.44,0,.97-.15,2.96-1.07,3.73Zm-3.38-14.54l.02.02-.15-.45c-.5-.07-.75-.35-.92-.62v.02c-.07-.15-.22-.32-.3-.4-.25-.1-.4-.17-.55-.2-1.84.1-2.91,2.26-2.91,4.05,0,1.17.57,2.96,1.86,2.96.72,0,1.52-.27,2.16-.8l.45-.3-.02.02c.62-.42,1.29-.87,1.29-1.62,0-.55-.55-1.81-.94-2.71Z"/><path class="cls-26" d="m419.12,221.66l-.07.12v-.1l-.35.12c-.85-.07-1.02-1.14-1.04-1.59v-.12c-.02-.32,0-.72.02-1.12v.02c.02-.25.02-.45.02-.72,0-1.17-.07-2.09-.45-3.23,0-.8-.65-1.79-1.34-1.79-1.86,0-4.52.7-4.52,3.08,0,.47.05.72.12.94.1.32.15.65.15,1.04,0,.27.05.57.1.87.07.32.12.62.12,1.04,0,.27-.02.55-.25.82-.12.22-.35.27-.55.27-.25,0-.57-.1-.79-.2-.47-.55-.7-3.11-.9-5.07l-.07-.8c-.05-.57-.1-1.04-.2-1.34v.02c-.25-1.29-.52-3.9-.52-5.27,0-.17-.1-.35-.17-.52-.07-.1-.12-.22-.17-.4-.05-.47.62-1.39,1.17-1.39.85,0,1.02.65,1.04,1.17v.3c0,.12.02.25.02.37.05,1.47.12,3.55.47,5.15,1.62-1.64,3.46-1.81,5.22-1.81,2.88,0,3.41,3.65,3.41,5.64,0,.47.05,1.04.1,1.57,0,.1.02.27.05.37.05.42.1.82.1,1.29v.07c0,.6,0,1.12-.72,1.17Z"/><path class="cls-26" d="m429.36,213.63l-.05-.37c-.27.05-1.94.57-2.01.6-.65.25-.97.35-1.69.52,0,.27.02.45.05.55,0,.1.02.15.02.25.07.97.17,2.31.4,3.16.27.94.62,1.84,1.07,1.84.15,0,.67-.47,1.17-1.17.17.37.37.75.37.87,0,.2-.52.92-.72,1.14l-.8.32c-.2.07-.4.15-.77.15-1.02,0-1.72-1.29-2.19-2.66-.4-1.37-.65-3.31-.75-4.18-.37,0-.45.05-.55.07-.27.12-.67.2-1.04.2-.07,0-.22.02-.35.07-.4.1-.82.15-1.02-.22l-.55-.75c.6-.62,1.86-1.12,2.83-1.19l.4-.02c-.15-1.12-.2-2.21-.2-3.23,0-.94.07-1.81.15-2.24.2-.05.97-.85.75-.6.65.07,1.27.47,1.67,1.74,0,.6-.12.55-.17.85l.02,3.08.84-.12c.77-.1,1.72-.2,2.26-.2.45,0,.92.05,1.27.17l.27.37c-.02.2-.25.62-.7.99Z"/><path class="cls-26" d="m454.72,219.55c0,1.17-1.74,1.67-2.81,1.67-.32,0-.67-.02-1.02-.05-.35-.02-.8-.07-1.12-.07-.4-.17-.8-.32-1.27-.5-.94-.37-1.99-.8-3.48-1.59.12.52.2.97.2,1.37,0,.47-.25,1.04-.87,1.39-.4-.07-.7-.2-.82-.3l-.42-.27c-.35-2.26-.55-4.67-.75-6.91-.1-1.24-.2-2.51-.35-3.65.02-.35.2-1.37,1.47-1.37h.25c.42-.5.92-.75,1.44-1.02l.1-.02.15-.02.55-.15c.22,0,.47-.02.72-.02.27-.02.57-.02.85-.02,1.59,0,3.36.77,4.1,2.16.22.4.27.8.27,1.14,0,.42-.07.82-.2,1.17l-.27.55h.02c-.52,1.09-1.12,2.04-2.19,2.91-.7.55-1.39.85-1.99,1.07l-.97.32,2.11,1.04c1.04.55,2.49,1.22,3.55,1.22.35,0,.7,0,1.04-.12l.7-.47h.57c.32.2.42.37.42.57Zm-4.95-7.8c0-.82-.25-1.27-.87-1.67-.12-.07-.35-.22-.5-.3-.22-.12-.47-.2-.67-.2-.25,0-.5.02-.72.07l-.17.05c-1.42.32-1.62.45-1.94,1.37-.12.42-.17.9-.17,1.42,0,.32,0,.75.02,1.04,0,.35.02.67.02.97,0,.37-.02.7-.05.94.05.12.05.27.05.37.17,0,.32,0,.4-.02.82-.15,1.54-.32,2.36-.94l.27-.22c.12-.07.35-.3.52-.45l.1-.02c.27-.27.5-.6.7-.97.02-.07.05-.12.17-.3l.4-.62h-.02c.07-.12.1-.3.1-.52Z"/><path class="cls-26" d="m478.04,221.39c-.75-.75-1.44-1.57-2.14-2.49-.5.57-1.19,1.27-1.64,1.39-.97.65-2.01.99-3.16.99-.3,0-.65-.02-.9-.07-1.37-.25-2.54-1.59-2.88-2.88-.17-1.07.67-2.21,1.76-2.98,1.24-.75,3.01-1.14,4.03-.99.17.1.4.17.67.25l-.02-.02.32.15c.22.07.47.15.8.35.15-.77.27-1.67.27-2.54,0-1.34-.25-2.58-.82-2.91-.45-.22-1.42.3-2.11.7l-.55.27c-.12.1-.3.17-.47.22h.02c-.15.05-.27.15-.35.22-.15.37-.42.75-.85,1.07-.75.17-.92-.05-1.04-.32v.02l-.15-.22c0-.25.1-.47.2-.62,0,0,.07-.12.07-.47.05-.05.07-.12.07-.2.3-.25.62-.45.92-.72v.02c.8-.6,1.69-1.32,2.56-1.44l.75-.17c.32-.07.6-.12.9-.12.42,0,.87.12,1.44.55h-.02c.99.75,1.17,1.84,1.27,2.86l.07.8c.05.22.05.47.05.7,0,.5-.07,1.04-.15,1.57,0,.07-.05.25-.05.35-.15.72-.27,1.49-.22,2.19.17.17.17.22.22.3l.25.35.42.6,1.37,1.84c.6.22.6.57.52.82v.3l-.45.2c-.22.15-.55.17-.99.12Zm-3.73-3.98l.05-.2c-.05-.15-.27-.4-.45-.55l-.1-.07c-.17-.15-.27-.2-.42-.25v.02c-.25-.07-.42-.17-.65-.35-.27-.1-.47-.12-.62-.12-.77,0-1.64.37-2.21.9-.4.37-.65.82-.65,1.32,0,.35.12.72.35,1.02.3.35.72.52,1.14.52.2,0,.4-.02.62-.07.82-.15,1.69-.5,2.36-1.02.2-.25.35-.57.5-.89h-.02l.07-.2-.3-.05h.32Z"/><path class="cls-26" d="m491.69,214.77c0,.9-.15,1.81-.42,2.41-.87,1.74-2.11,3.46-4.4,3.88-.3.05-.7.07-1.02.07-2.11,0-3.95-1.17-4.97-2.86-.6-.97-.92-2.11-.92-3.21,0-.72.15-1.47.47-2.26.67-1.67,1.76-3.6,3.63-4.33.25-.15.5-.2.7-.2.3,0,.62.12.89.25.05.1.12.1.52.17.15.32.45.5.7.57.12.1.22,0,.37-.07.3-.2.67-.4.99-.4.22,0,.45.1.7.4,1.07.67,2.24,1.49,2.51,2.81.12.65.25,1.71.25,2.76Zm-2.09-1.02c0-.8,0-1.49-.75-2.34-.3-.3-.52-.3-.82-.32h-.15c-.22,0-.52-.02-.8-.07l-.1.3s-.05.15-.1.27c-.37-.25-.62-.27-.9-.2-.37-.37-.6-.87-.62-1.19l-.3.05c-.2.1-.52.27-.72.32l-.72.77-.12.12c-.42.47-.82.92-1.07,1.59v-.02c-.2.5-.3,1.09-.3,1.79,0,.8.2,1.69.5,2.36.55,1.17,1.57,2.16,2.88,2.16.3,0,.65-.05.99-.15.85-.25,1.62-.87,2.16-1.64.65-.87,1.02-2.04.94-3.13-.02-.22-.02-.45-.02-.67Z"/><path class="cls-26" d="m495.23,219.57c.05.42.07.87-.45,1.19-.57.35-.9.15-1.24-.2-.12-.07-.3-.22-.4-.32-.1-.97-.12-3.18-.12-5.24,0-1.91.02-3.73.15-4.57-.2-.67-.15-.9-.07-1.17.02-.15.05-.22.05-.5.27-.25.6-.32.94-.32.32,0,.65.1.87.3.27.6.37,2.81.37,5.07,0,1.29-.02,2.63-.05,3.65,0,.25-.02.65-.02.97v.52l-.07.25.05.37Z"/><path class="cls-26" d="m508.7,214.77c0,.9-.15,1.81-.42,2.41-.87,1.74-2.11,3.46-4.4,3.88-.3.05-.7.07-1.02.07-2.11,0-3.95-1.17-4.97-2.86-.6-.97-.92-2.11-.92-3.21,0-.72.15-1.47.47-2.26.67-1.67,1.76-3.6,3.63-4.33.25-.15.5-.2.7-.2.3,0,.62.12.89.25.05.1.12.1.52.17.15.32.45.5.7.57.12.1.22,0,.37-.07.3-.2.67-.4.99-.4.22,0,.45.1.7.4,1.07.67,2.24,1.49,2.51,2.81.12.65.25,1.71.25,2.76Zm-2.09-1.02c0-.8,0-1.49-.75-2.34-.3-.3-.52-.3-.82-.32h-.15c-.22,0-.52-.02-.8-.07l-.1.3s-.05.15-.1.27c-.37-.25-.62-.27-.9-.2-.37-.37-.6-.87-.62-1.19l-.3.05c-.2.1-.52.27-.72.32l-.72.77-.12.12c-.42.47-.82.92-1.07,1.59v-.02c-.2.5-.3,1.09-.3,1.79,0,.8.2,1.69.5,2.36.55,1.17,1.57,2.16,2.88,2.16.3,0,.65-.05.99-.15.85-.25,1.62-.87,2.16-1.64.65-.87,1.02-2.04.94-3.13-.02-.22-.02-.45-.02-.67Z"/><path class="cls-26" d="m520.01,214.52c-.07.22-.3.77-.72,1.14-.2.1-.37.1-.55.1-.07,0-.15.02-.77.22-1.52.07-4.38.25-5.79.6l-.25.05c-.27.07-.62.17-.87.17-.65,0-1.27-.25-1.52-1.07h-.02c-.05-.22.07-.52.2-.67,1.34-.72,6.11-1.22,7.68-1.34.07,0,.17-.02.22-.02.42-.05.27,0,.67-.07.25-.05.5-.07.72-.07.32,0,.65.05.97.32l.17.27c.02.15-.05.22-.15.37Z"/><path class="cls-26" d="m531.92,221.39c-.75-.75-1.44-1.57-2.14-2.49-.5.57-1.19,1.27-1.64,1.39-.97.65-2.01.99-3.16.99-.3,0-.65-.02-.9-.07-1.37-.25-2.54-1.59-2.88-2.88-.17-1.07.67-2.21,1.76-2.98,1.24-.75,3.01-1.14,4.03-.99.17.1.4.17.67.25l-.02-.02.32.15c.22.07.47.15.8.35.15-.77.27-1.67.27-2.54,0-1.34-.25-2.58-.82-2.91-.45-.22-1.42.3-2.11.7l-.55.27c-.12.1-.3.17-.47.22h.02c-.15.05-.27.15-.35.22-.15.37-.42.75-.85,1.07-.75.17-.92-.05-1.04-.32v.02l-.15-.22c0-.25.1-.47.2-.62,0,0,.07-.12.07-.47.05-.05.07-.12.07-.2.3-.25.62-.45.92-.72v.02c.8-.6,1.69-1.32,2.56-1.44l.75-.17c.32-.07.6-.12.9-.12.42,0,.87.12,1.44.55h-.02c.99.75,1.17,1.84,1.27,2.86l.07.8c.05.22.05.47.05.7,0,.5-.07,1.04-.15,1.57,0,.07-.05.25-.05.35-.15.72-.27,1.49-.22,2.19.17.17.17.22.22.3l.25.35.42.6,1.37,1.84c.6.22.6.57.52.82v.3l-.45.2c-.22.15-.55.17-.99.12Zm-3.73-3.98l.05-.2c-.05-.15-.27-.4-.45-.55l-.1-.07c-.17-.15-.27-.2-.42-.25v.02c-.25-.07-.42-.17-.65-.35-.27-.1-.47-.12-.62-.12-.77,0-1.64.37-2.21.9-.4.37-.65.82-.65,1.32,0,.35.12.72.35,1.02.3.35.72.52,1.14.52.2,0,.4-.02.62-.07.82-.15,1.69-.5,2.36-1.02.2-.25.35-.57.5-.89h-.02l.07-.2-.3-.05h.32Z"/><path class="cls-26" d="m545.57,214.77c0,.9-.15,1.81-.42,2.41-.87,1.74-2.11,3.46-4.4,3.88-.3.05-.7.07-1.02.07-2.11,0-3.95-1.17-4.97-2.86-.6-.97-.92-2.11-.92-3.21,0-.72.15-1.47.47-2.26.67-1.67,1.76-3.6,3.63-4.33.25-.15.5-.2.7-.2.3,0,.62.12.89.25.05.1.12.1.52.17.15.32.45.5.7.57.12.1.22,0,.37-.07.3-.2.67-.4.99-.4.22,0,.45.1.7.4,1.07.67,2.24,1.49,2.51,2.81.12.65.25,1.71.25,2.76Zm-2.09-1.02c0-.8,0-1.49-.75-2.34-.3-.3-.52-.3-.82-.32h-.15c-.22,0-.52-.02-.8-.07l-.1.3s-.05.15-.1.27c-.37-.25-.62-.27-.9-.2-.37-.37-.6-.87-.62-1.19l-.3.05c-.2.1-.52.27-.72.32l-.72.77-.12.12c-.42.47-.82.92-1.07,1.59v-.02c-.2.5-.3,1.09-.3,1.79,0,.8.2,1.69.5,2.36.55,1.17,1.57,2.16,2.88,2.16.3,0,.65-.05.99-.15.85-.25,1.62-.87,2.16-1.64.65-.87,1.02-2.04.94-3.13-.02-.22-.02-.45-.02-.67Z"/><path class="cls-26" d="m556.94,221.39c-.75-.75-1.44-1.57-2.14-2.49-.5.57-1.19,1.27-1.64,1.39-.97.65-2.01.99-3.16.99-.3,0-.65-.02-.9-.07-1.37-.25-2.54-1.59-2.88-2.88-.17-1.07.67-2.21,1.76-2.98,1.24-.75,3.01-1.14,4.03-.99.17.1.4.17.67.25l-.02-.02.32.15c.22.07.47.15.8.35.15-.77.27-1.67.27-2.54,0-1.34-.25-2.58-.82-2.91-.45-.22-1.42.3-2.11.7l-.55.27c-.12.1-.3.17-.47.22h.02c-.15.05-.27.15-.35.22-.15.37-.42.75-.85,1.07-.75.17-.92-.05-1.04-.32v.02l-.15-.22c0-.25.1-.47.2-.62,0,0,.07-.12.07-.47.05-.05.07-.12.07-.2.3-.25.62-.45.92-.72v.02c.8-.6,1.69-1.32,2.56-1.44l.75-.17c.32-.07.6-.12.9-.12.42,0,.87.12,1.44.55h-.02c.99.75,1.17,1.84,1.27,2.86l.07.8c.05.22.05.47.05.7,0,.5-.07,1.04-.15,1.57,0,.07-.05.25-.05.35-.15.72-.27,1.49-.22,2.19.17.17.17.22.22.3l.25.35.42.6,1.37,1.84c.6.22.6.57.52.82v.3l-.45.2c-.22.15-.55.17-.99.12Zm-3.73-3.98l.05-.2c-.05-.15-.27-.4-.45-.55l-.1-.07c-.17-.15-.27-.2-.42-.25v.02c-.25-.07-.42-.17-.65-.35-.27-.1-.47-.12-.62-.12-.77,0-1.64.37-2.21.9-.4.37-.65.82-.65,1.32,0,.35.12.72.35,1.02.3.35.72.52,1.14.52.2,0,.4-.02.62-.07.82-.15,1.69-.5,2.36-1.02.2-.25.35-.57.5-.89h-.02l.07-.2-.3-.05h.32Z"/><path class="cls-26" d="m569.64,217.18c0,.97-.67,2.19-1.49,3.03-.55.42-1.34.6-2.01.72h.02c-.07,0-.17,0-.25.02h.02c-.42.05-.82.07-1.27.07-.65,0-1.32-.05-1.94-.17-1.19-.3-1.71-.62-2.39-1.04l-.7-.47h.17c-.47-.35-.77-.75-.22-1.14.65.02,1.17.3,1.49.57.3.25.62.5.8.5.22,0,.45.02.62.07.27.05.57.12,1.02.02.27.17.62.25.94.25,1.04,0,2.49-.42,2.83-1.29,0-.02.02-.1.02-.15.17-.45.32-.94.32-1.44,0-.45-.2-.92-.57-1.17-.32-.22-.87-.37-1.27-.42l-.35-.02c-.15-.02-.4-.05-.6-.05-.35,0-.72.05-1.12.22l.02-.02c-.57.25-1.27.65-1.84,1.09-.55.27-1.19.1-1.29-.52.05-.6.47-1.02.94-1.39.22-.02.5-.22.77-.42.42-.35.94-.77,1.52-.85.02-.07.1-.12.15-.15.72-.82,1.59-1.71,1.52-2.34-.1-.57-.97-.85-1.77-.85-1.02.02-1.86.5-2.06,1.59-.02.05-.05.1-.05.15v-.02c-.17.55-.32.89-.7.89-.22,0-.52-.1-.97-.3-.37-.2-.55-.42-.55-.62s.2-.47.42-.8c.22-.65.7-1.47,1.49-1.86.62-.25,1.42-.55,2.26-.7,1.29-.12,3.06.6,3.7,1.86.05.25.1.45.1.67,0,1.07-.72,2.06-1.49,2.98h.47c.99,0,2.09.2,2.59,1.17.42.82.65,1.59.65,2.31Z"/><path class="cls-26" d="m580.56,218.38c.07.42.15.87.15,1.37,0,.75-.2,1.47-.94,1.79v-.02c-.47.17-1.27-.15-1.34-.72l-.07-.55c-.05-.5-.1-1.12-.1-1.59.02-.42-.02-1.02-.07-1.52l-.02-.25c-.05-.4-.07-.9-.07-1.34-.02-.77-.22-2.24-.42-3.53-.02-.27-.07-.55-.12-.75v.02c-.07-.42-.12-.92-.17-1.44l-.02.07c0-.07-.02-.12-.02-.17-.02-.25-.07-.57-.07-.77,0-.27.07-.57.32-.77h-.02c.3-.2.57-.3.82-.3.52,0,.9.37,1.04.99.3,1.17.42,2.63.55,4.1v-.02l.05.62c.15,1.52.32,3.11.47,4.2l.07.4.02.17Z"/><path class="cls-26" d="m592.89,220.09c-.55.1-1.44.55-1.84.72-.77.42-1.64.89-2.83.82-2.01-.15-3.33-.57-4.82-1.86-.6-.57-1.04-1.74-1.24-2.83-.2-1.74.7-5.34,1.62-6.94.77-1.32,2.41-2.34,4.25-2.34.32,0,.67.02.97.07l-.02-.02.4.17h-.02c.22.15.45.32.97.4.2.4.47.67.67.85l.12.1c.32.35.65.57.82,1.12-.12.25-.15.52-.17.72v.15c-.02.62-.1,1.24-1.04,1.49-.42.12-.75-.1-.99-.27l-.07-.07c-.07-.07-.22-.15-.4-.25-.12-.27-.2-.55-.27-.8l-.1-.32v.05l-.05-.22c-.15-.57-.32-1.09-.77-1.49-.8.05-2.41,1.19-2.54,1.76-.6.92-1.04,3.01-1.04,4.82,0,1.27.2,2.39.62,2.78.85.87,1.99,1.12,3.16,1.12.42,0,.84-.02,1.27-.1.3-.07,3.28-1.12,3.9-1.94.2-.1.25-.22.35-.42l.1-.17v.02c.2-.35.4-.7.87-.87l.65.3c.25,1.39-1.29,2.59-2.49,3.46Z"/><path class="cls-26" d="m595.2,214.08c0-2.58,2.76-6.46,5.05-6.46.4,0,.6.07.8.15h-.02l.27.1.32.1c.2.22.42.5.82.65.15.3.32.35.57.37.6.02,1.22.07,1.69.62.05.1.35.35.42.42,1.37,1.52,2.59,2.96,2.59,5.39,0,2.83-3.01,6.06-5.97,6.06-3.85,0-6.54-2.73-6.54-7.41Zm7.41-3.78c0,.17-.02.45-.12.77-.22-.12-.42-.35-.52-.55l-.35.3c-.35-.32-.6-.75-.62-.99l-.05-.2-.15-.25-.5.25h.02s-.3.15-.75.27c-.15.05-.25.25-.37.42l-.15.17-.15.22v-.02l-.2.27c-.7.82-1.22,1.57-1.22,2.98,0,2.93,1.59,5.54,4.13,5.54,1.86,0,3.78-2.26,3.78-4.15,0-1.74-1.32-3.9-2.78-5.05Z"/><path class="cls-26" d="m621.68,219.2c0,.15-.1.3-.22.45v.4c-.17-.02-.32-.02-.45-.02-.6,0-.82.17-1.09.32l-.12.07c-.35.22-.75.47-1.14.47-.2,0-.47-.07-.77-.25-2.06,0-3.53-1.64-4.72-3.43v.02l-.25-.45-1.84-2.29c0,1.32.3,2.91.3,4.45,0,.2-.02.37-.02.55v.42c0,.12.02.25.02.4,0,.4-.1,1.27-.89,1.27-.45,0-.9-.17-1.24-.37-.07-1.29-.12-2.61-.15-4l-.07-2.71c-.02-.75-.07-1.62-.17-2.49v-.27l.47-.47-.2-.22s.1-.07.1-.07c-.02-.1-.02-.2-.02-.3,0-.32.17-.92,1.04-.92.57,0,1.14.5,1.34,1.02l.02.22c.15,1.34,2.44,3.83,3.03,4.6.72,1.22,2.09,3.01,3.33,3.31h-.02c.25.07.65.12,1.19.12-.2-.97-.35-2.01-.35-2.81,0-1.29.22-2.54.22-3.83,0-.8-.07-1.54-.3-2.26,0,0,.02-.2.05-.25-.07-.3-.15-.6-.15-.97,0-.27.12-1.07.57-1.07.52,0,.99.15,1.34.37.05.12.07.17.1.17l-.02.22c.02.17.07.32.3.5,0,1.52.12,2.86.12,4.67v.72c.07.47.07,1.04.07,1.62,0,.22-.02.47-.02.7,0,.85.07,1.64.5,2.11v-.05l.1.15s.02.12.02.17Z"/><path class="cls-26" d="m634.86,218.4v.07c-.07.47-.27.84-.57,1.17h.02c-.77.85-2.76,1.67-3.9,1.94-.84.17-1.74.27-2.66.27-.7,0-1.39-.07-2.11-.25h.02c-1.02-.3-2.11-.65-2.56-1.44-.1-.15-.2-.27-.3-.47l.62-.45c.89.65,2.16.89,3.21.94,1.27.05,2.76-.1,4.03-.4.47-.07,1.17-.55,1.72-.9h-.05c.22-.07.32-.3.35-.52.05-.32-.15-.65-.37-.85-.89-.67-2.61-1.12-4.18-1.47l-.4-.07c-.72-.15-1.39-.32-2.06-.57-.6-.22-1.99-.82-2.36-1.27l.02.1-.05-.07-.05-.2c-.17-.2-.3-.45-.32-.57-.12-.45-.02-.92.12-1.34.42-1.29,1.77-2.49,2.98-3.18.62-.37,1.74-.87,2.66-.87.4,0,.85.12,1.22.27h.37c.52.22.7.62.82.94.05.15.07.27.22.42.17.75-.32,1.09-.8,1.39-.1.05-.17.1-.52.47l-.42-.42c0-.17-.05-.32-.05-.5.07-.07.05-.22.05-.4-.3-.22-.6-.35-.87-.22l-.27.07c-.47.12-1.19.32-1.64.62-.62.42-1.29,1.04-1.59,1.52l-.37.7c.2.4.65.65.99.75.15.05.35.12.5.15.6.22,1.17.4,1.84.52,1.69.27,4.45,1.09,5.72,2.19.45.47.87,1.17.99,1.91Z"/><path class="cls-26" d="m647.54,221.26c-.57,0-1.22-.15-1.84-.32-1.57,0-3.75-2.86-3.75-4.37,0-2.39,1.67-6.11,4.62-6.11.4,0,.8.1,1.17.35.67.02.9.42,1.12.79v-.02l.1.15c.1.22.2.32.42.32.57.75,1.04,1.67,1.04,2.46,0,.3-.12.7-.42,1.14h-.37c-1.22,0-1.62-1.14-1.91-2.11-.25-.8-.47-1.44-1.02-1.44-1.12,0-2.68,2.36-2.68,3.41,0,2.41,1.12,4.15,3.58,4.15,1.22,0,2.09-.45,2.88-.82.6-.27,1.12-.55,1.69-.55h.55v.52c-1.42,1.54-3.55,2.46-5.17,2.46Z"/><path class="cls-26" d="m656.76,221.86c-1.04,0-2.34-.99-3.06-1.77-.77-.77-1.44-2.49-1.47-3.48-.02-1.17.37-2.61,1.34-3.75.75-.92,1.14-1.17,1.94-1.72.65-.42,1.89-.5,2.68-.4.75.1,1.81.22,1.81,1.07-.02.07-.05.37-.07.52-.02.15-.05.3-.05.4,0,.12.12.25.3.35l.35.37.25.27c.6.65,1.14,1.29,1.27,2.36.32,2.76-2.29,5.77-5.29,5.77Zm1.02-8.13c0-.8-.3-1.29-.87-1.29h-.1s.02.1-.12.25l-.2-.27c-.94.67-2.26,2.71-2.26,3.98,0,1.02,1.32,4,2.49,4,1.67,0,3.38-2.11,3.31-3.85-.02-.77-.6-2.49-2.24-2.81Z"/><path class="cls-26" d="m680.08,218.85c0,.52-.17,2.26-1.04,2.51-.42.15-1.34-.07-1.34-.77,0-.2.1-.62.17-.92l.07-.37c.1-.35.2-.72.2-1.19,0-2.14-1.52-5.02-3.83-5.02-.67,0-1.81.35-2.63,1.62.05.2.1.35.17.42.02.1.05.25.05.67,0,.35.05.7.15,1.09,0,.02.02.07.02.07.1.52.2,1.12.12,1.72-.07.55-.32,1.96-1.04,2.49-1.02-.05-1.17-.6-1.27-1.22-.02-.2-.07-.42-.17-.67v-.37c-.02-.52.02-.94.07-1.44.05-.37.07-.82.07-1.19,0-1.74-1.22-3.31-2.98-3.31-.97,0-1.24.72-1.24,1.69,0,2.06.02,4.15.17,6.21-.12.35-.35.47-.57.55l.05-.02-.1.02c-.1,0-.17.05-.27.05-1.12-.12-1.19-.87-1.24-1.62-.02-.3-.05-.67-.22-.99.12-.77.12-1.47.12-2.16s0-1.42.12-2.09l-.05-.27c-.02-.2-.05-.42-.1-.52-.15-.5-.22-.94-.22-1.39,0-.42.17-1.17.9-1.17.37,0,.77.3,1.02.62.6-.32,1.29-.52,1.77-.52,1.52,0,2.86.92,3.8,2.14.8-1.04,1.69-1.86,3.68-1.86,2.93,0,3.78,1.19,4.87,3.26.5,1.04.72,2.73.72,3.98Zm-15.19,2.61h.02-.02Z"/><path class="cls-26" d="m690.3,219.97c-.97.97-2.39,1.34-3.9,1.34-1.02,0-2.01-.4-2.71-.7l.17,2.36v-.05l.22,2.91.1.99c.05.47.1,1.04.1,1.54,0,.42-.02,1.24-.94,1.44-.17-.12-.27-.2-.35-.2-.32-.1-.65-.17-.7-.6-.1-.6-.15-1.72-.2-2.46v-.82c-.02-.7-.05-1.54-.15-2.16-.12-.89-.17-1.79-.22-2.63,0-.15-.02-.27-.02-.4,0-.3-.02-.67-.05-1.04-.4-.32-.55-.55-.67-.8l.02.07-.05-.12-.12-.25c-.1-.17-.15-.32-.35-.55,0-.2.1-.4.3-.52l.1-.05c.2,0,.47.1.75.25l-.12-1.89c-.07-.8-.12-1.71-.12-2.36,0-.47.37-1.44,1.09-1.44.27,0,.57.17.77.37.87-.75,2.39-1.17,3.13-1.17,1,0,1.86.32,2.61.82.75.5,1.34,1.09,1.76,1.74.37.7.8,2.46.8,3.08-.03,1.49-.5,2.54-1.24,3.28Zm-2.11-6.66c-.57-.42-1.27-.65-2.04-.65-1.49,0-2.01.99-2.46,2.14.05.37.02,1.12,0,1.72-.02.55-.05.97-.05,1.42,0,.37,0,.77.07,1.09l.42.12.45.15c.7.27,1.59.5,2.24.5.94,0,1.79-.42,2.31-1.04.5-.62.75-1.54.65-2.54-.12-1.27-.72-2.31-1.59-2.91Z"/><path class="cls-26" d="m704.52,221.21c-.55,0-1.34-.05-1.86-.3-.52-.25-1.52-1.49-2.09-2.44l-.35.55s-.02.05-.05.07l-.1.15v-.02c-.22.37-.52.67-.87.92-.92.47-2.68.94-3.65.94-1.07,0-2.51-.75-2.88-1.77v.02c-.17-.42-.27-.97-.27-1.47,0-1.57.6-3.43,1.64-4.77.92-1.22,1.99-2.29,3.75-2.29.57,0,1.24.1,1.59.47.02.05.12.15.17.2.25.25.62.62.84.72.2.05.4.15.72.15h.12s.05-.02.07-.02c.22.62.25,1.12.25,1.54v.77c0,1.69.67,3.43,1.64,4.6.22.27.45.6.99.6.5,0,.99-.02,1.47-.27,0,0,.05-.1.07-.12.2-.2.35-.3.55-.3.07,0,.15,0,.2.02l.25.42c-.2.62-1.44,1.62-2.21,1.62Zm-5-6.14l-.22-1.07c-.2-.2-.32-.4-.4-.55-.27-.35-.72-.7-1.09-.87-1.07.27-1.96,1.29-2.49,2.26-.52.85-.92,1.57-.92,2.54,0,.67.1,1.39.5,1.74.1.1.37.1.57.1h.15c2.29,0,4.03-1.17,4.03-3.6l-.12-.55Z"/><path class="cls-26" d="m716.16,221.14c-.02.45-.57.72-.89.72-.35,0-.45-.1-.62-.25-.05-.05-.12-.07-.3-.1-.12-.4-.1-.4-.1-.5,0-.27.08-.42.17-.6,0,0,0-.02.03-.05v.02c.07-.15.17-.25.02-.6l.2-.25v-.27c0-1.27-.35-2.44-.67-3.65-.2-.42-.94-2.73-3.01-2.73-1.94,0-2.81,1.14-2.81,3.13,0,.8.27,1.81.52,2.61l.15.5c-.1.17-.1.3-.1.42s.03.27.05.42c.02.15.05.35.05.55,0,.57-.47.92-1.09.92-.35,0-.6-.15-.77-.35-.07-.05-.12-.15-.22-.2-.3-.45-.42-.92-.42-1.42,0-.25-.02-.47-.05-.72-.02-.15-.02-.32-.02-.47-.03-.42-.05-.89-.05-1.19,0-.42-.07-1.19-.22-1.54l-.3-1.67c-.17-.35-.35-.72-.35-1.04,0-.25.1-.42.3-.67.27-.07.45-.1.55-.1.55,0,.87.27,1.04.6.82-.89,1.99-1.34,3.06-1.52.37-.07.75-.1,1.12-.1,3.18,0,3.95,2.58,4.52,4.72l.22.75.1.35c.22.62.35,1.34.35,2.04l-.02.99c-.05.42-.12.85-.42,1.24Zm-1.69-.87l-.02.05s.02,0,.02-.05Z"/><path class="cls-26" d="m727,230.01c-.27,0-.35.12-.42.22-.12.15-.3.32-.52.42-.65.45-2.36.94-3.48.94-.37,0-.8-.05-1.04-.17-2.01-.12-4.47-1.89-5.79-3.43l.37-.4s.27.07.42.1c.35.1.57.25.77.42.12.15.32.35.65.32,1.02.94,2.98,1.54,4.2,1.54.85,0,1.67-.17,2.46-.62,1.94-.45,2.46-4.1,2.46-5.79,0-.82-.15-1.76-.3-2.63l-.05-.3c-.1-.7-.27-1.34-.3-2.34-1.44,1.39-3.85,3.18-5.27,3.18-1.71,0-2.86-1.86-2.88-3.38-.15-1.42-.4-3.68-.45-4.33-.15-.25-.25-.47-.25-.67,0-.22.1-.45.2-.65.35-.62,1.22-1.07,1.32-1.07,1.44,0,1.32.67,1.17,1.37l.02-.05v.02c-.12.62.03,2.09-.17,2.83v.2s.02.15.02.22l.03.25c.07,1.29.22,3.48.97,3.48.99,0,2.54-1.14,3.33-1.77,1.02-.82,1.52-2.16,1.52-3.53,0-.4-.05-.65-.1-.82,0-.05-.02-.1-.02-.15l-.08-.3c-.07-.27-.12-.52-.12-.82s.1-.6.55-.87c.02,0,.15-.02.17-.07,1.49.1,1.67,2.26,1.64,3.43v.4c0,1.27.22,2.78.5,4.28.25,1.49.5,3.16.5,4.72,0,.3,0,.62-.02.9-.1,1.74-.62,3.36-1.99,4.9Z"/><path class="cls-26" d="m733.42,219.27c0,1.09-1.29,1.67-2.46,1.69-.85-.25-.94-.87-.94-1.74s.45-1.69,1.86-1.69c.35,0,.47.2.97.2h.2l.17.75c.12.3.2.55.2.8Z"/><path class="cls-26" d="m750.2,217.46c0,.32.05.97.1,1.32l.05.42c.05.3.1.6.05.94.12.47-.02,1.17-.67,1.27-1.14.05-1.54-1.44-1.59-2.24,0-.1-.02-.17-.02-.22v-.15c-.03-.17-.05-.47-.05-.65-.03-.02.07-.22.22-.37-.4,0-.6,0-.84.02h.02c-.42.02-.99.05-1.54.05-.75,0-1.59-.05-2.24-.17h-.12s-.17.02-.27.02c-.05.55-.05.72-.05.92,0,.62.05,1.22.2,1.96.07.32-.05.67-.42.99h.02c-.2.12-.42.22-.7.22-.22,0-.47-.05-.67-.25-.67-.65-.67-1.69-.65-2.71.02-.72.02-1.44-.27-1.96,0-.3.02-.67.05-.97h.25c.03-.32.03-.87.03-1.17,0-.57-.03-1.19-.08-1.72-.05-.7-.1-1.42-.1-2.24,0-.47.32-.65.8-.87.27-.02.62-.02.92.1,1.22-1.81,2.51-2.19,3.38-2.24,1.24-.07,2.14,1.04,2.68,2.41v-.05c.55,1.49.82,3.03.99,4.15l.08.67c.02.4.1.72.22.97.32.07.47.25.52.52.1.37,0,.67-.3.99Zm-2.39-1.74c-.05-.17-.07-.4-.07-.6,0-.07-.03-.15-.03-.22-.05-.52-.12-1.22-.25-1.69-.25-1.04-.6-2.26-1.12-3.36l-.2-.3c-2.24.42-2.66,3.73-2.83,6.19h.57c.67.02,1.29.05,2.01.05.52,0,1.02,0,1.91-.07Z"/><path class="cls-26" d="m754.38,221.11l-.2.2-.32.05c-.55,0-.87-.35-1.09-.75v-.72c-.02-.5-.07-.99-.12-1.52-.05-.5-.1-.99-.1-1.54,0-.07-.02-.15-.02-.22v-.25l-.05-1.02c-.12-2.49-.3-5.62-.55-7.78l-.03-.12v-.1s.1-.32.17-.52l-.05.07s.05-.15.1-.25l.07-.22c.3-.17.57-.27.77-.27,1.04-.02,1.04.52,1.04,1.14v.1c.02,1.94.22,4.15.42,6.34l.07.67c.17,2.09.37,4.18.4,6.06.03.37-.25.52-.52.65Z"/><path class="cls-26" d="m759,220.86c-.65-.67-.79-1.67-.82-2.51v-.17c-.02-.42-.05-.87-.2-1.32.02-.62-.52-5.47-.6-5.89-.12-.47-.25-.92-.35-1.42-.12-.57-.2-.99-.27-1.22,0-.02-.02-.05-.02-.07-.1-.45-.27-1.04.37-1.44.57-.3,1.49.05,1.71.7.07.37.15.65.02,1.09-.05.12.05.4.17.57v-.02c.1.22.22.67.22.99.27.99.84,4.5,1.17,7.08.25,1.62.32,2.96.2,3.21v-.02c-.27.45-1.14.85-1.62.45Z"/><path class="cls-26" d="m777.3,211.89c-.02.35-.2.45-.57.45-.03,0-.1-.05-.2-.1-.17.02-.42-.05-.6-.12,0,0-.12.02-.25.02h-.82c-2.19,0-3.65,2.49-3.65,4.52,0,.8.15,1.62.27,2.34l.1.5s.03.1.03.12c0,.07.02.17.07.25l-.03-.02c.08.3.12.62.12.82,0,.75-.67.97-1.29.85-.55-.15-.77-1.39-.99-2.49l-.05-.22c-.02-.25-.17-.82-.37-1.44-.07-.22-.12-.5-.2-.77-.27-1.04-.67-2.49-.67-2.71,0-.15-.02-.42-.05-.6-.05-.57-.1-1.24.27-1.69l-.03.05c.17-.15.4-.32.65-.32.72,0,.97.84,1.19,1.74.94-1.32,2.88-2.44,4.18-2.44.79,0,1.84.47,2.63.85l.1.05c.07.17.12.42.15.37Z"/><path class="cls-26" d="m779.39,209.43c-.2,0-.37.02-.65.02-.42-.05-.85-.45-.85-.94,0-.62.5-.99,1.17-.99.47,0,1.14.32,1.24.97l-.05.1c0,.1.03.17.03.22.02.07.05.17.05.22l-.03.07c-.1.17-.4.32-.92.32Zm1.27,11.66c-.4,0-1.02-.2-1.22-.7-.1-.37-.27-1.09-.32-1.52-.05-.45-.07-1.04-.1-1.64-.08-1.09-.17-2.41-.45-3.33l-.17-.75c0-.17,0-.32.05-.47l.03-.2c0-.57.42-.8.89-.8.45,0,.94.27.99.7.02.22.05.5.1.7l.1.6c.3,1.71.72,4.4.67,4.8-.03.22.02.5.1.77.1.3.15.55.15.82,0,.35-.22,1.02-.82,1.02Z"/><path class="cls-26" d="m792.56,228.49c-1.07.94-4.08,2.04-5.49,2.04-1.62,0-2.73-.67-3.9-1.39-.22-.1-.52-.3-.77-.42-.4-.35-1.42-1.74-1.67-2.56-.12-.12-.15-.25-.15-.35,0-.52.05-.72.12-.72.1,0,.32.22.6.52l.05-.07c1.74,2.14,3.26,3.18,5.79,3.18s4.67-.77,4.67-3.68c0-1.79-.45-4.08-1.14-5.89-.25.12-.4.2-.6.37l-.27.17c-.27.2-.6.4-.97.6-.57.3-1.24.65-2.01.75-1.74.22-3.36-.85-3.9-2.54-.1-.3-.37-1.24-.35-1.94.07-2.81.82-5.82,4.35-5.82,1.19,0,2.34.6,3.26,1.34.15-.05.32-.05.37-.05,1.62,0,1.86,2.81,1.99,4.8.05.72.1,1.29.15,1.49.55,2.11.95,4.33.95,6.44,0,.97-.15,2.96-1.07,3.73Zm-3.38-14.54l.02.02-.15-.45c-.5-.07-.75-.35-.92-.62v.02c-.08-.15-.22-.32-.3-.4-.25-.1-.4-.17-.55-.2-1.84.1-2.91,2.26-2.91,4.05,0,1.17.57,2.96,1.86,2.96.72,0,1.52-.27,2.16-.8l.45-.3-.03.02c.62-.42,1.29-.87,1.29-1.62,0-.55-.55-1.81-.94-2.71Z"/><path class="cls-26" d="m804.72,221.66l-.07.12v-.1l-.35.12c-.84-.07-1.02-1.14-1.04-1.59v-.12c-.02-.32,0-.72.03-1.12v.02c.02-.25.02-.45.02-.72,0-1.17-.07-2.09-.45-3.23,0-.8-.65-1.79-1.34-1.79-1.86,0-4.52.7-4.52,3.08,0,.47.05.72.12.94.1.32.15.65.15,1.04,0,.27.05.57.1.87.07.32.12.62.12,1.04,0,.27-.02.55-.25.82-.12.22-.35.27-.55.27-.25,0-.57-.1-.8-.2-.47-.55-.7-3.11-.89-5.07l-.07-.8c-.05-.57-.1-1.04-.2-1.34v.02c-.25-1.29-.52-3.9-.52-5.27,0-.17-.1-.35-.17-.52-.07-.1-.12-.22-.17-.4-.05-.47.62-1.39,1.17-1.39.85,0,1.02.65,1.04,1.17v.3c0,.12.03.25.03.37.05,1.47.12,3.55.47,5.15,1.62-1.64,3.46-1.81,5.22-1.81,2.88,0,3.41,3.65,3.41,5.64,0,.47.05,1.04.1,1.57,0,.1.02.27.05.37.05.42.1.82.1,1.29v.07c0,.6,0,1.12-.72,1.17Z"/><path class="cls-26" d="m814.97,213.63l-.05-.37c-.27.05-1.94.57-2.01.6-.65.25-.97.35-1.69.52,0,.27.03.45.05.55,0,.1.03.15.03.25.07.97.17,2.31.4,3.16.27.94.62,1.84,1.07,1.84.15,0,.67-.47,1.17-1.17.17.37.37.75.37.87,0,.2-.52.92-.72,1.14l-.79.32c-.2.07-.4.15-.77.15-1.02,0-1.71-1.29-2.19-2.66-.4-1.37-.65-3.31-.75-4.18-.37,0-.45.05-.55.07-.27.12-.67.2-1.04.2-.07,0-.22.02-.35.07-.4.1-.82.15-1.02-.22l-.55-.75c.6-.62,1.86-1.12,2.83-1.19l.4-.02c-.15-1.12-.2-2.21-.2-3.23,0-.94.07-1.81.15-2.24.2-.05.97-.85.75-.6.65.07,1.27.47,1.67,1.74,0,.6-.12.55-.17.85l.03,3.08.84-.12c.77-.1,1.71-.2,2.26-.2.45,0,.92.05,1.27.17l.27.37c-.03.2-.25.62-.7.99Z"/><path class="cls-26" d="m822.75,221.06c-1.04.45-1.91.65-2.63.65-.57,0-1.19-.15-1.91-.35l-.55-.1c-.32-.15-.65-.27-.87-.4l-.55-.27-.2-.2s-.07-.12-.1-.15c-.2-.22-.45-.57-.45-.94,0-.07.12-.45.22-.82,1.32,1.04,2.76,1.76,4,1.76.67,0,3.11-.52,3.11-1.29,0-.47-1.22-.85-2.51-1.34l-.7-.25c-1.39-.5-2.88-1.17-3.6-2.01-.42-.5-.77-1.07-.77-1.52,0-.72.62-1.27,1.14-1.71l.57-.5c.92-.82,1.62-1.42,3.36-1.42.8,0,.9.05,1.04.22.05.07.47.47.57.57.07.25.1.32.17.5l.05.1.12.17c.12.25.27.52.27.89,0,.27-.2.65-.57,1.02-.7-.35-.9-.55-1.04-.77l-.12-.12h.03c-.32-.35-.65-.7-1.02-.7-.52,0-2.66,1.19-2.66,1.74,0,.32.1.5.37.7v-.02c.92.82,2.06,1.22,3.03,1.52.72.17,1.67.47,2.19.75.94.42,1.99,1.19,1.99,2.29,0,.72-1.34,1.81-1.99,2.01Zm-.65-9.57h.02l-.02-.1v.1Z"/><path class="cls-26" d="m840.25,211.89c-.02.35-.2.45-.57.45-.03,0-.1-.05-.2-.1-.17.02-.42-.05-.6-.12,0,0-.12.02-.25.02h-.82c-2.19,0-3.65,2.49-3.65,4.52,0,.8.15,1.62.27,2.34l.1.5s.03.1.03.12c0,.07.02.17.07.25l-.03-.02c.08.3.12.62.12.82,0,.75-.67.97-1.29.85-.55-.15-.77-1.39-.99-2.49l-.05-.22c-.02-.25-.17-.82-.37-1.44-.07-.22-.12-.5-.2-.77-.27-1.04-.67-2.49-.67-2.71,0-.15-.02-.42-.05-.6-.05-.57-.1-1.24.27-1.69l-.03.05c.17-.15.4-.32.65-.32.72,0,.97.84,1.19,1.74.94-1.32,2.88-2.44,4.18-2.44.79,0,1.84.47,2.63.85l.1.05c.07.17.12.42.15.37Z"/><path class="cls-26" d="m850.42,220.19l-.4.37c-.92.82-1.86,1.24-3.16,1.24-2.34,0-5.29-1.59-5.72-4.75-.52-.12-1.04-.25-1.04-.94,0-.75.47-.92.92-1.02.52-2.81,3.18-4.55,6.09-4.55,1.59,0,4.35.8,4.35,3.08,0,2.51-3.85,3.33-5.77,3.43-.2,0-.47.02-.7.05-.22,0-.4.02-.55.02-.32.02-.92.05-1.22.05.45,1.52,1.91,2.98,3.65,2.98.57,0,1.72-.5,2.24-1.07.42-.12.87-.5,1.22-.85.42-.4.97-.87,1.64-.99l.45.45c-.25.99-1.24,1.81-2.01,2.49Zm-1.09-6.19c-.22-1.44-.92-1.94-1.77-1.94-2.09,0-4.3,1.71-4.5,3.06h.47c.12,0,.25.02.4.02h1.12c.99,0,3.6-.25,4.28-1.14Z"/><path class="cls-26" d="m860.22,221.06c-1.04.45-1.91.65-2.63.65-.57,0-1.19-.15-1.91-.35l-.55-.1c-.32-.15-.65-.27-.87-.4l-.55-.27-.2-.2s-.07-.12-.1-.15c-.2-.22-.45-.57-.45-.94,0-.07.12-.45.22-.82,1.32,1.04,2.76,1.76,4,1.76.67,0,3.11-.52,3.11-1.29,0-.47-1.22-.85-2.51-1.34l-.7-.25c-1.39-.5-2.88-1.17-3.6-2.01-.42-.5-.77-1.07-.77-1.52,0-.72.62-1.27,1.14-1.71l.57-.5c.92-.82,1.62-1.42,3.36-1.42.8,0,.9.05,1.04.22.05.07.47.47.57.57.07.25.1.32.17.5l.05.1.12.17c.12.25.27.52.27.89,0,.27-.2.65-.57,1.02-.7-.35-.9-.55-1.04-.77l-.12-.12h.03c-.32-.35-.65-.7-1.02-.7-.52,0-2.66,1.19-2.66,1.74,0,.32.1.5.37.7v-.02c.92.82,2.06,1.22,3.03,1.52.72.17,1.67.47,2.19.75.94.42,1.99,1.19,1.99,2.29,0,.72-1.34,1.81-1.99,2.01Zm-.65-9.57h.02l-.02-.1v.1Z"/><path class="cls-26" d="m872.4,220.19l-.4.37c-.92.82-1.86,1.24-3.16,1.24-2.34,0-5.29-1.59-5.72-4.75-.52-.12-1.04-.25-1.04-.94,0-.75.47-.92.92-1.02.52-2.81,3.18-4.55,6.09-4.55,1.59,0,4.35.8,4.35,3.08,0,2.51-3.85,3.33-5.77,3.43-.2,0-.47.02-.7.05-.22,0-.4.02-.55.02-.32.02-.92.05-1.22.05.45,1.52,1.91,2.98,3.65,2.98.57,0,1.72-.5,2.24-1.07.42-.12.87-.5,1.22-.85.42-.4.97-.87,1.64-.99l.45.45c-.25.99-1.24,1.81-2.01,2.49Zm-1.09-6.19c-.22-1.44-.92-1.94-1.77-1.94-2.09,0-4.3,1.71-4.5,3.06h.47c.12,0,.25.02.4.02h1.12c.99,0,3.6-.25,4.28-1.14Z"/><path class="cls-26" d="m883.71,211.89c-.02.35-.2.45-.57.45-.03,0-.1-.05-.2-.1-.17.02-.42-.05-.6-.12,0,0-.12.02-.25.02h-.82c-2.19,0-3.65,2.49-3.65,4.52,0,.8.15,1.62.27,2.34l.1.5s.03.1.03.12c0,.07.02.17.07.25l-.03-.02c.08.3.12.62.12.82,0,.75-.67.97-1.29.85-.55-.15-.77-1.39-.99-2.49l-.05-.22c-.02-.25-.17-.82-.37-1.44-.07-.22-.12-.5-.2-.77-.27-1.04-.67-2.49-.67-2.71,0-.15-.02-.42-.05-.6-.05-.57-.1-1.24.27-1.69l-.03.05c.17-.15.4-.32.65-.32.72,0,.97.84,1.19,1.74.94-1.32,2.88-2.44,4.18-2.44.79,0,1.84.47,2.63.85l.1.05c.07.17.12.42.15.37Z"/><path class="cls-26" d="m893.66,209.35c.25,0,.42.12.42.52,0,.77-.45,2.46-.77,3.48l.03-.02-.17.35c-.47.94-.55,2.16-.72,3.16l-.35,1.89c-.62.89-.3,2.76-1.86,2.76-1.32,0-1.22-.97-2.19-1.74l.03.07-.52-1.04c-.79-1.59-1.64-3.36-2.76-4.37l.02-.07c-.2-.1-.32-.3-.4-.47l-.1-.07c-.4-.62-.4-1.02-.4-1.39v-.37c.2-.32.5-.52.87-.52.92,0,1.12.47,2.04,2.11v-.02c.89,1.64,2.19,3.83,3.06,5.05.42-1.14.67-2.06.87-3.01l.1-.47c.4-1.91.9-3.9,2.31-5.69.17-.05.37-.1.5-.1Z"/><path class="cls-26" d="m904.15,220.19l-.4.37c-.92.82-1.86,1.24-3.16,1.24-2.34,0-5.29-1.59-5.72-4.75-.52-.12-1.04-.25-1.04-.94,0-.75.47-.92.92-1.02.52-2.81,3.18-4.55,6.09-4.55,1.59,0,4.35.8,4.35,3.08,0,2.51-3.85,3.33-5.77,3.43-.2,0-.47.02-.7.05-.22,0-.4.02-.55.02-.32.02-.92.05-1.22.05.45,1.52,1.91,2.98,3.65,2.98.57,0,1.72-.5,2.24-1.07.42-.12.87-.5,1.22-.85.42-.4.97-.87,1.64-.99l.45.45c-.25.99-1.24,1.81-2.01,2.49Zm-1.09-6.19c-.22-1.44-.92-1.94-1.77-1.94-2.09,0-4.3,1.71-4.5,3.06h.47c.12,0,.25.02.4.02h1.12c.99,0,3.6-.25,4.28-1.14Z"/><path class="cls-26" d="m919.61,222.03c-.15,0-.32.07-.5.2-.99-.1-1.59-.65-1.96-1.29-.17-.37-.47-1.07-.67-1.79-.35.27-.87.65-1.22.87-1.19.77-2.46,1.27-3.93,1.27-2.09,0-4.08-3.06-4.08-4.92,0-1.22.92-2.49,2.16-3.45,1.19-.9,2.66-1.47,3.83-1.47.82,0,1.71.4,2.49.94v-.87c0-.35-.17-1.27-.35-2.16s-.37-1.79-.37-2.29c0-.4.4-.77.82-.77.45,0,.97.25,1.17.62.4,1.47.95,6.11.95,7.53,0,1.86.17,3.8.75,5.54.17.5.52.7.92.8l.82.27.17.45c-.15.45-.6.5-.99.52Zm-3.9-6.59c-.5-.27-.57-.65-.67-.99-.08-.22-.12-.5-.32-.7-.1,0-.3-.05-.47-.15l-.17-.07c-.27-.12-.6-.32-.94-.32-.8,0-1.76.45-2.51,1.14-.7.67-1.22,1.47-1.22,2.31,0,1.44,1.12,2.81,2.49,2.81.75,0,1.62-.3,2.39-.77.92-.65,1.64-1.54,1.64-2.59,0-.2-.1-.5-.2-.67Z"/></g><g><path class="cls-26" d="m345.52,97.79l-.17.17c-1.52.82-2.24,1.07-4.8,1.07-1.07,0-1.64-.3-2.34-.62v-.02l-.3-.15.02.02c-.9-.4-1.67-1.04-2.04-1.94v.02c-.1-.35-.15-.62-.15-.85,0-1.02.99-2.14,1.79-2.91-1.17-.62-2.56-1.59-2.56-3.06,0-.57.22-1.17.55-1.64,1.24-.77,3.08-1.52,4.7-1.52,1.04,0,1.99.27,3.18,1.34l-.22.17c0,.35,0,.72-.42.72-.22,0-.57-.05-.99-.22-.32,0-.62,0-.94-.02-.3,0-.6-.02-.9-.02-1.09,0-2.11.15-2.81,1.04,0,.3.07.42.15.52l.3.37c.55.5,1.22.75,2.01.75.47,0,.94-.05,1.34-.17.3-.02.52-.2.77-.4.27-.22.6-.47.99-.47h.12c.3-.17.62-.17.99-.17h.42c.42.4.75.89.75,1.39,0,.02,0,.17-.02.25-.89.82-2.19,1.17-3.23,1.42-1.14.22-2.36.55-3.11,1.54-.3.27-.65.65-.65,1.07,0,1.04,1.17,1.37,1.94,1.54.47.05.97.07,1.47.07s1.12,0,1.62-.07h.1l.35-.17-.02.02c.8-.3,1.67-.65,2.29-1.96.3.25.6.4.89.6l.2.35c-.02.72-.72,1.57-1.27,1.94Z"/><path class="cls-26" d="m357.35,92.52c-.07.22-.3.77-.72,1.14-.2.1-.37.1-.55.1-.07,0-.15.02-.77.22-1.52.07-4.38.25-5.79.6l-.25.05c-.27.07-.62.17-.87.17-.65,0-1.27-.25-1.52-1.07h-.02c-.05-.22.07-.52.2-.67,1.34-.72,6.11-1.22,7.68-1.34.07,0,.17-.02.22-.02.42-.05.27,0,.67-.07.25-.05.5-.07.72-.07.32,0,.65.05.97.32l.17.27c.02.15-.05.22-.15.37Z"/><path class="cls-26" d="m375.75,96.85c0,.52-.17,2.26-1.04,2.51-.42.15-1.34-.07-1.34-.77,0-.2.1-.62.17-.92l.07-.37c.1-.35.2-.72.2-1.19,0-2.14-1.52-5.02-3.83-5.02-.67,0-1.81.35-2.63,1.62.05.2.1.35.17.42.02.1.05.25.05.67,0,.35.05.7.15,1.09,0,.02.02.07.02.07.1.52.2,1.12.12,1.72-.07.55-.32,1.96-1.04,2.49-1.02-.05-1.17-.6-1.27-1.22-.02-.2-.07-.42-.17-.67v-.37c-.02-.52.02-.94.07-1.44.05-.37.07-.82.07-1.19,0-1.74-1.22-3.31-2.98-3.31-.97,0-1.24.72-1.24,1.69,0,2.06.02,4.15.17,6.21-.12.35-.35.47-.57.55l.05-.02-.1.02c-.1,0-.17.05-.27.05-1.12-.12-1.19-.87-1.24-1.62-.02-.3-.05-.67-.22-.99.12-.77.12-1.47.12-2.16s0-1.42.12-2.09l-.05-.27c-.02-.2-.05-.42-.1-.52-.15-.5-.22-.94-.22-1.39,0-.42.17-1.17.9-1.17.37,0,.77.3,1.02.62.6-.32,1.29-.52,1.77-.52,1.52,0,2.86.92,3.8,2.14.8-1.04,1.69-1.86,3.68-1.86,2.93,0,3.78,1.19,4.87,3.26.5,1.04.72,2.73.72,3.98Zm-15.19,2.61h.02-.02Z"/><path class="cls-26" d="m389.03,99.21c-.55,0-1.34-.05-1.86-.3s-1.52-1.49-2.09-2.44l-.35.55s-.02.05-.05.07l-.1.15v-.02c-.22.37-.52.67-.87.92-.92.47-2.68.94-3.65.94-1.07,0-2.51-.75-2.88-1.77v.02c-.17-.42-.27-.97-.27-1.47,0-1.57.6-3.43,1.64-4.77.92-1.22,1.99-2.29,3.75-2.29.57,0,1.24.1,1.59.47.02.05.12.15.17.2.25.25.62.62.85.72.2.05.4.15.72.15h.12s.05-.02.07-.02c.22.62.25,1.12.25,1.54v.77c0,1.69.67,3.43,1.64,4.6.22.27.45.6.99.6.5,0,.99-.02,1.47-.27,0,0,.05-.1.07-.12.2-.2.35-.3.55-.3.07,0,.15,0,.2.02l.25.42c-.2.62-1.44,1.62-2.21,1.62Zm-5-6.14l-.22-1.07c-.2-.2-.32-.4-.4-.55-.27-.35-.72-.7-1.09-.87-1.07.27-1.96,1.29-2.49,2.26-.52.85-.92,1.57-.92,2.54,0,.67.1,1.39.5,1.74.1.1.37.1.57.1h.15c2.29,0,4.03-1.17,4.03-3.6l-.12-.55Z"/><path class="cls-26" d="m391.57,87.43c-.2,0-.37.02-.65.02-.42-.05-.85-.45-.85-.94,0-.62.5-.99,1.17-.99.47,0,1.14.32,1.24.97l-.05.1c0,.1.02.17.02.22.02.07.05.17.05.22l-.02.07c-.1.17-.4.32-.92.32Zm1.27,11.66c-.4,0-1.02-.2-1.22-.7-.1-.37-.27-1.09-.32-1.52-.05-.45-.07-1.04-.1-1.64-.07-1.09-.17-2.41-.45-3.33l-.17-.75c0-.17,0-.32.05-.47l.02-.2c0-.57.42-.8.9-.8.45,0,.94.27.99.7.02.22.05.5.1.7l.1.6c.3,1.71.72,4.4.67,4.8-.02.22.02.5.1.77.1.3.15.55.15.82,0,.35-.22,1.02-.82,1.02Z"/><path class="cls-26" d="m397.53,99.11l-.2.2-.32.05c-.55,0-.87-.35-1.09-.75v-.72c-.02-.5-.07-.99-.12-1.52-.05-.5-.1-.99-.1-1.54,0-.07-.02-.15-.02-.22v-.25l-.05-1.02c-.12-2.49-.3-5.62-.55-7.78l-.02-.12v-.1s.1-.32.17-.52l-.05.07s.05-.15.1-.25l.07-.22c.3-.17.57-.27.77-.27,1.04-.02,1.04.52,1.04,1.14v.1c.02,1.94.22,4.15.42,6.34l.07.67c.17,2.09.37,4.18.4,6.06.02.37-.25.52-.52.65Z"/></g><ellipse class="cls-15" cx="447.26" cy="207.7" rx="13.5" ry="14.5"/><ellipse class="cls-2" cx="448.26" cy="214.2" rx="12.5" ry="14"/></svg>