<?xml version="1.0" encoding="UTF-8"?><svg id="Layer_1" xmlns="http://www.w3.org/2000/svg" xmlns:xlink="http://www.w3.org/1999/xlink" viewBox="0 0 1366 250"><defs><style>.cls-1{fill:#c496ff;}.cls-1,.cls-2,.cls-3,.cls-4,.cls-5,.cls-6,.cls-7,.cls-8{stroke-miterlimit:10;}.cls-1,.cls-3,.cls-5,.cls-6,.cls-8{stroke:#1b1464;stroke-width:3px;}.cls-9,.cls-10,.cls-7{fill:#fff;}.cls-9,.cls-11{stroke:#707070;}.cls-12{fill:#585858;}.cls-13{font-size:8.17px;}.cls-13,.cls-14,.cls-15,.cls-16,.cls-17{isolation:isolate;}.cls-13,.cls-15{font-family:SegoeUI, 'Segoe UI';}.cls-13,.cls-15,.cls-16,.cls-17{fill:#707070;}.cls-18{fill:#daceff;}.cls-2{stroke:#000;}.cls-2,.cls-4,.cls-19{fill:none;}.cls-20{clip-path:url(#clippath-2);}.cls-3{fill:#ff75b6;}.cls-4{stroke:#998675;}.cls-5{fill:#f6ff77;}.cls-21{clip-path:url(#clippath-1);}.cls-22{letter-spacing:0em;}.cls-15{font-size:10.65px;}.cls-23{fill:#c2b8b0;}.cls-16{font-size:35.74px;}.cls-16,.cls-17{font-family:Swister-Bold, Swister;font-weight:700;}.cls-24{clip-path:url(#clippath);}.cls-25{fill:#fefcef;}.cls-6{fill:#7eff8e;}.cls-7{stroke:#999;}.cls-26{letter-spacing:-.06em;}.cls-27{fill:#8a8a8a;}.cls-17{font-size:28.4px;}.cls-28{fill:#d1ffad;}.cls-11{fill:#757575;}.cls-29{fill:#f2f2f2;}.cls-8{fill:#8ae0ff;}</style><clipPath id="clippath"><rect class="cls-19" x="1105.79" y="177.02" width="42.69" height="42.6"/></clipPath><clipPath id="clippath-1"><rect class="cls-19" x="1156.31" y="177.02" width="42.69" height="42.6"/></clipPath><clipPath id="clippath-2"><rect class="cls-19" x="1206.82" y="177.02" width="42.69" height="42.6"/></clipPath></defs><g id="ABOUT" class="cls-14"><text class="cls-15" transform="translate(327.17 16.15)"><tspan x="0" y="0">ABOUT</tspan></text></g><rect id="Rectangle_7" class="cls-25" width="1366" height="250"/><g id="HOME" class="cls-14"><text class="cls-17" transform="translate(332.89 156.68)"><tspan class="cls-26" x="0" y="0">T</tspan><tspan class="cls-22" x="13.83" y="0">erms and conditions</tspan></text></g><g id="PORTFOLIO" class="cls-14"><text class="cls-17" transform="translate(329.03 206.68)"><tspan x="0" y="0" xml:space="preserve">Copyright  R  2010-2023 ICONS Company. All rights reserved</tspan></text><ellipse class="cls-2" cx="455.44" cy="199" rx="16" ry="14"/></g><g id="ABOUT-2" class="cls-14"><text class="cls-17" transform="translate(335.26 57.68)"><tspan x="0" y="0">SUBSCRIBE</tspan></text></g><g id="ABOUT-3" class="cls-14"><text class="cls-17" transform="translate(335.26 94.68)"><tspan x="0" y="0">E-mail</tspan></text></g><g id="CONTACT" class="cls-14"><text class="cls-17" transform="translate(1111.5 151.68)"><tspan x="0" y="0">FOLLOW US</tspan></text></g><g id="Group_4"><g class="cls-24"><g id="Group_3"><path id="Path_1" class="cls-27" d="m1148.05,198.53c0,11.65-9.46,21.09-21.13,21.09s-21.13-9.44-21.13-21.09c0-11.65,9.46-21.09,21.13-21.09,11.67,0,21.13,9.44,21.13,21.09h0"/><path id="Path_2" class="cls-10" d="m1139.4,188.38c-1.07.62-2.23,1.06-3.44,1.29-1.03-1.08-2.46-1.69-3.96-1.68-2.97-.02-5.4,2.36-5.42,5.32,0,0,0,0,0,0,0,.41.05.82.14,1.21-4.34-.2-8.4-2.22-11.17-5.56-.48.81-.74,1.73-.73,2.68,0,1.79.91,3.45,2.41,4.43-.86-.03-1.7-.25-2.45-.67v.07c.02,2.55,1.84,4.74,4.35,5.22-.8.21-1.64.24-2.45.09.73,2.18,2.76,3.66,5.06,3.7-1.93,1.48-4.3,2.28-6.73,2.28-.43,0-.86-.03-1.29-.08,2.49,1.57,5.37,2.4,8.31,2.39,8.38.13,15.29-6.55,15.41-14.92,0-.08,0-.15,0-.23,0-.23,0-.46-.01-.69,1.06-.75,1.97-1.68,2.7-2.76-.99.43-2.04.71-3.11.84,1.13-.66,1.97-1.71,2.38-2.94"/><path id="Path_3" class="cls-27" d="m1148.05,198.53c0,11.65-9.46,21.09-21.13,21.09s-21.13-9.44-21.13-21.09c0-11.65,9.46-21.09,21.13-21.09,11.67,0,21.13,9.44,21.13,21.09h0"/><path id="Path_4" class="cls-10" d="m1139.4,188.38c-1.07.62-2.23,1.06-3.44,1.29-1.03-1.08-2.46-1.69-3.96-1.68-2.97-.02-5.4,2.36-5.42,5.32,0,0,0,0,0,0,0,.41.05.82.14,1.21-4.34-.2-8.4-2.22-11.17-5.56-.48.81-.74,1.73-.73,2.68,0,1.79.91,3.45,2.41,4.43-.86-.03-1.7-.25-2.45-.67v.07c.02,2.55,1.84,4.74,4.35,5.22-.8.21-1.64.24-2.45.09.73,2.18,2.76,3.66,5.06,3.7-1.93,1.48-4.3,2.28-6.73,2.28-.43,0-.86-.03-1.29-.08,2.49,1.57,5.37,2.4,8.31,2.39,8.38.13,15.29-6.55,15.41-14.92,0-.08,0-.15,0-.23,0-.23,0-.46-.01-.69,1.06-.75,1.97-1.68,2.7-2.76-.99.43-2.04.71-3.11.84,1.13-.66,1.97-1.71,2.38-2.94"/><path id="Path_5" class="cls-27" d="m1148.05,198.53c0,11.65-9.46,21.09-21.13,21.09s-21.13-9.44-21.13-21.09c0-11.65,9.46-21.09,21.13-21.09,11.67,0,21.13,9.44,21.13,21.09h0"/><path id="Path_6" class="cls-10" d="m1139.4,188.38c-1.07.62-2.23,1.06-3.44,1.29-1.03-1.08-2.46-1.69-3.96-1.68-2.97-.02-5.4,2.36-5.42,5.32,0,0,0,0,0,0,0,.41.05.82.14,1.21-4.34-.2-8.4-2.22-11.17-5.56-.48.81-.74,1.73-.73,2.68,0,1.79.91,3.45,2.41,4.43-.86-.03-1.7-.25-2.45-.67v.07c.02,2.55,1.84,4.74,4.35,5.22-.8.21-1.64.24-2.45.09.73,2.18,2.76,3.66,5.06,3.7-1.93,1.48-4.3,2.28-6.73,2.28-.43,0-.86-.03-1.29-.08,2.49,1.57,5.37,2.4,8.31,2.39,8.38.13,15.29-6.55,15.41-14.92,0-.08,0-.15,0-.23,0-.23,0-.46-.01-.69,1.06-.75,1.97-1.68,2.7-2.76-.99.43-2.04.71-3.11.84,1.13-.66,1.97-1.71,2.38-2.94"/></g></g></g><g id="Group_6"><g class="cls-21"><g id="Group_5"><path id="Path_7" class="cls-12" d="m1198.99,198.32c0,11.76-9.56,21.3-21.34,21.3s-21.34-9.54-21.34-21.3,9.56-21.3,21.34-21.3,21.34,9.54,21.34,21.3"/><rect id="Rectangle_2" class="cls-10" x="1164.84" y="194.06" width="6.1" height="17.04"/><path id="Path_8" class="cls-10" d="m1167.42,191.22c1.72,0,3.11-1.39,3.11-3.11s-1.39-3.11-3.11-3.11c-1.72,0-3.11,1.39-3.11,3.11,0,1.72,1.39,3.11,3.11,3.11"/><path id="Path_9" class="cls-10" d="m1190.99,201.87c0-4.79-1.03-7.99-6.63-7.99-2.69,0-4.49.99-5.23,2.4h-.08v-2.4h-4.96v17.75h5.18v-8.8c0-2.32.44-4.57,3.32-4.57s3.06,2.65,3.06,4.72v8.65h5.34v-9.75Z"/><path id="Path_10" class="cls-12" d="m1198.99,198.32c0,11.76-9.56,21.3-21.34,21.3s-21.34-9.54-21.34-21.3,9.56-21.3,21.34-21.3,21.34,9.54,21.34,21.3"/><rect id="Rectangle_3" class="cls-10" x="1164.84" y="194.06" width="6.1" height="17.04"/><path id="Path_11" class="cls-10" d="m1167.42,191.22c1.72,0,3.11-1.39,3.11-3.11s-1.39-3.11-3.11-3.11c-1.72,0-3.11,1.39-3.11,3.11,0,1.72,1.39,3.11,3.11,3.11"/><path id="Path_12" class="cls-10" d="m1190.99,201.87c0-4.79-1.03-7.99-6.63-7.99-2.69,0-4.49.99-5.23,2.4h-.08v-2.4h-4.96v17.75h5.18v-8.8c0-2.32.44-4.57,3.32-4.57s3.06,2.65,3.06,4.72v8.65h5.34v-9.75Z"/><path id="Path_13" class="cls-12" d="m1198.99,198.32c0,11.76-9.56,21.3-21.34,21.3s-21.34-9.54-21.34-21.3,9.56-21.3,21.34-21.3,21.34,9.54,21.34,21.3"/><rect id="Rectangle_4" class="cls-10" x="1164.84" y="194.06" width="6.1" height="17.04"/><path id="Path_14" class="cls-10" d="m1167.42,191.22c1.72,0,3.11-1.39,3.11-3.11s-1.39-3.11-3.11-3.11c-1.72,0-3.11,1.39-3.11,3.11,0,1.72,1.39,3.11,3.11,3.11"/><path id="Path_15" class="cls-10" d="m1190.99,201.87c0-4.79-1.03-7.99-6.63-7.99-2.69,0-4.49.99-5.23,2.4h-.08v-2.4h-4.96v17.75h5.18v-8.8c0-2.32.44-4.57,3.32-4.57s3.06,2.65,3.06,4.72v8.65h5.34v-9.75Z"/></g></g></g><g id="Group_8"><g class="cls-20"><g id="Group_7"><path id="Path_16" class="cls-11" d="m1249.51,198.14c0,11.86-9.64,21.48-21.52,21.48s-21.52-9.61-21.52-21.48c0-11.86,9.63-21.48,21.52-21.48,11.89,0,21.52,9.61,21.52,21.48"/><path id="Path_17" class="cls-9" d="m1236.23,184.72h-16.51c-2.87,0-5.19,2.32-5.19,5.19v16.47c0,2.86,2.33,5.18,5.2,5.19h16.5c2.87,0,5.2-2.32,5.2-5.19v-16.47c0-2.86-2.33-5.18-5.2-5.18m1.49,3.1h.59s0,4.55,0,4.55l-4.54.02-.02-4.55h3.97Zm-13.58,7.56c1.53-2.11,4.48-2.58,6.6-1.06,2.11,1.53,2.59,4.47,1.06,6.58-1.53,2.11-4.48,2.58-6.6,1.06-1.23-.89-1.96-2.31-1.96-3.83,0-.99.32-1.95.9-2.75m14.67,10.99c0,1.42-1.16,2.58-2.58,2.58h-16.51c-1.42,0-2.57-1.16-2.57-2.58v-10.99h4.02c-1.53,3.76.28,8.04,4.04,9.57,3.76,1.53,8.06-.28,9.59-4.03.72-1.77.72-3.76,0-5.53h4.02v10.99Z"/><path id="Path_18" class="cls-11" d="m1249.51,198.14c0,11.86-9.64,21.48-21.52,21.48s-21.52-9.61-21.52-21.48c0-11.86,9.63-21.48,21.52-21.48,11.89,0,21.52,9.61,21.52,21.48"/><path id="Path_19" class="cls-9" d="m1236.23,184.72h-16.51c-2.87,0-5.19,2.32-5.19,5.19v16.47c0,2.86,2.33,5.18,5.2,5.19h16.5c2.87,0,5.2-2.32,5.2-5.19v-16.47c0-2.86-2.33-5.18-5.2-5.18m1.49,3.1h.59s0,4.55,0,4.55l-4.54.02-.02-4.55h3.97Zm-13.58,7.56c1.53-2.11,4.48-2.58,6.6-1.06,2.11,1.53,2.59,4.47,1.06,6.58-1.53,2.11-4.48,2.58-6.6,1.06-1.23-.89-1.96-2.31-1.96-3.83,0-.99.32-1.95.9-2.75m14.67,10.99c0,1.42-1.16,2.58-2.58,2.58h-16.51c-1.42,0-2.57-1.16-2.57-2.58v-10.99h4.02c-1.53,3.76.28,8.04,4.04,9.57,3.76,1.53,8.06-.28,9.59-4.03.72-1.77.72-3.76,0-5.53h4.02v10.99Z"/><path id="Path_20" class="cls-11" d="m1249.51,198.14c0,11.86-9.64,21.48-21.52,21.48s-21.52-9.61-21.52-21.48c0-11.86,9.63-21.48,21.52-21.48,11.89,0,21.52,9.61,21.52,21.48"/><path id="Path_21" class="cls-9" d="m1236.23,184.72h-16.51c-2.87,0-5.19,2.32-5.19,5.19v16.47c0,2.86,2.33,5.18,5.2,5.19h16.5c2.87,0,5.2-2.32,5.2-5.19v-16.47c0-2.86-2.33-5.18-5.2-5.18m1.49,3.1h.59s0,4.55,0,4.55l-4.54.02-.02-4.55h3.97Zm-13.58,7.56c1.53-2.11,4.48-2.58,6.6-1.06,2.11,1.53,2.59,4.47,1.06,6.58-1.53,2.11-4.48,2.58-6.6,1.06-1.23-.89-1.96-2.31-1.96-3.83,0-.99.32-1.95.9-2.75m14.67,10.99c0,1.42-1.16,2.58-2.58,2.58h-16.51c-1.42,0-2.57-1.16-2.57-2.58v-10.99h4.02c-1.53,3.76.28,8.04,4.04,9.57,3.76,1.53,8.06-.28,9.59-4.03.72-1.77.72-3.76,0-5.53h4.02v10.99Z"/></g></g></g><g id="HOME-2" class="cls-14"><text class="cls-13" transform="translate(250.65 40.48)"><tspan x="0" y="0">HOME</tspan></text></g><path id="Path_22" class="cls-23" d="m273.35,39.81c3.12,12.6-43.89,35.09-105.02,50.23-61.12,15.14-113.2,17.2-116.32,4.6s43.89-35.09,105.02-50.23c61.12-15.14,113.2-17.2,116.32-4.6"/><path id="Path_23" class="cls-28" d="m272.72,36.65c3.12,12.6-43.89,35.09-105.02,50.23-61.12,15.14-113.2,17.2-116.32,4.6-3.12-12.6,43.89-35.09,105.02-50.23,61.12-15.14,113.2-17.2,116.32-4.6"/><path id="Path_27" class="cls-18" d="m69.29,67.63v-29.48c0-3.83,2.06-5.89,5.89-5.89h7.72c3.83,0,5.89,2.06,5.89,5.89v29.48c0,3.83-2.06,5.9-5.89,5.9h-7.72c-3.83,0-5.89-2.06-5.89-5.9"/><path id="Path_28" class="cls-18" d="m92.93,52.83c0-12.5,9.67-21.57,22.75-21.57,5.12-.08,10.13,1.47,14.3,4.44,1.65,1.24,2.15,3.91-.14,5.19l-2.03,1.13c-2.96,1.64-5.09-.51-7.79-.51-3.02,0-5.25,2.1-5.25,4.98s2.23,5,5.25,5c2.03,0,3.41-1.12,4.59-2.45,1.64-1.86,2.88-1.99,5.04-1.99h4.13c3.43,0,4.66,2.67,4.66,5.78,0,12.56-9.67,21.63-22.75,21.63s-22.75-9.08-22.75-21.63"/><path id="Path_29" class="cls-18" d="m141.39,52.83c0-12.5,9.67-21.57,22.75-21.57s22.75,9.08,22.75,21.57-9.67,21.63-22.75,21.63-22.75-9.08-22.75-21.63m32.17-6.42c0-2.88-2.23-4.98-5.26-4.98s-5.25,2.1-5.25,4.98,2.23,5,5.25,5,5.26-2.1,5.26-5"/><path id="Path_30" class="cls-18" d="m191.02,67.63v-30.98c0-4.64,4.6-6.32,8.39-3.67l12.59,8.8v-3.63c0-3.83,2.06-5.89,5.9-5.89h7.72c3.83,0,5.9,2.06,5.9,5.89v29.47c0,3.83-2.06,5.9-5.9,5.9h-28.71c-3.83,0-5.9-2.06-5.9-5.9m19.61-6.66c0-2.88-2.23-4.98-5.26-4.98s-5.25,2.1-5.25,4.98,2.23,5,5.25,5,5.26-2.1,5.26-5"/><path id="Path_31" class="cls-18" d="m236.23,67.63v-6.75c0-4.13,1.3-5.69,5.1-5.69h2.27c1.5,0,1.35-.96.29-2.17l-1.61-1.83c-2.63-2.99-3.87-5.96-3.86-8.67.02-6.04,4.29-10.26,12.75-10.26h14.91c3.83,0,5.9,2.06,5.9,5.9v6.54c0,4.09-1.47,5.89-4.8,5.89h-2.3c-1.37,0-1.1.91-.21,1.97l1.72,2.03c2.59,3.06,3.88,5.99,3.86,8.68-.05,6.05-4.31,10.24-12.89,10.24h-15.23c-3.83,0-5.9-2.06-5.9-5.9"/><path id="Path_32" class="cls-5" d="m62.96,70.58v-29.47c0-3.83,2.06-5.89,5.89-5.89h7.72c3.83,0,5.89,2.06,5.89,5.89v29.47c0,3.83-2.06,5.9-5.89,5.9h-7.72c-3.83,0-5.89-2.06-5.89-5.9"/><path id="Rectangle_8" class="cls-4" d="m67.9,35.22h9.63c2.73,0,4.94,2.21,4.94,4.94h0v31.38c0,2.73-2.21,4.94-4.94,4.94h-9.62c-2.73,0-4.94-2.21-4.94-4.94v-31.38c0-2.73,2.21-4.94,4.94-4.94h0Z"/><path id="Path_33" class="cls-8" d="m86.6,55.79c0-12.5,9.67-21.57,22.75-21.57,5.12-.08,10.13,1.47,14.3,4.44,1.65,1.24,2.15,3.91-.14,5.19l-2.03,1.13c-2.96,1.64-5.09-.51-7.79-.51-3.02,0-5.25,2.1-5.25,4.98s2.23,5,5.25,5c2.03,0,3.41-1.12,4.59-2.45,1.65-1.86,2.88-1.99,5.04-1.99h4.13c3.43,0,4.66,2.67,4.66,5.78,0,12.56-9.67,21.63-22.75,21.63s-22.75-9.08-22.75-21.63"/><path id="Path_34" class="cls-4" d="m86.6,55.79c0-12.5,9.67-21.57,22.75-21.57,5.12-.08,10.13,1.47,14.3,4.44,1.65,1.24,2.15,3.91-.14,5.19l-2.03,1.13c-2.96,1.64-5.09-.51-7.79-.51-3.02,0-5.25,2.1-5.25,4.98s2.23,5,5.25,5c2.03,0,3.41-1.12,4.59-2.45,1.65-1.86,2.88-1.99,5.04-1.99h4.13c3.43,0,4.66,2.67,4.66,5.78,0,12.56-9.67,21.63-22.75,21.63s-22.75-9.08-22.75-21.63Z"/><path id="Path_35" class="cls-3" d="m135.05,55.79c0-12.5,9.67-21.57,22.75-21.57s22.75,9.08,22.75,21.57-9.67,21.63-22.75,21.63-22.75-9.08-22.75-21.63m32.17-6.43c0-2.88-2.23-4.98-5.26-4.98s-5.25,2.1-5.25,4.98,2.23,5,5.25,5,5.26-2.1,5.26-5"/><path id="Path_36" class="cls-4" d="m135.05,55.79c0-12.5,9.67-21.57,22.75-21.57s22.75,9.08,22.75,21.57-9.67,21.63-22.75,21.63-22.75-9.08-22.75-21.63Zm32.17-6.43c0-2.88-2.23-4.98-5.26-4.98s-5.25,2.1-5.25,4.98,2.23,5,5.25,5,5.26-2.1,5.26-5Z"/><path id="Path_37" class="cls-6" d="m184.68,70.58v-30.98c0-4.64,4.6-6.32,8.39-3.67l12.59,8.8v-3.63c0-3.83,2.06-5.89,5.9-5.89h7.72c3.83,0,5.9,2.06,5.9,5.89v29.47c0,3.83-2.06,5.9-5.9,5.9h-28.71c-3.83,0-5.9-2.06-5.9-5.9m19.61-6.66c0-2.88-2.23-4.98-5.26-4.98s-5.25,2.1-5.25,4.98,2.23,5,5.25,5,5.26-2.1,5.26-5"/><path id="Path_38" class="cls-4" d="m184.68,70.58v-30.98c0-4.64,4.6-6.32,8.39-3.67l12.59,8.8v-3.63c0-3.83,2.06-5.89,5.9-5.89h7.72c3.83,0,5.9,2.06,5.9,5.89v29.47c0,3.83-2.06,5.9-5.9,5.9h-28.71c-3.83,0-5.9-2.06-5.9-5.9Zm19.61-6.66c0-2.88-2.23-4.98-5.26-4.98s-5.25,2.1-5.25,4.98,2.23,5,5.25,5,5.26-2.1,5.26-5h0Z"/><path id="Path_39" class="cls-1" d="m229.9,70.58v-6.75c0-4.13,1.3-5.69,5.1-5.69h2.27c1.5,0,1.35-.96.29-2.17l-1.61-1.83c-2.63-2.99-3.87-5.96-3.86-8.67.02-6.04,4.29-10.26,12.75-10.26h14.91c3.83,0,5.9,2.06,5.9,5.9v6.54c0,4.09-1.47,5.89-4.8,5.89h-2.3c-1.37,0-1.1.91-.21,1.97l1.72,2.03c2.59,3.06,3.88,5.99,3.86,8.68-.05,6.05-4.31,10.24-12.89,10.24h-15.23c-3.83,0-5.9-2.06-5.9-5.9"/><path id="Path_40" class="cls-4" d="m229.9,70.58v-6.75c0-4.13,1.3-5.69,5.1-5.69h2.27c1.5,0,1.35-.96.29-2.17l-1.61-1.83c-2.63-2.99-3.87-5.96-3.86-8.67.02-6.04,4.29-10.26,12.75-10.26h14.91c3.83,0,5.9,2.06,5.9,5.9v6.54c0,4.09-1.47,5.89-4.8,5.89h-2.3c-1.37,0-1.1.91-.21,1.97l1.72,2.03c2.59,3.06,3.88,5.99,3.86,8.68-.05,6.05-4.31,10.24-12.89,10.24h-15.23c-3.83,0-5.9-2.06-5.9-5.89Z"/><rect id="Rectangle_9" class="cls-19" x="51.23" y="28.39" width="232.21" height="89.78"/><g><ellipse class="cls-29" cx="1164.44" cy="63.5" rx="130" ry="32.5"/><g id="BLOG" class="cls-14"><text class="cls-16" transform="translate(1076.44 73.76)"><tspan x="0" y="0">GO PREMIUM</tspan></text></g></g><rect class="cls-7" x="443.44" y="77" width="486" height="29"/></svg>