<?xml version="1.0" encoding="UTF-8"?><svg id="Layer_1" xmlns="http://www.w3.org/2000/svg" xmlns:xlink="http://www.w3.org/1999/xlink" viewBox="0 0 1366 137.02"><defs><style>.cls-1{fill:#c496ff;}.cls-1,.cls-2,.cls-3,.cls-4,.cls-5,.cls-6{stroke-miterlimit:10;}.cls-1,.cls-2,.cls-4,.cls-5,.cls-6{stroke:#1b1464;stroke-width:3px;}.cls-7,.cls-8{fill:#fff;}.cls-7,.cls-9{stroke:#707070;}.cls-10{fill:#585858;}.cls-11{letter-spacing:-.06em;}.cls-12{fill:#daceff;}.cls-13{font-size:8.95px;}.cls-13,.cls-14,.cls-15,.cls-16{isolation:isolate;}.cls-13,.cls-15{font-family:SegoeUI, 'Segoe UI';}.cls-13,.cls-15,.cls-16{fill:#707070;}.cls-17{letter-spacing:-.04em;}.cls-18{clip-path:url(#clippath-2);}.cls-19{letter-spacing:-.07em;}.cls-2{fill:#ff75b6;}.cls-3{stroke:#998675;}.cls-3,.cls-20{fill:none;}.cls-4{fill:#f6ff77;}.cls-21{clip-path:url(#clippath-1);}.cls-15{font-size:10.65px;}.cls-22{fill:#c2b8b0;}.cls-23{letter-spacing:-.06em;}.cls-24{clip-path:url(#clippath);}.cls-25{fill:#fefcef;}.cls-5{fill:#7eff8e;}.cls-26{fill:#8a8a8a;}.cls-16{font-family:Swister-Bold, Swister;font-size:28.4px;font-weight:700;}.cls-27{fill:#d1ffad;}.cls-9{fill:#757575;}.cls-6{fill:#8ae0ff;}</style><clipPath id="clippath"><rect class="cls-20" x="1166.79" y="46.02" width="42.69" height="42.6"/></clipPath><clipPath id="clippath-1"><rect class="cls-20" x="1217.31" y="46.02" width="42.69" height="42.6"/></clipPath><clipPath id="clippath-2"><rect class="cls-20" x="1267.82" y="46.02" width="42.69" height="42.6"/></clipPath></defs><g id="ABOUT" class="cls-14"><text class="cls-15" transform="translate(327.17 33.15)"><tspan x="0" y="0">ABOUT</tspan></text></g><rect id="Rectangle_7" class="cls-25" width="1366" height="137.02"/><g id="BLOG" class="cls-14"><text class="cls-16" transform="translate(944.11 77.97)"><tspan x="0" y="0">BLOG</tspan></text></g><g id="TEAM" class="cls-14"><text class="cls-16" transform="translate(488.77 78.68)"><tspan x="0" y="0">TEAM</tspan></text></g><g id="HOME" class="cls-14"><text class="cls-16" transform="translate(315.89 78.68)"><tspan x="0" y="0">HOME</tspan></text></g><g id="PORTFOLIO" class="cls-14"><text class="cls-16" transform="translate(784.03 78.68)"><tspan x="0" y="0">PO</tspan><tspan class="cls-23" x="29.31" y="0">R</tspan><tspan x="42.06" y="0">TFOLIO</tspan></text></g><g id="ABOUT-2" class="cls-14"><text class="cls-16" transform="translate(401.26 78.68)"><tspan x="0" y="0">ABOUT</tspan></text></g><g id="CLIENTS" class="cls-14"><text class="cls-16" transform="translate(565.61 78.68)"><tspan x="0" y="0">CLIENTS</tspan></text></g><g id="HISTORY" class="cls-14"><text class="cls-16" transform="translate(675.18 78.68)"><tspan x="0" y="0">HI</tspan><tspan class="cls-11" x="20.79" y="0">S</tspan><tspan class="cls-17" x="33.62" y="0">T</tspan><tspan x="48.22" y="0">O</tspan><tspan class="cls-19" x="64.12" y="0">R</tspan><tspan x="76.7" y="0">Y</tspan></text></g><g id="CONTACT" class="cls-14"><text class="cls-16" transform="translate(1024.5 78.68)"><tspan x="0" y="0">CONTACT</tspan></text></g><g id="Group_4"><g class="cls-24"><g id="Group_3"><path id="Path_1" class="cls-26" d="m1209.05,67.53c0,11.65-9.46,21.09-21.13,21.09s-21.13-9.44-21.13-21.09c0-11.65,9.46-21.09,21.13-21.09,11.67,0,21.13,9.44,21.13,21.09h0"/><path id="Path_2" class="cls-8" d="m1200.4,57.38c-1.07.62-2.23,1.06-3.44,1.29-1.03-1.08-2.46-1.69-3.96-1.68-2.97-.02-5.4,2.36-5.42,5.32,0,0,0,0,0,0,0,.41.05.82.14,1.21-4.34-.2-8.4-2.22-11.17-5.56-.48.81-.74,1.73-.73,2.68,0,1.79.91,3.45,2.41,4.43-.86-.03-1.7-.25-2.45-.67v.07c.02,2.55,1.84,4.74,4.35,5.22-.8.21-1.64.24-2.45.09.73,2.18,2.76,3.66,5.06,3.7-1.93,1.48-4.3,2.28-6.73,2.28-.43,0-.86-.03-1.29-.08,2.49,1.57,5.37,2.4,8.31,2.39,8.38.13,15.29-6.55,15.41-14.92,0-.08,0-.15,0-.23,0-.23,0-.46-.01-.69,1.06-.75,1.97-1.68,2.7-2.76-.99.43-2.04.71-3.11.84,1.13-.66,1.97-1.71,2.38-2.94"/><path id="Path_3" class="cls-26" d="m1209.05,67.53c0,11.65-9.46,21.09-21.13,21.09s-21.13-9.44-21.13-21.09c0-11.65,9.46-21.09,21.13-21.09,11.67,0,21.13,9.44,21.13,21.09h0"/><path id="Path_4" class="cls-8" d="m1200.4,57.38c-1.07.62-2.23,1.06-3.44,1.29-1.03-1.08-2.46-1.69-3.96-1.68-2.97-.02-5.4,2.36-5.42,5.32,0,0,0,0,0,0,0,.41.05.82.14,1.21-4.34-.2-8.4-2.22-11.17-5.56-.48.81-.74,1.73-.73,2.68,0,1.79.91,3.45,2.41,4.43-.86-.03-1.7-.25-2.45-.67v.07c.02,2.55,1.84,4.74,4.35,5.22-.8.21-1.64.24-2.45.09.73,2.18,2.76,3.66,5.06,3.7-1.93,1.48-4.3,2.28-6.73,2.28-.43,0-.86-.03-1.29-.08,2.49,1.57,5.37,2.4,8.31,2.39,8.38.13,15.29-6.55,15.41-14.92,0-.08,0-.15,0-.23,0-.23,0-.46-.01-.69,1.06-.75,1.97-1.68,2.7-2.76-.99.43-2.04.71-3.11.84,1.13-.66,1.97-1.71,2.38-2.94"/><path id="Path_5" class="cls-26" d="m1209.05,67.53c0,11.65-9.46,21.09-21.13,21.09s-21.13-9.44-21.13-21.09c0-11.65,9.46-21.09,21.13-21.09,11.67,0,21.13,9.44,21.13,21.09h0"/><path id="Path_6" class="cls-8" d="m1200.4,57.38c-1.07.62-2.23,1.06-3.44,1.29-1.03-1.08-2.46-1.69-3.96-1.68-2.97-.02-5.4,2.36-5.42,5.32,0,0,0,0,0,0,0,.41.05.82.14,1.21-4.34-.2-8.4-2.22-11.17-5.56-.48.81-.74,1.73-.73,2.68,0,1.79.91,3.45,2.41,4.43-.86-.03-1.7-.25-2.45-.67v.07c.02,2.55,1.84,4.74,4.35,5.22-.8.21-1.64.24-2.45.09.73,2.18,2.76,3.66,5.06,3.7-1.93,1.48-4.3,2.28-6.73,2.28-.43,0-.86-.03-1.29-.08,2.49,1.57,5.37,2.4,8.31,2.39,8.38.13,15.29-6.55,15.41-14.92,0-.08,0-.15,0-.23,0-.23,0-.46-.01-.69,1.06-.75,1.97-1.68,2.7-2.76-.99.43-2.04.71-3.11.84,1.13-.66,1.97-1.71,2.38-2.94"/></g></g></g><g id="Group_6"><g class="cls-21"><g id="Group_5"><path id="Path_7" class="cls-10" d="m1259.99,67.32c0,11.76-9.56,21.3-21.34,21.3s-21.34-9.54-21.34-21.3,9.56-21.3,21.34-21.3,21.34,9.54,21.34,21.3"/><rect id="Rectangle_2" class="cls-8" x="1225.84" y="63.06" width="6.1" height="17.04"/><path id="Path_8" class="cls-8" d="m1228.42,60.22c1.72,0,3.11-1.39,3.11-3.11s-1.39-3.11-3.11-3.11c-1.72,0-3.11,1.39-3.11,3.11,0,1.72,1.39,3.11,3.11,3.11"/><path id="Path_9" class="cls-8" d="m1251.99,70.87c0-4.79-1.03-7.99-6.63-7.99-2.69,0-4.49.99-5.23,2.4h-.08v-2.4h-4.96v17.75h5.18v-8.8c0-2.32.44-4.57,3.32-4.57s3.06,2.65,3.06,4.72v8.65h5.34v-9.75Z"/><path id="Path_10" class="cls-10" d="m1259.99,67.32c0,11.76-9.56,21.3-21.34,21.3s-21.34-9.54-21.34-21.3,9.56-21.3,21.34-21.3,21.34,9.54,21.34,21.3"/><rect id="Rectangle_3" class="cls-8" x="1225.84" y="63.06" width="6.1" height="17.04"/><path id="Path_11" class="cls-8" d="m1228.42,60.22c1.72,0,3.11-1.39,3.11-3.11s-1.39-3.11-3.11-3.11c-1.72,0-3.11,1.39-3.11,3.11,0,1.72,1.39,3.11,3.11,3.11"/><path id="Path_12" class="cls-8" d="m1251.99,70.87c0-4.79-1.03-7.99-6.63-7.99-2.69,0-4.49.99-5.23,2.4h-.08v-2.4h-4.96v17.75h5.18v-8.8c0-2.32.44-4.57,3.32-4.57s3.06,2.65,3.06,4.72v8.65h5.34v-9.75Z"/><path id="Path_13" class="cls-10" d="m1259.99,67.32c0,11.76-9.56,21.3-21.34,21.3s-21.34-9.54-21.34-21.3,9.56-21.3,21.34-21.3,21.34,9.54,21.34,21.3"/><rect id="Rectangle_4" class="cls-8" x="1225.84" y="63.06" width="6.1" height="17.04"/><path id="Path_14" class="cls-8" d="m1228.42,60.22c1.72,0,3.11-1.39,3.11-3.11s-1.39-3.11-3.11-3.11c-1.72,0-3.11,1.39-3.11,3.11,0,1.72,1.39,3.11,3.11,3.11"/><path id="Path_15" class="cls-8" d="m1251.99,70.87c0-4.79-1.03-7.99-6.63-7.99-2.69,0-4.49.99-5.23,2.4h-.08v-2.4h-4.96v17.75h5.18v-8.8c0-2.32.44-4.57,3.32-4.57s3.06,2.65,3.06,4.72v8.65h5.34v-9.75Z"/></g></g></g><g id="Group_8"><g class="cls-18"><g id="Group_7"><path id="Path_16" class="cls-9" d="m1310.51,67.14c0,11.86-9.64,21.48-21.52,21.48s-21.52-9.61-21.52-21.48c0-11.86,9.63-21.48,21.52-21.48,11.89,0,21.52,9.61,21.52,21.48"/><path id="Path_17" class="cls-7" d="m1297.23,53.72h-16.51c-2.87,0-5.19,2.32-5.19,5.19v16.47c0,2.86,2.33,5.18,5.2,5.19h16.5c2.87,0,5.2-2.32,5.2-5.19v-16.47c0-2.86-2.33-5.18-5.2-5.18m1.49,3.1h.59s0,4.55,0,4.55l-4.54.02-.02-4.55h3.97Zm-13.58,7.56c1.53-2.11,4.48-2.58,6.6-1.06,2.11,1.53,2.59,4.47,1.06,6.58-1.53,2.11-4.48,2.58-6.6,1.06-1.23-.89-1.96-2.31-1.96-3.83,0-.99.32-1.95.9-2.75m14.67,10.99c0,1.42-1.16,2.58-2.58,2.58h-16.51c-1.42,0-2.57-1.16-2.57-2.58v-10.99h4.02c-1.53,3.76.28,8.04,4.04,9.57,3.76,1.53,8.06-.28,9.59-4.03.72-1.77.72-3.76,0-5.53h4.02v10.99Z"/><path id="Path_18" class="cls-9" d="m1310.51,67.14c0,11.86-9.64,21.48-21.52,21.48s-21.52-9.61-21.52-21.48c0-11.86,9.63-21.48,21.52-21.48,11.89,0,21.52,9.61,21.52,21.48"/><path id="Path_19" class="cls-7" d="m1297.23,53.72h-16.51c-2.87,0-5.19,2.32-5.19,5.19v16.47c0,2.86,2.33,5.18,5.2,5.19h16.5c2.87,0,5.2-2.32,5.2-5.19v-16.47c0-2.86-2.33-5.18-5.2-5.18m1.49,3.1h.59s0,4.55,0,4.55l-4.54.02-.02-4.55h3.97Zm-13.58,7.56c1.53-2.11,4.48-2.58,6.6-1.06,2.11,1.53,2.59,4.47,1.06,6.58-1.53,2.11-4.48,2.58-6.6,1.06-1.23-.89-1.96-2.31-1.96-3.83,0-.99.32-1.95.9-2.75m14.67,10.99c0,1.42-1.16,2.58-2.58,2.58h-16.51c-1.42,0-2.57-1.16-2.57-2.58v-10.99h4.02c-1.53,3.76.28,8.04,4.04,9.57,3.76,1.53,8.06-.28,9.59-4.03.72-1.77.72-3.76,0-5.53h4.02v10.99Z"/><path id="Path_20" class="cls-9" d="m1310.51,67.14c0,11.86-9.64,21.48-21.52,21.48s-21.52-9.61-21.52-21.48c0-11.86,9.63-21.48,21.52-21.48,11.89,0,21.52,9.61,21.52,21.48"/><path id="Path_21" class="cls-7" d="m1297.23,53.72h-16.51c-2.87,0-5.19,2.32-5.19,5.19v16.47c0,2.86,2.33,5.18,5.2,5.19h16.5c2.87,0,5.2-2.32,5.2-5.19v-16.47c0-2.86-2.33-5.18-5.2-5.18m1.49,3.1h.59s0,4.55,0,4.55l-4.54.02-.02-4.55h3.97Zm-13.58,7.56c1.53-2.11,4.48-2.58,6.6-1.06,2.11,1.53,2.59,4.47,1.06,6.58-1.53,2.11-4.48,2.58-6.6,1.06-1.23-.89-1.96-2.31-1.96-3.83,0-.99.32-1.95.9-2.75m14.67,10.99c0,1.42-1.16,2.58-2.58,2.58h-16.51c-1.42,0-2.57-1.16-2.57-2.58v-10.99h4.02c-1.53,3.76.28,8.04,4.04,9.57,3.76,1.53,8.06-.28,9.59-4.03.72-1.77.72-3.76,0-5.53h4.02v10.99Z"/></g></g></g><g id="HOME-2" class="cls-14"><text class="cls-13" transform="translate(249.72 42.64)"><tspan x="0" y="0">HOME</tspan></text></g><path id="Path_22" class="cls-22" d="m274.6,41.9c3.42,13.8-48.09,38.45-115.06,55.04-66.97,16.59-124.03,18.85-127.45,5.04s48.09-38.45,115.06-55.04c66.97-16.59,124.03-18.85,127.45-5.04"/><path id="Path_23" class="cls-27" d="m273.9,38.44c3.42,13.8-48.09,38.45-115.06,55.04-66.97,16.59-124.03,18.85-127.45,5.04-3.42-13.8,48.09-38.45,115.06-55.04,66.97-16.59,124.03-18.85,127.45-5.04"/><path id="Path_27" class="cls-12" d="m51.02,72.38v-32.3c0-4.2,2.26-6.46,6.46-6.46h8.46c4.2,0,6.46,2.26,6.46,6.46v32.3c0,4.2-2.26,6.46-6.46,6.46h-8.46c-4.2,0-6.46-2.26-6.46-6.46"/><path id="Path_28" class="cls-12" d="m76.92,56.17c0-13.69,10.59-23.64,24.93-23.64,5.61-.09,11.1,1.61,15.67,4.87,1.81,1.36,2.35,4.29-.16,5.68l-2.22,1.23c-3.24,1.8-5.57-.56-8.54-.56-3.31,0-5.76,2.3-5.76,5.46s2.45,5.48,5.76,5.48c2.22,0,3.74-1.23,5.02-2.68,1.8-2.03,3.16-2.18,5.52-2.18h4.53c3.76,0,5.1,2.93,5.1,6.33,0,13.76-10.59,23.7-24.93,23.7s-24.93-9.95-24.93-23.7"/><path id="Path_29" class="cls-12" d="m130.01,56.17c0-13.69,10.59-23.64,24.93-23.64s24.93,9.95,24.93,23.64-10.59,23.7-24.93,23.7-24.93-9.95-24.93-23.7m35.25-7.04c0-3.16-2.45-5.46-5.76-5.46s-5.75,2.3-5.75,5.46,2.45,5.48,5.75,5.48,5.76-2.3,5.76-5.48"/><path id="Path_30" class="cls-12" d="m184.39,72.38v-33.94c0-5.09,5.04-6.93,9.2-4.02l13.79,9.64v-3.97c0-4.2,2.26-6.46,6.46-6.46h8.46c4.2,0,6.46,2.26,6.46,6.46v32.29c0,4.2-2.26,6.46-6.46,6.46h-31.45c-4.2,0-6.46-2.26-6.46-6.46m21.49-7.3c0-3.16-2.45-5.46-5.76-5.46s-5.75,2.3-5.75,5.46,2.45,5.48,5.75,5.48,5.76-2.3,5.76-5.48"/><path id="Path_31" class="cls-12" d="m233.93,72.38v-7.39c0-4.52,1.42-6.23,5.59-6.23h2.49c1.64,0,1.48-1.05.32-2.38l-1.77-2.01c-2.88-3.28-4.24-6.53-4.23-9.5.03-6.62,4.7-11.24,13.97-11.24h16.34c4.2,0,6.46,2.26,6.46,6.46v7.17c0,4.48-1.62,6.46-5.26,6.46h-2.52c-1.5,0-1.21,1-.23,2.16l1.89,2.23c2.84,3.35,4.26,6.56,4.23,9.51-.06,6.63-4.73,11.22-14.13,11.22h-16.68c-4.2,0-6.46-2.26-6.46-6.46"/><path id="Path_32" class="cls-4" d="m44.08,75.62v-32.29c0-4.2,2.26-6.46,6.46-6.46h8.46c4.2,0,6.46,2.26,6.46,6.46v32.29c0,4.2-2.26,6.46-6.46,6.46h-8.46c-4.2,0-6.46-2.26-6.46-6.46"/><path id="Rectangle_8" class="cls-3" d="m49.49,36.87h10.55c2.99,0,5.42,2.42,5.42,5.42h0v34.38c0,2.99-2.42,5.42-5.42,5.42h-10.55c-2.99,0-5.42-2.42-5.42-5.42v-34.38c0-2.99,2.42-5.42,5.42-5.42h0Z"/><path id="Path_33" class="cls-6" d="m69.98,59.41c0-13.69,10.59-23.64,24.93-23.64,5.61-.09,11.1,1.61,15.67,4.87,1.81,1.36,2.35,4.29-.16,5.68l-2.23,1.23c-3.24,1.8-5.57-.56-8.54-.56-3.31,0-5.76,2.3-5.76,5.46s2.45,5.48,5.76,5.48c2.22,0,3.74-1.23,5.02-2.68,1.8-2.03,3.16-2.18,5.52-2.18h4.53c3.76,0,5.1,2.93,5.1,6.33,0,13.76-10.59,23.7-24.93,23.7s-24.92-9.95-24.92-23.7"/><path id="Path_34" class="cls-3" d="m69.98,59.41c0-13.69,10.59-23.64,24.93-23.64,5.61-.09,11.1,1.61,15.67,4.87,1.81,1.36,2.35,4.29-.16,5.68l-2.23,1.23c-3.24,1.8-5.57-.56-8.54-.56-3.31,0-5.76,2.3-5.76,5.46s2.45,5.48,5.76,5.48c2.22,0,3.74-1.23,5.02-2.68,1.8-2.03,3.16-2.18,5.52-2.18h4.53c3.76,0,5.1,2.93,5.1,6.33,0,13.76-10.59,23.7-24.93,23.7s-24.92-9.95-24.92-23.7Z"/><path id="Path_35" class="cls-2" d="m123.07,59.41c0-13.69,10.59-23.64,24.93-23.64s24.93,9.95,24.93,23.64-10.59,23.7-24.93,23.7-24.93-9.95-24.93-23.7m35.25-7.04c0-3.16-2.45-5.46-5.76-5.46s-5.75,2.3-5.75,5.46,2.45,5.48,5.75,5.48,5.76-2.3,5.76-5.48"/><path id="Path_36" class="cls-3" d="m123.07,59.41c0-13.69,10.59-23.64,24.93-23.64s24.93,9.95,24.93,23.64-10.59,23.7-24.93,23.7-24.93-9.95-24.93-23.7Zm35.25-7.04c0-3.16-2.45-5.46-5.76-5.46s-5.75,2.3-5.75,5.46,2.45,5.48,5.75,5.48,5.76-2.3,5.76-5.48Z"/><path id="Path_37" class="cls-5" d="m177.45,75.62v-33.94c0-5.09,5.04-6.93,9.2-4.02l13.79,9.64v-3.97c0-4.2,2.26-6.46,6.46-6.46h8.46c4.2,0,6.46,2.26,6.46,6.46v32.29c0,4.2-2.26,6.46-6.46,6.46h-31.45c-4.2,0-6.46-2.26-6.46-6.46m21.49-7.3c0-3.16-2.45-5.46-5.76-5.46s-5.75,2.3-5.75,5.46,2.45,5.48,5.75,5.48,5.76-2.3,5.76-5.48"/><path id="Path_38" class="cls-3" d="m177.45,75.62v-33.94c0-5.09,5.04-6.93,9.2-4.02l13.79,9.64v-3.97c0-4.2,2.26-6.46,6.46-6.46h8.46c4.2,0,6.46,2.26,6.46,6.46v32.29c0,4.2-2.26,6.46-6.46,6.46h-31.45c-4.2,0-6.46-2.26-6.46-6.46Zm21.49-7.3c0-3.16-2.45-5.46-5.76-5.46s-5.75,2.3-5.75,5.46,2.45,5.48,5.75,5.48,5.76-2.3,5.76-5.48h0Z"/><path id="Path_39" class="cls-1" d="m226.99,75.62v-7.39c0-4.52,1.42-6.23,5.59-6.23h2.49c1.64,0,1.48-1.05.32-2.38l-1.77-2.01c-2.88-3.28-4.24-6.53-4.23-9.5.03-6.62,4.7-11.24,13.97-11.24h16.34c4.2,0,6.46,2.26,6.46,6.46v7.17c0,4.48-1.62,6.46-5.26,6.46h-2.52c-1.5,0-1.21,1-.23,2.16l1.89,2.23c2.84,3.35,4.26,6.56,4.23,9.51-.06,6.63-4.73,11.22-14.13,11.22h-16.68c-4.2,0-6.46-2.26-6.46-6.46"/><path id="Path_40" class="cls-3" d="m226.99,75.62v-7.39c0-4.52,1.42-6.23,5.59-6.23h2.49c1.64,0,1.48-1.05.32-2.38l-1.77-2.01c-2.88-3.28-4.24-6.53-4.23-9.5.03-6.62,4.7-11.24,13.97-11.24h16.34c4.2,0,6.46,2.26,6.46,6.46v7.17c0,4.48-1.62,6.46-5.26,6.46h-2.52c-1.5,0-1.21,1-.23,2.16l1.89,2.23c2.84,3.35,4.26,6.56,4.23,9.51-.06,6.63-4.73,11.22-14.13,11.22h-16.68c-4.2,0-6.46-2.26-6.46-6.46Z"/><rect id="Rectangle_9" class="cls-20" x="31.23" y="29.39" width="254.42" height="98.37"/></svg>