<?xml version="1.0" encoding="UTF-8"?><svg id="Layer_1" xmlns="http://www.w3.org/2000/svg" xmlns:xlink="http://www.w3.org/1999/xlink" viewBox="0 0 1366 137.02"><defs><style>.cls-1{fill:#c496ff;}.cls-1,.cls-2,.cls-3,.cls-4,.cls-5,.cls-6,.cls-7{stroke-miterlimit:10;}.cls-1,.cls-2,.cls-4,.cls-6,.cls-7{stroke:#1b1464;stroke-width:3px;}.cls-8,.cls-9,.cls-5{fill:#fff;}.cls-8,.cls-10{stroke:#707070;}.cls-11{fill:#585858;}.cls-12{fill:#daceff;}.cls-13{fill:#867878;}.cls-14{clip-path:url(#clippath-2);}.cls-15,.cls-16,.cls-17{isolation:isolate;}.cls-16{font-size:10.65px;}.cls-16,.cls-17{fill:#707070;font-family:SegoeUI, 'Segoe UI';}.cls-2{fill:#ff75b6;}.cls-3{stroke:#998675;}.cls-3,.cls-18{fill:none;}.cls-4{fill:#f6ff77;}.cls-5{stroke:gray;}.cls-19{clip-path:url(#clippath-1);}.cls-17{font-size:8.95px;}.cls-20{fill:#c2b8b0;}.cls-21{clip-path:url(#clippath);}.cls-22{fill:#999;}.cls-23{fill:#fefcef;}.cls-6{fill:#7eff8e;}.cls-24{fill:#8a8a8a;}.cls-25{fill:#d1ffad;}.cls-10{fill:#757575;}.cls-7{fill:#8ae0ff;}</style><clipPath id="clippath"><rect class="cls-18" x="1166.79" y="46.02" width="42.69" height="42.6"/></clipPath><clipPath id="clippath-1"><rect class="cls-18" x="1217.31" y="46.02" width="42.69" height="42.6"/></clipPath><clipPath id="clippath-2"><rect class="cls-18" x="1267.82" y="46.02" width="42.69" height="42.6"/></clipPath></defs><g id="ABOUT" class="cls-15"><text class="cls-16" transform="translate(327.17 33.15)"><tspan x="0" y="0">ABOUT</tspan></text></g><rect id="Rectangle_7" class="cls-23" width="1366" height="137.02"/><g id="Group_4"><g class="cls-21"><g id="Group_3"><path id="Path_1" class="cls-24" d="m1209.05,67.53c0,11.65-9.46,21.09-21.13,21.09s-21.13-9.44-21.13-21.09c0-11.65,9.46-21.09,21.13-21.09,11.67,0,21.13,9.44,21.13,21.09h0"/><path id="Path_2" class="cls-9" d="m1200.4,57.38c-1.07.62-2.23,1.06-3.44,1.29-1.03-1.08-2.46-1.69-3.96-1.68-2.97-.02-5.4,2.36-5.42,5.32,0,0,0,0,0,0,0,.41.05.82.14,1.21-4.34-.2-8.4-2.22-11.17-5.56-.48.81-.74,1.73-.73,2.68,0,1.79.91,3.45,2.41,4.43-.86-.03-1.7-.25-2.45-.67v.07c.02,2.55,1.84,4.74,4.35,5.22-.8.21-1.64.24-2.45.09.73,2.18,2.76,3.66,5.06,3.7-1.93,1.48-4.3,2.28-6.73,2.28-.43,0-.86-.03-1.29-.08,2.49,1.57,5.37,2.4,8.31,2.39,8.38.13,15.29-6.55,15.41-14.92,0-.08,0-.15,0-.23,0-.23,0-.46-.01-.69,1.06-.75,1.97-1.68,2.7-2.76-.99.43-2.04.71-3.11.84,1.13-.66,1.97-1.71,2.38-2.94"/><path id="Path_3" class="cls-24" d="m1209.05,67.53c0,11.65-9.46,21.09-21.13,21.09s-21.13-9.44-21.13-21.09c0-11.65,9.46-21.09,21.13-21.09,11.67,0,21.13,9.44,21.13,21.09h0"/><path id="Path_4" class="cls-9" d="m1200.4,57.38c-1.07.62-2.23,1.06-3.44,1.29-1.03-1.08-2.46-1.69-3.96-1.68-2.97-.02-5.4,2.36-5.42,5.32,0,0,0,0,0,0,0,.41.05.82.14,1.21-4.34-.2-8.4-2.22-11.17-5.56-.48.81-.74,1.73-.73,2.68,0,1.79.91,3.45,2.41,4.43-.86-.03-1.7-.25-2.45-.67v.07c.02,2.55,1.84,4.74,4.35,5.22-.8.21-1.64.24-2.45.09.73,2.18,2.76,3.66,5.06,3.7-1.93,1.48-4.3,2.28-6.73,2.28-.43,0-.86-.03-1.29-.08,2.49,1.57,5.37,2.4,8.31,2.39,8.38.13,15.29-6.55,15.41-14.92,0-.08,0-.15,0-.23,0-.23,0-.46-.01-.69,1.06-.75,1.97-1.68,2.7-2.76-.99.43-2.04.71-3.11.84,1.13-.66,1.97-1.71,2.38-2.94"/><path id="Path_5" class="cls-24" d="m1209.05,67.53c0,11.65-9.46,21.09-21.13,21.09s-21.13-9.44-21.13-21.09c0-11.65,9.46-21.09,21.13-21.09,11.67,0,21.13,9.44,21.13,21.09h0"/><path id="Path_6" class="cls-9" d="m1200.4,57.38c-1.07.62-2.23,1.06-3.44,1.29-1.03-1.08-2.46-1.69-3.96-1.68-2.97-.02-5.4,2.36-5.42,5.32,0,0,0,0,0,0,0,.41.05.82.14,1.21-4.34-.2-8.4-2.22-11.17-5.56-.48.81-.74,1.73-.73,2.68,0,1.79.91,3.45,2.41,4.43-.86-.03-1.7-.25-2.45-.67v.07c.02,2.55,1.84,4.74,4.35,5.22-.8.21-1.64.24-2.45.09.73,2.18,2.76,3.66,5.06,3.7-1.93,1.48-4.3,2.28-6.73,2.28-.43,0-.86-.03-1.29-.08,2.49,1.57,5.37,2.4,8.31,2.39,8.38.13,15.29-6.55,15.41-14.92,0-.08,0-.15,0-.23,0-.23,0-.46-.01-.69,1.06-.75,1.97-1.68,2.7-2.76-.99.43-2.04.71-3.11.84,1.13-.66,1.97-1.71,2.38-2.94"/></g></g></g><g id="Group_6"><g class="cls-19"><g id="Group_5"><path id="Path_7" class="cls-11" d="m1259.99,67.32c0,11.76-9.56,21.3-21.34,21.3s-21.34-9.54-21.34-21.3,9.56-21.3,21.34-21.3,21.34,9.54,21.34,21.3"/><rect id="Rectangle_2" class="cls-9" x="1225.84" y="63.06" width="6.1" height="17.04"/><path id="Path_8" class="cls-9" d="m1228.42,60.22c1.72,0,3.11-1.39,3.11-3.11,0-1.72-1.39-3.11-3.11-3.11-1.72,0-3.11,1.39-3.11,3.11,0,1.72,1.39,3.11,3.11,3.11"/><path id="Path_9" class="cls-9" d="m1251.99,70.87c0-4.79-1.03-7.99-6.63-7.99-2.69,0-4.49.99-5.23,2.4h-.08v-2.4h-4.96v17.75h5.18v-8.8c0-2.32.44-4.57,3.32-4.57s3.06,2.65,3.06,4.72v8.65h5.34v-9.75Z"/><path id="Path_10" class="cls-11" d="m1259.99,67.32c0,11.76-9.56,21.3-21.34,21.3s-21.34-9.54-21.34-21.3,9.56-21.3,21.34-21.3,21.34,9.54,21.34,21.3"/><rect id="Rectangle_3" class="cls-9" x="1225.84" y="63.06" width="6.1" height="17.04"/><path id="Path_11" class="cls-9" d="m1228.42,60.22c1.72,0,3.11-1.39,3.11-3.11,0-1.72-1.39-3.11-3.11-3.11-1.72,0-3.11,1.39-3.11,3.11,0,1.72,1.39,3.11,3.11,3.11"/><path id="Path_12" class="cls-9" d="m1251.99,70.87c0-4.79-1.03-7.99-6.63-7.99-2.69,0-4.49.99-5.23,2.4h-.08v-2.4h-4.96v17.75h5.18v-8.8c0-2.32.44-4.57,3.32-4.57s3.06,2.65,3.06,4.72v8.65h5.34v-9.75Z"/><path id="Path_13" class="cls-11" d="m1259.99,67.32c0,11.76-9.56,21.3-21.34,21.3s-21.34-9.54-21.34-21.3,9.56-21.3,21.34-21.3,21.34,9.54,21.34,21.3"/><rect id="Rectangle_4" class="cls-9" x="1225.84" y="63.06" width="6.1" height="17.04"/><path id="Path_14" class="cls-9" d="m1228.42,60.22c1.72,0,3.11-1.39,3.11-3.11,0-1.72-1.39-3.11-3.11-3.11-1.72,0-3.11,1.39-3.11,3.11,0,1.72,1.39,3.11,3.11,3.11"/><path id="Path_15" class="cls-9" d="m1251.99,70.87c0-4.79-1.03-7.99-6.63-7.99-2.69,0-4.49.99-5.23,2.4h-.08v-2.4h-4.96v17.75h5.18v-8.8c0-2.32.44-4.57,3.32-4.57s3.06,2.65,3.06,4.72v8.65h5.34v-9.75Z"/></g></g></g><g id="Group_8"><g class="cls-14"><g id="Group_7"><path id="Path_16" class="cls-10" d="m1310.51,67.14c0,11.86-9.64,21.48-21.52,21.48s-21.52-9.61-21.52-21.48c0-11.86,9.63-21.48,21.52-21.48,11.89,0,21.52,9.61,21.52,21.48"/><path id="Path_17" class="cls-8" d="m1297.23,53.72h-16.51c-2.87,0-5.19,2.32-5.19,5.19v16.47c0,2.86,2.33,5.18,5.2,5.19h16.5c2.87,0,5.2-2.32,5.2-5.19v-16.47c0-2.86-2.33-5.18-5.2-5.18m1.49,3.1h.59s0,4.55,0,4.55l-4.54.02-.02-4.55h3.97Zm-13.58,7.56c1.53-2.11,4.48-2.58,6.6-1.06,2.11,1.53,2.59,4.47,1.06,6.58-1.53,2.11-4.48,2.58-6.6,1.06-1.23-.89-1.96-2.31-1.96-3.83,0-.99.32-1.95.9-2.75m14.67,10.99c0,1.42-1.16,2.58-2.58,2.58h-16.51c-1.42,0-2.57-1.16-2.57-2.58v-10.99h4.02c-1.53,3.76.28,8.04,4.04,9.57,3.76,1.53,8.06-.28,9.59-4.03.72-1.77.72-3.76,0-5.53h4.02v10.99Z"/><path id="Path_18" class="cls-10" d="m1310.51,67.14c0,11.86-9.64,21.48-21.52,21.48s-21.52-9.61-21.52-21.48c0-11.86,9.63-21.48,21.52-21.48,11.89,0,21.52,9.61,21.52,21.48"/><path id="Path_19" class="cls-8" d="m1297.23,53.72h-16.51c-2.87,0-5.19,2.32-5.19,5.19v16.47c0,2.86,2.33,5.18,5.2,5.19h16.5c2.87,0,5.2-2.32,5.2-5.19v-16.47c0-2.86-2.33-5.18-5.2-5.18m1.49,3.1h.59s0,4.55,0,4.55l-4.54.02-.02-4.55h3.97Zm-13.58,7.56c1.53-2.11,4.48-2.58,6.6-1.06,2.11,1.53,2.59,4.47,1.06,6.58-1.53,2.11-4.48,2.58-6.6,1.06-1.23-.89-1.96-2.31-1.96-3.83,0-.99.32-1.95.9-2.75m14.67,10.99c0,1.42-1.16,2.58-2.58,2.58h-16.51c-1.42,0-2.57-1.16-2.57-2.58v-10.99h4.02c-1.53,3.76.28,8.04,4.04,9.57,3.76,1.53,8.06-.28,9.59-4.03.72-1.77.72-3.76,0-5.53h4.02v10.99Z"/><path id="Path_20" class="cls-10" d="m1310.51,67.14c0,11.86-9.64,21.48-21.52,21.48s-21.52-9.61-21.52-21.48c0-11.86,9.63-21.48,21.52-21.48,11.89,0,21.52,9.61,21.52,21.48"/><path id="Path_21" class="cls-8" d="m1297.23,53.72h-16.51c-2.87,0-5.19,2.32-5.19,5.19v16.47c0,2.86,2.33,5.18,5.2,5.19h16.5c2.87,0,5.2-2.32,5.2-5.19v-16.47c0-2.86-2.33-5.18-5.2-5.18m1.49,3.1h.59s0,4.55,0,4.55l-4.54.02-.02-4.55h3.97Zm-13.58,7.56c1.53-2.11,4.48-2.58,6.6-1.06,2.11,1.53,2.59,4.47,1.06,6.58-1.53,2.11-4.48,2.58-6.6,1.06-1.23-.89-1.96-2.31-1.96-3.83,0-.99.32-1.95.9-2.75m14.67,10.99c0,1.42-1.16,2.58-2.58,2.58h-16.51c-1.42,0-2.57-1.16-2.57-2.58v-10.99h4.02c-1.53,3.76.28,8.04,4.04,9.57,3.76,1.53,8.06-.28,9.59-4.03.72-1.77.72-3.76,0-5.53h4.02v10.99Z"/></g></g></g><g id="HOME" class="cls-15"><text class="cls-17" transform="translate(249.72 42.64)"><tspan x="0" y="0">HOME</tspan></text></g><path id="Path_22" class="cls-20" d="m274.6,41.9c3.42,13.8-48.09,38.45-115.06,55.04-66.97,16.59-124.03,18.85-127.45,5.04-3.42-13.8,48.09-38.45,115.06-55.04,66.97-16.59,124.03-18.85,127.45-5.04"/><path id="Path_23" class="cls-25" d="m273.9,38.44c3.42,13.8-48.09,38.45-115.06,55.04-66.97,16.59-124.03,18.85-127.45,5.04-3.42-13.8,48.09-38.45,115.06-55.04,66.97-16.59,124.03-18.85,127.45-5.04"/><path id="Path_27" class="cls-12" d="m51.02,72.38v-32.3c0-4.2,2.26-6.46,6.46-6.46h8.46c4.2,0,6.46,2.26,6.46,6.46v32.3c0,4.2-2.26,6.46-6.46,6.46h-8.46c-4.2,0-6.46-2.26-6.46-6.46"/><path id="Path_28" class="cls-12" d="m76.92,56.17c0-13.69,10.59-23.64,24.93-23.64,5.61-.09,11.1,1.61,15.67,4.87,1.81,1.36,2.35,4.29-.16,5.68l-2.22,1.23c-3.24,1.8-5.57-.56-8.54-.56-3.31,0-5.76,2.3-5.76,5.46s2.45,5.48,5.76,5.48c2.22,0,3.74-1.23,5.02-2.68,1.8-2.03,3.16-2.18,5.52-2.18h4.53c3.76,0,5.1,2.93,5.1,6.33,0,13.76-10.59,23.7-24.93,23.7s-24.93-9.95-24.93-23.7"/><path id="Path_29" class="cls-12" d="m130.01,56.17c0-13.69,10.59-23.64,24.93-23.64s24.93,9.95,24.93,23.64-10.59,23.7-24.93,23.7-24.93-9.95-24.93-23.7m35.25-7.04c0-3.16-2.45-5.46-5.76-5.46s-5.75,2.3-5.75,5.46,2.45,5.48,5.75,5.48,5.76-2.3,5.76-5.48"/><path id="Path_30" class="cls-12" d="m184.39,72.38v-33.94c0-5.09,5.04-6.93,9.2-4.02l13.79,9.64v-3.97c0-4.2,2.26-6.46,6.46-6.46h8.46c4.2,0,6.46,2.26,6.46,6.46v32.29c0,4.2-2.26,6.46-6.46,6.46h-31.45c-4.2,0-6.46-2.26-6.46-6.46m21.49-7.3c0-3.16-2.45-5.46-5.76-5.46s-5.75,2.3-5.75,5.46,2.45,5.48,5.75,5.48,5.76-2.3,5.76-5.48"/><path id="Path_31" class="cls-12" d="m233.93,72.38v-7.39c0-4.52,1.42-6.23,5.59-6.23h2.49c1.64,0,1.48-1.05.32-2.38l-1.77-2.01c-2.88-3.28-4.24-6.53-4.23-9.5.03-6.62,4.7-11.24,13.97-11.24h16.34c4.2,0,6.46,2.26,6.46,6.46v7.17c0,4.48-1.62,6.46-5.26,6.46h-2.52c-1.5,0-1.21,1-.23,2.16l1.89,2.23c2.84,3.35,4.26,6.56,4.23,9.51-.06,6.63-4.73,11.22-14.13,11.22h-16.68c-4.2,0-6.46-2.26-6.46-6.46"/><path id="Path_32" class="cls-4" d="m44.08,75.62v-32.29c0-4.2,2.26-6.46,6.46-6.46h8.46c4.2,0,6.46,2.26,6.46,6.46v32.29c0,4.2-2.26,6.46-6.46,6.46h-8.46c-4.2,0-6.46-2.26-6.46-6.46"/><path id="Rectangle_8" class="cls-3" d="m49.49,36.87h10.55c2.99,0,5.42,2.42,5.42,5.42h0v34.38c0,2.99-2.42,5.42-5.42,5.42h-10.55c-2.99,0-5.42-2.42-5.42-5.42v-34.38c0-2.99,2.42-5.42,5.42-5.42h0Z"/><path id="Path_33" class="cls-7" d="m69.98,59.41c0-13.69,10.59-23.64,24.93-23.64,5.61-.09,11.1,1.61,15.67,4.87,1.81,1.36,2.35,4.29-.16,5.68l-2.23,1.23c-3.24,1.8-5.57-.56-8.54-.56-3.31,0-5.76,2.3-5.76,5.46s2.45,5.48,5.76,5.48c2.22,0,3.74-1.23,5.02-2.68,1.8-2.03,3.16-2.18,5.52-2.18h4.53c3.76,0,5.1,2.93,5.1,6.33,0,13.76-10.59,23.7-24.93,23.7s-24.92-9.95-24.92-23.7"/><path id="Path_34" class="cls-3" d="m69.98,59.41c0-13.69,10.59-23.64,24.93-23.64,5.61-.09,11.1,1.61,15.67,4.87,1.81,1.36,2.35,4.29-.16,5.68l-2.23,1.23c-3.24,1.8-5.57-.56-8.54-.56-3.31,0-5.76,2.3-5.76,5.46s2.45,5.48,5.76,5.48c2.22,0,3.74-1.23,5.02-2.68,1.8-2.03,3.16-2.18,5.52-2.18h4.53c3.76,0,5.1,2.93,5.1,6.33,0,13.76-10.59,23.7-24.93,23.7s-24.92-9.95-24.92-23.7Z"/><path id="Path_35" class="cls-2" d="m123.07,59.41c0-13.69,10.59-23.64,24.93-23.64s24.93,9.95,24.93,23.64-10.59,23.7-24.93,23.7-24.93-9.95-24.93-23.7m35.25-7.04c0-3.16-2.45-5.46-5.76-5.46s-5.75,2.3-5.75,5.46,2.45,5.48,5.75,5.48,5.76-2.3,5.76-5.48"/><path id="Path_36" class="cls-3" d="m123.07,59.41c0-13.69,10.59-23.64,24.93-23.64s24.93,9.95,24.93,23.64-10.59,23.7-24.93,23.7-24.93-9.95-24.93-23.7Zm35.25-7.04c0-3.16-2.45-5.46-5.76-5.46s-5.75,2.3-5.75,5.46,2.45,5.48,5.75,5.48,5.76-2.3,5.76-5.48Z"/><path id="Path_37" class="cls-6" d="m177.45,75.62v-33.94c0-5.09,5.04-6.93,9.2-4.02l13.79,9.64v-3.97c0-4.2,2.26-6.46,6.46-6.46h8.46c4.2,0,6.46,2.26,6.46,6.46v32.29c0,4.2-2.26,6.46-6.46,6.46h-31.45c-4.2,0-6.46-2.26-6.46-6.46m21.49-7.3c0-3.16-2.45-5.46-5.76-5.46s-5.75,2.3-5.75,5.46,2.45,5.48,5.75,5.48,5.76-2.3,5.76-5.48"/><path id="Path_38" class="cls-3" d="m177.45,75.62v-33.94c0-5.09,5.04-6.93,9.2-4.02l13.79,9.64v-3.97c0-4.2,2.26-6.46,6.46-6.46h8.46c4.2,0,6.46,2.26,6.46,6.46v32.29c0,4.2-2.26,6.46-6.46,6.46h-31.45c-4.2,0-6.46-2.26-6.46-6.46Zm21.49-7.3c0-3.16-2.45-5.46-5.76-5.46s-5.75,2.3-5.75,5.46,2.45,5.48,5.75,5.48,5.76-2.3,5.76-5.48h0Z"/><path id="Path_39" class="cls-1" d="m226.99,75.62v-7.39c0-4.52,1.42-6.23,5.59-6.23h2.49c1.64,0,1.48-1.05.32-2.38l-1.77-2.01c-2.88-3.28-4.24-6.53-4.23-9.5.03-6.62,4.7-11.24,13.97-11.24h16.34c4.2,0,6.46,2.26,6.46,6.46v7.17c0,4.48-1.62,6.46-5.26,6.46h-2.52c-1.5,0-1.21,1-.23,2.16l1.89,2.23c2.84,3.35,4.26,6.56,4.23,9.51-.06,6.63-4.73,11.22-14.13,11.22h-16.68c-4.2,0-6.46-2.26-6.46-6.46"/><path id="Path_40" class="cls-3" d="m226.99,75.62v-7.39c0-4.52,1.42-6.23,5.59-6.23h2.49c1.64,0,1.48-1.05.32-2.38l-1.77-2.01c-2.88-3.28-4.24-6.53-4.23-9.5.03-6.62,4.7-11.24,13.97-11.24h16.34c4.2,0,6.46,2.26,6.46,6.46v7.17c0,4.48-1.62,6.46-5.26,6.46h-2.52c-1.5,0-1.21,1-.23,2.16l1.89,2.23c2.84,3.35,4.26,6.56,4.23,9.51-.06,6.63-4.73,11.22-14.13,11.22h-16.68c-4.2,0-6.46-2.26-6.46-6.46Z"/><rect id="Rectangle_9" class="cls-18" x="31.23" y="29.39" width="254.42" height="98.37"/><g><path class="cls-13" d="m339.56,67.01l.27,2.12c0,.12.03.3.06.36v-.03c.18,1.16.36,2.47.33,3.9-.24.54-.77.8-1.16.8s-.8-.12-1.07-.3c-.63-1.58-.72-3.04-.8-4.47v-.18c-.03-.6-.06-.71-.15-1.61-.92.09-1.76.33-2.32.48-.86.24-1.67.42-2.53.42-.6,0-1.16-.09-1.7-.3-.15.15-.15.24-.15.33.21,1.07.24,2.5.27,3.67v.8c-.3.71-1.1.95-1.61.89-.33-.09-.92-.45-1.07-1.04v.03l-.3-3.04c-.15-1.82-.33-3.64-.57-5.36-.18-.71-.39-3.31-.36-3.72.03-.54.12-1.13.77-1.37.66-.27,1.22.15,1.43.51.18.21.21.42.27.69v-.06l.06.18.03.12c.03.15.12.3.24.51.03.63.36,3.64.63,4.59l1.28-.06c1.49-.03,3.87-.06,5.51-.51.03-1.13-.39-4.23-.51-5.1-.15-.3-.18-.72,0-.92.3-.42,1.01-.45,1.52-.36.3.06.54.21.71.54v-.03c.33.72.92,3.58.98,5.36.75-.3,1.31-.33,1.22.54-.12.86-.69,1.28-1.28,1.64Z"/><path class="cls-13" d="m342.21,65.61c0-3.1,3.31-7.75,6.05-7.75.48,0,.72.09.95.18h-.03l.33.12.39.12c.24.27.51.6.98.77.18.36.39.42.69.45.72.03,1.46.09,2.03.75.06.12.42.42.51.51,1.64,1.82,3.1,3.55,3.1,6.47,0,3.4-3.61,7.27-7.15,7.27-4.62,0-7.84-3.28-7.84-8.88Zm8.88-4.53c0,.21-.03.54-.15.92-.27-.15-.51-.42-.63-.66l-.42.36c-.42-.39-.72-.89-.75-1.19l-.06-.24-.18-.3-.6.3h.03c-.06.03-.36.18-.89.33-.18.06-.3.3-.45.51l-.18.21-.18.27v-.03l-.24.33c-.83.98-1.46,1.88-1.46,3.58,0,3.52,1.91,6.65,4.95,6.65,2.23,0,4.53-2.71,4.53-4.98,0-2.09-1.58-4.68-3.34-6.05Z"/><path class="cls-13" d="m379.02,73.48c-.83.18-1.19.18-1.58-.6l.03.03c-.15-.48-.18-1.13-.21-1.94-.03-1.16-.12-2.83-.45-4.32,0-.06-.03-.03-.45-1.91-.21-.33-.33-.66-.39-.92-.03-.06-.03-.09-.03-.15-.03-.21-.12-.39-.18-.45h.03c-.21-.24-.3-.42-.36-.6-.18-.45-.42-.69-1.01-.77-.45-.06-1.28.12-1.55.21-1.25.69-1.79,1.13-2.32,1.58h.03l-.21.24c-.36.39-.69.8-.63,1.1l.24.95v-.03l.06.36c.36,1.28.71,2.8.71,4.2,0,.48-.03.89-.09,1.28v-.03c-.03.09-.03.21-.03.33v-.03c-.12.77-.21,1.1-1.22,1.22-.03,0-.06.03-.09.03-.18.06-.51.12-.92,0-.33-.36-.45-.63-.54-.86l-.18-.39-.39-.66v.06c-.39-.71-.51-1.52-.51-2.35,0-.63.06-1.19.15-1.79,0-.09.06-.3.06-.42.09-.6.18-1.55.21-2.15-.12-.54-.42-.95-.72-1.31l-.42-.57c-.45-.6-.92-1.19-1.58-1.19-.92,0-1.73.36-2.26,1.13l-.03.3c-.15.98-.3,2.15-.3,3.07,0,.3-.15,3.4.03,5.01,0,.24.03.48.03.71,0,.66-.06,1.22-.18,1.4-.27.39-.69.54-1.01.63l-.83-.21-.21-.12c-.21-.12-.42-.27-.54-.48l.03.03c-.18-.6-.21-1.01-.21-1.37,0-.45.03-.83.09-1.25,0,0,.03-.06.03-.09,0-.27.06-.6.09-.86,0-.09.03-.24.03-.36l-.03-3.76c0-.6.03-1.37.09-1.91,0-.15-.03-.54-.06-.71,0-.03-.03-.06-.03-.09-.06-.33-.12-.63-.12-.95,0-.42.12-.83.51-1.22.51-.42.86-.57,1.13-.57s.51.24.75.63c.63-.63,1.7-1.16,2.65-1.16.33-.06.74.03,1.22.09.63.12,1.34.51,1.73.86.63.51,1.04,1.1,1.46,1.85,0,.12.12.21.24.33l.39-.36c.27-.27.86-.89,1.49-1.19l.54-.3c.51-.3,1.19-.66,1.91-.8.69-.12,1.64-.24,2.38-.09,1.76.57,2.47,2.12,2.95,3.43l.06.3h.03c.77,2.12,1.13,4.8,1.4,7.15.09.86-.09,1.79-.92,2.77Z"/><path class="cls-13" d="m393.62,72.47l-.21.21c-1.82.98-2.68,1.28-5.75,1.28-1.28,0-1.97-.36-2.8-.75v-.03l-.36-.18.03.03c-1.07-.48-2-1.25-2.44-2.32v.03c-.12-.42-.18-.75-.18-1.01,0-1.22,1.19-2.56,2.15-3.49-1.4-.74-3.07-1.91-3.07-3.67,0-.69.27-1.4.66-1.97,1.49-.92,3.7-1.82,5.63-1.82,1.25,0,2.38.33,3.81,1.61l-.27.21c0,.42,0,.86-.51.86-.27,0-.69-.06-1.19-.27-.39,0-.75,0-1.13-.03-.36,0-.72-.03-1.07-.03-1.31,0-2.53.18-3.37,1.25,0,.36.09.51.18.63l.36.45c.66.6,1.46.89,2.41.89.57,0,1.13-.06,1.61-.21.36-.03.63-.24.92-.48.33-.27.72-.57,1.19-.57h.15c.36-.21.75-.21,1.19-.21h.51c.51.48.89,1.07.89,1.67,0,.03,0,.21-.03.3-1.07.98-2.62,1.4-3.87,1.7-1.37.27-2.83.66-3.73,1.85-.36.33-.77.78-.77,1.28,0,1.25,1.4,1.64,2.32,1.85.57.06,1.16.09,1.76.09s1.34,0,1.94-.09h.12l.42-.21-.03.03c.95-.36,2-.77,2.74-2.35.36.3.72.48,1.07.71l.24.42c-.03.86-.86,1.88-1.52,2.32Z"/></g><g><path class="cls-13" d="m435.74,69.67c0,.39.06,1.16.12,1.58l.06.51c.06.36.12.71.06,1.13.15.57-.03,1.4-.8,1.52-1.37.06-1.85-1.73-1.91-2.68,0-.12-.03-.21-.03-.27v-.18c-.03-.21-.06-.57-.06-.78-.03-.03.09-.27.27-.45-.48,0-.72,0-1.01.03h.03c-.51.03-1.19.06-1.85.06-.89,0-1.91-.06-2.68-.21h-.15s-.21.03-.33.03c-.06.66-.06.86-.06,1.1,0,.75.06,1.46.24,2.35.09.39-.06.8-.51,1.19h.03c-.24.15-.51.27-.83.27-.27,0-.57-.06-.8-.3-.8-.77-.8-2.03-.77-3.25.03-.86.03-1.73-.33-2.35,0-.36.03-.8.06-1.16h.3c.03-.39.03-1.04.03-1.4,0-.69-.03-1.43-.09-2.06-.06-.83-.12-1.7-.12-2.68,0-.57.39-.77.95-1.04.33-.03.75-.03,1.1.12,1.46-2.18,3.01-2.62,4.05-2.68,1.49-.09,2.56,1.25,3.22,2.89v-.06c.66,1.79.98,3.64,1.19,4.98l.09.8c.03.48.12.86.27,1.16.39.09.57.3.63.63.12.45,0,.8-.36,1.19Zm-2.86-2.09c-.06-.21-.09-.48-.09-.72,0-.09-.03-.18-.03-.27-.06-.63-.15-1.46-.3-2.03-.3-1.25-.72-2.71-1.34-4.02l-.24-.36c-2.68.51-3.19,4.47-3.4,7.42h.69c.8.03,1.55.06,2.41.06.63,0,1.22,0,2.29-.09Z"/><path class="cls-13" d="m448.94,74.05c-.42.24-.66.42-.86.57-.83.51-2.21.8-3.52.8-.51,0-1.1-.03-1.55-.09-1.25-.24-2.62-.63-3.31-1.31-.66-.03-1.52-.12-1.73-1.01-.18-.6-.33-1.4-.09-2l-.03-.42v-.33c-.03-.8-.06-1.85-.06-2.65l-.03-3.58v-.27c0-.77,0-1.85,1.01-2.5.39-.09.69-.09.92.03l.24-.27c.95-1.16,2.15-2.68,3.73-2.68.6,0,1.37.27,1.91.54.3.21,1.16.89,1.4,1.25.57.86.8,1.76.8,2.65,0,.51-.12,1.16-.33,1.97h.54c1.07,0,2.29.27,2.89,1.34.75.92,1.16,2.18,1.16,3.37,0,.86-.18,1.7-.57,2.44v-.03c-.63,1.01-1.58,1.61-2.53,2.18Zm-.12-6.23c-.12-.06-.21-.15-.27-.21-.15-.09-.24-.21-.48-.06-.48-.12-.8-.15-1.13-.15-1.16,0-2.38.51-3.55,1.04l-.21.09h.03l-.95.42.06-.03c-.18,0-.45.03-.6.06-.45.06-.86.12-1.43.03.03,1.22.24,2.29.71,3.37,1.07.54,2.21,1.01,3.25.86,1.19-.21,2.74-.8,3.84-1.58.69-.6,1.22-1.34,1.22-2.23,0-.48-.18-1.01-.51-1.61Zm-3.28-5.07c.06-.48-.15-.8-.39-1.04-.09-.09-.3-.6-.8-.89-1.25-.21-3.4,2.03-3.81,3.16l-.09,1.07c-.03.33-.06.51-.09.63-.03.15-.06.18,0,.95l.89-.21c.86-.36,2.26-.54,3.01-1.22.48-.45,1.1-1.13,1.28-2.44Z"/><path class="cls-13" d="m453.44,65.61c0-3.1,3.31-7.75,6.05-7.75.48,0,.72.09.95.18h-.03l.33.12.39.12c.24.27.51.6.98.77.18.36.39.42.69.45.72.03,1.46.09,2.03.75.06.12.42.42.51.51,1.64,1.82,3.1,3.55,3.1,6.47,0,3.4-3.61,7.27-7.15,7.27-4.62,0-7.84-3.28-7.84-8.88Zm8.88-4.53c0,.21-.03.54-.15.92-.27-.15-.51-.42-.63-.66l-.42.36c-.42-.39-.72-.89-.75-1.19l-.06-.24-.18-.3-.6.3h.03c-.06.03-.36.18-.89.33-.18.06-.3.3-.45.51l-.18.21-.18.27v-.03l-.24.33c-.83.98-1.46,1.88-1.46,3.58,0,3.52,1.91,6.65,4.95,6.65,2.23,0,4.53-2.71,4.53-4.98,0-2.09-1.58-4.68-3.34-6.05Z"/><path class="cls-13" d="m486.17,73.99c0,.71-1.1,1.01-1.61,1.01-.92,0-1.55-.66-2.09-1.4v.03l-.15-.24c-.27-.51-.63-1.49-.92-2.41l-.33.06c-.77,1.37-2.29,2.23-3.73,2.47-.42.09-.98.15-1.52.15-.45,0-.86-.03-1.28-.18l-.36-.09c-1.1-.3-2.92-1.19-3.49-2.68-.75-2.06-.72-3.96-.72-6.14v-.77c-.18-.45-.3-.92-.3-1.34,0-.15.09-.54.12-.77.03-.18.06-.45.06-.66,0-.06,0-.18-.03-.27l-.03-.21c0-.6.66-1.07,1.31-1.07.92,0,1.46.8,1.46,2.18,0,.39-.03.83-.09,1.25-.03.39-.09.8-.09,1.16,0,2.38-.09,7.69,3.61,7.69,2.95,0,3.93-3.31,4.26-5.81.03-.48.06-.92.06-1.34,0-.51-.03-1.13-.09-1.61v-.15c0-.06.03-.12.03-.18,0-.33-.06-.63-.15-.89-.06-.24-.09-.51-.09-.77,0-.63.3-1.7,1.28-1.7,1.1,0,1.25.83,1.37,1.52.06.27.06.48.18.71.21,1.61.24,2.86.33,3.99.03.77.06,1.73.15,2.77.12,1.22.86,4.23,1.79,4.98h.3l.51.18c.15.21.24.39.24.54Z"/><path class="cls-13" d="m499.82,60.88h-1.61c-.42,0-.89.03-1.28.09-.39.03-1.22.09-1.61.09-.54-.03-1.19-.03-1.73.12.03.36.06.66.03.8,0,.66.09,2,.15,2.77l.06.86c.06.6.09,1.16.09,1.55,0,.21-.03.42-.03.63v.66c-.03.36-.03.83-.03,1.22,0,.98.09,1.97.63,3.9,0,.27-.18.45-.66.83h.03c-.39.27-.92.39-1.46.15-.98-.54-1.07-2.41-1.1-3.79,0-.33,0-.66-.03-.86-.03-.3-.03-.77-.03-1.07,0-.48,0-1.01.03-1.52,0-1.01-.12-2.98-.21-4.23l-.12-1.67h-.45c-.57,0-1.28.06-1.94.12l-.48.48c-.57.27-2.23-.06-2.06-.15-.18-.03-.3-.12-.45-.27-.24-.18-.33-.51-.33-.86,0-.57.24-1.16.63-1.49l-.03.03c.24-.18.54-.3.86-.3.27,0,.6.06.89.24,1.97-.3,4.02-.45,6.11-.45s4.35.15,6.79.6c.06.18.15.27.21.3.39.18.77.39.77.66,0,.15-.09.39-.36.66l-.95-.06c-.12-.09-.21-.06-.36-.03Z"/></g><g><path class="cls-13" d="m543.36,64.88h-1.61c-.42,0-.89.03-1.28.09-.39.03-1.22.09-1.61.09-.54-.03-1.19-.03-1.73.12.03.36.06.66.03.8,0,.66.09,2,.15,2.77l.06.86c.06.6.09,1.16.09,1.55,0,.21-.03.42-.03.62v.66c-.03.36-.03.83-.03,1.22,0,.98.09,1.97.63,3.9,0,.27-.18.45-.66.83h.03c-.39.27-.92.39-1.46.15-.98-.54-1.07-2.41-1.1-3.79,0-.33,0-.66-.03-.86-.03-.3-.03-.77-.03-1.07,0-.48,0-1.01.03-1.52,0-1.01-.12-2.98-.21-4.23l-.12-1.67h-.45c-.57,0-1.28.06-1.94.12l-.48.48c-.57.27-2.23-.06-2.06-.15-.18-.03-.3-.12-.45-.27-.24-.18-.33-.51-.33-.86,0-.57.24-1.16.63-1.49l-.03.03c.24-.18.54-.3.86-.3.27,0,.6.06.89.24,1.97-.3,4.02-.45,6.11-.45s4.35.15,6.79.6c.06.18.15.27.21.3.39.18.77.39.77.66,0,.15-.09.39-.36.66l-.95-.06c-.12-.09-.21-.06-.36-.03Z"/><path class="cls-13" d="m558.24,76.47l-.21.21c-1.82.98-2.68,1.28-5.75,1.28-1.28,0-1.97-.36-2.8-.75v-.03l-.36-.18.03.03c-1.07-.48-2-1.25-2.44-2.32v.03c-.12-.42-.18-.75-.18-1.01,0-1.22,1.19-2.56,2.15-3.49-1.4-.75-3.07-1.91-3.07-3.67,0-.69.27-1.4.66-1.97,1.49-.92,3.7-1.82,5.63-1.82,1.25,0,2.38.33,3.81,1.61l-.27.21c0,.42,0,.86-.51.86-.27,0-.69-.06-1.19-.27-.39,0-.75,0-1.13-.03-.36,0-.72-.03-1.07-.03-1.31,0-2.53.18-3.37,1.25,0,.36.09.51.18.63l.36.45c.66.6,1.46.89,2.41.89.57,0,1.13-.06,1.61-.21.36-.03.63-.24.92-.48.33-.27.72-.57,1.19-.57h.15c.36-.21.75-.21,1.19-.21h.51c.51.48.89,1.07.89,1.67,0,.03,0,.21-.03.3-1.07.98-2.62,1.4-3.87,1.7-1.37.27-2.83.65-3.73,1.85-.36.33-.77.78-.77,1.28,0,1.25,1.4,1.64,2.32,1.85.57.06,1.16.09,1.76.09s1.34,0,1.94-.09h.12l.42-.21-.03.03c.95-.36,2-.77,2.74-2.35.36.3.72.48,1.07.71l.24.42c-.03.86-.86,1.88-1.52,2.32Z"/><path class="cls-13" d="m570.93,73.67c0,.39.06,1.16.12,1.58l.06.51c.06.36.12.71.06,1.13.15.57-.03,1.4-.8,1.52-1.37.06-1.85-1.73-1.91-2.68,0-.12-.03-.21-.03-.27v-.18c-.03-.21-.06-.57-.06-.78-.03-.03.09-.27.27-.45-.48,0-.72,0-1.01.03h.03c-.51.03-1.19.06-1.85.06-.89,0-1.91-.06-2.68-.21h-.15s-.21.03-.33.03c-.06.66-.06.86-.06,1.1,0,.75.06,1.46.24,2.35.09.39-.06.8-.51,1.19h.03c-.24.15-.51.27-.83.27-.27,0-.57-.06-.8-.3-.8-.77-.8-2.03-.77-3.25.03-.86.03-1.73-.33-2.35,0-.36.03-.8.06-1.16h.3c.03-.39.03-1.04.03-1.4,0-.68-.03-1.43-.09-2.06-.06-.83-.12-1.7-.12-2.68,0-.57.39-.77.95-1.04.33-.03.75-.03,1.1.12,1.46-2.18,3.01-2.62,4.05-2.68,1.49-.09,2.56,1.25,3.22,2.89v-.06c.66,1.79.98,3.64,1.19,4.98l.09.8c.03.48.12.86.27,1.16.39.09.57.3.63.63.12.45,0,.8-.36,1.19Zm-2.86-2.09c-.06-.21-.09-.48-.09-.72,0-.09-.03-.18-.03-.27-.06-.63-.15-1.46-.3-2.03-.3-1.25-.72-2.71-1.34-4.02l-.24-.36c-2.68.51-3.19,4.47-3.4,7.42h.69c.8.03,1.55.06,2.41.06.63,0,1.22,0,2.29-.09Z"/><path class="cls-13" d="m593.13,77.48c-.83.18-1.19.18-1.58-.6l.03.03c-.15-.48-.18-1.13-.21-1.94-.03-1.16-.12-2.83-.45-4.32,0-.06-.03-.03-.45-1.91-.21-.33-.33-.66-.39-.92-.03-.06-.03-.09-.03-.15-.03-.21-.12-.39-.18-.45h.03c-.21-.24-.3-.42-.36-.6-.18-.45-.42-.69-1.01-.77-.45-.06-1.28.12-1.55.21-1.25.69-1.79,1.13-2.32,1.58h.03l-.21.24c-.36.39-.69.8-.63,1.1l.24.95v-.03l.06.36c.36,1.28.72,2.8.72,4.2,0,.48-.03.89-.09,1.28v-.03c-.03.09-.03.21-.03.33v-.03c-.12.77-.21,1.1-1.22,1.22-.03,0-.06.03-.09.03-.18.06-.51.12-.92,0-.33-.36-.45-.63-.54-.86l-.18-.39-.39-.66v.06c-.39-.71-.51-1.52-.51-2.35,0-.63.06-1.19.15-1.79,0-.09.06-.3.06-.42.09-.6.18-1.55.21-2.15-.12-.54-.42-.95-.72-1.31l-.42-.57c-.45-.6-.92-1.19-1.58-1.19-.92,0-1.73.36-2.26,1.13l-.03.3c-.15.98-.3,2.15-.3,3.07,0,.3-.15,3.4.03,5.01,0,.24.03.48.03.71,0,.66-.06,1.22-.18,1.4-.27.39-.69.54-1.01.63l-.83-.21-.21-.12c-.21-.12-.42-.27-.54-.48l.03.03c-.18-.6-.21-1.01-.21-1.37,0-.45.03-.83.09-1.25,0,0,.03-.06.03-.09,0-.27.06-.6.09-.86,0-.09.03-.24.03-.36l-.03-3.76c0-.6.03-1.37.09-1.91,0-.15-.03-.54-.06-.71,0-.03-.03-.06-.03-.09-.06-.33-.12-.63-.12-.95,0-.42.12-.83.51-1.22.51-.42.86-.57,1.13-.57s.51.24.75.63c.63-.63,1.7-1.16,2.65-1.16.33-.06.74.03,1.22.09.63.12,1.34.51,1.73.86.63.51,1.04,1.1,1.46,1.85,0,.12.12.21.24.33l.39-.36c.27-.27.86-.89,1.49-1.19l.54-.3c.51-.3,1.19-.66,1.91-.8.69-.12,1.64-.24,2.38-.09,1.76.57,2.47,2.12,2.95,3.43l.06.3h.03c.77,2.12,1.13,4.8,1.4,7.15.09.86-.09,1.79-.92,2.77Z"/></g><g><path class="cls-13" d="m682.05,64.47c-.21.09-.33.15-.45.15-.24,0-.42-.21-.57-.51l-4.95.95c-.63.42-1.25.51-1.88.6-.48.06-1.13.18-1.64.39l-.3.03c0,1.13.3,3.55.6,4.47.63-.09,1.46-.15,2.12-.21.89-.06,1.91-.12,2.98-.39.51-.18,1.07-.21,1.64-.21.75,0,2.06.03,2.06.78,0,.39-.27.65-.57.95l-.03.03c-.09,0-.27.12-.6.24v-.03c-.98.36-3.16,1.07-6.11,1.07h-.75c-.15,0-.21,0-.51.18.12.66.12,1.16.12,1.7,0,.3-.03.63-.03.95v.83c0,.8.12,1.67.45,2.29-.21.68-.6,1.31-1.76,1.46-.21-.03-.51-.27-.69-.48h.03c-.6-.66-.75-3.64-.86-5.78-.06-.83-.12-1.64-.18-2.06v-.18c0-.06.03-.18.03-.27,0-1.13-.27-2.41-.54-3.64-.24-1.07-.48-2.09-.48-2.8,0-1.07.95-1.19,1.55-1.19.15,0,.36.03.54.06.18.03.45.03.63.03.95,0,2-.3,2.86-.54l.63-.15c1.82-.45,3.43-.72,5.13-.89l.51.15c.77.12,1.61.36,1.61.89,0,.21-.12.54-.33.92l-.3.18h.03Z"/><path class="cls-13" d="m694.33,74.67c0,.39.06,1.16.12,1.58l.06.51c.06.36.12.71.06,1.13.15.57-.03,1.4-.8,1.52-1.37.06-1.85-1.73-1.91-2.68,0-.12-.03-.21-.03-.27v-.18c-.03-.21-.06-.57-.06-.78-.03-.03.09-.27.27-.45-.48,0-.72,0-1.01.03h.03c-.51.03-1.19.06-1.85.06-.89,0-1.91-.06-2.68-.21h-.15s-.21.03-.33.03c-.06.66-.06.86-.06,1.1,0,.75.06,1.46.24,2.35.09.39-.06.8-.51,1.19h.03c-.24.15-.51.27-.83.27-.27,0-.57-.06-.8-.3-.8-.77-.8-2.03-.77-3.25.03-.86.03-1.73-.33-2.35,0-.36.03-.8.06-1.16h.3c.03-.39.03-1.04.03-1.4,0-.68-.03-1.43-.09-2.06-.06-.83-.12-1.7-.12-2.68,0-.57.39-.77.95-1.04.33-.03.75-.03,1.1.12,1.46-2.18,3.01-2.62,4.05-2.68,1.49-.09,2.56,1.25,3.22,2.89v-.06c.65,1.79.98,3.64,1.19,4.98l.09.8c.03.48.12.86.27,1.16.39.09.57.3.63.63.12.45,0,.8-.36,1.19Zm-2.86-2.09c-.06-.21-.09-.48-.09-.72,0-.09-.03-.18-.03-.27-.06-.63-.15-1.46-.3-2.03-.3-1.25-.71-2.71-1.34-4.02l-.24-.36c-2.68.51-3.19,4.47-3.4,7.42h.69c.8.03,1.55.06,2.41.06.62,0,1.22,0,2.29-.09Z"/><path class="cls-13" d="m709.47,67.19s-.06.12-.06.15l-.39.89-.18.48c-.06.18-.09.36-.15.51-.33,1.04-.77,2.32-.92,2.62-.39.66-.83,1.61-1.16,2.32-.71,1.46-1.52,3.07-2.68,4.5-.36.12-.89.27-1.46.27-.27,0-.57-.03-.86-.12-.69-.51-1.07-1.04-1.34-1.55-.77-1.49-1.4-3.07-2.03-4.56l-.63-1.55c-.09-.18-.18-.48-.27-.66-.42-1.01-.95-2.38-1.25-3.07l-.18-.21v.03c-.15-.3-.33-.63-.33-.98,0-.24.09-.51.45-.83.24-.21.6-.42,1.04-.42.27,0,.63.21.89.48,1.61,2.65,3.04,6.76,4.35,9.95l.39.42c.27-.39.57-.86.75-1.31l.03-.06c.12-.24.12-.42.63-1.01.18-.3.36-.71.54-1.04l.12-.33c.18-.42.42-1.01.57-1.22.51-1.01.75-1.55.98-2.09.42-1.07.83-2.12,1.58-2.92h-.03c.24-.27.33-.45.48-.69v.03c.3-.51.69-1.04,1.43-1.04.18,0,.51.06.8.15l-.18.98c-.42.6-.69,1.25-.92,1.88Z"/><path class="cls-13" d="m711.35,70.61c0-3.1,3.31-7.75,6.05-7.75.48,0,.71.09.95.18h-.03l.33.12.39.12c.24.27.51.6.98.77.18.36.39.42.69.45.72.03,1.46.09,2.03.75.06.12.42.42.51.51,1.64,1.82,3.1,3.55,3.1,6.47,0,3.4-3.61,7.27-7.15,7.27-4.62,0-7.84-3.28-7.84-8.88Zm8.88-4.53c0,.21-.03.54-.15.92-.27-.15-.51-.42-.62-.66l-.42.36c-.42-.39-.71-.89-.75-1.19l-.06-.24-.18-.3-.6.3h.03c-.06.03-.36.18-.89.33-.18.06-.3.3-.45.51l-.18.21-.18.27v-.03l-.24.33c-.83.98-1.46,1.88-1.46,3.58,0,3.52,1.91,6.65,4.95,6.65,2.23,0,4.53-2.71,4.53-4.98,0-2.09-1.58-4.68-3.34-6.05Z"/><path class="cls-13" d="m742.64,77.17c0,1.4-2.09,2-3.37,2-.39,0-.8-.03-1.22-.06-.42-.03-.95-.09-1.34-.09-.48-.21-.95-.39-1.52-.6-1.13-.45-2.38-.95-4.17-1.91.15.63.24,1.16.24,1.64,0,.57-.3,1.25-1.04,1.67-.48-.09-.83-.24-.98-.36l-.51-.33c-.42-2.71-.66-5.6-.89-8.28-.12-1.49-.24-3.01-.42-4.38.03-.42.24-1.64,1.76-1.64h.3c.51-.6,1.1-.89,1.73-1.22l.12-.03.18-.03.66-.18c.27,0,.57-.03.86-.03.33-.03.69-.03,1.01-.03,1.91,0,4.02.92,4.92,2.59.27.48.33.95.33,1.37,0,.51-.09.98-.24,1.4l-.33.66h.03c-.62,1.31-1.34,2.44-2.62,3.49-.83.66-1.67,1.01-2.38,1.28l-1.16.39,2.53,1.25c1.25.66,2.98,1.46,4.26,1.46.42,0,.83,0,1.25-.15l.83-.57h.69c.39.24.51.45.51.69Zm-5.93-9.36c0-.98-.3-1.52-1.04-2-.15-.09-.42-.27-.6-.36-.27-.15-.57-.24-.8-.24-.3,0-.6.03-.86.09l-.21.06c-1.7.39-1.94.54-2.32,1.64-.15.51-.21,1.07-.21,1.7,0,.39,0,.89.03,1.25,0,.42.03.8.03,1.16,0,.45-.03.83-.06,1.13.06.15.06.33.06.45.21,0,.39,0,.48-.03.98-.18,1.85-.39,2.83-1.13l.33-.27c.15-.09.42-.36.63-.54l.12-.03c.33-.33.6-.71.83-1.16.03-.09.06-.15.21-.36l.48-.75h-.03c.09-.15.12-.36.12-.63Z"/><path class="cls-13" d="m747.29,75.77c.09.51.18,1.04.18,1.64,0,.89-.24,1.76-1.13,2.15v-.03c-.57.21-1.52-.18-1.61-.86l-.09-.66c-.06-.6-.12-1.34-.12-1.91.03-.51-.03-1.22-.09-1.82l-.03-.3c-.06-.48-.09-1.07-.09-1.61-.03-.92-.27-2.68-.51-4.23-.03-.33-.09-.66-.15-.89v.03c-.09-.51-.15-1.1-.21-1.73l-.03.09c0-.09-.03-.15-.03-.21-.03-.3-.09-.69-.09-.92,0-.33.09-.69.39-.92h-.03c.36-.24.69-.36.98-.36.63,0,1.07.45,1.25,1.19.36,1.4.51,3.16.66,4.92v-.03l.06.75c.18,1.82.39,3.72.57,5.04l.09.48.03.21Z"/><path class="cls-13" d="m763.23,65.88h-1.61c-.42,0-.89.03-1.28.09-.39.03-1.22.09-1.61.09-.54-.03-1.19-.03-1.73.12.03.36.06.66.03.8,0,.66.09,2,.15,2.77l.06.86c.06.6.09,1.16.09,1.55,0,.21-.03.42-.03.62v.66c-.03.36-.03.83-.03,1.22,0,.98.09,1.97.62,3.9,0,.27-.18.45-.66.83h.03c-.39.27-.92.39-1.46.15-.98-.54-1.07-2.41-1.1-3.79,0-.33,0-.66-.03-.86-.03-.3-.03-.77-.03-1.07,0-.48,0-1.01.03-1.52,0-1.01-.12-2.98-.21-4.23l-.12-1.67h-.45c-.57,0-1.28.06-1.94.12l-.48.48c-.57.27-2.24-.06-2.06-.15-.18-.03-.3-.12-.45-.27-.24-.18-.33-.51-.33-.86,0-.57.24-1.16.63-1.49l-.03.03c.24-.18.54-.3.86-.3.27,0,.6.06.89.24,1.97-.3,4.02-.45,6.11-.45s4.35.15,6.79.6c.06.18.15.27.21.3.39.18.78.39.78.66,0,.15-.09.39-.36.66l-.95-.06c-.12-.09-.21-.06-.36-.03Z"/><path class="cls-13" d="m778.1,77.47l-.21.21c-1.82.98-2.68,1.28-5.75,1.28-1.28,0-1.97-.36-2.8-.75v-.03l-.36-.18.03.03c-1.07-.48-2-1.25-2.44-2.32v.03c-.12-.42-.18-.75-.18-1.01,0-1.22,1.19-2.56,2.15-3.49-1.4-.75-3.07-1.91-3.07-3.67,0-.69.27-1.4.66-1.97,1.49-.92,3.7-1.82,5.63-1.82,1.25,0,2.38.33,3.81,1.61l-.27.21c0,.42,0,.86-.51.86-.27,0-.69-.06-1.19-.27-.39,0-.75,0-1.13-.03-.36,0-.72-.03-1.07-.03-1.31,0-2.53.18-3.37,1.25,0,.36.09.51.18.63l.36.45c.66.6,1.46.89,2.41.89.57,0,1.13-.06,1.61-.21.36-.03.62-.24.92-.48.33-.27.71-.57,1.19-.57h.15c.36-.21.75-.21,1.19-.21h.51c.51.48.89,1.07.89,1.67,0,.03,0,.21-.03.3-1.07.98-2.62,1.4-3.87,1.7-1.37.27-2.83.65-3.72,1.85-.36.33-.78.78-.78,1.28,0,1.25,1.4,1.64,2.32,1.85.57.06,1.16.09,1.76.09s1.34,0,1.94-.09h.12l.42-.21-.03.03c.95-.36,2-.77,2.74-2.35.36.3.72.48,1.07.71l.24.42c-.03.86-.86,1.88-1.52,2.32Z"/><path class="cls-13" d="m793.99,75.8v.09c-.09.57-.33,1.01-.69,1.4h.03c-.92,1.01-3.31,2-4.68,2.33-1.01.21-2.09.33-3.19.33-.83,0-1.67-.09-2.53-.3h.03c-1.22-.36-2.53-.77-3.07-1.73-.12-.18-.24-.33-.36-.57l.74-.54c1.07.77,2.59,1.07,3.84,1.13,1.52.06,3.31-.12,4.83-.48.57-.09,1.4-.66,2.06-1.07h-.06c.27-.09.39-.36.42-.63.06-.39-.18-.77-.45-1.01-1.07-.8-3.13-1.34-5.01-1.76l-.48-.09c-.86-.18-1.67-.39-2.47-.69-.71-.27-2.38-.98-2.83-1.52l.03.12-.06-.09-.06-.24c-.21-.24-.36-.54-.39-.69-.15-.54-.03-1.1.15-1.61.51-1.55,2.12-2.98,3.58-3.81.75-.45,2.09-1.04,3.19-1.04.48,0,1.01.15,1.46.33h.45c.63.27.83.75.98,1.13.06.18.09.33.27.51.21.89-.39,1.31-.95,1.67-.12.06-.21.12-.63.57l-.51-.51c0-.21-.06-.39-.06-.6.09-.09.06-.27.06-.48-.36-.27-.71-.42-1.04-.27l-.33.09c-.57.15-1.43.39-1.97.74-.74.51-1.55,1.25-1.91,1.82l-.45.83c.24.48.77.78,1.19.89.18.06.42.15.6.18.72.27,1.4.48,2.21.63,2.03.33,5.33,1.31,6.86,2.62.54.57,1.04,1.4,1.19,2.29Z"/></g><polygon class="cls-13" points="657.39 81.83 651.04 76.48 643.03 78.68 646.16 70.98 641.59 64.04 649.87 64.64 655.06 58.15 657.05 66.21 664.83 69.14 657.78 73.53 657.39 81.83"/><rect class="cls-5" x="820.85" y="56.62" width="203" height="23"/><path class="cls-5" d="m837.92,61.01c-2.89-2.89-7.71-2.75-10.76.31-3.06,3.06-3.19,7.88-.31,10.76,2.69,2.69,7.06,2.75,10.11.27l3.72,3.72,1.44-1.44-3.75-3.75c2.29-3.04,2.17-7.26-.46-9.89Z"/><g><path class="cls-13" d="m854.62,72v.05c-.04.34-.15.62-.31.85h.01c-.41.62-1.49,1.21-2.1,1.41-.46.13-.94.2-1.43.2-.38,0-.75-.05-1.14-.18h.01c-.55-.22-1.14-.47-1.38-1.05-.05-.11-.11-.2-.16-.34l.33-.33c.48.47,1.17.65,1.73.69.68.04,1.49-.07,2.17-.29.25-.05.63-.4.92-.65h-.03c.12-.05.17-.22.19-.38.03-.24-.08-.47-.2-.62-.48-.49-1.4-.82-2.25-1.07l-.21-.05c-.39-.11-.75-.24-1.11-.42-.32-.16-1.07-.6-1.27-.92v.07s-.01-.05-.01-.05l-.03-.15c-.09-.15-.16-.33-.17-.42-.07-.33-.01-.67.07-.98.23-.94.95-1.81,1.61-2.32.33-.27.94-.63,1.43-.63.21,0,.46.09.66.2h.2c.28.16.37.45.44.69.03.11.04.2.12.31.09.54-.17.8-.43,1.02-.05.04-.09.07-.28.34l-.23-.31c0-.13-.03-.24-.03-.36.04-.05.03-.16.03-.29-.16-.16-.32-.25-.47-.16l-.15.05c-.25.09-.64.24-.88.45-.33.31-.7.76-.86,1.11l-.2.51c.11.29.35.47.54.54.08.04.19.09.27.11.32.16.63.29.99.38.91.2,2.4.8,3.08,1.6.24.34.47.85.54,1.4Z"/><path class="cls-13" d="m860.31,73.3l-.21.27c-.5.6-1,.91-1.7.91-1.26,0-2.85-1.16-3.08-3.46-.28-.09-.56-.18-.56-.69,0-.54.25-.67.5-.74.28-2.05,1.71-3.32,3.28-3.32.86,0,2.34.58,2.34,2.25,0,1.83-2.07,2.43-3.1,2.5-.11,0-.25.02-.38.04-.12,0-.21.02-.29.02-.17.02-.5.04-.66.04.24,1.11,1.03,2.17,1.97,2.17.31,0,.92-.36,1.21-.78.23-.09.47-.36.66-.62.23-.29.52-.63.88-.73l.24.33c-.13.73-.67,1.32-1.08,1.81Zm-.59-4.51c-.12-1.05-.5-1.41-.95-1.41-1.12,0-2.31,1.25-2.42,2.23h.25c.07,0,.13.02.21.02h.6c.54,0,1.94-.18,2.3-.83Z"/><path class="cls-13" d="m868.27,74.04c-.29,0-.72-.04-1-.22-.28-.18-.82-1.09-1.12-1.78l-.19.4s-.01.04-.03.05l-.05.11v-.02c-.12.27-.28.49-.47.67-.5.34-1.45.69-1.97.69-.58,0-1.35-.54-1.55-1.29v.02c-.09-.31-.15-.71-.15-1.07,0-1.14.32-2.5.88-3.48.5-.89,1.07-1.67,2.02-1.67.31,0,.67.07.86.34.01.04.07.11.09.15.13.18.33.45.45.53.11.04.21.11.39.11h.07s.03-.02.04-.02c.12.45.13.82.13,1.12v.56c0,1.23.36,2.5.88,3.35.12.2.24.44.54.44.27,0,.54-.02.79-.2,0,0,.03-.07.04-.09.11-.15.19-.22.29-.22.04,0,.08,0,.11.02l.13.31c-.11.45-.78,1.18-1.19,1.18Zm-2.69-4.48l-.12-.78c-.11-.15-.17-.29-.21-.4-.15-.25-.39-.51-.59-.63-.58.2-1.06.94-1.34,1.65-.28.62-.5,1.14-.5,1.85,0,.49.05,1.02.27,1.27.05.07.2.07.31.07h.08c1.23,0,2.17-.85,2.17-2.63l-.07-.4Z"/><path class="cls-13" d="m873.51,67.25c-.01.25-.11.33-.31.33-.01,0-.05-.04-.11-.07-.09.02-.23-.04-.32-.09,0,0-.07.02-.13.02h-.44c-1.18,0-1.97,1.81-1.97,3.3,0,.58.08,1.18.15,1.7l.05.36s.01.07.01.09c0,.05.01.13.04.18v-.02c.03.22.05.45.05.6,0,.54-.36.71-.7.62-.29-.11-.42-1.01-.54-1.81l-.03-.16c-.01-.18-.09-.6-.2-1.05-.04-.16-.07-.36-.11-.56-.15-.76-.36-1.81-.36-1.98,0-.11-.01-.31-.03-.44-.03-.42-.05-.91.15-1.23v.04c.08-.11.2-.24.33-.24.39,0,.52.62.64,1.27.51-.96,1.55-1.78,2.25-1.78.43,0,.99.34,1.42.62l.05.04c.04.13.07.31.08.27Z"/><path class="cls-13" d="m876.77,74.08c-.31,0-.66-.11-.99-.24-.84,0-2.02-2.08-2.02-3.19,0-1.74.9-4.46,2.49-4.46.21,0,.43.07.63.25.36.02.48.31.6.58v-.02l.05.11c.05.16.11.24.23.24.31.54.56,1.21.56,1.79,0,.22-.07.51-.23.83h-.2c-.66,0-.87-.83-1.03-1.54-.13-.58-.25-1.05-.55-1.05-.6,0-1.45,1.72-1.45,2.48,0,1.76.6,3.03,1.93,3.03.66,0,1.12-.33,1.55-.6.32-.2.6-.4.91-.4h.29v.38c-.76,1.12-1.91,1.79-2.78,1.79Z"/><path class="cls-13" d="m884.91,74.37l-.04.09v-.07l-.19.09c-.46-.05-.55-.83-.56-1.16v-.09c-.01-.24,0-.53.01-.82v.02c.01-.18.01-.33.01-.53,0-.85-.04-1.52-.24-2.36,0-.58-.35-1.3-.72-1.3-1,0-2.44.51-2.44,2.25,0,.34.03.53.07.69.05.24.08.47.08.76,0,.2.03.42.05.63.04.24.07.45.07.76,0,.2-.01.4-.13.6-.07.16-.19.2-.29.2-.13,0-.31-.07-.43-.15-.25-.4-.37-2.27-.48-3.7l-.04-.58c-.03-.42-.05-.76-.11-.98v.02c-.13-.94-.28-2.85-.28-3.84,0-.13-.05-.25-.09-.38-.04-.07-.07-.16-.09-.29-.03-.34.33-1.02.63-1.02.46,0,.55.47.56.85v.22c0,.09.01.18.01.27.03,1.07.07,2.59.25,3.75.87-1.2,1.86-1.32,2.81-1.32,1.55,0,1.83,2.67,1.83,4.12,0,.34.03.76.05,1.14,0,.07.01.2.03.27.03.31.05.6.05.94v.05c0,.44,0,.82-.39.85Z"/><path class="cls-13" d="m887.94,72.63c0,.8-.7,1.21-1.33,1.23-.46-.18-.51-.63-.51-1.27s.24-1.23,1-1.23c.19,0,.25.15.52.15h.11l.09.54c.07.22.11.4.11.58Z"/><path class="cls-13" d="m890.55,72.63c0,.8-.7,1.21-1.33,1.23-.46-.18-.51-.63-.51-1.27s.24-1.23,1-1.23c.19,0,.25.15.52.15h.11l.09.54c.07.22.11.4.11.58Z"/><path class="cls-13" d="m893.16,72.63c0,.8-.7,1.21-1.33,1.23-.46-.18-.51-.63-.51-1.27s.24-1.23,1-1.23c.19,0,.25.15.52.15h.11l.09.54c.07.22.11.4.11.58Z"/></g><ellipse class="cls-22" cx="1099.35" cy="72.62" rx="56.5" ry="24"/><g><path class="cls-9" d="m1073.93,75.8v.09c-.09.57-.33,1.01-.69,1.4h.03c-.92,1.01-3.31,2-4.68,2.33-1.01.21-2.09.33-3.19.33-.83,0-1.67-.09-2.53-.3h.03c-1.22-.36-2.53-.77-3.07-1.73-.12-.18-.24-.33-.36-.57l.75-.54c1.07.77,2.59,1.07,3.84,1.13,1.52.06,3.31-.12,4.83-.48.57-.09,1.4-.66,2.06-1.07h-.06c.27-.09.39-.36.42-.63.06-.39-.18-.77-.45-1.01-1.07-.8-3.13-1.34-5.01-1.76l-.48-.09c-.86-.18-1.67-.39-2.47-.69-.72-.27-2.38-.98-2.83-1.52l.03.12-.06-.09-.06-.24c-.21-.24-.36-.54-.39-.69-.15-.54-.03-1.1.15-1.61.51-1.55,2.12-2.98,3.58-3.81.75-.45,2.09-1.04,3.19-1.04.48,0,1.01.15,1.46.33h.45c.63.27.83.75.98,1.13.06.18.09.33.27.51.21.89-.39,1.31-.95,1.67-.12.06-.21.12-.62.57l-.51-.51c0-.21-.06-.39-.06-.6.09-.09.06-.27.06-.48-.36-.27-.71-.42-1.04-.27l-.33.09c-.57.15-1.43.39-1.97.74-.75.51-1.55,1.25-1.91,1.82l-.45.83c.24.48.78.78,1.19.89.18.06.42.15.6.18.72.27,1.4.48,2.21.63,2.03.33,5.33,1.31,6.85,2.62.54.57,1.04,1.4,1.19,2.29Z"/><path class="cls-9" d="m1076.91,65.04c-.24,0-.45.03-.77.03-.51-.06-1.01-.54-1.01-1.13,0-.75.6-1.19,1.4-1.19.57,0,1.37.39,1.49,1.16l-.06.12c0,.12.03.21.03.27.03.09.06.21.06.27l-.03.09c-.12.21-.48.39-1.1.39Zm1.52,13.98c-.48,0-1.22-.24-1.46-.83-.12-.45-.33-1.31-.39-1.82-.06-.54-.09-1.25-.12-1.97-.09-1.31-.21-2.89-.54-3.99l-.21-.89c0-.21,0-.39.06-.57l.03-.24c0-.69.51-.95,1.07-.95.54,0,1.13.33,1.19.83.03.27.06.6.12.83l.12.71c.36,2.06.86,5.28.8,5.75-.03.27.03.6.12.92.12.36.18.66.18.98,0,.42-.27,1.22-.98,1.22Z"/><path class="cls-9" d="m1092.71,87.9c-1.28,1.13-4.89,2.44-6.59,2.44-1.94,0-3.28-.8-4.68-1.67-.27-.12-.63-.36-.92-.51-.48-.42-1.7-2.09-2-3.07-.15-.15-.18-.3-.18-.42,0-.63.06-.86.15-.86.12,0,.39.27.71.63l.06-.09c2.09,2.56,3.9,3.81,6.94,3.81s5.6-.92,5.6-4.41c0-2.15-.54-4.89-1.37-7.06-.3.15-.48.24-.72.45l-.33.21c-.33.24-.72.48-1.16.72-.69.36-1.49.77-2.41.89-2.09.27-4.02-1.01-4.68-3.04-.12-.36-.45-1.49-.42-2.33.09-3.37.98-6.97,5.21-6.97,1.43,0,2.8.72,3.9,1.61.18-.06.39-.06.45-.06,1.94,0,2.24,3.37,2.38,5.75.06.86.12,1.55.18,1.79.66,2.53,1.13,5.19,1.13,7.72,0,1.16-.18,3.55-1.28,4.47Zm-4.05-17.43l.03.03-.18-.54c-.6-.09-.89-.42-1.1-.75v.03c-.09-.18-.27-.39-.36-.48-.3-.12-.48-.21-.66-.24-2.21.12-3.49,2.71-3.49,4.86,0,1.4.69,3.55,2.24,3.55.86,0,1.82-.33,2.59-.95l.54-.36-.03.03c.75-.51,1.55-1.04,1.55-1.94,0-.66-.66-2.17-1.13-3.25Z"/><path class="cls-9" d="m1107.88,79.08c-.03.54-.69.86-1.07.86-.42,0-.54-.12-.75-.3-.06-.06-.15-.09-.36-.12-.15-.48-.12-.48-.12-.6,0-.33.09-.51.21-.72,0,0,0-.03.03-.06v.03c.09-.18.21-.3.03-.72l.24-.3v-.33c0-1.52-.42-2.92-.8-4.38-.24-.51-1.13-3.28-3.61-3.28-2.32,0-3.37,1.37-3.37,3.75,0,.95.33,2.18.63,3.13l.18.6c-.12.21-.12.36-.12.51s.03.33.06.51.06.42.06.66c0,.69-.57,1.1-1.31,1.1-.42,0-.72-.18-.92-.42-.09-.06-.15-.18-.27-.24-.36-.54-.51-1.1-.51-1.7,0-.3-.03-.57-.06-.86-.03-.18-.03-.39-.03-.57-.03-.51-.06-1.07-.06-1.43,0-.51-.09-1.43-.27-1.85l-.36-2c-.21-.42-.42-.86-.42-1.25,0-.3.12-.51.36-.8.33-.09.54-.12.66-.12.66,0,1.04.33,1.25.72.98-1.07,2.38-1.61,3.67-1.82.45-.09.89-.12,1.34-.12,3.81,0,4.74,3.1,5.42,5.66l.27.89.12.42c.27.74.42,1.61.42,2.44l-.03,1.19c-.06.51-.15,1.01-.51,1.49Zm-2.03-1.04l-.03.06s.03,0,.03-.06Z"/><path class="cls-9" d="m1121.29,75.77c.09.51.18,1.04.18,1.64,0,.89-.24,1.76-1.13,2.15v-.03c-.57.21-1.52-.18-1.61-.86l-.09-.66c-.06-.6-.12-1.34-.12-1.91.03-.51-.03-1.22-.09-1.82l-.03-.3c-.06-.48-.09-1.07-.09-1.61-.03-.92-.27-2.68-.51-4.23-.03-.33-.09-.66-.15-.89v.03c-.09-.51-.15-1.1-.21-1.73l-.03.09c0-.09-.03-.15-.03-.21-.03-.3-.09-.69-.09-.92,0-.33.09-.69.39-.92h-.03c.36-.24.69-.36.98-.36.63,0,1.07.45,1.25,1.19.36,1.4.51,3.16.66,4.92v-.03l.06.75c.18,1.82.39,3.72.57,5.04l.09.48.03.21Z"/><path class="cls-9" d="m1138.78,76.75c0,.18-.12.36-.27.54v.48c-.21-.03-.39-.03-.54-.03-.72,0-.98.21-1.31.39l-.15.09c-.42.27-.89.57-1.37.57-.24,0-.57-.09-.92-.3-2.47,0-4.23-1.97-5.66-4.11v.03l-.3-.54-2.21-2.74c0,1.58.36,3.49.36,5.33,0,.24-.03.45-.03.66v.51c0,.15.03.3.03.48,0,.48-.12,1.52-1.07,1.52-.54,0-1.07-.21-1.49-.45-.09-1.55-.15-3.13-.18-4.8l-.09-3.25c-.03-.89-.09-1.94-.21-2.98v-.33l.57-.57-.24-.27c.06-.03.12-.09.12-.09-.03-.12-.03-.24-.03-.36,0-.39.21-1.1,1.25-1.1.69,0,1.37.6,1.61,1.22l.03.27c.18,1.61,2.92,4.59,3.64,5.51.86,1.46,2.5,3.61,3.99,3.96h-.03c.3.09.77.15,1.43.15-.24-1.16-.42-2.41-.42-3.37,0-1.55.27-3.04.27-4.59,0-.95-.09-1.85-.36-2.71,0,0,.03-.24.06-.3-.09-.36-.18-.71-.18-1.16,0-.33.15-1.28.69-1.28.62,0,1.19.18,1.61.45.06.15.09.21.12.21l-.03.27c.03.21.09.39.36.6,0,1.82.15,3.43.15,5.6v.87c.09.57.09,1.25.09,1.94,0,.27-.03.57-.03.83,0,1.01.09,1.97.6,2.53v-.06l.12.18c.03.06.03.15.03.21Z"/></g></svg>