<?xml version="1.0" encoding="utf-8"?>
<!-- Generator: Adobe Illustrator 17.0.0, SVG Export Plug-In . SVG Version: 6.00 Build 0)  -->
<!DOCTYPE svg PUBLIC "-//W3C//DTD SVG 1.1//EN" "http://www.w3.org/Graphics/SVG/1.1/DTD/svg11.dtd">
<svg version="1.1" id="icon" xmlns="http://www.w3.org/2000/svg" xmlns:xlink="http://www.w3.org/1999/xlink" x="0px" y="0px"
	 width="128px" height="128px" viewBox="0 0 128 128" enable-background="new 0 0 128 128" xml:space="preserve">
<ellipse fill="#B8CBCD" cx="66.333" cy="109.98" rx="47.667" ry="10.186"/>
<path fill="#FFBAB0" d="M101.769,24.485c-20.308-20.307-53.232-20.307-73.539,0c-20.307,20.308-20.307,53.232,0,73.539
	c20.307,20.308,53.231,20.308,73.539,0C122.077,77.717,122.077,44.793,101.769,24.485z M47.322,78.932
	c-9.763-9.763-9.763-25.592,0-35.355c9.763-9.763,25.593-9.763,35.355,0c9.763,9.764,9.763,25.593,0,35.355
	C72.915,88.696,57.085,88.696,47.322,78.932z"/>
<path fill="#FFFFFF" d="M82.168,43.106c3.889,3.889,5.381,8.642,6.211,12.928c6.753-0.071,15.394-4.05,25.188-10.818
	c-3.195-9.253-6.104-15.037-13.437-22.37c-6.836-6.835-10.996-8.268-18.676-11.789c-7.087,9.015-10.945,17.917-11.161,24.769
	C75.499,37.223,78.258,39.196,82.168,43.106z"/>
<path fill="#783741" d="M88.378,58.034c-0.957,0-1.781-0.679-1.963-1.62c-0.697-3.599-1.971-8.202-5.662-11.894
	c-3.607-3.606-6.048-5.439-10.98-6.764c-0.896-0.241-1.509-1.066-1.48-1.994c0.237-7.525,4.353-16.738,11.588-25.942
	c0.571-0.726,1.565-0.969,2.406-0.582c0.813,0.373,1.587,0.723,2.329,1.058c6.359,2.872,10.561,4.769,16.927,11.136
	c7.651,7.651,10.688,13.793,13.913,23.131c0.293,0.849-0.015,1.788-0.753,2.299C104.08,54.203,95.23,57.962,88.4,58.034
	C88.393,58.034,88.386,58.034,88.378,58.034z M72.402,34.361c4.755,1.533,7.601,3.751,11.18,7.331
	c3.866,3.866,5.505,8.398,6.397,12.246c5.552-0.579,12.666-3.771,21.191-9.51c-2.897-8.118-5.704-13.417-12.455-20.169
	c-5.851-5.85-9.575-7.531-15.746-10.318c-0.295-0.133-0.595-0.269-0.9-0.406C76.516,20.91,73.069,28.345,72.402,34.361z"/>
<path fill="#FFFFFF" d="M82.168,43.106c3.889,3.889,5.381,8.642,6.211,12.928c6.753-0.071,15.394-4.05,25.188-10.818
	c-3.195-9.253-6.104-15.037-13.437-22.37c-6.836-6.835-10.996-8.268-18.676-11.789c-7.087,9.015-10.945,17.917-11.161,24.769
	C75.499,37.223,78.258,39.196,82.168,43.106z"/>
<path fill="#783741" d="M88.378,58.034c-0.957,0-1.781-0.679-1.963-1.62c-0.697-3.599-1.971-8.202-5.662-11.894
	c-3.607-3.606-6.048-5.439-10.98-6.764c-0.896-0.241-1.509-1.066-1.48-1.994c0.237-7.525,4.353-16.738,11.588-25.942
	c0.571-0.726,1.565-0.969,2.406-0.582c0.813,0.373,1.587,0.723,2.329,1.058c6.359,2.872,10.561,4.769,16.927,11.136
	c7.651,7.651,10.688,13.793,13.913,23.131c0.293,0.849-0.015,1.788-0.753,2.299C104.08,54.203,95.23,57.962,88.4,58.034
	C88.393,58.034,88.386,58.034,88.378,58.034z M72.402,34.361c4.755,1.533,7.601,3.751,11.18,7.331
	c3.866,3.866,5.505,8.398,6.397,12.246c5.552-0.579,12.666-3.771,21.191-9.51c-2.897-8.118-5.704-13.417-12.455-20.169
	c-5.851-5.85-9.575-7.531-15.746-10.318c-0.295-0.133-0.595-0.269-0.9-0.406C76.516,20.91,73.069,28.345,72.402,34.361z"/>
<path fill="#FFFFFF" d="M46.851,43.734c3.889-3.889,8.642-5.382,12.928-6.211c-0.072-6.754-4.05-15.394-10.818-25.188
	c-9.253,3.194-15.038,6.104-22.371,13.437c-6.835,6.835-8.267,10.996-11.789,18.676c9.014,7.086,17.917,10.945,24.768,11.16
	C40.968,50.403,42.941,47.644,46.851,43.734z"/>
<path fill="#783741" d="M39.57,57.608c-0.021,0-0.042,0-0.063-0.001c-7.524-0.236-16.737-4.351-25.941-11.587
	c-0.726-0.571-0.967-1.565-0.582-2.406c0.373-0.813,0.723-1.588,1.058-2.33c2.871-6.359,4.768-10.561,11.134-16.926
	c7.651-7.652,13.793-10.689,23.132-13.913c0.849-0.296,1.788,0.016,2.298,0.754c7.341,10.622,11.1,19.473,11.172,26.303
	c0.01,0.966-0.671,1.802-1.62,1.985c-3.597,0.695-8.2,1.968-11.894,5.661c-3.606,3.606-5.439,6.048-6.764,10.979
	C41.266,57.003,40.472,57.608,39.57,57.608z M17.28,43.832c7.376,5.555,14.811,9.001,20.826,9.667
	c1.534-4.754,3.751-7.6,7.331-11.179c3.868-3.868,8.4-5.507,12.247-6.397c-0.58-5.553-3.771-12.666-9.51-21.191
	c-8.119,2.896-13.417,5.703-20.169,12.455c-5.849,5.849-7.531,9.573-10.317,15.744C17.554,43.225,17.418,43.525,17.28,43.832z"/>
<path fill="#FFFFFF" d="M47.478,79.05c-3.889-3.889-5.381-8.643-6.21-12.928c-6.754,0.071-15.394,4.05-25.188,10.818
	c3.195,9.253,6.104,15.037,13.437,22.37c6.835,6.835,10.996,8.268,18.675,11.789c7.087-9.014,10.945-17.917,11.161-24.769
	C54.148,84.933,51.389,82.961,47.478,79.05z"/>
<path fill="#783741" d="M48.191,113.1c-0.281,0-0.564-0.059-0.833-0.182c-0.814-0.374-1.588-0.724-2.33-1.059
	c-6.359-2.872-10.56-4.77-16.926-11.135c-7.652-7.652-10.689-13.793-13.913-23.132c-0.293-0.848,0.015-1.787,0.753-2.298
	c10.623-7.342,19.473-11.101,26.304-11.173c0.007,0,0.014,0,0.021,0c0.957,0,1.781,0.679,1.963,1.62
	c0.697,3.598,1.97,8.202,5.661,11.894c3.606,3.606,6.048,5.438,10.98,6.764c0.896,0.241,1.509,1.066,1.48,1.994
	c-0.237,7.526-4.352,16.739-11.588,25.942C49.376,112.831,48.79,113.1,48.191,113.1z M18.476,77.728
	c2.897,8.118,5.704,13.417,12.455,20.169c5.85,5.849,9.574,7.531,15.744,10.317c0.295,0.134,0.595,0.27,0.901,0.407
	c5.554-7.374,9.001-14.81,9.668-20.827c-4.755-1.533-7.601-3.751-11.18-7.33c-3.867-3.866-5.505-8.4-6.397-12.246
	C34.115,68.798,27.001,71.989,18.476,77.728z"/>
<path fill="#FFFFFF" d="M82.795,78.423c-3.889,3.889-8.642,5.382-12.927,6.211c0.072,6.754,4.049,15.394,10.818,25.188
	c9.254-3.194,15.038-6.104,22.37-13.437c6.836-6.835,8.268-10.996,11.789-18.676c-9.014-7.087-17.917-10.945-24.768-11.161
	C88.678,71.754,86.705,74.512,82.795,78.423z"/>
<path fill="#783741" d="M80.686,111.821c-0.644,0-1.265-0.312-1.646-0.863c-7.341-10.622-11.1-19.472-11.172-26.303
	c-0.01-0.966,0.671-1.802,1.62-1.985c3.597-0.695,8.2-1.968,11.893-5.661c3.606-3.606,5.439-6.048,6.765-10.98
	c0.241-0.895,1.059-1.518,1.995-1.479c7.525,0.237,16.738,4.353,25.941,11.588c0.726,0.571,0.967,1.565,0.581,2.405
	c-0.373,0.813-0.722,1.587-1.056,2.328c-2.872,6.36-4.769,10.563-11.137,16.929c-7.651,7.652-13.793,10.689-23.132,13.913
	C81.124,111.786,80.903,111.821,80.686,111.821z M71.963,86.234c0.58,5.553,3.771,12.666,9.51,21.191
	c8.119-2.896,13.417-5.703,20.168-12.455c5.851-5.851,7.533-9.575,10.32-15.747c0.133-0.294,0.268-0.594,0.406-0.898
	c-7.375-5.555-14.81-9.002-20.827-9.668c-1.534,4.755-3.751,7.601-7.331,11.18C80.341,83.705,75.81,85.343,71.963,86.234z"/>
<path opacity="0.2" fill="#783741" d="M59.002,116.167c-0.001,0-0.001,0-0.002,0c-1.657,0-3-1.343-3-3c0-1.657,1.343-3,3-3l0,0
	c13.088,0,25.394-5.096,34.648-14.351C102.903,86.561,108,74.256,108,61.167c0-27.018-21.981-48.999-49-49c-1.657,0-3-1.343-3-3
	s1.343-3,3-3l0,0c30.328,0.001,55,24.674,55,55c0,14.691-5.721,28.504-16.109,38.892C87.503,110.446,73.692,116.167,59.002,116.167z
	"/>
<path fill="#FFFFFF" d="M70,116.167L70,116.167c-30.328-0.001-55.001-24.674-55-55c0-14.691,5.721-28.504,16.109-38.892
	C41.497,11.887,55.308,6.167,69.998,6.167c0.001,0,0.001,0,0.002,0c1.657,0,3,1.343,3,3s-1.343,3-3,3l0,0
	c-13.088,0-25.394,5.096-34.648,14.351C26.097,35.772,21,48.078,21,61.167c-0.001,27.018,21.981,48.999,49,49c1.657,0,3,1.343,3,3
	C73,114.824,71.657,116.167,70,116.167z"/>
<path opacity="0.2" fill="#783741" d="M59.998,89.255c-7.479,0-14.509-2.912-19.797-8.2C34.913,75.765,32,68.734,32,61.255
	c0-15.439,12.56-28,28-28c1.657,0,3,1.343,3,3s-1.343,3-3,3c-12.131,0-22,9.869-22,22c0,5.877,2.289,11.401,6.444,15.557
	c4.155,4.155,9.679,6.443,15.554,6.443c0.001,0,0.001,0,0.002,0c1.657,0,3,1.343,3,3c0,1.656-1.343,3-3,3H59.998z"/>
<path fill="#FFFFFF" d="M70,90.167c-1.657,0-3-1.343-3-3c0-1.657,1.343-3,3-3c12.131,0,22-9.869,22-22
	c0-5.877-2.289-11.401-6.444-15.557c-4.155-4.155-9.679-6.443-15.554-6.443c-0.001,0-0.001,0-0.002,0c-1.657,0-3-1.343-3-3
	c0-1.656,1.343-3,3-3c0,0,0.001,0,0.002,0c7.478,0,14.509,2.912,19.797,8.2C95.087,47.656,98,54.687,98,62.167
	C98,77.606,85.439,90.167,70,90.167z"/>
<path fill="#783741" d="M65,116.255c-14.691,0-28.503-5.721-38.891-16.109C15.721,89.757,10,75.946,10,61.255
	c0-14.69,5.721-28.503,16.109-38.891C36.497,11.976,50.309,6.256,65,6.256s28.502,5.721,38.891,16.108
	C114.279,32.752,120,46.564,120,61.255c0,14.691-5.721,28.503-16.109,38.891C93.502,110.534,79.691,116.255,65,116.255z M65,12.256
	c-13.088,0-25.394,5.097-34.648,14.351C21.097,35.861,16,48.167,16,61.255c0,13.089,5.097,25.393,14.352,34.648
	c9.255,9.255,21.56,14.352,34.648,14.352c13.088,0,25.393-5.097,34.648-14.352C108.903,86.648,114,74.343,114,61.255
	c0-13.088-5.097-25.394-14.352-34.648C90.393,17.352,78.088,12.256,65,12.256z M65,89.256c-7.479,0-14.511-2.913-19.799-8.202
	c-10.917-10.916-10.917-28.68,0-39.598c5.289-5.288,12.32-8.201,19.799-8.201c7.479,0,14.511,2.913,19.799,8.201
	c10.917,10.918,10.917,28.682,0,39.598C79.511,86.342,72.479,89.256,65,89.256z M65,39.255c-5.877,0-11.401,2.288-15.557,6.443
	c-8.578,8.578-8.578,22.535,0,31.113c4.156,4.155,9.68,6.444,15.557,6.444c5.876,0,11.401-2.289,15.556-6.444
	c8.578-8.578,8.578-22.535,0-31.113C76.401,41.543,70.877,39.255,65,39.255z"/>
</svg>
