<?xml version="1.0" encoding="UTF-8"?>
<svg xmlns="http://www.w3.org/2000/svg" viewBox="0 0 128 128">
  <defs>
    <style>
      .cls-1 {
        fill: #b9e3ed;
      }

      .cls-2 {
        fill: none;
      }

      .cls-3 {
        fill: #d37f59;
      }

      .cls-4 {
        fill: #b8cbcd;
      }

      .cls-5 {
        fill: #324654;
      }
    </style>
  </defs>
  <g id="pstar">
    <path id="planestar" class="cls-2" d="m119.98,122.74l-4.71-3.81-5.81,1.72,2.17-5.66-3.43-4.99,6.05.31,3.69-4.81,1.57,5.85,5.71,2.02-5.08,3.3-.16,6.06Z"/>
  </g>
  <g id="pbackground">
    <path id="planebackground" class="cls-4" d="m67.53,3.72c30.24,0,54.75,27.19,54.75,60.72s-24.51,60.72-54.75,60.72S12.79,97.98,12.79,64.44,37.3,3.72,67.53,3.72Z"/>
  </g>
  <g id="ptext">
    <path id="planetext" class="cls-3" d="m24.2,17.33c.27.21.46.53.54.85.12.51-.08,1.05-.3,1.53-.11.24-.24.44-.38.63-.14.18-.31.38-.46.51-.03.02-.08.08-.09.1s-.03.02-.04.03c-.11.11-.23.25-.49.39.1.11.18.17.26.23.25.19.61.4.93.57.03.02.05.03.06.03.3.16.6.33.85.53.1.08.25.21.34.31,0,.26-.02.58-.32.71-.22.15-.42.03-.62-.09h0s-.05-.02-.05-.02c-.07-.04-.15-.08-.29-.1-.12-.14-.23-.25-.35-.35-.34-.27-.79-.51-1.23-.76-.45-.26-.9-.52-1.29-.82-.14-.11-.31-.24-.42-.36-.14-.03-.28-.11-.41-.21-.08-.07-.18-.17-.25-.27v-.07c-.02-.14-.04-.3.07-.44-.28-.77-.27-1.86.18-2.43.73-.94,2.3-1.19,3.44-.68.12.05.22.11.31.18Zm-2.76.88h0c-.1.04-.17.1-.22.18-.22.28-.23.78-.1,1.24.15.47.58.79.97,1.09l.08.06.26-.02.11-.08.18-.15c.22-.16.48-.38.71-.68.13-.17.23-.35.28-.62l.02-.11c.07-.28.13-.64-.03-.86-.53-.7-1.55-.45-2.27-.06Zm7.16.51v.14s-.08.13-.08.13c-.18.2-.4.2-.62.15l-.26-.23c-.19-.15-.38-.29-.58-.44-.19-.14-.39-.28-.59-.46-.03-.02-.06-.04-.09-.06l-.09-.08-.38-.31c-.93-.75-2.12-1.7-2.97-2.31l-.05-.03-.04-.03s-.08-.14-.13-.23v.04s-.03-.07-.05-.12l-.06-.1c.03-.16.09-.29.15-.37.33-.38.52-.21.75,0l.04.03c.71.61,1.57,1.25,2.42,1.89l.27.19c.81.61,1.62,1.21,2.31,1.81.14.11.11.26.06.4Zm4.85-4.79c-.19.18-.48.43-.75.52-.26.09-1.03,0-1.54-.15l.06.31s0,.03,0,.04l.02.09h0c.05.2.04.4,0,.6-.16.47-.62,1.23-.95,1.55-.37.36-1.12.58-1.59.35h0c-.2-.08-.42-.24-.59-.41-.52-.54-.94-1.39-1.03-2.21-.09-.73-.08-1.46.54-2.05.2-.19.47-.38.71-.37.03,0,.09.01.13.01.17,0,.42,0,.54-.03.09-.05.19-.08.3-.19l.04-.04s0-.03.02-.03c.29.14.46.31.6.45l.26.27c.57.59,1.38.97,2.11,1.05.17.02.36.06.55-.13.17-.17.34-.34.42-.59,0,0-.02-.05-.02-.07,0-.14.02-.22.09-.29.03-.02.05-.05.08-.06l.23.06c.14.28.04,1.04-.23,1.3Zm-3.79-.46l-.44-.3c-.14,0-.25-.03-.32-.06-.21-.03-.48,0-.67.06-.28.45-.25,1.11-.11,1.62.1.47.21.85.53,1.19.23.23.5.45.76.44.07,0,.16-.09.23-.16l.05-.05c.79-.77,1.01-1.76.19-2.6l-.23-.15Zm8.05-2.9c.12.18,0,.44-.13.54-.13.1-.2.09-.31.09-.03,0-.07,0-.14.05-.17-.11-.16-.12-.19-.16-.08-.1-.1-.18-.11-.28,0,0,0,0,0-.03h0c-.02-.07,0-.14-.17-.23v-.15s-.08-.1-.08-.1c-.38-.48-.85-.83-1.34-1.19-.2-.1-1.17-.76-1.96-.15-.74.58-.73,1.27-.14,2.03.24.3.64.61.97.84l.2.15c.01.1.05.14.09.19.04.05.09.1.14.15.05.05.12.12.18.19.17.22.09.49-.14.67-.13.1-.27.12-.4.1-.04,0-.09-.02-.14,0-.25-.08-.43-.23-.58-.41-.07-.09-.15-.17-.23-.26-.05-.05-.11-.12-.15-.17-.13-.15-.28-.33-.37-.44-.13-.16-.38-.43-.54-.52l-.61-.55c-.17-.08-.35-.17-.44-.29-.07-.09-.09-.19-.08-.34.08-.11.14-.17.18-.2.21-.16.41-.15.58-.08.05-.58.36-1.1.72-1.48.12-.14.25-.26.4-.37,1.21-.94,2.27-.19,3.12.46l.31.22.14.1c.27.17.53.41.74.67l.29.39c.11.18.2.36.21.6Zm-.9.17v.03s.02,0,0-.03Zm4.98-3.28l-.07.25c-.17.57-.45.98-.98,1.31-.96.6-2.58.7-3.55-.49-.25.08-.49.16-.67-.12-.19-.31-.04-.5.12-.65-.5-1.28.15-2.68,1.34-3.42.65-.41,1.99-.78,2.57.16.64,1.03-.73,2.35-1.49,2.88-.08.05-.19.13-.27.2-.09.06-.16.11-.22.15-.13.09-.36.25-.49.33.57.51,1.54.74,2.26.29.23-.15.58-.64.65-1.01.14-.16.23-.43.28-.66.07-.27.18-.6.42-.83l.3.07c.15.47-.05,1.06-.19,1.53Zm-2.03-2.26c-.46-.53-.87-.56-1.22-.35-.86.53-1.33,1.8-1.07,2.4l.19-.12c.05-.03.11-.05.17-.09l.46-.29c.41-.25,1.41-1.02,1.46-1.56Z"/>
  </g>
  <g id="pfill">
    <path id="planefill" class="cls-1" d="m113.88,31.17h.72c-3.83,4.02-7.65,8.04-11.48,12.06v61.72l-8.65,16.23-10.46-57.87-1.09,1.14c-.86-.34-2.2-.2-3.25.17-9.53,9.86-19.06,19.73-28.59,29.59-.98,8.9-1,16.42-.79,21.85l-6.8,6.81-7.7-15.95c-11.16,2.02-14.57,1.07-15.26-.48-.99-2.23,3.94-5.12,3.51-8.96-.54-4.82-9.13-7.93-17.61-9.95l6.36-6.36c7.98-.39,15.96-.77,23.95-1.16,15.73-21.62,20.75-25.76,22.19-24.92.29.17.42.53.43,1.08l.31-.97c-15.6-6.2-31.21-12.4-46.81-18.6,3.12-1.81,6.23-3.62,9.35-5.43h60.79l20.14-19.53v1.47c4.83-3.85,12.28-7.79,16.28.21,3.31,6.61-.87,13.15-5.52,17.85Z"/>
  </g>
  <g id="pborder">
    <path id="planeborder" class="cls-5" d="m43.76,125.87c-.15,0-.31-.01-.46-.04-.95-.15-1.76-.74-2.2-1.59l-7.52-14.53c-.7-.08-1.28-.24-1.75-.36-.02,0-.03,0-.05-.01-3.37,2.11-7.82,3.49-12.44,3.82-.86.06-1.71-.25-2.33-.86s-.94-1.45-.88-2.32c.32-5.18,1.71-9.93,3.85-13.4l-13.8-6.32c-.89-.41-1.53-1.23-1.7-2.2s.14-1.96.83-2.65l6.36-6.36c.6-.6,1.41-.92,2.25-.88l17.49.77c3.75-3.96,8.91-9.52,14.81-15.88,2.85-3.08,5.86-6.32,8.93-9.62L6.42,41.74c-1.14-.27-2.02-1.19-2.24-2.34-.23-1.15.24-2.33,1.19-3.01l12-8.65c.51-.37,1.12-.57,1.75-.57h15.1l6.95-6.95c1.32-1.32,3.08-2.05,4.95-2.05s3.63.73,4.95,2.05c1.88,1.88,2.46,4.57,1.76,6.95h2.39l6.95-6.95c1.32-1.32,3.08-2.05,4.95-2.05s3.63.73,4.95,2.05c1.88,1.88,2.46,4.57,1.76,6.95h6.07c5.46-5.82,10.36-10.8,11.43-11.87,3.61-3.61,11.32-8.52,16.61-9.79,2.38-.57,4.63-.87,6.68-.87,3.85,0,6.84,1.03,8.88,3.07,3.02,3.02,3.75,8.08,2.23,15.46-.61,2.94-2.4,6.33-5.06,9.58-.15.24-.34.47-.56.66-1.79,2.1-3.67,3.98-5.06,5.37-.14.14-.39.4-.73.76-1.28,1.35-3.83,4.05-7.21,7.26v7.66c.64-.19,1.31-.29,2-.29,1.87,0,3.63.73,4.95,2.05,2.73,2.73,2.73,7.17,0,9.9l-6.95,6.95v2.39c.64-.19,1.31-.29,2-.29,1.87,0,3.63.73,4.95,2.05,2.73,2.73,2.73,7.17,0,9.9l-6.95,6.95v15.1c0,.63-.2,1.24-.57,1.75l-8.65,12c-.68.95-1.86,1.41-3.01,1.19-1.15-.22-2.06-1.1-2.34-2.23l-12.23-50.02c-11.72,10.94-22.57,21.14-28.79,27.05l1.57,17.32c.08.89-.24,1.76-.87,2.39l-6.36,6.36c-.57.57-1.33.88-2.12.88Zm-8.39-22.2c1.1,0,2.14.61,2.66,1.62l6.5,12.56,2.47-2.47-1.58-17.36c-.08-.91.26-1.81.92-2.44,6.61-6.3,19.81-18.7,33.63-31.59.78-.73,1.88-.99,2.9-.68,1.02.31,1.8,1.13,2.06,2.16l11.9,48.68,4.28-5.94v-15.38c0-.8.32-1.56.88-2.12l7.83-7.83c.39-.39.39-1.02,0-1.41-.25-.25-.55-.29-.71-.29s-.45.04-.71.29l-2.17,2.17c-.86.86-2.15,1.11-3.27.65-1.12-.46-1.85-1.56-1.85-2.77v-9.69c0-.8.32-1.56.88-2.12l7.83-7.83c.39-.39.39-1.03,0-1.42-.25-.26-.55-.29-.71-.29s-.45.04-.71.29l-2.17,2.17c-.86.86-2.15,1.12-3.27.65-1.12-.46-1.85-1.56-1.85-2.77v-15.01c0-.83.35-1.62.95-2.19,3.72-3.48,6.54-6.46,7.9-7.9.39-.42.68-.72.84-.88,1.36-1.36,3.23-3.23,4.92-5.23.02-.03.04-.05.07-.08,0,0,.01-.02.02-.03,2.11-2.52,3.61-5.23,4.03-7.24,1.4-6.79.23-9.18-.59-10-1.08-1.09-3.12-1.31-4.63-1.31s-3.38.24-5.27.7c-4.13,1-10.8,5.23-13.78,8.2-1.11,1.11-6.43,6.51-12.18,12.67-.57.61-1.36.95-2.19.95h-13.42c-1.21,0-2.31-.73-2.77-1.85-.46-1.12-.21-2.41.65-3.27l2.17-2.17c.39-.39.39-1.02,0-1.42-.25-.25-.55-.29-.71-.29s-.45.04-.71.29l-7.83,7.83c-.56.56-1.33.88-2.12.88h-9.69c-1.21,0-2.31-.73-2.77-1.85-.46-1.12-.21-2.41.65-3.27l2.17-2.17c.39-.39.39-1.02,0-1.42-.25-.25-.55-.29-.71-.29s-.45.04-.71.29l-7.83,7.83c-.56.56-1.33.88-2.12.88h-15.37l-5.91,4.26,47.37,11.38c1.04.25,1.87,1.03,2.17,2.05.31,1.02.05,2.13-.68,2.91-4.28,4.59-8.5,9.14-12.42,13.37-6.42,6.93-11.97,12.9-15.81,16.93-.6.63-1.42.96-2.3.93l-17.53-.78-2.38,2.38,13.1,6c1.23.56,1.92,1.87,1.71,3.2,0,.11-.01.19-.02.26-.07.69-.38,1.35-.88,1.83-1.77,1.75-3.19,4.98-3.92,8.75,2.62-.6,5.01-1.6,6.76-2.88.57-.42,1.26-.62,1.97-.57.85.06,1.54.24,2.09.4.67.18.93.25,1.37.16.2-.04.4-.06.59-.06Z"/>
  </g>
</svg>