<?xml version="1.0" encoding="UTF-8"?>
<svg xmlns="http://www.w3.org/2000/svg" viewBox="0 0 128 128">
  <defs>
    <style>
      .cls-1 {
        fill: #5d5f75;
      }

      .cls-2 {
        fill: #81efbd;
      }

      .cls-3 {
        fill: none;
      }

      .cls-4 {
        fill: #107f91;
      }

      .cls-5 {
        fill: #b8cbcd;
      }
    </style>
  </defs>
  <g id="shstar">
    <path id="shipstar" class="cls-3" d="m109.8,106.56l5.22,3.56,5.89-2.28-1.77,6.06,3.99,4.89-6.31.19-3.42,5.31-2.13-5.94-6.11-1.61,4.99-3.87-.35-6.31Z"/>
  </g>
  <g id="shbackground">
    <path id="shipbackground" class="cls-5" d="m64.61,11.16c31.46,0,56.97,25.22,56.97,56.34s-25.51,56.34-56.97,56.34S7.64,98.62,7.64,67.5,33.15,11.16,64.61,11.16Z"/>
  </g>
  <g id="shtext">
    <path id="shiptext" class="cls-4" d="m18.02,26.95l.03.02c.17.15.27.33.33.54h0c.15.52-.03,1.54-.22,2.08-.15.39-.34.78-.58,1.15-.18.28-.39.55-.65.8h0c-.38.33-.81.68-1.25.66-.09,0-.16.01-.27,0l-.02-.37c.49-.2.92-.65,1.21-1.06.35-.5.67-1.15.88-1.74.09-.21.08-.62.08-.93v.02c.01-.11-.05-.21-.14-.28-.12-.1-.3-.11-.44-.07-.5.19-1.13.77-1.68,1.32l-.13.14c-.25.26-.49.48-.77.69-.25.19-.85.6-1.13.63l.05.02h-.04s-.09-.03-.09-.03c-.13.02-.26,0-.32-.02-.21-.06-.38-.23-.52-.4-.42-.51-.56-1.36-.53-2.04,0-.35.09-.93.33-1.31.1-.16.27-.31.43-.43l.1-.15c.23-.15.43-.12.6-.09.07.02.13.04.23.02.35.12.36.41.36.68,0,.05,0,.1.06.33l-.28.06c-.07-.04-.14-.06-.22-.11-.01-.05-.08-.08-.15-.12-.17.06-.3.15-.32.3l-.04.13c-.07.22-.18.57-.17.83.01.36.09.8.21,1.04l.19.33c.21.02.43-.1.56-.21.06-.05.14-.11.19-.16.25-.19.46-.37.69-.61.55-.62,1.6-1.53,2.37-1.77.31-.06.7-.05,1.04.09Zm4.5-3.18l.02.07-.04-.03-.06.17c-.28.3-.74.04-.92-.08l-.05-.04c-.13-.09-.27-.22-.42-.34h0c-.09-.08-.16-.14-.27-.22-.44-.35-.81-.6-1.36-.8-.3-.24-.87-.29-1.08-.03-.56.71-1.09,1.92-.19,2.63.18.14.29.2.4.24.15.06.29.14.44.26.1.08.23.15.36.22.14.07.27.14.43.27.1.08.2.17.24.34.05.11,0,.21-.06.29-.07.09-.21.19-.31.24-.35.02-1.38-.67-2.19-1.18l-.32-.21c-.23-.15-.43-.27-.57-.33h0c-.56-.29-1.63-.96-2.15-1.37-.07-.05-.16-.07-.25-.09-.06,0-.12-.02-.2-.05-.19-.12-.34-.65-.18-.86.25-.32.55-.19.75-.05l.11.09s.1.06.15.1c.57.42,1.38,1.02,2.09,1.36-.14-1.1.35-1.85.87-2.52.86-1.09,2.4-.2,3.16.4.18.14.41.29.62.43.04.03.11.07.16.09.18.11.34.21.52.35l.03.02c.23.18.42.33.23.62Zm-3.26-5.16c-.06.07-.11.14-.2.24-.16.13-.43.16-.61,0-.22-.2-.19-.5.03-.74.15-.17.49-.3.75-.13l.02.05s.07.05.09.06c.03.02.08.04.1.06l.02.03c.03.09-.01.25-.18.43Zm4.57,3.34c-.13.14-.4.3-.64.21-.17-.09-.48-.26-.65-.38-.18-.13-.4-.31-.62-.5-.41-.33-.92-.72-1.33-.92l-.32-.18c-.06-.06-.12-.11-.15-.17l-.06-.07c-.2-.19-.15-.41,0-.58.15-.16.4-.25.57-.13.09.06.19.14.28.19l.25.16c.71.45,1.8,1.17,1.93,1.32.07.08.19.15.31.22.14.06.24.12.34.21.12.11.29.41.1.62Zm3.36-4.1c-.01.66-.38,1.27-.91,1.77-.35.34-.83.54-1.18.66l.85.76-.02-.02,1.05.94.37.31c.18.15.38.33.55.5.14.15.41.44.15.82-.1.01-.16.02-.19.05-.15.07-.28.16-.44.03-.23-.17-.63-.55-.89-.79l-.27-.29c-.24-.23-.53-.52-.78-.7-.34-.27-.66-.56-.96-.84-.05-.05-.1-.09-.14-.13-.1-.1-.23-.23-.37-.35-.25.02-.37,0-.5-.05l.03.02-.06-.03-.13-.04c-.09-.03-.16-.06-.3-.07-.07-.07-.1-.17-.07-.28l.02-.05c.07-.07.2-.12.34-.16l-.68-.62c-.29-.25-.62-.56-.83-.78-.16-.16-.35-.63-.1-.87.1-.09.26-.13.39-.13.05-.55.44-1.21.7-1.45.35-.33.76-.51,1.18-.59.43-.08.83-.07,1.2.02.36.12,1.1.59,1.31.81.49.53.68,1.05.67,1.56Zm-2.96-1.61c-.34.04-.66.2-.93.46-.52.5-.37,1.02-.14,1.57.14.11.38.38.57.6.17.2.31.35.46.51.12.13.26.27.39.36l.19-.1.21-.1c.33-.14.72-.36.94-.58.33-.32.48-.75.46-1.14-.04-.38-.26-.79-.62-1.1-.47-.4-1.02-.56-1.53-.48Z"/>
  </g>
  <g id="shfill">
    <path id="shipfill" class="cls-2" d="m123.5,67.17l-26,35s-13,5-36,6c-16.98.74-40-4-40-4l-10-37s.94,2.09,12.49,3.9l11.51-25.9h8.62l4.38-14h20l5.25,14h11.75l13.02,27.06c18.19-1.9,24.98-5.06,24.98-5.06Z"/>
  </g>
  <g id="shborder">
    <path id="shipborder" class="cls-1" d="m40.5,67.17v-10c0-2.21,1.79-4,4-4h0c2.21,0,4,1.79,4,4v10h-8Zm8,2h-8c-1.1,0-2-.9-2-2v-10c0-3.31,2.69-6,6-6s6,2.69,6,6v10c0,1.1-.9,2-2,2Zm-6-4h4v-8c0-1.1-.9-2-2-2s-2,.9-2,2v8Zm13,2v-10c0-2.21,1.79-4,4-4h0c2.21,0,4,1.79,4,4v10h-8Zm8,2h-8c-1.1,0-2-.9-2-2v-10c0-3.31,2.69-6,6-6s6,2.69,6,6v10c0,1.1-.9,2-2,2Zm-6-4h4v-8c0-1.1-.9-2-2-2s-2,.9-2,2v8Zm13,2v-10c0-2.21,1.79-4,4-4h0c2.21,0,4,1.79,4,4v10h-8Zm8,2h-8c-1.1,0-2-.9-2-2v-10c0-3.31,2.69-6,6-6s6,2.69,6,6v10c0,1.1-.9,2-2,2Zm-6-4h4v-8c0-1.1-.9-2-2-2s-2,.9-2,2v8Zm-35,16c3.87,0,7,3.13,7,7s-3.13,7-7,7-7-3.13-7-7,3.13-7,7-7Zm0,16c-4.96,0-9-4.04-9-9s4.04-9,9-9,9,4.04,9,9-4.04,9-9,9Zm0-14c-2.76,0-5,2.24-5,5s2.24,5,5,5,5-2.24,5-5-2.24-5-5-5Zm24,0c3.87,0,7,3.13,7,7s-3.13,7-7,7-7-3.13-7-7,3.13-7,7-7Zm0,16c-4.96,0-9-4.04-9-9s4.04-9,9-9,9,4.04,9,9-4.04,9-9,9Zm0-14c-2.76,0-5,2.24-5,5s2.24,5,5,5,5-2.24,5-5-2.24-5-5-5Zm24-4c3.87,0,7,3.13,7,7s-3.13,7-7,7-7-3.13-7-7,3.13-7,7-7Zm0,16c-4.96,0-9-4.04-9-9s4.04-9,9-9,9,4.04,9,9-4.04,9-9,9Zm0-14c-2.76,0-5,2.24-5,5s2.24,5,5,5,5-2.24,5-5-2.24-5-5-5Zm39.79-18.41c-.41-.31-.88-.48-1.36-.55-.07-.02-.15-.03-.23-.03-.04,0-.09,0-.13,0-.05,0-.09,0-.14,0-.03,0-.06.02-.1.02-.86.05-1.69.45-2.24,1.19l-.52.7c-2.25.85-7.42,1.87-16.08,2.84-.08-.24-.18-.47-.32-.69l-16.17-24.7c-.55-.85-1.5-1.36-2.51-1.36h-9.02l-5.22-12.18c-.47-1.1-1.56-1.82-2.76-1.82h-2v-11c0-1.66-1.34-3-3-3s-3,1.34-3,3v11h-2.99v-6c-.01-1.66-1.35-3-3.01-3h0c-1.66,0-3,1.35-3,3v6s-3,0-3,0c-1.27,0-2.4.8-2.83,1.99l-4.29,12.01h-5.89c-1.06,0-2.05.56-2.59,1.48l-14,23.83c-.09.15-.15.3-.21.46-1.75-.42-3.15-.84-4.21-1.23l-.1-.36c-.43-1.49-1.9-2.37-3.4-2.12-.18-.04-.36-.07-.56-.06-1.1.04-1.97.96-1.93,2.07,0,.14.01.31.04.49-.06.41-.05.84.08,1.27l10,35c.27.95,1,1.71,1.94,2.02.75.25,18.72,6.15,40.95,6.15,23.41,0,36.71-6.02,37.26-6.28.46-.21.85-.53,1.15-.93l26-35c.99-1.33.71-3.21-.62-4.2Zm-74.67-30.59h3.89s0,0,0,0h0s0,0,0,0h8.96s0,0,0,0,0,0,0,0h3.01l4.29,10h-23.77l3.57-10Zm-13.4,14h5.28s0,0,0,0h.98s0,0,.01,0c0,0,0,0,.01,0h40.37l14.01,21.4c-8.3.74-18.94,1.4-32.23,1.86-17.22.59-31.37-.66-40.78-2.25l12.34-21.01Zm58.36,51.56c-2.85,1.15-14.83,5.44-34.08,5.44-17.67,0-32.87-4.02-37.56-5.39l-8.12-28.44c2.55.73,6,1.47,10.66,2.17,9.06,1.36,19.7,2.06,30.65,2.06,2.88,0,5.77-.05,8.67-.15,15.84-.54,30.21-1.49,40.48-2.69,4.41-.51,7.84-1.02,10.51-1.56l-21.2,28.54Z"/>
  </g>
</svg>