<?xml version="1.0" encoding="UTF-8"?>
<svg xmlns="http://www.w3.org/2000/svg" viewBox="0 0 128 128">
  <defs>
    <style>
      .cls-1 {
        fill: #ffbab0;
      }

      .cls-2 {
        fill: #8c8eff;
      }

      .cls-3 {
        fill: #783741;
      }

      .cls-4 {
        fill: none;
      }

      .cls-5 {
        fill: #b8cbcd;
      }
    </style>
  </defs>
  <g id="lsstar">
    <path id="lsaverstar" class="cls-4" d="m111.24,109.32l4.18,4.16,5.8-1.09-2.66,5.26,2.83,5.17-5.83-.9-4.05,4.29-.94-5.82-5.33-2.52,5.25-2.69.75-5.85Z"/>
  </g>
  <g id="lsbackground">
    <path id="lsaverbackground" class="cls-5" d="m65.28,5.35c33.6,0,60.84,26.6,60.84,59.42s-27.24,59.42-60.84,59.42S4.44,97.59,4.44,64.77,31.68,5.35,65.28,5.35Z"/>
  </g>
  <g id="lstext">
    <path id="lsavertext" class="cls-2" d="m11.33,29.39c.02.62-.08,1.14-.4,1.63-.13.2-.31.44-.45.62l-.15.2c-.1.12-.21.27-.28.39-.07.1-.13.19-.17.29.06.2,0,.36-.1.51-.07.1-.19.19-.31.25l-.35.03c-.34-.17-.61-.33-.89-.52-.25-.17-.52-.34-.75-.51-.08-.05-.2-.15-.31-.22l-.3-.2c-.25-.17-.58-.34-.85-.48l-.11-.06c-.29-.15-.6-.31-.88-.49l-.05-.03c-.31-.2-.77-.51-.48-.95.15-.23.49-.39.73-.24.17.11.35.21.46.28.05.03.12.06.17.1.22.12.49.26,1.21.76.15.12.33.23.51.35.33.22.59.42,1.42.87.02.01.04.05.06.17.17-.33.22-.4.28-.49.15-.22.35-.46.52-.65.02-.03.06-.06.09-.11l.28-.33c.2-.47.43-1.09.1-1.59-.09-.22-.07-.44,0-.66.22-.07.34-.05.4-.01.25.14.4.45.58.78.01.07-.01.24.05.32Zm-2.87-4.28c-.06.08-.1.15-.18.26-.14.15-.42.19-.61.05-.24-.18-.24-.48-.04-.74.14-.18.46-.35.74-.19l.02.05s.07.04.09.06c.04.01.08.03.1.05l.02.03c.04.09,0,.25-.14.45Zm4.85,2.92c-.12.15-.37.33-.62.26-.17-.07-.5-.21-.68-.32-.19-.11-.42-.28-.66-.44-.44-.29-.98-.64-1.41-.8l-.34-.15c-.07-.05-.12-.09-.17-.16l-.07-.07c-.22-.17-.18-.39-.04-.58.13-.17.38-.28.56-.18.09.06.21.13.3.17l.26.14c.75.39,1.9,1.01,2.04,1.14.08.07.2.14.33.19.14.05.25.1.36.18.13.1.33.38.15.61Zm1.56-6.38l-.15.39-.02.04c-.08.19-.17.4-.31.58-.1.21-.4.78-.43.81l-.22.25.3.16.16.07c.36.2.73.42,1.07.71l.05.05c.28.24.65.53.27.98-.03.04-.1.09-.13.14-.39.03-.59-.18-.78-.37l-.05-.05c-.05-.06-.13-.13-.17-.17-.1-.09-.96-.56-1.28-.67l-.36.42c-.22.25-.47.53-.63.62-.2.05-.34.04-.4-.01-.03-.02-.05-.05-.08-.1l-.1-.05c.05-.51.26-.73.46-.92.06-.06.11-.11.15-.16-.04.06-.04.08-.04.08,0,0,.15-.22.17-.29-.41-.19-.47-.21-.59-.25-.03,0-.17-.06-.72-.25,0,0-.02,0-.03,0-.41-.17-1.55-.67-1.87-.94-.63-.54-.55-1.44-.02-2.06.66-.76,2.22-1,3-.33.35.31.8.97.35,1.45l-.19.22c-.15-.05-.22-.08-.26-.12-.17-.15-.2-.34-.21-.55-.03-.04-.14-.13-.19-.18-.55-.48-1.54-.51-2.01.04-.23.27-.04.56.25.81s.64.44.83.54c.27.12.68.28,1.04.37.29.09.56.18.87.32h0c.11.05.17.07.26.11l.1.05c.15-.19.32-.45.37-.56l1.09-1.1.03.02s.21-.1.41-.11Zm5.26-1.68v.26c-.05.59-.24,1.06-.69,1.49-.81.79-2.37,1.23-3.58.28-.22.13-.44.27-.68.02-.25-.26-.15-.48-.02-.66-.76-1.15-.43-2.65.58-3.62.55-.54,1.77-1.19,2.54-.4.84.87-.21,2.45-.84,3.13-.07.07-.16.17-.22.25-.08.08-.13.14-.18.19-.1.12-.3.33-.41.43.67.37,1.67.39,2.27-.2.2-.19.43-.75.42-1.12.1-.19.13-.46.14-.7.01-.28.04-.63.23-.9h.31c.25.43.18,1.05.14,1.54Zm-2.46-1.77c-.56-.42-.97-.36-1.26-.08-.72.7-.91,2.04-.53,2.57l.16-.16s.09-.08.15-.13l.39-.38c.34-.33,1.16-1.3,1.1-1.83Zm7.21-3.22l.02.03c.11.2.15.4.14.61h0c-.04.54-.54,1.45-.89,1.9-.27.32-.57.63-.92.9-.26.21-.55.39-.87.54h0c-.47.19-.99.38-1.4.22-.08-.03-.16-.04-.25-.09l.1-.36c.53-.03,1.09-.31,1.49-.61.49-.36,1.01-.87,1.4-1.36.16-.17.28-.56.38-.85l-.02.02c.06-.1.03-.21-.03-.3-.08-.14-.25-.2-.4-.21-.54.02-1.32.36-2.02.7l-.17.09c-.32.16-.62.3-.95.4-.29.09-1,.29-1.27.23l.04.03h-.04s-.08-.07-.08-.07c-.13-.02-.25-.08-.29-.12-.18-.13-.29-.34-.36-.54-.23-.61-.08-1.47.17-2.1.12-.33.4-.85.74-1.13.15-.12.36-.21.54-.26l.14-.11c.26-.07.45.03.59.11.06.04.11.08.21.09.29.23.21.51.12.76-.02.05-.04.09-.06.34l-.29-.03c-.05-.07-.12-.11-.17-.17,0-.05-.05-.1-.1-.17-.18,0-.33.05-.4.18l-.08.11c-.14.19-.35.48-.43.73-.11.35-.17.78-.14,1.05l.07.38c.19.09.44.05.6-.02.07-.03.17-.06.23-.09.29-.09.56-.2.85-.36.72-.41,2.01-.93,2.82-.89.31.04.68.18.95.42Zm6.01-2.28c-.22.14-.56.33-.83.37s-1.01-.21-1.48-.44v.31s0,.03,0,.04v.09s0-.01,0-.01c0,.21-.04.41-.11.6-.25.43-.84,1.09-1.24,1.34-.43.28-1.21.35-1.63.04h0c-.18-.12-.36-.31-.49-.51-.41-.64-.66-1.55-.58-2.37.05-.73.21-1.45.92-1.91.23-.15.53-.28.77-.22.02.01.09.03.12.04.17.04.42.09.53.07.09-.03.2-.04.33-.13l.05-.03s.01-.02.02-.03c.25.19.39.39.5.56l.2.31c.44.69,1.17,1.22,1.87,1.44.16.05.34.12.56-.02.2-.13.4-.27.52-.49,0,0,0-.05,0-.07.03-.13.06-.21.14-.26.03-.02.06-.04.09-.04l.21.11c.08.3-.16,1.03-.48,1.23Zm-3.63-1.19l-.37-.38c-.13-.03-.23-.08-.3-.12-.2-.07-.47-.09-.67-.07-.36.39-.46,1.04-.42,1.57,0,.48.04.88.29,1.27.18.27.4.54.66.58.07.01.18-.06.26-.11l.06-.04c.93-.6,1.33-1.53.69-2.52l-.19-.19Zm5.28-6.11c.11-.06.21-.04.3.13.17.33.36,1.15.45,1.66v-.02s0,.19,0,.19c0,.51.25,1.05.4,1.51l.27.89c-.07.52.49,1.25-.18,1.6-.56.3-.74-.14-1.33-.25l.03.03-.46-.33c-.7-.5-1.45-1.07-2.16-1.25v-.04c-.11,0-.21-.06-.28-.11h-.06c-.31-.19-.4-.36-.48-.52l-.08-.16c.01-.18.1-.33.25-.42.39-.21.58-.05,1.35.45h0c.75.49,1.79,1.14,2.44,1.46-.08-.58-.17-1.03-.3-1.48l-.06-.22c-.26-.91-.49-1.87-.29-2.95.06-.06.14-.13.19-.15Zm6.97,2.72l-.11.24c-.26.54-.6.9-1.18,1.14-1.04.43-2.66.28-3.43-1.05-.26.04-.51.08-.64-.23-.14-.33.04-.5.22-.63-.29-1.35.57-2.62,1.87-3.16.71-.3,2.09-.45,2.51.56.47,1.12-1.1,2.2-1.93,2.6-.09.04-.21.1-.3.15-.1.04-.17.08-.24.11-.14.07-.4.19-.53.25.48.59,1.41.97,2.18.65.25-.11.67-.54.8-.89.17-.13.3-.38.39-.6.11-.26.27-.57.55-.75l.28.12c.07.49-.22,1.04-.44,1.48Zm-1.64-2.56c-.37-.6-.77-.69-1.15-.54-.93.39-1.6,1.56-1.44,2.2l.21-.09c.06-.02.12-.04.18-.06l.5-.21c.44-.18,1.56-.78,1.69-1.3Zm5.46-2.94c.04.16-.02.23-.2.29-.01,0-.05,0-.11-.02-.08.04-.2.04-.29.03,0,0-.05.03-.11.05l-.38.12c-1,.32-1.31,1.68-1.01,2.62.12.37.31.72.47,1.03l.12.21s.03.04.03.05c.01.03.04.08.07.1h-.02c.08.12.15.26.18.35.11.34-.16.54-.47.58-.27.01-.56-.52-.83-.99l-.06-.1c-.05-.11-.2-.35-.39-.61-.07-.09-.13-.21-.21-.32-.28-.44-.68-1.04-.71-1.14-.02-.07-.07-.19-.11-.27-.11-.26-.23-.56-.13-.82v.03c.05-.09.13-.21.24-.24.33-.11.57.24.81.62.24-.75.96-1.55,1.56-1.74.37-.12.92-.06,1.34,0h.05c.06.08.12.18.12.16Z"/>
  </g>
  <g id="lsfill">
    <path id="lsaverfill" class="cls-1" d="m101.77,28.51c-20.31-20.31-53.23-20.31-73.54,0-20.31,20.31-20.31,53.23,0,73.54,20.31,20.31,53.23,20.31,73.54,0,20.31-20.31,20.31-53.23,0-73.54Zm-54.45,54.45c-9.76-9.76-9.76-25.59,0-35.35s25.59-9.76,35.36,0c9.76,9.76,9.76,25.59,0,35.35-9.76,9.76-25.59,9.76-35.36,0Zm34.85-35.83c3.89,3.89,5.38,8.64,6.21,12.93,6.75-.07,15.39-4.05,25.19-10.82-3.19-9.25-6.1-15.04-13.44-22.37-6.84-6.84-11-8.27-18.68-11.79-7.09,9.01-10.94,17.92-11.16,24.77,5.21,1.4,7.97,3.37,11.88,7.28Zm-35.32.63c3.89-3.89,8.64-5.38,12.93-6.21-.07-6.75-4.05-15.39-10.82-25.19-9.25,3.19-15.04,6.1-22.37,13.44-6.84,6.83-8.27,11-11.79,18.68,9.01,7.09,17.92,10.94,24.77,11.16,1.4-5.21,3.37-7.96,7.28-11.87Zm.63,35.32c-3.89-3.89-5.38-8.64-6.21-12.93-6.75.07-15.39,4.05-25.19,10.82,3.19,9.25,6.1,15.04,13.44,22.37,6.83,6.83,11,8.27,18.67,11.79,7.09-9.01,10.94-17.92,11.16-24.77-5.21-1.4-7.96-3.37-11.88-7.28Zm35.32-.63c-3.89,3.89-8.64,5.38-12.93,6.21.07,6.75,4.05,15.39,10.82,25.19,9.25-3.19,15.04-6.1,22.37-13.44,6.84-6.83,8.27-11,11.79-18.68-9.01-7.09-17.92-10.94-24.77-11.16-1.4,5.21-3.37,7.96-7.28,11.88Z"/>
  </g>
  <g id="lsborder">
    <path id="lsaverborder" class="cls-3" d="m103.89,26.39c-10.39-10.39-24.2-16.11-38.89-16.11s-28.5,5.72-38.89,16.11-16.11,24.2-16.11,38.89,5.72,28.5,16.11,38.89c10.39,10.39,24.2,16.11,38.89,16.11s28.5-5.72,38.89-16.11c10.39-10.39,16.11-24.2,16.11-38.89s-5.72-28.5-16.11-38.89Zm-4.24,73.54c-5.14,5.14-11.21,8.99-17.84,11.4-.11.04-.22.08-.34.12-5.05-7.5-8.13-13.91-9.19-19.13,4.69-1.26,8.99-3.72,12.51-7.24,3.55-3.55,5.93-7.82,7.18-12.34,5.63.74,12.44,3.84,19.27,8.79-2.4,6.84-6.32,13.12-11.6,18.4Zm-54.45-54.45c-3.47,3.47-5.83,7.63-7.1,12.04-5.61-.62-12.45-3.66-19.33-8.57,2.4-6.81,6.31-13.06,11.57-18.32,5.2-5.2,11.36-9.08,18.08-11.49,5.04,7.55,8.05,13.97,9.01,19.17-4.58,1.28-8.78,3.71-12.24,7.17Zm-7.92,15.96c-.32,2.36-.34,4.76-.07,7.13-5.53,1.05-12.12,4.07-19.66,9-1.02-3.97-1.55-8.09-1.55-12.29s.53-8.33,1.56-12.3c6.96,4.79,13.78,7.72,19.72,8.47Zm-6.93,38.48c-5.27-5.27-9.19-11.53-11.59-18.37,7.55-5.05,13.99-8.09,19.2-9.06,1.22,4.61,3.63,8.97,7.24,12.58,3.39,3.39,7.51,5.8,11.99,7.1-.72,5.62-3.8,12.43-8.73,19.26-6.73-2.41-12.91-6.3-18.12-11.51Zm19.09-19.09c-8.58-8.58-8.58-22.53,0-31.11,4.16-4.16,9.68-6.44,15.56-6.44s11.4,2.29,15.56,6.44c2.92,2.92,4.82,6.46,5.75,10.2.03.17.08.35.11.51.02.12.06.24.1.35,1.45,7.02-.53,14.61-5.96,20.05-2.44,2.44-5.36,4.21-8.54,5.28-.88.23-1.73.42-2.53.58-.22.04-.42.12-.61.23-1.27.23-2.56.36-3.88.36-5.88,0-11.4-2.29-15.56-6.44Zm50.21-50.2c5.15,5.15,9.01,11.24,11.42,17.89-7.51,5.05-13.93,8.11-19.14,9.14-1.25-4.46-3.63-8.67-7.13-12.18-3.49-3.49-7.74-5.94-12.38-7.2.65-5.61,3.7-12.45,8.62-19.31,6.93,2.39,13.28,6.33,18.61,11.67Zm-6.89,38.18c.3-2.4.3-4.84-.02-7.24,5.52-1.12,12.08-4.15,19.57-9.07,1.11,4.12,1.69,8.41,1.69,12.79s-.52,8.27-1.53,12.21c-6.94-4.84-13.75-7.84-19.71-8.68Zm-15.76-51.06c-4.81,6.97-7.76,13.79-8.51,19.75-1.15-.14-2.31-.22-3.49-.22s-2.44.09-3.64.24c-1.05-5.52-4.05-12.09-8.95-19.6,4.06-1.07,8.28-1.64,12.59-1.64s8.12.5,12,1.47Zm-24.51,94.91c4.82-6.92,7.8-13.71,8.62-19.66,1.28.18,2.57.27,3.88.27,1.14,0,2.26-.08,3.37-.21,1.13,5.53,4.18,12.1,9.12,19.6-4.03,1.05-8.21,1.61-12.49,1.61s-8.47-.55-12.51-1.61Z"/>
  </g>
</svg>