<?xml version="1.0" encoding="UTF-8"?>
<svg xmlns="http://www.w3.org/2000/svg" viewBox="0 0 128 128">
  <defs>
    <style>
      .cls-1 {
        fill: #60250b;
      }

      .cls-2 {
        fill: none;
      }

      .cls-3 {
        fill: #f6e89a;
      }

      .cls-4 {
        fill: #c296ff;
      }

      .cls-5 {
        fill: #b8cbcd;
      }
    </style>
  </defs>
  <g id="mstar">
    <path id="mapstar" class="cls-2" d="m107.92,123.63l-1.72-6.5-6.33-2.27,5.65-3.65.2-6.72,5.21,4.25,6.45-1.89-2.43,6.27,3.79,5.56-6.71-.37-4.11,5.32Z"/>
  </g>
  <g id="mbackground">
    <path id="mapbackground" class="cls-5" d="m64.32,12.6c31.22,0,56.52,24.28,56.52,54.22s-25.3,54.22-56.52,54.22S7.8,96.76,7.8,66.82,33.1,12.6,64.32,12.6Z"/>
  </g>
  <g id="mtext">
    <path id="maptext" class="cls-4" d="m24.69,23.07c-.19.28-.3.38-.63.27h.02c-.18-.1-.37-.28-.6-.51-.33-.33-.82-.79-1.33-1.13-.02-.02-.02,0-.66-.43-.15-.04-.28-.1-.37-.16-.02,0-.03-.02-.05-.04-.07-.05-.14-.08-.18-.08h0c-.13-.02-.2-.05-.27-.08-.18-.08-.31-.08-.51.06-.15.11-.34.39-.39.49-.17.55-.21.83-.24,1.11h0s0,.12,0,.12c0,.21.02.43.12.5l.33.21h0s.12.08.12.08c.46.27.99.62,1.38,1.02.13.14.24.27.33.4h0s.05.06.08.1h0c.18.25.25.37-.02.69,0,0,0,.02-.02.03-.04.07-.11.18-.27.26-.19-.01-.3-.06-.4-.1l-.16-.06-.3-.08.02.02c-.31-.1-.57-.3-.8-.54-.17-.18-.31-.36-.45-.56-.02-.03-.07-.1-.1-.14-.14-.2-.38-.5-.54-.68-.18-.12-.39-.16-.57-.18l-.28-.05c-.3-.05-.6-.09-.79.09-.27.26-.4.58-.35.96l.07.1c.23.33.51.71.77.98.08.09.9,1.03,1.4,1.45.07.07.14.13.21.2.18.19.32.37.34.46.03.19-.05.35-.12.46l-.3.17-.09.02c-.09.02-.2.04-.29.01h.02c-.22-.12-.34-.24-.44-.34-.12-.13-.22-.25-.32-.39,0,0,0-.03-.02-.03-.07-.08-.15-.19-.21-.28-.02-.03-.06-.08-.09-.11l-1.05-1.09c-.17-.17-.37-.41-.5-.58-.04-.04-.16-.15-.22-.19,0,0-.02,0-.03-.02-.11-.08-.21-.15-.3-.24-.12-.12-.2-.28-.19-.5.03-.26.09-.41.17-.48s.21-.07.39-.02c0-.36.17-.81.45-1.08.08-.11.23-.2.38-.31.22-.14.53-.23.74-.23.32-.03.61.03.94.13.03.03.09.03.16.03v-.21c.02-.15.02-.5.12-.76l.07-.24c.06-.23.17-.52.33-.76.17-.23.41-.52.67-.69.67-.32,1.31-.07,1.81.18l.1.07h0c.81.39,1.66,1.07,2.4,1.69.27.23.47.55.5,1.06Zm5.55-3.66c-.21.16-.54.36-.81.41-.27.05-1.02-.15-1.51-.36l.02.31s0,.03,0,.04v.09s0,0,0,0c.02.21-.01.41-.08.61-.23.45-.78,1.13-1.16,1.41-.42.3-1.19.42-1.63.13h0c-.19-.11-.38-.29-.52-.49-.44-.61-.74-1.51-.71-2.33.01-.74.13-1.46.82-1.96.22-.16.51-.31.75-.27.02.01.09.02.12.03.17.03.42.07.53.04.09-.04.2-.05.32-.15l.05-.04s.01-.02.02-.03c.26.18.41.37.53.53l.22.3c.48.66,1.23,1.15,1.94,1.33.16.04.34.11.56-.05.19-.14.38-.29.5-.52,0,0,0-.05,0-.07.02-.13.05-.21.13-.27.03-.02.06-.04.08-.05l.22.09c.1.3-.1,1.04-.41,1.26Zm-3.69-.98l-.39-.35c-.13-.02-.24-.06-.31-.1-.21-.06-.48-.07-.67-.03-.34.41-.4,1.06-.33,1.59.04.48.08.87.36,1.25.19.26.43.52.69.54.07.01.17-.07.25-.12l.06-.04c.89-.65,1.24-1.6.55-2.55l-.2-.18Zm7.46-1.88c-.17.64-.67,1.14-1.3,1.51-.43.25-.94.32-1.3.37l.65.94v-.02s.79,1.16.79,1.16l.28.39c.14.19.3.41.42.62.1.18.29.52-.04.83-.1,0-.16-.02-.19,0-.16.04-.31.08-.44-.08-.19-.23-.48-.68-.68-.98l-.2-.34c-.18-.28-.4-.63-.59-.87-.27-.34-.51-.7-.73-1.05-.04-.06-.08-.11-.11-.16-.07-.12-.17-.27-.27-.42-.24-.04-.36-.1-.47-.17l.03.02-.05-.04-.11-.07c-.08-.05-.14-.1-.28-.14-.05-.08-.06-.19,0-.29l.03-.04c.08-.05.22-.07.37-.08l-.51-.76c-.22-.31-.47-.69-.63-.96-.12-.2-.2-.69.11-.87.11-.07.28-.07.41-.03.18-.52.71-1.07,1.02-1.25.42-.24.86-.32,1.29-.29.43.03.83.13,1.16.3.32.2.93.83,1.08,1.09.35.63.41,1.18.28,1.67Zm-2.5-2.27c-.34-.04-.69.04-1.01.23-.62.36-.6.9-.51,1.49.11.14.28.46.42.72.12.23.22.42.32.6.09.16.19.32.3.44l.21-.05.22-.05c.36-.06.78-.18,1.05-.34.39-.23.64-.61.71-1,.06-.38-.06-.82-.35-1.22-.36-.5-.86-.79-1.37-.83Z"/>
  </g>
  <g id="mfill">
    <path id="mapfill" class="cls-3" d="m89.13,27.88l-24.17,10.99-24.17-10.99-24.17,10.99v64.82l24.17-10.99,24.17,10.99,24.17-10.99,24.17,10.99V38.86l-24.17-10.99Z"/>
  </g>
  <g id="_mborder" data-name=" mborder">
    <path id="mapborder" class="cls-1" d="m113.3,106.47c-.39,0-.79-.08-1.15-.25l-23.02-10.46-23.02,10.46c-.73.33-1.57.33-2.31,0l-23.02-10.46-23.02,10.46c-.86.39-1.87.32-2.66-.19s-1.28-1.4-1.28-2.34V38.86c0-1.09.64-2.09,1.64-2.54l24.17-10.99c.73-.33,1.57-.33,2.31,0l23.02,10.46,23.02-10.46c.73-.33,1.57-.33,2.31,0l24.17,10.99c1,.45,1.64,1.45,1.64,2.54v64.82c0,.95-.48,1.83-1.28,2.34-.46.29-.98.44-1.51.44Zm-72.51-16.56c.39,0,.79.08,1.15.25l23.02,10.46,23.02-10.46c.73-.33,1.57-.33,2.31,0l20.23,9.19v-58.7l-21.38-9.72-23.02,10.46c-.73.33-1.57.33-2.31,0l-23.02-10.46-21.38,9.72v58.7l20.23-9.19c.37-.17.76-.25,1.15-.25Zm-24.17-3.89c-.05,0-.1,0-.15,0-1.02-.08-1.78-.98-1.7-2,0-.07.14-1.67.81-4,.28-.99,1.32-1.56,2.3-1.27.99.28,1.56,1.31,1.27,2.3-.56,1.95-.68,3.26-.68,3.28-.08.97-.9,1.71-1.85,1.71Zm66.93-.93c-2.58,0-4.84-.33-6.89-.99-.98-.32-1.51-1.37-1.19-2.34s1.37-1.51,2.34-1.19c1.67.55,3.55.81,5.73.81.18,0,.35,0,.52-.01,1.02-.05,1.9.74,1.95,1.77.05,1.03-.74,1.9-1.77,1.95-.23.01-.47.02-.71.02Zm7.06-2.49c-.54,0-1.08-.24-1.45-.69-.64-.8-.52-1.97.28-2.61,1.39-1.12,2.68-2.68,4.05-4.92.54-.87,1.68-1.15,2.56-.61.87.54,1.15,1.68.61,2.56-1.61,2.61-3.16,4.48-4.89,5.87-.34.28-.75.41-1.16.41Zm-19.27-2.08c-.48,0-.95-.18-1.32-.55-1.75-1.76-3.12-3.8-4.48-5.91-.56-.86-.31-2.01.55-2.57.86-.56,2.01-.31,2.57.55,1.3,2.01,2.49,3.8,3.99,5.3.73.73.72,1.9,0,2.63-.36.36-.84.54-1.31.54Zm-51.19-4.58c-.33,0-.65-.09-.95-.26-.88-.53-1.17-1.67-.64-2.55,1.31-2.18,2.9-4.16,4.73-5.87.75-.7,1.93-.66,2.63.09.7.75.66,1.93-.09,2.63-1.57,1.47-2.95,3.18-4.08,5.06-.35.58-.96.9-1.6.9Zm78.3-4.92c-.29,0-.58-.07-.86-.21-.91-.47-1.27-1.6-.79-2.51,1.11-2.13,2.3-4.37,3.68-6.3.6-.84,1.76-1.03,2.59-.44.84.6,1.03,1.76.44,2.59-1.24,1.74-2.36,3.85-3.41,5.86-.33.64-.98,1-1.65,1Zm-35.42-1.84c-.52,0-1.04-.22-1.4-.64-1.51-1.73-3.06-2.96-4.9-3.88-.92-.46-1.3-1.57-.84-2.49.46-.92,1.57-1.3,2.49-.84,2.26,1.12,4.24,2.68,6.05,4.77.67.78.59,1.95-.18,2.62-.35.31-.79.46-1.22.46Zm-32.74-2.74c-.67,0-1.32-.37-1.65-1-.47-.91-.12-2.03.8-2.51,2.13-1.1,4.48-1.98,6.98-2.61,1-.25,2.01.35,2.26,1.35s-.35,2.01-1.35,2.26c-2.23.56-4.3,1.34-6.18,2.31-.27.14-.57.21-.85.21Zm20.54-3.46c-.07,0-.14,0-.21-.01-1.04-.12-2.16-.18-3.33-.18-1.15,0-2.26.04-3.35.11-1.03.07-1.91-.7-1.98-1.72-.07-1.02.7-1.91,1.72-1.98,1.17-.08,2.38-.14,3.61-.12,1.31,0,2.57.07,3.75.2,1.02.12,1.75,1.04,1.64,2.06-.11.95-.91,1.65-1.85,1.65Zm56.51-2.74c-.73,0-1.42-.43-1.72-1.14-.4-.95.05-2.04,1-2.43,1.35-.57,2.81-.85,4.34-.85,1.03,0,1.86.83,1.86,1.86s-.83,1.86-1.86,1.86-2,.18-2.91.56c-.24.1-.48.15-.72.15Zm-66.57,34.32c-1.03,0-1.86-.83-1.86-1.86V29.31c0-1.03.83-1.86,1.86-1.86s1.86.83,1.86,1.86v63.39c0,1.03-.83,1.86-1.86,1.86Zm24.17,10.06c-1.03,0-1.86-.83-1.86-1.86v-63.39c0-1.03.83-1.86,1.86-1.86s1.86.83,1.86,1.86v63.39c0,1.03-.83,1.86-1.86,1.86Zm24.17-10.06c-1.03,0-1.86-.83-1.86-1.86V29.31c0-1.03.83-1.86,1.86-1.86s1.86.83,1.86,1.86v63.39c0,1.03-.83,1.86-1.86,1.86Z"/>
  </g>
</svg>