<?xml version="1.0" encoding="UTF-8"?>
<svg xmlns="http://www.w3.org/2000/svg" viewBox="0 0 128 128">
  <defs>
    <style>
      .cls-1 {
        fill: #7080ff;
      }

      .cls-2 {
        fill: none;
      }

      .cls-3 {
        fill: #f7bb83;
      }

      .cls-4 {
        fill: #b8cbcd;
      }

      .cls-5 {
        fill: #6e4123;
      }
    </style>
  </defs>
  <g id="bstar">
    <path id="bagstar" class="cls-2" d="m110.62,108.41l6.04,2.17,5.19-3.77-.18,6.45,5.18,3.81-6.15,1.81-1.99,6.13-3.62-5.33-6.41-.03,3.91-5.1-1.97-6.14Z"/>
  </g>
  <g id="bbackground">
    <path id="bagbackground" class="cls-4" d="m63.84,9.24c32.14,0,58.2,26.16,58.2,58.42s-26.06,58.42-58.2,58.42S5.64,99.93,5.64,67.66,31.7,9.24,63.84,9.24Z"/>
  </g>
  <g id="btext">
    <path id="bagtext" class="cls-1" d="m20.55,21.11c-.05.2-.07.32-.09.43-.09.4-.41.91-.8,1.31-.15.15-.34.33-.49.45-.44.31-.97.62-1.38.62-.2.19-.49.43-.82.23-.23-.12-.52-.31-.63-.56l-.14-.11-.1-.1c-.25-.23-.58-.53-.82-.76l-1.09-1.05-.08-.08c-.23-.23-.56-.54-.46-1.05.09-.14.18-.24.28-.27v-.15c-.08-.63-.19-1.45.28-1.93.18-.18.49-.34.73-.42.15-.03.62-.09.79-.06.43.08.77.27,1.04.54.15.15.32.38.5.68l.16-.16c.32-.33.76-.62,1.26-.49.5.04,1,.29,1.36.64.26.25.46.56.57.89h0c.12.48.02.95-.09,1.41Zm-4.43-2.29c-.13-.16-.29-.19-.43-.19-.05,0-.27-.08-.51-.02-.44.32-.4,1.63-.18,2.1l.3.34c.09.11.14.17.16.21.04.05.04.07.29.28l.2-.33c.15-.37.51-.85.52-1.28,0-.28-.02-.67-.36-1.11Zm2.51.49c-.05.02-.11.02-.14.02-.07.02-.13.01-.16.13-.18.11-.28.2-.38.3-.35.35-.55.88-.74,1.39l-.04.09h0s-.16.41-.16.41v-.03c-.04.05-.12.15-.15.2-.11.15-.22.3-.42.45.38.35.77.6,1.23.77.48-.17.96-.37,1.23-.74.29-.43.57-1.07.66-1.64.02-.38-.04-.77-.31-1.03-.14-.14-.36-.24-.64-.32Zm7.87-3.27c-.21.18-.54.42-.83.49-.29.07-1.08-.09-1.61-.27l.04.33s0,.03,0,.05v.09s0,0,0,0c.03.22.01.43-.04.64-.21.48-.75,1.24-1.13,1.56-.42.35-1.23.53-1.7.25h0c-.21-.1-.42-.28-.58-.47-.51-.61-.88-1.53-.9-2.39-.03-.77.04-1.54.73-2.12.22-.19.52-.37.78-.34.03.01.1.02.13.02.18.02.45.04.56,0,.09-.05.2-.07.33-.18l.05-.04s.01-.03.02-.03c.29.17.46.35.6.52l.25.3c.55.66,1.38,1.12,2.13,1.25.18.03.37.09.58-.09.2-.16.38-.33.49-.59,0,0-.01-.05-.01-.07.01-.14.04-.23.12-.29.03-.02.06-.05.09-.06l.23.08c.12.31-.04,1.1-.34,1.35Zm-3.95-.76l-.43-.34c-.14-.01-.26-.05-.33-.08-.22-.05-.51-.04-.71.02-.33.46-.35,1.14-.24,1.69.07.5.15.91.46,1.29.22.26.49.51.76.51.07,0,.18-.08.26-.15l.06-.05c.9-.75,1.2-1.77.41-2.72l-.23-.17Zm10.41.85c-.18.7-1.15,2.02-1.75,2.43-.68.46-1.35.5-2.05.53-.12.02-.31.02-.45.04-.27-.03-1.09-.32-1.43-.6-.09-.02-.13-.06-.16-.1-.15-.22-.18-.32-.15-.34.04-.03.2,0,.4.05v-.05c1.34.4,2.28.4,3.35-.32,1.07-.73,1.76-1.66.93-2.88-.51-.75-1.35-1.58-2.15-2.14-.07.12-.11.2-.15.33l-.07.15c-.06.16-.14.34-.24.53-.16.29-.34.63-.64.89-.67.59-1.66.61-2.37.05-.13-.1-.51-.41-.7-.71-.77-1.2-1.3-2.67.19-3.68.5-.34,1.16-.42,1.76-.37.05-.06.12-.11.14-.13.68-.46,1.58.64,2.2,1.44.23.29.41.51.49.58.83.73,1.63,1.54,2.23,2.43.27.41.78,1.28.61,1.87Zm-5.55-5.13h.02s-.19-.14-.19-.14c-.23.11-.41.07-.56,0h0c-.07-.03-.19-.06-.24-.07-.13.03-.22.04-.29.07-.75.57-.59,1.78-.08,2.53.33.49,1.08,1.08,1.63.71.3-.21.56-.55.69-.95l.1-.25v.02c.14-.35.3-.73.08-1.05-.15-.23-.75-.6-1.17-.87Z"/>
  </g>
  <g id="bfill">
    <path id="bagfill" class="cls-3" d="m113.21,45.19v58.66h-6.13v7h-8.76v-7H30.03v7h-8.76v-7h-6.13v-58.66h.36l4.72-11.51c.37-.89,1.45-1.62,2.42-1.62h81.36c.96,0,2.12.7,2.57,1.55l6.17,11.59h.47ZM44.92,25.06h40.28v-7.88h-40.28v7.88Z"/>
  </g>
  <g id="bborder">
    <path id="bagborder" class="cls-5" d="m15.15,48.91c-.33,0-.67-.06-1-.2-1.34-.55-1.98-2.08-1.43-3.43l5.08-12.39c.77-1.88,2.81-3.25,4.85-3.25h81.35c1.93,0,3.99,1.24,4.89,2.94l6.64,12.46c.68,1.28.2,2.87-1.08,3.55-1.28.68-2.87.2-3.55-1.08l-6.64-12.46s-.22-.14-.32-.16H22.73s-.07.05-.1.07l-5.05,12.31c-.42,1.02-1.4,1.63-2.43,1.63Zm14.89,64.79h-8.76c-1.45,0-2.63-1.18-2.63-2.63v-7c0-1.45,1.18-2.63,2.63-2.63s2.63,1.18,2.63,2.63v4.38h3.5v-4.38c0-1.45,1.18-2.63,2.63-2.63s2.63,1.18,2.63,2.63v7c0,1.45-1.18,2.63-2.63,2.63Zm77.05,0h-8.76c-1.45,0-2.63-1.18-2.63-2.63v-7c0-1.45,1.18-2.63,2.63-2.63s2.63,1.18,2.63,2.63v4.38h3.5v-4.38c0-1.45,1.18-2.63,2.63-2.63s2.63,1.18,2.63,2.63v7c0,1.45-1.18,2.63-2.63,2.63ZM27.41,46.28h9.63v56.91h-9.63v-56.91Zm9.63,58.66h-9.63c-.97,0-1.75-.78-1.75-1.75v-56.91c0-.97.78-1.75,1.75-1.75h9.63c.97,0,1.75.78,1.75,1.75v56.91c0,.97-.78,1.75-1.75,1.75Zm-7.88-3.5h6.13v-53.41h-6.13v53.41Zm62.17-55.16h9.63v56.91h-9.63v-56.91Zm.88-4.38c-1.45,0-2.63-1.18-2.63-2.63v-14.88h-49.03v14.88c0,1.45-1.18,2.63-2.63,2.63s-2.63-1.18-2.63-2.63v-17.51c0-1.45,1.18-2.63,2.63-2.63h54.29c1.45,0,2.63,1.18,2.63,2.63v17.51c0,1.45-1.18,2.63-2.63,2.63Zm-7-14.01h-40.28c-1.45,0-2.63-1.18-2.63-2.63v-7.88c0-1.45,1.18-2.63,2.63-2.63h40.28c1.45,0,2.63,1.18,2.63,2.63v7.88c0,1.45-1.18,2.63-2.63,2.63Zm-37.65-5.25h35.02v-2.63h-35.02v2.63Zm-27.14,84.06h-5.25c-1.45,0-2.63-1.18-2.63-2.63v-57.79c0-1.45,1.18-2.63,2.63-2.63s2.63,1.18,2.63,2.63v55.16h2.63c1.45,0,2.63,1.18,2.63,2.63s-1.18,2.63-2.63,2.63Zm92.81,0h-6.13c-1.45,0-2.63-1.18-2.63-2.63s1.18-2.63,2.63-2.63h3.5v-55.16c0-1.45,1.18-2.63,2.63-2.63s2.63,1.18,2.63,2.63v57.79c0,1.45-1.18,2.63-2.63,2.63Zm-6.13-1.75H16.9c-.97,0-1.75-.78-1.75-1.75s.78-1.75,1.75-1.75h90.18c.97,0,1.75.78,1.75,1.75s-.78,1.75-1.75,1.75Zm7-56.91H15.15c-.97,0-1.75-.78-1.75-1.75s.78-1.75,1.75-1.75h98.94c.97,0,1.75.78,1.75,1.75s-.78,1.75-1.75,1.75Zm-13.13,56.91h-9.63c-.97,0-1.75-.78-1.75-1.75v-56.91c0-.97.78-1.75,1.75-1.75h9.63c.97,0,1.75.78,1.75,1.75v56.91c0,.97-.78,1.75-1.75,1.75Zm-7.88-3.5h6.13v-53.41h-6.13v53.41Z"/>
  </g>
</svg>