<?xml version="1.0" encoding="UTF-8"?>
<svg xmlns="http://www.w3.org/2000/svg" viewBox="0 0 128 128">
  <defs>
    <style>
      .cls-1 {
        fill: #492406;
      }

      .cls-2 {
        fill: #e89b5b;
      }

      .cls-3 {
        fill: none;
      }

      .cls-4 {
        fill: #0a770a;
      }

      .cls-5 {
        fill: #b8cbcd;
      }
    </style>
  </defs>
  <g id="mostar">
    <path id="mountainstar" class="cls-3" d="m124.2,126l-6.51-2.39-5.66,4.01.26-6.93-5.56-4.14,6.67-1.9,2.22-6.57,3.86,5.76,6.93.08-4.28,5.45,2.07,6.62Z"/>
  </g>
  <g id="mobackground">
    <path id="mountainbackground" class="cls-5" d="m65.29,6.68c34.13,0,61.79,26.87,61.79,60.02s-27.66,60.02-61.79,60.02S3.5,99.85,3.5,66.7,31.16,6.68,65.29,6.68Z"/>
  </g>
  <g id="motext">
    <path id="mountaintext" class="cls-4" d="m13.73,29.31c-.11.33-.19.45-.53.42h.02c-.2-.05-.43-.18-.71-.33-.41-.23-1-.55-1.58-.74-.02-.01-.02,0-.75-.24-.16,0-.29-.02-.4-.06-.03,0-.04,0-.06-.02-.08-.03-.16-.04-.19-.03h0c-.13.01-.21,0-.28-.01-.19-.03-.32,0-.48.19-.11.14-.22.47-.25.58-.02.57.02.85.06,1.13h0s.04.11.04.11c.06.2.14.4.25.44l.38.12h-.01s.14.05.14.05c.52.14,1.12.33,1.6.62.16.1.3.2.42.3h-.01s.07.05.11.07h-.01c.24.2.34.29.17.67,0,.01,0,.03,0,.04-.02.07-.06.2-.19.32-.19.04-.31.02-.41,0l-.17-.02h-.31s.02,0,.02,0c-.33-.01-.63-.14-.92-.31-.22-.13-.4-.27-.59-.42-.03-.02-.09-.08-.13-.11-.19-.15-.5-.38-.7-.52-.21-.07-.42-.05-.6-.02l-.28.03c-.3.03-.6.07-.74.3-.19.32-.24.67-.08,1.02l.1.07c.31.26.68.55,1,.74.1.06,1.14.76,1.73,1.03.08.05.17.09.25.14.23.14.41.27.45.35.08.17.04.35,0,.48l-.25.25-.08.05c-.08.05-.18.09-.28.09h.02c-.24-.07-.39-.14-.52-.22-.15-.09-.28-.18-.41-.29,0,0-.01-.02-.02-.03-.09-.06-.19-.14-.28-.21-.03-.02-.08-.06-.12-.08l-1.3-.77c-.21-.12-.47-.29-.64-.43-.05-.03-.19-.1-.26-.13-.01,0-.03,0-.04,0-.13-.05-.24-.09-.35-.16-.14-.09-.26-.21-.32-.43-.04-.26-.02-.42.04-.51.06-.09.19-.13.37-.13-.09-.35-.05-.83.15-1.16.05-.13.17-.25.28-.4.17-.19.45-.36.66-.42.3-.11.6-.13.94-.12.04.02.1,0,.16-.01l-.04-.21c-.04-.15-.13-.48-.1-.76v-.25c.01-.24.03-.55.13-.83.1-.26.26-.62.46-.84.56-.49,1.24-.42,1.79-.31l.12.04h0c.89.16,1.89.59,2.76.99.32.15.6.4.76.89Zm2.24-1.85c-.31.4-1.07.6-1.58.65-.52.07-1.38-.18-1.76-.47-.45-.34-.89-.91-1.04-1.62-.13-.56-.11-.78-.08-1.25.03-.37.37-.87.64-1.14.26-.26.62-.63.94-.38.02.03.13.13.18.18.05.05.1.11.14.14.05.04.13.03.22-.01l.25-.02h.18c.42-.05.83-.07,1.28.2,1.15.69,1.53,2.58.64,3.72Zm-2.8-2.79c-.3-.23-.58-.27-.75-.05l-.03.04s.05.02.06.12h-.16c-.02.55.37,1.66.85,2.03.39.3,1.92.68,2.26.23.49-.64.19-1.91-.5-2.4-.3-.22-1.12-.51-1.73.02Zm8.12-4.38c-.08.32-.16.59-.4.85-.52.56-1.08.42-1.72.23.2.88.19,1.78-.43,2.45-1.12,1.2-2.3.22-3.14-.56l-.21-.2c-.41-.38-.68-.63-1.09-1.11-.12-.16-.04-.43.08-.58.23-.3.5-.26.73-.04.04.04.14.13.19.2.04.06.14.16.22.24.23.25.51.54.82.83.68.63,1.42,1.17,1.81.75.59-.63.35-2.03-.27-2.6-.25-.24-.4-.34-.55-.45-.17-.12-.37-.29-.65-.57-.13-.14-.09-.45.07-.62.02-.02.06-.06.17-.11h-.02c.44-.13.63.05.84.24.08.07.17.16.25.21.1.06.11.11.15.16v-.02s.04.07.09.12c.63.59,1.39,1.08,2.26.94h0c.21-.02.23-.54.11-.78l.26-.28c.12,0,.21.03.25.07.08.07.24.53.2.65Zm3.92-2.91c.13.17.03.44-.09.55-.13.11-.19.11-.3.11-.03,0-.07.01-.14.06-.17-.1-.16-.11-.2-.15-.09-.1-.11-.18-.13-.27,0,0,0,0,0-.03h0c-.02-.07-.02-.14-.18-.21v-.15s-.1-.1-.1-.1c-.41-.46-.91-.77-1.42-1.1-.21-.09-1.22-.68-1.96-.02-.7.62-.65,1.31,0,2.03.26.29.68.57,1.03.77l.21.13c.02.09.06.14.1.18.04.04.1.09.15.14.06.05.13.11.19.18.18.21.12.48-.1.68-.13.11-.26.14-.39.12-.04,0-.09-.01-.14,0-.25-.07-.45-.2-.61-.38-.08-.09-.16-.16-.25-.24-.06-.05-.11-.11-.16-.16-.15-.14-.31-.31-.4-.41-.14-.15-.41-.41-.58-.48l-.64-.5c-.17-.07-.36-.15-.46-.26-.08-.09-.1-.18-.11-.34.07-.11.13-.18.17-.21.2-.18.4-.18.57-.12,0-.59.29-1.12.62-1.53.11-.15.24-.28.37-.4,1.15-1.02,2.25-.34,3.15.25l.32.2.15.09c.28.15.56.37.78.62l.31.37c.12.17.23.34.25.58Zm-.89.23v.03s.02,0,0-.03Zm2.28-5.82l-.13-.13c-.09.1-.58.79-.6.82-.18.28-.27.42-.5.69.08.1.14.17.18.2.03.04.05.05.08.09.31.35.74.84,1.07,1.1.38.28.78.53.95.4.06-.04.12-.38.11-.79.18.09.36.18.4.23.06.08.07.51.06.65l-.21.36c-.05.09-.11.17-.25.28-.39.3-1.04,0-1.62-.39-.55-.41-1.21-1.08-1.5-1.39-.14.11-.16.15-.19.19-.07.13-.2.27-.34.38-.03.02-.08.07-.11.13-.12.15-.27.3-.46.21l-.43-.13c.05-.41.39-.97.74-1.29l.15-.13c-.38-.39-.72-.79-1.02-1.19-.28-.36-.5-.72-.59-.9.06-.08.13-.61.11-.45.27-.16.63-.19,1.15.18.17.23.11.25.18.38l.91,1.18.29-.29c.27-.26.6-.58.81-.74.17-.13.37-.25.54-.3l.21.06c.05.08.09.31.02.59Zm7.26-.32c-.22.14-.56.33-.84.36-.28.03-1-.22-1.48-.45v.31s0,.03,0,.04v.09s0-.01,0-.01c0,.21-.04.41-.12.6-.25.43-.85,1.08-1.25,1.33-.44.28-1.22.34-1.63.03h0c-.18-.12-.36-.31-.49-.52-.4-.64-.64-1.55-.56-2.37.06-.73.22-1.45.94-1.9.23-.15.53-.28.77-.22.02.01.09.03.12.04.17.04.41.09.53.08.09-.03.2-.04.33-.13l.05-.03s.01-.02.02-.03c.25.2.39.39.5.56l.2.31c.44.69,1.16,1.22,1.86,1.45.16.05.34.13.56-.01.2-.13.4-.27.53-.49,0,0,0-.05,0-.07.03-.13.06-.21.15-.26.03-.02.06-.04.09-.04l.21.11c.08.3-.17,1.03-.48,1.23Zm-3.62-1.21l-.37-.38c-.13-.03-.23-.08-.3-.12-.2-.07-.47-.1-.67-.07-.37.39-.47,1.03-.43,1.56,0,.48.03.88.28,1.27.17.27.4.54.65.58.07.01.18-.06.26-.11l.06-.04c.93-.59,1.34-1.52.71-2.51l-.19-.19Zm1.89-4.24c-.08.05-.15.1-.27.16-.19.08-.46,0-.58-.21-.14-.26-.02-.54.27-.69.2-.11.56-.13.75.13v.05s.05.07.06.09c.03.03.06.06.07.08v.04c0,.1-.09.23-.31.35Zm3.22,4.65c-.17.09-.48.15-.68-.02-.13-.14-.37-.4-.49-.57-.12-.18-.27-.43-.42-.67-.28-.45-.63-.98-.96-1.31l-.25-.28c-.04-.07-.07-.14-.09-.21l-.04-.09c-.13-.24,0-.43.2-.54.19-.1.46-.1.58.07.06.09.14.2.2.27l.18.23c.52.66,1.32,1.7,1.39,1.88.04.1.12.21.22.3.11.1.19.2.25.31.08.15.14.48-.11.62Zm5.43-2.59c.08.2-.1.43-.25.5-.15.07-.22.05-.32.02-.03-.01-.07,0-.15.02-.14-.15-.12-.15-.14-.2-.06-.12-.05-.2-.04-.3,0,0,0-.01,0-.03h0c0-.07.03-.13-.11-.26l.04-.15-.06-.12c-.26-.56-.65-1-1.03-1.47-.17-.15-.97-1.01-1.87-.59-.85.39-1,1.07-.6,1.94.16.35.49.74.76,1.04l.17.19c0,.1.02.15.04.21s.07.11.11.18c.04.06.09.14.13.23.12.25-.02.5-.29.62-.15.07-.29.06-.41,0-.04,0-.08-.04-.14-.04-.22-.14-.37-.32-.47-.54-.05-.11-.11-.2-.17-.31-.04-.06-.08-.14-.11-.2-.1-.18-.2-.38-.26-.51-.09-.19-.27-.51-.41-.63l-.47-.67c-.15-.12-.3-.25-.36-.39-.05-.11-.04-.21,0-.35.1-.09.18-.13.22-.15.24-.11.44-.06.58.05.18-.56.6-.99,1.03-1.28.15-.11.31-.19.47-.27,1.39-.64,2.26.33,2.94,1.15l.25.28.11.13c.22.23.42.52.57.82l.19.44c.06.2.12.4.07.63Zm-.92-.04v.03s.01,0,0-.03Z"/>
  </g>
  <g id="mofill">
    <path id="mountainfill" class="cls-2" d="m82.69,52.41L55.99,8.17,9.5,82.17c0,7.66,20.81,18.39,46.49,18.39m66.51-4.3v-.02s0-.04,0-.07h-.04l-34.44-52.35-34.44,59.65h-.05s0,.05,0,.07h0s0,.01,0,.01c.16,5.64,16.02,10,34.97,10s33.83-11.66,33.99-17.3h.01Z"/>
  </g>
  <g id="moborder">
    <path id="mountainborder" class="cls-1" d="m78.15,44.56L55.99,8.17l-22.16,36.39,10.67,19.61,13-26,11,14.39,9.65-8Zm45.82,50.28l-34.29-52.12c-.05-.08-.12-.14-.18-.21-.04-.04-.07-.09-.11-.13-.1-.1-.21-.18-.33-.25-.02-.01-.04-.03-.06-.05-.13-.07-.27-.13-.41-.17-.02,0-.04-.02-.07-.02-.12-.03-.25-.04-.38-.05-.04,0-.08-.02-.13-.02,0,0-.01,0-.02,0-.01,0-.02,0-.04,0-.12,0-.23.03-.34.05-.04,0-.09,0-.13.02-.14.04-.26.1-.39.16-.03.01-.06.02-.08.04-.14.08-.27.18-.39.3,0,0-.01.01-.02.02-.12.12-.23.26-.32.41l-3.44,5.96-2.71-4.49c-.04-.26-.12-.52-.27-.76L57.86,7.39l-.15-.25c-.09-.15-.2-.29-.33-.41-.02-.02-.04-.03-.06-.04-.11-.1-.22-.19-.35-.26-.03-.02-.06-.02-.09-.04-.12-.06-.25-.12-.38-.15-.03,0-.07,0-.11-.01-.13-.03-.26-.05-.39-.05,0,0,0,0-.01,0,0,0,0,0,0,0-.63,0-1.21.31-1.59.81-.03.04-.07.08-.1.12L7.81,81.1c-.2.32-.31.69-.31,1.06,0,8.86,19.48,19.47,44.28,20.33-.16.29-.26.62-.26.98,0,.02,0,.05,0,.08,0,.08,0,.17.02.25.51,7.72,18.91,11.76,36.96,11.76,19.09,0,35.54-11.65,35.98-19.08,0-.07.01-.14.01-.22,0-.03,0-.07,0-.09,0-.51-.2-.97-.52-1.33ZM55.98,12.02l19.44,32.2-6.6,5.46-9.74-12.74c-.42-.55-1.09-.84-1.78-.78-.69.07-1.29.48-1.6,1.1l-11.29,22.57-8.29-15.23L55.98,12.02ZM11.54,82.67l21.84-34.76,9.36,17.21c.35.65,1.03,1.04,1.76,1.04.01,0,.02,0,.03,0,.75-.01,1.42-.44,1.75-1.11l11.57-23.13,9.05,11.84c.33.43.82.71,1.36.77.54.07,1.08-.1,1.5-.45l7.74-6.41,3.04,5.04-26.45,45.82c-24.35-.24-41.58-10.09-42.56-15.87Zm76.96,28.88c-19.12,0-31.75-4.37-32.89-7.62l14.67-25.4,6.01,4.61c.46.35,1.05.49,1.62.37.57-.12,1.06-.47,1.34-.98l5.49-9.72,13.16,17.55c.38.51.98.8,1.6.8.06,0,.12,0,.18,0,.69-.06,1.3-.48,1.61-1.09l6.39-12.72,12.74,19.36c-1.1,4.24-13.86,14.85-31.91,14.85Z"/>
  </g>
</svg>