<?xml version="1.0" encoding="UTF-8"?>
<svg xmlns="http://www.w3.org/2000/svg" viewBox="0 0 128 128">
  <defs>
    <style>
      .cls-1 {
        fill: #8d4520;
      }

      .cls-2 {
        fill: none;
      }

      .cls-3 {
        fill: #f6e89a;
      }

      .cls-4 {
        fill: #b8cbcd;
      }

      .cls-5 {
        fill: #5aa5ff;
      }
    </style>
  </defs>
  <g id="istar">
    <path id="islandstar" class="cls-2" d="m126,124.56l-7.26-1.75-5.56,4.99-.58-7.45-6.46-3.74,6.9-2.85,1.56-7.3,4.85,5.68,7.43-.77-3.91,6.37,3.03,6.83Z"/>
  </g>
  <g id="ibackground">
    <path id="islandbackground" class="cls-4" d="m64.62,4.32c34.69,0,62.82,26.68,62.82,59.59s-28.13,59.59-62.82,59.59S1.8,96.81,1.8,63.91,29.93,4.32,64.62,4.32Z"/>
  </g>
  <g id="itext">
    <path id="islandtext" class="cls-5" d="m12.02,25.07c.19.09.38.19.57.34.29.22.51.5.42.88h0c-.07.23-.42.44-.67.3l-.23-.13c-.21-.12-.46-.29-.64-.42-.16-.13-.4-.29-.61-.41l-.1-.06c-.17-.1-.37-.23-.54-.36-.31-.21-.93-.56-1.49-.86-.11-.07-.23-.13-.32-.17h0c-.19-.09-.39-.21-.61-.34l.02.03s-.06-.03-.07-.04c-.1-.06-.24-.14-.32-.19-.11-.08-.2-.19-.2-.35h0c0-.16.05-.3.12-.39.15-.2.4-.24.69-.11.54.22,1.14.6,1.74.98h0s.25.15.25.15c.63.38,1.29.78,1.76,1.03l.18.09.07.04Zm3.75-2.51c-.16.52-.36.91-.59,1.17-.18.21-.43.39-.73.6l-.21.17c-.16.07-.3.15-.42.2l-.27.12h-.14s-.07,0-.09,0c-.14,0-.35-.01-.49-.13-.03-.02-.13-.19-.23-.34.8-.16,1.51-.46,1.9-.92.21-.25.78-1.31.49-1.55-.17-.15-.69.18-1.28.51l-.31.18c-.62.36-1.33.7-1.87.7-.31,0-.63-.05-.8-.19-.27-.23-.27-.62-.27-.96v-.37c-.02-.59-.02-1.04.52-1.68.25-.29.3-.31.41-.31.04,0,.32-.03.39-.03.12.05.15.06.24.09h.05s.1.02.1.02c.13.03.28.06.42.18.1.09.18.27.2.53-.35.15-.48.16-.61.14h-.08s0,0,0,0c-.23.01-.46.02-.58.16-.16.19-.39,1.35-.19,1.52.12.1.21.12.37.08h0c.59-.09,1.09-.39,1.51-.65.29-.21.69-.47.96-.57.45-.22,1.06-.36,1.46-.02.27.23.25,1.06.12,1.36Zm-3.73-2.75h0s-.04-.03-.04-.03l.04.03Zm5.38,1.03v.14s-.09.13-.09.13c-.18.19-.41.19-.62.13l-.25-.24c-.18-.16-.37-.3-.57-.46-.19-.15-.38-.3-.57-.48-.03-.02-.06-.04-.09-.07l-.09-.08-.37-.32c-.91-.78-2.06-1.76-2.9-2.4l-.05-.03-.03-.03s-.08-.14-.12-.23v.04s-.03-.07-.04-.12l-.05-.1c.04-.16.09-.29.16-.36.34-.37.53-.19.75.02l.03.03c.69.64,1.53,1.3,2.36,1.96l.26.2c.79.63,1.59,1.26,2.25,1.88.14.12.1.26.05.4Zm4.99-4.66c-.19.18-.49.42-.76.5-.27.08-1.03-.04-1.54-.19l.05.31s0,.03,0,.04v.09s0,0,0,0c.04.21.03.41,0,.61-.17.47-.65,1.21-.99,1.53-.38.35-1.14.55-1.6.31h0c-.2-.08-.41-.25-.58-.42-.51-.56-.91-1.42-.97-2.23-.07-.73-.04-1.46.59-2.04.2-.19.48-.37.72-.35.03,0,.09.01.13.01.17,0,.42.02.54-.02.09-.05.19-.08.31-.18l.04-.04s0-.03.02-.03c.28.15.45.32.59.47l.25.27c.55.6,1.36,1,2.08,1.1.17.02.35.07.55-.11.18-.16.35-.33.43-.58,0,0-.02-.05-.01-.07,0-.14.03-.22.1-.28.03-.02.05-.05.08-.06l.23.07c.13.29.01,1.04-.26,1.3Zm-3.78-.56l-.43-.31c-.14,0-.25-.04-.32-.06-.21-.03-.48-.01-.67.05-.29.45-.28,1.1-.15,1.62.09.47.18.86.5,1.2.22.24.49.46.74.46.07,0,.17-.09.24-.15l.05-.05c.81-.75,1.05-1.73.26-2.6l-.22-.15Zm8.08-2.71c.12.18-.01.44-.14.54-.13.1-.2.09-.31.08-.03,0-.07,0-.14.05-.16-.12-.15-.12-.18-.16-.08-.11-.09-.18-.11-.28,0,0,0,0,0-.03h0c-.01-.07,0-.14-.16-.23v-.15s-.07-.1-.07-.1c-.37-.49-.84-.84-1.32-1.21-.2-.11-1.16-.78-1.95-.18-.75.56-.75,1.26-.17,2.02.23.31.63.62.96.85l.2.15c.01.1.05.14.08.19s.09.1.14.15.12.12.18.2c.17.22.08.49-.15.67-.13.1-.27.12-.4.09-.04,0-.09-.02-.14-.01-.25-.09-.43-.23-.57-.42-.07-.1-.15-.17-.23-.26-.05-.05-.1-.12-.15-.17-.13-.16-.28-.33-.37-.45-.12-.16-.38-.44-.53-.53l-.6-.56c-.17-.08-.34-.18-.44-.3-.07-.1-.08-.19-.08-.35.08-.11.14-.17.18-.2.21-.16.42-.15.58-.07.06-.58.38-1.09.74-1.47.12-.14.26-.25.4-.36,1.23-.92,2.27-.15,3.12.51l.3.22.14.11c.27.17.52.42.73.68l.28.39c.1.18.2.36.2.6Zm-.9.16v.03s.01,0,0-.03Zm6.86-3.35c-.06.04-.11.11-.15.21-.43.21-.82.14-1.13-.04-.17-.11-.46-.32-.73-.57-.07.2-.19.49-.28.67-.3.62-.69,1.14-1.29,1.51-.86.53-2.45-.23-2.92-.99-.31-.5-.25-1.25.02-1.97.26-.67.72-1.28,1.2-1.57.34-.21.81-.27,1.26-.24l-.22-.36c-.09-.14-.39-.48-.69-.8-.3-.32-.61-.64-.73-.85-.1-.16-.03-.42.14-.52.18-.11.46-.14.64-.04.53.5,1.94,2.28,2.29,2.86.47.77,1.03,1.52,1.71,2.09.2.16.39.15.58.09l.41-.1.19.14c.05.22-.12.36-.28.47Zm-3.27-1.72c-.27.01-.4-.12-.53-.24-.09-.07-.18-.17-.31-.2-.04.03-.14.06-.23.06h-.09c-.14.03-.33.03-.47.12-.33.2-.61.63-.74,1.11-.12.45-.13.91.08,1.26.36.59,1.17.87,1.73.53.31-.19.59-.53.79-.92.21-.5.28-1.05.02-1.48-.05-.08-.17-.18-.25-.23Z"/>
  </g>
  <g id="ifill">
    <path id="islandfill" class="cls-3" d="m19.24,113.04c0-20.24,19.92-35.54,44.5-35.54s44.5,16.48,44.5,35.54M39.01,57.5s-15.18,3.04-15.18,20.14c-4.89-6.58-6.82-14.14,1.18-22.14-6.01-.75-10.86-2.76-16.97,3.35-.75-7.89,9.01-17.92,18.97-14.35-3.38-4.51-5-7-14-9,2.82-3.95,16-8,23.6,4.55,2.4-7.55,8.4-14.55,20.4-11.55-3.95,1.13-8.75,7.04-11.38,16.82,5.07-.38,14.47-1.5,19.54,8.27-6.58-1.31-20.28-3.38-22.16,2.26-3.38,1.13-4,1.66-4,1.66Zm46.61-13.66s15.86,1.98,15.86,22.03c5.73-7.71,10.86-18.68-1.48-28.38,7.05-.88,12.83-.82,19.99,6.34.88-9.25-8.31-21.53-19.99-17.34,3.97-5.29,3.68-8.22,17.34-8.22-3.31-4.63-17.85-10.58-30.85,3.52-5.73-8.15-14.81-14.36-26.49-7.3,4.63,1.32,10.91.54,14,12-5.95-.44-17.05-.46-23,11,7.71-1.54,22.71-3.8,24.92,2.81,3.96,1.32,9.69,3.53,9.69,3.53Z"/>
  </g>
  <g id="iborder">
    <path id="islandborder" class="cls-1" d="m111.24,107.69c0-16.05-16.38-29.47-38.07-32.53.37-2.99.92-6.01,1.72-8.83,5.43-19.02,13.11-32.99,13.18-33.13.8-1.45.28-3.28-1.17-4.08-1.45-.8-3.27-.28-4.08,1.17-.33.59-8.07,14.67-13.71,34.39-.92,3.21-1.53,6.59-1.93,9.92-1.14-.06-2.29-.1-3.45-.1-3.05,0-6.01.2-8.88.57-2.94-7.52-7.5-15.55-14.57-22.68-1.17-1.18-3.07-1.18-4.24-.02-1.18,1.17-1.18,3.07-.02,4.24,6.02,6.07,10.04,12.96,12.73,19.52-19.07,4.29-32.51,16.62-32.51,31.56,0,0,0,.02,0,.02,0,0,0,.02,0,.02,0,12.49,42.5,12.85,47.35,12.85,1.95,0,47.65-.15,47.65-12.85,0,0,0-.01,0-.02,0,0,0-.02,0-.03Zm-47.65,6.9c-24.94,0-39.8-4.45-41.35-7.01.07-12.22,11.86-22.3,28.55-25.78,3.54,11.31,3.36,20.44,3.36,20.61-.05,1.65,1.25,3.04,2.91,3.09.03,0,.06,0,.09,0,1.61,0,2.95-1.28,3-2.91.02-.68.22-10.01-3.3-21.73,2.24-.24,4.53-.36,6.89-.36.98,0,1.96.03,2.93.08-.51,9.18.3,16.77.36,17.25.17,1.53,1.47,2.67,2.98,2.67.11,0,.22,0,.34-.02,1.65-.18,2.83-1.67,2.65-3.31-.01-.11-.79-7.33-.34-16,18.32,2.75,32.49,13.71,32.58,26.4-1.59,2.57-16.58,7.02-41.65,7.02Zm-39.77-33.96c-.93,0-1.83-.43-2.41-1.21-5.71-7.69-6.4-14.98-2.07-21.73-.67-.08-1.31-.12-1.93-.12-2.01,0-4.27.41-7.26,3.39-.82.82-2.04,1.09-3.14.7-1.09-.39-1.86-1.38-1.97-2.54-.39-4.04,1.35-8.61,4.64-12.23,2.79-3.07,6.33-5.11,10.04-5.84-1.62-1.04-3.8-1.83-7.38-2.63-.98-.22-1.79-.92-2.15-1.85-.36-.94-.23-2,.36-2.82,2.17-3.04,7.21-5.17,12.24-5.17,3.11,0,8.4.83,13.07,5.61,3.42-6.04,8.96-9.41,15.75-9.41,1.93,0,3.99.27,6.11.8,1.32.33,2.25,1.5,2.27,2.86.02,1.36-.87,2.56-2.17,2.93-1.97.57-5.44,3.86-8.02,10.69.13,0,.27,0,.4,0,8.32,0,14.08,3.31,17.62,10.13.53,1.02.43,2.26-.26,3.19-.69.92-1.86,1.37-2.99,1.14-3.24-.65-7.97-1.42-12.07-1.42-4.81,0-6.45,1.06-6.66,1.68-.3.9-1,1.6-1.9,1.9-1.88.62-2.74,1.02-3.07,1.18-.39.46-.64.44-1.29.57-.51.11-12.77,2.85-12.77,17.2,0,1.29-.83,2.44-2.06,2.85-.31.1-.63.15-.94.15Zm-6.41-29.06c1.87,0,3.7.29,5.46.58.81.13,1.64.26,2.5.37,1.14.14,2.09.92,2.47,2,.37,1.08.09,2.28-.72,3.1-3.34,3.35-4.83,6.65-4.47,10.2,3.36-8.15,10.58-12.03,15.21-13.14.55-.3,1.46-.72,2.99-1.27,1.79-2.86,5.69-4.31,11.65-4.31,1.42,0,2.9.08,4.36.21-1.85-.84-4.04-1.24-6.65-1.24-1.34,0-2.63.1-3.76.19l-.61.05c-.97.07-1.91-.33-2.53-1.08-.62-.75-.84-1.75-.58-2.69,1.48-5.49,3.68-10.14,6.28-13.49-5.57,1.13-8.26,5.87-9.55,9.92-.36,1.12-1.34,1.93-2.51,2.07-1.17.14-2.31-.42-2.92-1.43-3.51-5.8-8.05-7.02-11.24-7.02-.75,0-1.46.06-2.12.18,3.97,1.8,5.88,4.12,8.41,7.51l.32.42c.8,1.06.8,2.52.01,3.58-.79,1.06-2.18,1.49-3.43,1.04-4.03-1.44-8.6.02-11.86,3.61-.36.4-.7.82-1.01,1.24,1.37-.41,2.79-.6,4.29-.6Zm84.07,17.3c-.32,0-.63-.05-.94-.15-1.23-.41-2.06-1.55-2.06-2.85,0-17.03-12.72-18.99-13.26-19.06-.23-.03-.47-.09-.69-.17-.06-.02-5.71-2.19-9.57-3.48-.9-.3-1.6-1-1.9-1.9-.5-1.51-3.52-2.42-8.08-2.42-3.6,0-8.11.54-13.41,1.6-1.13.23-2.29-.22-2.99-1.14-.69-.92-.8-2.16-.26-3.19,4.25-8.19,11.43-12.47,21.35-12.74-2.07-4.22-4.85-4.78-7.97-5.41-.83-.17-1.69-.34-2.54-.58-1.15-.33-1.99-1.31-2.15-2.49-.16-1.18.4-2.35,1.42-2.97,3.85-2.33,7.73-3.51,11.52-3.51,6.14,0,11.9,3.05,16.83,8.86,6.62-5.96,13.15-7.3,17.68-7.3,7.31,0,13.06,3.39,15.31,6.55.65.92.74,2.12.23,3.12-.51,1-1.54,1.63-2.67,1.63-5.89,0-8.67.47-10.42,1.54,3.89.56,7.55,2.58,10.49,5.82,3.93,4.32,6.06,10.26,5.56,15.49-.11,1.16-.88,2.15-1.97,2.54-1.1.39-2.32.12-3.14-.7-4.33-4.33-7.85-5.52-10.97-5.78,5.83,7.72,4.83,16.93-3.01,27.49-.58.78-1.48,1.21-2.41,1.21Zm-15.05-27.94c2.34.46,13.27,3.24,16.88,15.93,2.74-6.73,1.03-12.14-5.16-17.01-.95-.75-1.36-1.99-1.04-3.16.32-1.17,1.32-2.02,2.52-2.17,1.53-.19,3.55-.41,5.57-.41,3.83,0,7.23.83,10.47,2.62-.68-1.46-1.59-2.85-2.68-4.06-2.35-2.59-5.29-4.01-8.29-4.01-1.2,0-2.44.23-3.68.67-1.25.45-2.64.02-3.43-1.04-.79-1.07-.78-2.52.01-3.58.54-.71.99-1.38,1.41-2,2.09-3.09,3.86-5.3,8.34-6.47-.9-.15-1.86-.24-2.87-.24-3.9,0-9.8,1.36-15.78,7.85-.61.67-1.49,1.02-2.4.96-.9-.06-1.74-.53-2.26-1.27-2.92-4.15-7.73-9.1-14.07-9.1-.12,0-.24,0-.35,0,2.85,1.78,5.59,5.01,7.28,11.29.25.94.04,1.94-.58,2.69s-1.55,1.15-2.53,1.08c-1.16-.09-2.14-.12-3.1-.12-5.25,0-9.43,1.3-12.63,3.94,10.84-1.31,17.5.2,20.05,4.58,3.35,1.16,7.27,2.65,8.33,3.05Z"/>
  </g>
</svg>