<?xml version="1.0" encoding="UTF-8"?>
<svg xmlns="http://www.w3.org/2000/svg" viewBox="0 0 128 128">
  <defs>
    <style>
      .cls-1 {
        fill: #0ec7e0;
      }

      .cls-2 {
        fill: #b9e3ed;
      }

      .cls-3 {
        fill: none;
      }

      .cls-4 {
        fill: #b8cbcd;
      }

      .cls-5 {
        fill: #324654;
      }
    </style>
  </defs>
  <g id="shstar">
    <path id="shipstar" class="cls-3" d="m112.32,103.68l4.14,5.69,7.03-.19-4.13,5.7,2.35,6.63-6.69-2.17-5.58,4.28v-7.04s-5.81-3.98-5.81-3.98l6.69-2.18,2-6.75Z"/>
  </g>
  <g id="shbackground">
    <path id="shipbackground" class="cls-4" d="m63.85,10.8c31.88,0,57.73,25.06,57.73,55.96s-25.85,55.96-57.73,55.96S6.12,97.67,6.12,66.76,31.97,10.8,63.85,10.8Z"/>
  </g>
  <g id="Layer_6" data-name="Layer 6">
    <path id="shiptext" class="cls-1" d="m17.98,24.89l.03.02c.16.17.24.36.27.57h0c.09.54-.2,1.53-.43,2.05-.19.37-.42.74-.69,1.09-.21.26-.44.5-.73.73h0c-.42.29-.88.6-1.31.53-.09,0-.16,0-.27-.03l.02-.37c.51-.15.99-.55,1.32-.93.4-.46.79-1.07,1.05-1.64.11-.2.14-.61.17-.92l-.02.02c.04-.11-.02-.21-.09-.29-.11-.12-.29-.14-.43-.11-.52.14-1.2.65-1.8,1.14l-.15.13c-.27.23-.54.43-.83.61-.26.16-.91.51-1.19.51l.05.02h-.04s-.09-.04-.09-.04c-.13,0-.26-.02-.31-.05-.21-.09-.36-.27-.47-.45-.36-.55-.41-1.41-.31-2.08.04-.35.19-.92.47-1.27.12-.15.3-.28.47-.38l.11-.14c.24-.13.44-.08.6-.03.07.03.13.05.23.04.33.16.32.45.29.72-.01.05-.01.1.02.34l-.29.03c-.07-.05-.14-.08-.2-.13,0-.05-.07-.09-.14-.14-.17.05-.31.12-.35.26l-.05.13c-.09.22-.23.55-.26.81-.03.36,0,.8.1,1.06l.15.35c.21.04.44-.05.58-.15.06-.04.15-.09.21-.14.26-.16.5-.32.75-.54.61-.56,1.75-1.36,2.54-1.51.31-.03.7.02,1.02.2Zm4.82-2.69l.02.07-.03-.03-.07.16c-.31.27-.74-.03-.9-.18l-.04-.04c-.12-.1-.25-.24-.38-.39h0c-.08-.08-.15-.15-.24-.24-.4-.39-.75-.68-1.27-.94-.27-.27-.84-.38-1.07-.14-.63.64-1.29,1.8-.46,2.6.16.16.27.23.37.28.15.07.27.17.41.3.09.09.21.18.33.26.14.08.26.17.4.31.09.09.18.19.2.36.04.12-.02.21-.09.28-.08.09-.23.16-.34.21-.35-.02-1.31-.81-2.05-1.4l-.3-.24c-.21-.18-.39-.32-.53-.38h0c-.53-.34-1.52-1.13-1.99-1.59-.06-.06-.15-.08-.24-.12-.06,0-.12-.03-.2-.07-.18-.14-.27-.68-.09-.87.29-.29.57-.13.76.03l.1.1s.09.08.14.12c.52.48,1.27,1.16,1.94,1.57-.02-1.11.54-1.8,1.13-2.41.97-.99,2.41.06,3.1.73.16.16.38.33.57.49.03.03.1.08.15.11.16.13.32.24.48.4l.03.03c.21.2.39.38.16.64Zm-2.71-5.45c-.07.06-.13.13-.23.22-.17.12-.45.11-.61-.07-.2-.22-.14-.52.1-.73.17-.15.52-.25.76-.05v.05s.08.06.09.07c.03.02.07.05.09.06v.03c.03.09-.03.24-.21.41Zm4.19,3.81c-.14.13-.43.25-.66.14-.16-.1-.45-.31-.6-.44-.16-.15-.36-.35-.56-.56-.38-.37-.83-.82-1.23-1.06l-.3-.21c-.06-.06-.1-.12-.13-.19l-.05-.08c-.18-.21-.1-.42.07-.57.16-.14.43-.2.58-.07.08.07.18.16.26.22l.23.18c.66.52,1.67,1.36,1.78,1.52.06.09.17.17.28.25.13.08.23.15.32.25.11.13.25.44.03.63Zm3.79-3.74c-.08.66-.51,1.22-1.09,1.67-.39.3-.89.44-1.24.54l.76.85v-.02s.93,1.04.93,1.04l.33.35c.16.17.35.37.49.56.13.16.36.48.07.83-.1,0-.16,0-.19.03-.15.06-.3.12-.44-.02-.21-.2-.56-.61-.8-.88l-.24-.31c-.22-.26-.47-.57-.7-.78-.31-.3-.6-.63-.86-.94-.04-.06-.09-.1-.13-.14-.09-.11-.21-.25-.33-.38-.25,0-.37-.05-.49-.1l.03.02-.06-.03-.12-.06c-.09-.04-.15-.08-.29-.11-.06-.08-.08-.18-.04-.29l.02-.05c.08-.06.21-.1.36-.13l-.61-.68c-.26-.28-.55-.62-.75-.86-.14-.18-.28-.66,0-.87.1-.08.27-.1.4-.09.11-.54.57-1.15.85-1.37.38-.29.81-.43,1.24-.46s.84.02,1.19.14c.35.16,1.03.7,1.22.94.43.58.56,1.11.5,1.62Zm-2.78-1.92c-.34,0-.68.13-.97.36-.57.44-.47.97-.31,1.54.13.13.34.42.51.66.15.22.27.38.4.56.11.14.23.29.35.4l.2-.08.22-.08c.35-.1.75-.28,1-.47.36-.28.56-.69.57-1.08,0-.38-.17-.81-.5-1.16-.42-.45-.96-.67-1.47-.64Z"/>
  </g>
  <g id="shborder">
    <path class="cls-5" d="m126.39,65.37c-.24-.86-.85-1.58-1.67-1.94-.38-.17-9.46-4.18-16.79-5.23l-11.38-1.63-8.54-13.05c-.55-.85-1.5-1.36-2.51-1.36h-9.02l-5.22-12.18c-.47-1.1-1.56-1.82-2.76-1.82h-2v-11c0-1.66-1.34-3-3-3s-3,1.34-3,3v11h-2.99v-6c-.01-1.66-1.35-3-3.01-3h0c-1.66,0-3,1.35-3,3v6s-3,0-3,0c-1.27,0-2.4.8-2.83,1.99l-4.29,12.01h-5.89c-1.06,0-2.05.56-2.59,1.48l-5.59,9.52h-6.82c-.79,0-1.56.32-2.12.88l-10,10c-.79.79-1.08,1.96-.74,3.03l6.98,21.94,3.99,13.98c.27.95,1,1.71,1.94,2.02.75.25,18.72,6.15,40.95,6.15,23.41,0,36.71-6.02,37.26-6.28.46-.21.85-.53,1.15-.93l26-35c.5-.68.68-1.5.55-2.28.08-.43.06-.88-.06-1.32Zm-104.65-6.2h2.05l-4.88,8.32c-.84,1.43-.36,3.27,1.07,4.11.48.28,1,.41,1.52.41,1.03,0,2.03-.53,2.59-1.48l6.67-11.35h9.74c1.66,0,3-1.34,3-3s-1.34-3-3-3h-6.22l2.94-5h5.28c.16,0,.32-.02.48-.05.17.03.35.05.52.05,1.23,0,2.39-.77,2.83-1.99l4.29-12.01h3.89s0,0,0,0h0s0,0,0,0h8.96s0,0,0,0,0,0,0,0h3.01l5.22,12.18c.56,1.3,1.92,2,3.26,1.77.16.03.33.05.5.05h8.38l4.76,7.27-1.71-.24c-1.65-.23-3.16.91-3.39,2.55-.23,1.64.9,3.16,2.54,3.39l6.94.99,6.14,9.38c.58.88,1.53,1.36,2.51,1.36.56,0,1.13-.16,1.64-.49,1.39-.91,1.77-2.77.87-4.15l-3.25-4.97,6.15.88c3.95.56,8.68,2.19,11.8,3.39l-10.29,14.62-88.85,2.95-5.32-18.61,7.32-7.32Zm73.84,40.56c-2.85,1.15-14.83,5.44-34.08,5.44-17.67,0-32.87-4.02-37.56-5.39l-2.5-8.74,82.63-2.74-8.49,11.43Z"/>
  </g>
  <g id="shfill">
    <path class="cls-2" d="m123.5,67.17l-26,35s-13,5-36,6c-16.98.74-40-4-40-4l-10-37s.83,1.85,10.59,3.58l13.41-25.58h8l5-14h20l6,14h11l15.17,26.7H30.08c7.19.8,17.14,1.45,30.92,1.69,47,.83,62.5-6.4,62.5-6.4Zm-86,30c-4.96,0-9-4.04-9-9s4.04-9,9-9,9,4.04,9,9-4.04,9-9,9Zm0-14c-2.76,0-5,2.24-5,5s2.24,5,5,5,5-2.24,5-5-2.24-5-5-5Zm24,16c-4.96,0-9-4.04-9-9s4.04-9,9-9,9,4.04,9,9-4.04,9-9,9Zm0-14c-2.76,0-5,2.24-5,5s2.24,5,5,5,5-2.24,5-5-2.24-5-5-5Zm24,12c-4.96,0-9-4.04-9-9s4.04-9,9-9,9,4.04,9,9-4.04,9-9,9Zm0-14c-2.76,0-5,2.24-5,5s2.24,5,5,5,5-2.24,5-5-2.24-5-5-5Z"/>
  </g>
</svg>