<?xml version="1.0" encoding="UTF-8"?>
<svg xmlns="http://www.w3.org/2000/svg" viewBox="0 0 128 128">
  <defs>
    <style>
      .cls-1 {
        fill: #ffbab0;
      }

      .cls-2 {
        fill: #ba5020;
      }

      .cls-3 {
        fill: #783741;
      }

      .cls-4 {
        fill: none;
      }

      .cls-5 {
        fill: #b8cbcd;
      }
    </style>
  </defs>
  <g id="tstar">
    <path id="tentstar" class="cls-4" d="m122.04,120.6l-7.12-1.46-5.24,5.04-.81-7.22-6.41-3.43,6.62-3,1.28-7.16,4.9,5.37,7.2-.99-3.59,6.32,3.17,6.54Z"/>
  </g>
  <g id="tbackground">
    <path id="tentbackground" class="cls-5" d="m63.96,3.48c33.53,0,60.72,26.11,60.72,58.32s-27.19,58.32-60.72,58.32S3.24,94.01,3.24,61.8,30.43,3.48,63.96,3.48Z"/>
  </g>
  <g id="ttext">
    <path id="tenttext" class="cls-2" d="m10.65,19.52l-.4.51c-.1.13-.21.29-.29.43-.09.13-.27.41-.37.53-.14.16-.3.37-.39.58.12.08.22.14.26.19.21.16.66.46.92.64l.29.19c.2.13.39.26.51.35.07.05.12.11.19.16l.21.16c.11.1.26.22.38.31.31.24.65.46,1.4.76.09.07.1.17.1.41h0c-.01.18-.1.38-.31.49-.41.18-1.03-.25-1.48-.58-.1-.08-.21-.16-.28-.2-.1-.06-.25-.18-.35-.26-.15-.12-.32-.25-.48-.39-.32-.25-.98-.7-1.4-.98l-.56-.37-.11.14c-.14.18-.3.42-.44.65l.03.27c-.05.25-.57.7-.55.62-.05.05-.11.07-.2.08-.12.03-.24-.02-.36-.11-.18-.14-.31-.36-.32-.57v.02c0-.12.04-.24.12-.35.07-.09.17-.17.3-.23.39-.7.85-1.39,1.37-2.05.52-.67,1.12-1.35,1.87-2.01.07.03.12.02.15,0,.15-.08.31-.15.4-.08.05.04.1.12.12.28l-.25.29c-.06.02-.07.05-.1.11Zm7.13-.56v.26c-.01.59-.18,1.07-.6,1.52-.77.82-2.31,1.34-3.56.45-.22.14-.43.29-.68.06-.26-.25-.17-.47-.06-.66-.82-1.11-.55-2.62.41-3.65.53-.56,1.72-1.27,2.52-.52.88.83-.1,2.46-.7,3.16-.07.07-.15.17-.21.26-.07.08-.12.15-.17.2-.1.12-.29.34-.38.45.68.34,1.68.31,2.26-.3.19-.2.39-.77.36-1.14.1-.19.11-.47.1-.71,0-.28.01-.63.19-.91h.31c.27.41.23,1.03.21,1.52Zm-2.54-1.66c-.58-.4-.99-.32-1.27-.02-.69.74-.81,2.08-.41,2.59l.16-.17s.09-.08.14-.13l.37-.39c.33-.35,1.1-1.35,1.01-1.88Zm7.47-2.17c.13.17.02.44-.1.55-.13.11-.19.11-.3.11-.03,0-.07.01-.14.06-.17-.1-.16-.11-.19-.15-.09-.1-.11-.18-.13-.27,0,0,0,0,0-.03h0c-.02-.07-.02-.14-.18-.22v-.15s-.09-.1-.09-.1c-.4-.46-.9-.77-1.41-1.11-.21-.09-1.21-.69-1.96-.03-.7.62-.65,1.31-.02,2.03.25.29.68.57,1.02.78l.21.13c.02.09.06.14.1.19s.1.09.15.14c.06.05.13.11.19.18.18.21.12.48-.1.68-.13.11-.26.14-.39.12-.04,0-.09-.01-.14,0-.25-.07-.45-.2-.6-.38-.08-.09-.16-.16-.25-.25-.06-.05-.11-.11-.16-.16-.14-.15-.3-.31-.4-.42-.13-.15-.41-.41-.57-.49l-.64-.51c-.17-.07-.36-.15-.46-.27-.08-.09-.1-.19-.11-.34.08-.11.13-.18.17-.21.2-.17.4-.18.57-.12.01-.59.29-1.12.63-1.52.11-.15.24-.27.37-.39,1.15-1.01,2.26-.32,3.15.27l.32.2.15.09c.28.15.55.38.78.63l.31.37c.12.17.22.35.24.59Zm-.89.22v.03s.02,0,0-.03Zm2.34-5.8l-.13-.13c-.09.1-.59.78-.61.81-.18.28-.28.41-.51.69.08.11.14.17.18.2.03.04.05.05.08.09.31.35.73.85,1.06,1.11.38.29.77.53.94.41.06-.04.12-.38.12-.79.17.09.36.18.39.23.06.08.06.51.05.65l-.22.35c-.06.09-.11.17-.26.28-.39.29-1.04,0-1.61-.4-.55-.42-1.2-1.1-1.49-1.4-.14.11-.16.15-.19.19-.07.13-.2.27-.35.38-.03.02-.08.07-.11.13-.13.15-.27.29-.46.21l-.43-.13c.05-.41.4-.97.76-1.28l.15-.12c-.38-.39-.71-.8-1.01-1.2-.27-.37-.49-.73-.58-.91.06-.08.13-.61.12-.45.27-.16.63-.18,1.15.2.17.23.11.25.18.38l.9,1.19.29-.29c.27-.26.61-.57.82-.73.17-.13.37-.25.54-.3l.21.07c.05.08.08.31.02.59Z"/>
  </g>
  <g id="tfill">
    <path id="tentfill" class="cls-1" d="m65,8.5h-5.11c-2.56,0-5.96,5.11-11.07,5.11s-6.81-2.56-6.81-2.56v14.48s1.7,1.7,6.81,1.7,10.22-5.11,11.93-5.11h4.26v-13.63h0Zm20.59,101.03H9L45.52,44.5m-20.52,64l20.83-41,23.17,41H25Zm20.52-64l40.48-14,36,60-36.41,19.03"/>
  </g>
  <g id="tborder">
    <path id="tentborder" class="cls-3" d="m124.57,88.96l-36-60c-.73-1.22-2.21-1.76-3.55-1.29l-17.02,5.89V8.5c0-1.66-1.34-3-3-3h-5.11c-2.03,0-3.69,1.2-5.44,2.48-1.78,1.29-3.62,2.63-5.63,2.63-2.92,0-4.11-1.03-4.35-1.28-.66-1.17-1.95-1.64-3.26-1.31-1.34.33-2.2,1.66-2.2,3.04v14.48c0,.8.32,1.56.88,2.12.61.6,3.04,2.58,8.93,2.58,4.11,0,7.78-2.33,10.46-4.02.6-.38,1.4-.89,1.81-1.09h.92v10.5l-17.46,6.04c-.05.02-.09.05-.14.07-.11.05-.22.09-.33.15-.07.04-.14.09-.21.13-.09.06-.18.12-.27.2-.07.06-.13.12-.2.18-.07.07-.14.15-.21.23-.06.08-.12.16-.17.24-.04.06-.08.1-.11.16L6.39,108.06c-.52.93-.51,2.06.03,2.98.54.92,1.52,1.48,2.59,1.48h76.58s0,0,0,0c.02,0,.05,0,.07,0,.2,0,.4-.03.59-.07.06-.01.13-.04.19-.06.15-.05.3-.1.45-.17.03-.02.07-.02.1-.04l36.41-19.03c.73-.38,1.27-1.05,1.5-1.85.22-.8.11-1.65-.32-2.36ZM60.74,19.13c-1.49,0-2.83.85-4.68,2.02-2.06,1.3-4.88,3.09-7.25,3.09-1.83,0-3.05-.25-3.81-.5h0v-7.59c1.08.28,2.35.46,3.81.46,3.97,0,6.97-2.19,9.16-3.78.69-.5,1.62-1.18,2.03-1.33h1.99v7.63h-1.26ZM28.26,106.5l17.66-34.77,19.65,34.77H28.26Zm56.59.03h-14.67l-22.61-40.01c-.36-.64-1.05-1.05-1.79-1.02-.74.02-1.41.44-1.74,1.09l-20.28,39.93h-9.63l33.46-59.56,14.46-5c.22,1.44,1.45,2.54,2.95,2.54,1.66,0,3-1.34,3-3v-1.6l16.68-5.77,33.11,55.18-32.94,17.21Z"/>
  </g>
</svg>