<?xml version="1.0" encoding="utf-8"?>
<!-- Generator: Adobe Illustrator 17.0.0, SVG Export Plug-In . SVG Version: 6.00 Build 0)  -->
<!DOCTYPE svg PUBLIC "-//W3C//DTD SVG 1.1//EN" "http://www.w3.org/Graphics/SVG/1.1/DTD/svg11.dtd">
<svg version="1.1" id="icon" xmlns="http://www.w3.org/2000/svg" xmlns:xlink="http://www.w3.org/1999/xlink" x="0px" y="0px"
	 width="128px" height="128px" viewBox="0 0 128 128" enable-background="new 0 0 128 128" xml:space="preserve">
<ellipse fill="#B8CBCD" cx="51.167" cy="96.98" rx="47.667" ry="11.813"/>
<path fill="#F7BB83" d="M82.689,52.41L55.99,8.167l-46.49,74c0,7.658,20.814,18.389,46.49,18.389"/>
<path fill="#F7BB83" d="M122.5,96.254l-0.012-0.02c0-0.023,0.005-0.044,0.005-0.066h-0.044L88.01,43.816l-34.44,59.652h-0.05
	c0,0.025,0.006,0.05,0.007,0.075l-0.007,0.012h0.008c0.163,5.638,16.024,10,34.973,10s33.834-11.664,33.986-17.302H122.5z"/>
<polygon fill="#FFFFFF" points="78.154,44.555 55.99,8.167 33.827,44.555 44.5,64.167 57.5,38.167 68.5,52.555 "/>
<path fill="#6E4123" d="M44.5,66.167c-0.732,0-1.406-0.399-1.757-1.044L32.07,45.511c-0.341-0.627-0.322-1.388,0.049-1.996
	L54.282,7.127c0.363-0.597,1.01-0.96,1.708-0.96c0.698,0,1.345,0.363,1.708,0.96l22.164,36.389c0.517,0.848,0.332,1.946-0.432,2.58
	l-9.654,8c-0.418,0.347-0.963,0.512-1.501,0.447c-0.541-0.062-1.033-0.341-1.363-0.772l-9.055-11.845L46.289,65.061
	c-0.333,0.666-1.009,1.092-1.754,1.105C44.523,66.167,44.511,66.167,44.5,66.167z M36.134,44.612l8.291,15.232l11.286-22.572
	c0.309-0.617,0.914-1.031,1.6-1.097c0.685-0.068,1.358,0.228,1.778,0.776l9.737,12.736l6.721-5.569L55.99,12.011L36.134,44.612z"/>
<path fill="#6E4123" d="M54.99,102.555c-26.307,0-47.49-11.153-47.49-20.389c0-0.376,0.106-0.745,0.307-1.063l46.49-74
	c0.369-0.588,1.038-0.927,1.711-0.937c0.694,0.006,1.336,0.372,1.695,0.967l26.441,43.798c0.571,0.945,0.267,2.175-0.679,2.745
	c-0.945,0.571-2.175,0.267-2.746-0.679L55.956,11.98L11.544,82.673c0.989,5.85,18.622,15.883,43.446,15.883c1.104,0,2,0.896,2,2
	S56.095,102.555,54.99,102.555z"/>
<polygon fill="#FFFFFF" points="106.334,75.555 88.01,43.816 69.685,75.555 77.5,81.555 84.5,69.167 99.5,89.167 "/>
<path fill="#6E4123" d="M99.499,91.167c-0.625,0-1.22-0.294-1.6-0.8L84.736,72.815l-5.495,9.724
	c-0.285,0.505-0.774,0.86-1.342,0.977c-0.568,0.113-1.158-0.021-1.617-0.374l-7.815-6c-0.796-0.61-1.016-1.717-0.514-2.586
	l18.325-31.739c0.357-0.619,1.018-1,1.732-1c0.714,0,1.375,0.381,1.732,1l18.324,31.739c0.336,0.583,0.357,1.296,0.056,1.897
	l-6.834,13.611c-0.311,0.619-0.92,1.033-1.61,1.095C99.618,91.164,99.559,91.167,99.499,91.167z M84.5,67.167
	c0.627,0,1.221,0.295,1.6,0.8l13.062,17.416l4.901-9.761L88.01,47.816L72.294,75.037l4.598,3.53l5.867-10.384
	c0.332-0.588,0.938-0.969,1.612-1.013C84.414,67.168,84.457,67.167,84.5,67.167z"/>
<path fill="#6E4123" d="M88.5,115.555c-18.057,0-36.452-4.038-36.963-11.757c-0.011-0.084-0.016-0.168-0.016-0.252
	c-0.002-0.028-0.002-0.055-0.002-0.078c0-0.515,0.194-0.983,0.513-1.338l34.246-59.315c0.347-0.601,0.98-0.979,1.674-0.999
	c0.717-0.021,1.348,0.321,1.729,0.899l34.29,52.123c0.323,0.354,0.523,0.818,0.523,1.327c0,0.027-0.001,0.06-0.003,0.093
	c-0.001,0.072-0.005,0.144-0.013,0.215C124.038,103.909,107.591,115.555,88.5,115.555z M55.61,103.933
	c1.142,3.255,13.77,7.622,32.89,7.622c18.054,0,30.808-10.605,31.91-14.85l-32.29-49.082L55.61,103.933z"/>
<path fill="#6E4123" d="M88.5,116.555c-13.855,0-37.305-2.677-37.96-12.674c-0.012-0.104-0.018-0.209-0.019-0.313
	c-0.001-0.027-0.002-0.055-0.002-0.08c-10.851-0.413-21.265-2.705-29.638-6.554C11.742,92.733,6.5,87.35,6.5,82.167
	c0-0.564,0.159-1.118,0.46-1.596l46.49-74c0.563-0.898,1.576-1.459,2.617-1.403c1.059,0.027,2.025,0.61,2.542,1.535l22.94,41.045
	l4.012-5.665c0.572-0.81,1.507-1.3,2.5-1.267c0.991,0.018,1.91,0.523,2.455,1.352l34.251,52.063
	c0.452,0.522,0.727,1.197,0.727,1.936c0,0.037-0.001,0.078-0.003,0.119c-0.001,0.093-0.006,0.185-0.016,0.276
	C124.954,104.549,108.424,116.555,88.5,116.555z M56.567,103.678c0.759,2.168,11.965,6.877,31.933,6.877
	c16.817,0,29.301-9.624,30.83-13.673L87.918,49.135l-4.22,5.959c-0.595,0.841-1.588,1.312-2.608,1.263
	c-1.028-0.056-1.956-0.634-2.459-1.532L55.839,14.046l-43.236,68.82c1.393,4.962,16.767,14.651,41.339,14.689
	c0.86,0.001,1.679,0.372,2.247,1.018c0.568,0.646,0.832,1.505,0.725,2.358L56.567,103.678z"/>
<polyline fill="#F6E89A" points="87.5,43.555 87.5,19.555 107.5,29.055 87.5,35.555 "/>
<path fill="#6E4123" d="M87.5,46.555c-1.657,0-3-1.343-3-3v-7.932c-0.001-0.046-0.001-0.092,0-0.139v-15.93
	c0-1.029,0.527-1.986,1.397-2.536c0.871-0.55,1.961-0.615,2.89-0.174l20,9.5c1.11,0.527,1.786,1.678,1.707,2.903
	c-0.079,1.227-0.898,2.28-2.067,2.66L90.5,37.735v5.82C90.5,45.213,89.157,46.555,87.5,46.555z M90.5,24.301v7.124l8.905-2.894
	L90.5,24.301z"/>
<rect x="48.5" y="107.427" fill="#F7BB83" width="8" height="15.739"/>
<path fill="#6E4123" d="M56.5,125.167h-8c-1.105,0-2-0.896-2-2v-15.739c0-1.104,0.895-2,2-2h8c1.104,0,2,0.896,2,2v15.739
	C58.5,124.271,57.604,125.167,56.5,125.167z M50.5,121.167h4v-11.739h-4V121.167z"/>
<path fill="#B2EDA6" d="M70.612,107.096l-0.005-0.01c0-0.011,0.002-0.022,0.002-0.033h-0.021L53.556,81.167l-17.032,25.887H36.5
	c0,0.013,0.003,0.025,0.003,0.038l-0.003,0.005h0.004c0.081,2.788,7.924,8.556,17.294,8.556c9.37,0,16.731-5.768,16.807-8.556
	H70.612z"/>
<path fill="#3C663E" d="M53.798,117.652c-9.485,0-18.933-5.867-19.285-10.335c-0.008-0.066-0.012-0.134-0.013-0.201
	c-0.001-0.021-0.001-0.043-0.001-0.063c0-0.509,0.19-0.974,0.503-1.326l16.882-25.66c0.37-0.562,0.998-0.9,1.671-0.9
	c0.673,0,1.301,0.339,1.671,0.9l16.921,25.72c0.288,0.345,0.461,0.786,0.461,1.267c0,0.022,0,0.046-0.001,0.07
	c-0.001,0.063-0.005,0.127-0.012,0.189C72.272,111.462,63.89,117.652,53.798,117.652z M38.667,107.434
	c1.117,1.91,7.388,6.218,15.131,6.218c8.048,0,13.62-4.4,14.645-6.219L53.556,84.805L38.667,107.434z"/>
<path fill="#B2EDA6" d="M67.043,90.672l-0.004-0.008c0-0.009,0.002-0.017,0.002-0.026h-0.017L53.556,70.167L40.088,90.637h-0.02
	c0,0.01,0.002,0.02,0.002,0.029l-0.002,0.005h0.003c0.063,2.205,6.266,6.766,13.676,6.766c7.41,0,13.231-4.561,13.29-6.766H67.043z"
	/>
<path fill="#3C663E" d="M53.748,99.437c-7.834,0-15.354-4.77-15.666-8.549c-0.007-0.066-0.011-0.134-0.012-0.202
	c0-0.017,0-0.033,0-0.049c0-0.498,0.182-0.953,0.483-1.304l13.333-20.267c0.37-0.562,0.998-0.9,1.671-0.9l0,0
	c0.673,0,1.301,0.339,1.671,0.9l13.368,20.32c0.278,0.342,0.446,0.777,0.446,1.25c0,0.021,0,0.042-0.001,0.064
	c-0.001,0.055-0.004,0.109-0.01,0.164C68.758,94.683,61.618,99.437,53.748,99.437z M42.3,90.916
	c1.124,1.479,5.663,4.521,11.448,4.521c5.685,0,10.037-3.031,11.08-4.498L53.556,73.805L42.3,90.916z"/>
<path fill="#3C663E" d="M53.798,119.167c-10.11,0-19.818-6.246-20.278-11.216c-0.011-0.099-0.018-0.198-0.019-0.298
	c-0.001-0.029-0.001-0.058-0.001-0.085c0-0.735,0.264-1.408,0.703-1.93l6.086-9.251c-1.546-1.239-3.054-2.936-3.206-4.91
	c-0.009-0.086-0.013-0.172-0.014-0.259c0-0.022-0.001-0.045-0.001-0.066c0-0.722,0.255-1.384,0.68-1.901L51.05,69.033
	c0.555-0.844,1.497-1.352,2.506-1.352l0,0c1.01,0,1.952,0.508,2.506,1.352L69.396,89.3c0.417,0.516,0.667,1.171,0.667,1.886
	c0,0.261-0.033,0.514-0.096,0.754c-0.322,1.809-1.697,3.357-3.105,4.508l6.093,9.262c0.408,0.511,0.653,1.156,0.653,1.858
	c0,0.031,0,0.063-0.001,0.097c-0.002,0.084-0.007,0.168-0.016,0.252C73.191,112.937,63.962,119.167,53.798,119.167z M39.907,107.884
	c1.632,1.843,7.097,5.282,13.891,5.282c6.783,0,11.932-3.391,13.437-5.235l-7.011-10.656c-0.458-0.697-0.606-1.554-0.407-2.364
	c0.199-0.811,0.727-1.502,1.457-1.907c1.114-0.619,1.846-1.214,2.289-1.653L53.556,76.139l-9.979,15.169
	c0.476,0.443,1.233,1.021,2.298,1.604c0.735,0.402,1.269,1.094,1.471,1.906c0.203,0.813,0.056,1.675-0.405,2.374L39.907,107.884z"/>
</svg>
