<?xml version="1.0" encoding="utf-8"?>
<!-- Generator: Adobe Illustrator 17.0.0, SVG Export Plug-In . SVG Version: 6.00 Build 0)  -->
<!DOCTYPE svg PUBLIC "-//W3C//DTD SVG 1.1//EN" "http://www.w3.org/Graphics/SVG/1.1/DTD/svg11.dtd">
<svg version="1.1" id="icon" xmlns="http://www.w3.org/2000/svg" xmlns:xlink="http://www.w3.org/1999/xlink" x="0px" y="0px"
	 width="128px" height="128px" viewBox="0 0 128 128" enable-background="new 0 0 128 128" xml:space="preserve">
<ellipse fill="#B8CBCD" cx="66.917" cy="113.188" rx="47.667" ry="11.813"/>
<path fill="#FFBAB0" d="M78.63,44.841c18.981-18.981,2.813-30.933,2.813-30.933S69.491-2.261,50.511,16.721
	c-18.981,18.98-12.185,19.684-21.559,29.057C19.578,55.151-1.902,61.946,15.751,79.6C33.404,97.253,40.2,75.772,49.573,66.398
	C58.946,57.025,59.649,63.821,78.63,44.841z"/>
<path fill="#783741" d="M28.135,89.351L28.135,89.351c-4.627,0-9.371-2.496-14.505-7.63C8.135,76.226,5.651,71.16,6.038,66.233
	c0.576-7.345,7.189-12.155,13.585-16.806c2.71-1.971,5.27-3.833,7.208-5.771c3.493-3.494,4.416-5.474,5.693-8.215
	c1.935-4.152,4.343-9.32,15.865-20.842C55.099,7.89,61.844,4.488,68.437,4.488c8.574,0,13.892,5.77,15.141,7.286
	c1.431,1.18,6.654,5.989,7.232,13.744c0.525,7.03-2.86,14.245-10.059,21.444c-11.522,11.521-16.69,13.93-20.842,15.864
	c-2.74,1.277-4.721,2.2-8.215,5.693c-1.938,1.938-3.799,4.498-5.77,7.208C41.28,82.113,36.016,89.351,28.135,89.351z M68.437,10.488
	c-4.944,0-10.263,2.811-15.806,8.354C41.858,29.615,39.698,34.251,37.963,37.976c-1.361,2.921-2.646,5.681-6.89,9.923
	c-2.271,2.271-5.143,4.36-7.921,6.381c-5.296,3.852-10.772,7.835-11.133,12.423c-0.237,3.029,1.732,6.655,5.853,10.776
	c3.896,3.896,7.35,5.872,10.263,5.872c4.826,0,8.949-5.669,12.938-11.153c2.019-2.777,4.109-5.65,6.38-7.921
	c4.242-4.243,7.002-5.529,9.923-6.89c3.726-1.735,8.361-3.896,19.134-14.668c5.88-5.88,8.681-11.493,8.324-16.682
	c-0.416-6.047-5.14-9.691-5.188-9.727c-0.228-0.173-0.445-0.389-0.615-0.619C78.879,15.492,75.013,10.488,68.437,10.488z"/>
<path opacity="0.2" fill="#783741" d="M25.292,86.522c-4.615,0-9.367-2.505-14.492-7.631c-1.172-1.171-1.172-3.071,0-4.242
	c1.172-1.172,3.07-1.172,4.242,0c4.122,4.122,7.739,6.097,10.776,5.852c4.589-0.36,8.571-5.836,12.424-11.133
	c2.021-2.777,4.109-5.65,6.38-7.92c4.242-4.243,7.002-5.529,9.923-6.89c3.726-1.735,8.361-3.896,19.134-14.668
	c5.908-5.909,8.707-11.546,8.318-16.756c-0.447-5.995-5.121-9.608-5.168-9.643c-1.332-0.985-1.614-2.863-0.629-4.196
	c0.984-1.333,2.863-1.614,4.195-0.629c0.282,0.209,6.929,5.217,7.585,14.022c0.524,7.03-2.86,14.245-10.06,21.444
	c-11.521,11.521-16.689,13.93-20.842,15.864c-2.74,1.277-4.721,2.2-8.215,5.693c-1.938,1.938-3.799,4.498-5.77,7.208
	c-4.652,6.396-9.462,13.009-16.808,13.585C25.956,86.509,25.624,86.522,25.292,86.522z"/>
<path fill="#783741" d="M34.121,41c-0.465,0-0.931-0.161-1.31-0.489c-0.834-0.724-0.924-1.987-0.2-2.821
	c15.866-18.293,32.841-9.987,33.011-9.901c0.985,0.499,1.379,1.703,0.88,2.688c-0.5,0.982-1.698,1.379-2.684,0.881
	c-0.61-0.304-14.444-6.891-28.186,8.952C35.237,40.767,34.681,41,34.121,41z"/>
<path fill="#783741" d="M56.091,62.979c-0.559,0-1.116-0.233-1.512-0.689c-0.724-0.834-0.634-2.098,0.2-2.821
	c15.952-13.837,8.766-28.306,8.69-28.45c-0.506-0.982-0.119-2.188,0.862-2.694c0.983-0.507,2.188-0.12,2.694,0.862
	C67.115,29.359,75.7,46.618,57.4,62.49C57.021,62.818,56.555,62.979,56.091,62.979z"/>
<path fill="#783741" d="M65.248,32.103c-0.512,0-1.023-0.195-1.414-0.586c-0.781-0.781-0.781-2.047,0-2.828l8.485-8.485
	c0.781-0.781,2.047-0.781,2.828,0c0.781,0.781,0.781,2.047,0,2.828l-8.485,8.485C66.271,31.907,65.76,32.103,65.248,32.103z"/>
<path fill="#FFBAB0" d="M113.454,79.665c18.981-18.981,2.813-30.933,2.813-30.933s-11.951-16.169-30.932,2.813
	C66.353,70.526,73.149,71.229,63.776,80.602c-9.374,9.374-30.854,16.169-13.201,33.822s24.449-3.827,33.822-13.201
	C93.77,91.85,94.474,98.646,113.454,79.665z"/>
<path fill="#783741" d="M62.959,124.175L62.959,124.175c-4.627,0-9.371-2.496-14.505-7.63c-5.495-5.495-7.979-10.561-7.592-15.487
	c0.576-7.345,7.19-12.155,13.585-16.806c2.71-1.971,5.27-3.833,7.208-5.771c3.493-3.494,4.416-5.474,5.693-8.215
	c1.935-4.152,4.343-9.32,15.865-20.842c6.709-6.709,13.454-10.111,20.048-10.111c8.574,0,13.892,5.77,15.141,7.286
	c1.431,1.18,6.654,5.989,7.232,13.744c0.524,7.03-2.86,14.245-10.06,21.444c-11.521,11.521-16.689,13.93-20.842,15.864
	c-2.74,1.277-4.721,2.2-8.215,5.693c-1.938,1.938-3.799,4.498-5.77,7.208C76.104,116.938,70.84,124.175,62.959,124.175z
	 M103.262,45.313c-4.944,0-10.263,2.811-15.806,8.354C76.683,64.44,74.522,69.076,72.787,72.8c-1.361,2.921-2.646,5.681-6.89,9.923
	c-2.27,2.271-5.144,4.36-7.921,6.381c-5.296,3.852-10.772,7.835-11.133,12.423c-0.237,3.029,1.731,6.655,5.852,10.776
	c3.896,3.896,7.35,5.872,10.263,5.872c4.826,0,8.949-5.669,12.937-11.153c2.02-2.777,4.109-5.65,6.38-7.92
	c4.242-4.243,7.002-5.529,9.923-6.89c3.726-1.735,8.361-3.896,19.134-14.668c5.88-5.88,8.681-11.493,8.324-16.682
	c-0.416-6.047-5.14-9.691-5.188-9.727c-0.229-0.173-0.445-0.389-0.615-0.619C113.703,50.317,109.837,45.313,103.262,45.313z"/>
<path opacity="0.2" fill="#783741" d="M60.116,121.347c-4.615,0-9.367-2.505-14.492-7.631c-1.172-1.171-1.172-3.071,0-4.242
	c1.172-1.172,3.07-1.172,4.242,0c4.122,4.122,7.742,6.1,10.776,5.852c4.589-0.36,8.571-5.836,12.424-11.133
	c2.021-2.777,4.109-5.65,6.38-7.92c4.242-4.243,7.002-5.529,9.923-6.89c3.726-1.735,8.361-3.896,19.134-14.668
	c5.908-5.909,8.707-11.546,8.318-16.756c-0.447-5.995-5.121-9.608-5.168-9.643c-1.332-0.985-1.614-2.863-0.629-4.196
	c0.984-1.333,2.864-1.614,4.195-0.629c0.282,0.209,6.929,5.217,7.585,14.022c0.524,7.03-2.86,14.245-10.06,21.444
	c-11.521,11.521-16.689,13.93-20.842,15.864c-2.74,1.277-4.721,2.2-8.215,5.693c-1.937,1.938-3.799,4.498-5.77,7.208
	c-4.652,6.396-9.462,13.009-16.808,13.585C60.78,121.334,60.448,121.347,60.116,121.347z"/>
<path fill="#783741" d="M68.945,75.825c-0.465,0-0.931-0.161-1.31-0.489c-0.834-0.724-0.924-1.987-0.2-2.821
	c15.866-18.292,32.841-9.987,33.011-9.901c0.985,0.5,1.379,1.703,0.88,2.689c-0.5,0.982-1.698,1.378-2.684,0.881
	c-0.61-0.303-14.443-6.891-28.186,8.952C70.061,75.591,69.505,75.825,68.945,75.825z"/>
<path fill="#783741" d="M90.915,97.804c-0.56,0-1.116-0.233-1.512-0.689c-0.724-0.834-0.634-2.098,0.2-2.821
	c15.952-13.837,8.766-28.306,8.69-28.45c-0.506-0.982-0.119-2.188,0.862-2.694c0.984-0.506,2.188-0.12,2.694,0.862
	c0.089,0.172,8.674,17.431-9.626,33.304C91.846,97.643,91.379,97.804,90.915,97.804z"/>
<path fill="#783741" d="M100.072,66.927c-0.512,0-1.024-0.195-1.414-0.586c-0.781-0.781-0.781-2.047,0-2.828l8.485-8.485
	c0.781-0.781,2.047-0.781,2.828,0c0.781,0.781,0.781,2.047,0,2.828l-8.485,8.485C101.096,66.732,100.584,66.927,100.072,66.927z"/>
</svg>
