<?xml version="1.0" encoding="utf-8"?>
<!-- Generator: Adobe Illustrator 17.0.0, SVG Export Plug-In . SVG Version: 6.00 Build 0)  -->
<!DOCTYPE svg PUBLIC "-//W3C//DTD SVG 1.1//EN" "http://www.w3.org/Graphics/SVG/1.1/DTD/svg11.dtd">
<svg version="1.1" id="icon" xmlns="http://www.w3.org/2000/svg" xmlns:xlink="http://www.w3.org/1999/xlink" x="0px" y="0px"
	 width="128px" height="128px" viewBox="0 0 128 128" enable-background="new 0 0 128 128" xml:space="preserve">
<ellipse fill="#B8CBCD" cx="61.167" cy="103.353" rx="47.667" ry="11.814"/>
<path fill="#FFFFFF" d="M40.5,56.167h-20l-10,10l7,22l92.684-3.074L123.5,66.167c0,0-9-4-16-5c-12.044-1.721-21-3-21-3"/>
<path fill="#324654" d="M17.499,91.167c-1.302,0-2.46-0.842-2.858-2.091l-7-22c-0.34-1.068-0.056-2.237,0.738-3.03l10-10
	c0.563-0.563,1.326-0.879,2.121-0.879h20c1.657,0,3,1.343,3,3s-1.343,3-3,3H21.743l-7.83,7.83l5.758,18.097l88.92-2.95l10.287-14.62
	c-3.126-1.198-7.857-2.823-11.802-3.387l-21-3c-1.64-0.234-2.78-1.754-2.545-3.394c0.234-1.641,1.748-2.779,3.394-2.546l21,3
	c7.329,1.047,16.411,5.058,16.794,5.229c0.82,0.364,1.434,1.077,1.673,1.941c0.239,0.865,0.079,1.792-0.438,2.526l-13.316,18.926
	c-0.542,0.77-1.414,1.24-2.354,1.271L17.6,91.165C17.566,91.166,17.532,91.167,17.499,91.167z"/>
<path fill="#B9E3ED" d="M123.5,67.167l-26,35c0,0-13,5-36,6c-16.984,0.738-40-4-40-4l-10-37c0,0,2.5,5.563,49.5,6.397
	C108,74.398,123.5,67.167,123.5,67.167z"/>
<polyline fill="#B9E3ED" points="100.667,71.87 85.5,45.167 75.5,45.167 58.5,45.167 42.5,45.167 35.5,45.167 21.5,71.87 "/>
<polygon fill="#324654" points="100.232,72.117 85.209,45.667 35.802,45.667 21.943,72.102 21.057,71.637 35.198,44.667 
	85.791,44.667 101.102,71.623 "/>
<polyline fill="#B9E3ED" points="101.667,69.87 85.5,45.167 75.5,45.167 "/>
<path fill="#324654" d="M101.67,72.87c-0.979,0-1.938-0.478-2.513-1.357L83.878,48.167H75.5c-1.657,0-3-1.343-3-3s1.343-3,3-3h10
	c1.012,0,1.956,0.511,2.51,1.357l16.167,24.703c0.907,1.386,0.519,3.245-0.868,4.152C102.803,72.712,102.233,72.87,101.67,72.87z"/>
<polyline fill="#B9E3ED" points="21.5,69.001 35.5,45.167 42.5,45.167 "/>
<path fill="#324654" d="M21.497,72.001c-0.516,0-1.039-0.133-1.517-0.413c-1.429-0.839-1.906-2.678-1.067-4.106l14-23.834
	c0.539-0.917,1.523-1.48,2.587-1.48h7c1.657,0,3,1.343,3,3s-1.343,3-3,3h-5.283L24.087,70.52
	C23.528,71.471,22.526,72.001,21.497,72.001z"/>
<polyline fill="#B9E3ED" points="43.5,45.167 48.5,31.167 68.5,31.167 74.5,45.167 "/>
<path fill="#324654" d="M43.5,48.168c-0.335,0-0.675-0.057-1.009-0.176c-1.56-0.558-2.373-2.273-1.816-3.834l5-14
	c0.426-1.194,1.557-1.991,2.825-1.991h20c1.2,0,2.285,0.715,2.757,1.818l6,14c0.653,1.522-0.053,3.286-1.576,3.939
	c-1.523,0.653-3.287-0.053-3.939-1.576l-5.221-12.182H50.614l-4.289,12.009C45.887,47.402,44.732,48.168,43.5,48.168z"/>
<line fill="#B9E3ED" x1="54.512" y1="31.167" x2="54.5" y2="22.167"/>
<path fill="#324654" d="M54.512,34.167c-1.655,0-2.998-1.341-3-2.996l-0.012-9c-0.002-1.657,1.339-3.002,2.996-3.004
	c0.001,0,0.002,0,0.004,0c1.655,0,2.998,1.341,3,2.996l0.012,9c0.002,1.657-1.339,3.002-2.996,3.004
	C54.514,34.167,54.513,34.167,54.512,34.167z"/>
<line fill="#B9E3ED" x1="63.5" y1="31.167" x2="63.5" y2="17.167"/>
<path fill="#324654" d="M63.5,34.167c-1.657,0-3-1.343-3-3v-14c0-1.657,1.343-3,3-3c1.657,0,3,1.343,3,3v14
	C66.5,32.824,65.157,34.167,63.5,34.167z"/>
<line fill="#B9E3ED" x1="42.5" y1="46.167" x2="75.5" y2="46.167"/>
<path fill="#324654" d="M75.5,48.167h-33c-1.105,0-2-0.896-2-2s0.895-2,2-2h33c1.104,0,2,0.896,2,2S76.604,48.167,75.5,48.167z"/>
<path fill="#FFFFFF" d="M40.5,67.167v-10c0-2.209,1.791-4,4-4l0,0c2.209,0,4,1.791,4,4v10H40.5z"/>
<path fill="#324654" d="M48.5,69.167h-8c-1.105,0-2-0.896-2-2v-10c0-3.309,2.691-6,6-6c3.309,0,6,2.691,6,6v10
	C50.5,68.271,49.604,69.167,48.5,69.167z M42.5,65.167h4v-8c0-1.103-0.897-2-2-2s-2,0.897-2,2V65.167z"/>
<path fill="#FFFFFF" d="M55.5,67.167v-10c0-2.209,1.791-4,4-4l0,0c2.209,0,4,1.791,4,4v10H55.5z"/>
<path fill="#324654" d="M63.5,69.167h-8c-1.105,0-2-0.896-2-2v-10c0-3.309,2.691-6,6-6c3.309,0,6,2.691,6,6v10
	C65.5,68.271,64.604,69.167,63.5,69.167z M57.5,65.167h4v-8c0-1.103-0.897-2-2-2s-2,0.897-2,2V65.167z"/>
<path fill="#FFFFFF" d="M70.5,67.167v-10c0-2.209,1.791-4,4-4l0,0c2.209,0,4,1.791,4,4v10H70.5z"/>
<path fill="#324654" d="M78.5,69.167h-8c-1.104,0-2-0.896-2-2v-10c0-3.309,2.691-6,6-6c3.309,0,6,2.691,6,6v10
	C80.5,68.271,79.604,69.167,78.5,69.167z M72.5,65.167h4v-8c0-1.103-0.897-2-2-2s-2,0.897-2,2V65.167z"/>
<circle fill="#FFFFFF" cx="37.5" cy="88.167" r="7"/>
<path fill="#324654" d="M37.5,97.167c-4.962,0-9-4.037-9-9c0-4.963,4.038-9,9-9s9,4.037,9,9C46.5,93.13,42.462,97.167,37.5,97.167z
	 M37.5,83.167c-2.757,0-5,2.243-5,5c0,2.757,2.243,5,5,5c2.757,0,5-2.243,5-5C42.5,85.41,40.257,83.167,37.5,83.167z"/>
<circle fill="#FFFFFF" cx="61.5" cy="90.167" r="7"/>
<path fill="#324654" d="M61.5,99.167c-4.962,0-9-4.037-9-9c0-4.963,4.038-9,9-9c4.962,0,9,4.037,9,9
	C70.5,95.13,66.462,99.167,61.5,99.167z M61.5,85.167c-2.757,0-5,2.243-5,5c0,2.757,2.243,5,5,5c2.757,0,5-2.243,5-5
	C66.5,87.41,64.257,85.167,61.5,85.167z"/>
<circle fill="#FFFFFF" cx="85.5" cy="88.167" r="7"/>
<path fill="#324654" d="M85.5,97.167c-4.962,0-9-4.037-9-9c0-4.963,4.038-9,9-9c4.962,0,9,4.037,9,9
	C94.5,93.13,90.462,97.167,85.5,97.167z M85.5,83.167c-2.757,0-5,2.243-5,5c0,2.757,2.243,5,5,5c2.757,0,5-2.243,5-5
	C90.5,85.41,88.257,83.167,85.5,83.167z"/>
<path fill="#324654" d="M57.123,75.573c-10.95,0-21.59-0.709-30.646-2.064C8.659,70.841,8.548,67.614,8.501,66.235
	c-0.038-1.104,0.827-2.029,1.931-2.067c0.955-0.05,1.777,0.61,2.005,1.499c2.391,2.214,23.144,6.791,53.216,5.761
	c36.965-1.262,53.478-4.128,55.931-5.838c0.241-0.798,0.968-1.392,1.847-1.422c1.097-0.062,2.03,0.825,2.067,1.931
	c0.097,2.85-2.938,4.753-19.228,6.642c-10.269,1.191-24.646,2.145-40.481,2.686C62.895,75.524,59.998,75.573,57.123,75.573z"/>
<path fill="#324654" d="M61.5,111.167c-22.231,0-40.195-5.902-40.949-6.154c-0.94-0.313-1.664-1.069-1.936-2.021l-10-35
	c-0.455-1.593,0.467-3.254,2.061-3.709c1.594-0.45,3.254,0.468,3.709,2.061l9.552,33.434c4.691,1.376,19.894,5.391,37.563,5.391
	c19.249,0,31.224-4.296,34.079-5.444l25.513-34.345c0.988-1.329,2.867-1.608,4.197-0.619c1.33,0.988,1.607,2.867,0.619,4.197l-26,35
	c-0.299,0.402-0.694,0.724-1.149,0.934C98.205,105.146,84.912,111.167,61.5,111.167z"/>
</svg>
