<?xml version="1.0" encoding="utf-8"?>
<!-- Generator: Adobe Illustrator 17.0.0, SVG Export Plug-In . SVG Version: 6.00 Build 0)  -->
<!DOCTYPE svg PUBLIC "-//W3C//DTD SVG 1.1//EN" "http://www.w3.org/Graphics/SVG/1.1/DTD/svg11.dtd">
<svg version="1.1" id="icon" xmlns="http://www.w3.org/2000/svg" xmlns:xlink="http://www.w3.org/1999/xlink" x="0px" y="0px"
	 width="128px" height="128px" viewBox="0 0 128 128" enable-background="new 0 0 128 128" xml:space="preserve">
<line fill="#FFBAB0" x1="65" y1="41.5" x2="65" y2="16.797"/>
<path fill="#783741" d="M65,44.5c-1.657,0-3-1.343-3-3V16.797c0-1.657,1.343-3,3-3c1.657,0,3,1.343,3,3V41.5
	C68,43.157,66.657,44.5,65,44.5z"/>
<path fill="#FFBAB0" d="M65,8.5c0,0-3.407,0-5.111,0c-2.556,0-5.963,5.111-11.074,5.111c-5.11,0-6.814-2.556-6.814-2.556v14.481
	c0,0,1.704,1.703,6.814,1.703c5.111,0,10.223-5.11,11.926-5.11c1.704,0,4.26,0,4.26,0V8.5z"/>
<path fill="#783741" d="M48.814,30.24c-5.895,0-8.329-1.976-8.935-2.581C39.316,27.096,39,26.333,39,25.537V11.056
	c0-1.377,0.861-2.705,2.197-3.038c1.313-0.326,2.606,0.142,3.265,1.311c0.244,0.25,1.429,1.283,4.353,1.283
	c2.018,0,3.856-1.338,5.634-2.632C56.2,6.704,57.854,5.5,59.889,5.5H65c1.657,0,3,1.343,3,3v13.63c0,1.657-1.343,3-3,3h-3.92
	c-0.406,0.199-1.203,0.704-1.806,1.086C56.595,27.915,52.926,30.24,48.814,30.24z M45,23.743c0.76,0.246,1.987,0.497,3.814,0.497
	c2.37,0,5.189-1.787,7.247-3.092c1.849-1.172,3.185-2.018,4.679-2.018H62V11.5h-1.989c-0.41,0.15-1.342,0.829-2.031,1.33
	c-2.192,1.596-5.195,3.782-9.165,3.782c-1.468,0-2.732-0.176-3.814-0.455V23.743z"/>
<ellipse fill="#B8CBCD" cx="66.667" cy="108.313" rx="47.667" ry="11.813"/>
<polyline fill="#FFBAB0" points="85.587,109.526 9,109.526 45.523,44.5 "/>
<path fill="#783741" d="M85.587,112.526H9c-1.065,0-2.051-0.565-2.589-1.484c-0.538-0.92-0.548-2.056-0.026-2.984l36.523-65.027
	c0.811-1.445,2.64-1.958,4.085-1.146c1.444,0.812,1.958,2.64,1.146,4.085l-34.013,60.557h71.461c1.657,0,3,1.343,3,3
	C88.587,111.184,87.244,112.526,85.587,112.526z"/>
<polygon fill="#FFFFFF" points="25,108.5 45.826,67.5 69,108.5 "/>
<path fill="#783741" d="M69.02,110.5c-0.007,0-0.013,0-0.02,0H25c-0.695,0-1.341-0.361-1.705-0.954
	c-0.364-0.593-0.394-1.332-0.079-1.951l20.826-41c0.334-0.657,1.002-1.078,1.739-1.094c0.733-0.031,1.423,0.374,1.786,1.015
	l23.048,40.779c0.254,0.335,0.404,0.752,0.404,1.205C71.019,109.604,70.124,110.5,69.02,110.5z M28.259,106.5h37.313L45.92,71.731
	L28.259,106.5z"/>
<polyline fill="#FFBAB0" points="45.523,44.5 86,30.5 122,90.5 85.587,109.526 "/>
<path fill="#783741" d="M85.59,112.527c-1.082,0-2.126-0.587-2.662-1.611c-0.767-1.469-0.198-3.281,1.27-4.049l33.593-17.553
	L84.68,34.131L46.504,47.335c-1.567,0.54-3.274-0.289-3.815-1.854c-0.542-1.565,0.289-3.274,1.855-3.815l40.476-14
	c1.342-0.465,2.824,0.075,3.553,1.291l36,60c0.426,0.709,0.539,1.562,0.315,2.357c-0.224,0.795-0.766,1.463-1.498,1.846
	l-36.413,19.026C86.532,112.417,86.058,112.527,85.59,112.527z"/>
<path opacity="0.2" fill="#783741" d="M83.003,109.501c-1.074,0-2.112-0.578-2.651-1.592c-0.778-1.463-0.224-3.279,1.239-4.058
	l29.211-15.542L79.428,36.044c-0.853-1.42-0.393-3.263,1.028-4.116c1.421-0.853,3.264-0.392,4.116,1.028l33,54.974
	c0.423,0.705,0.538,1.554,0.318,2.346c-0.22,0.793-0.755,1.46-1.481,1.847l-32,17.026C83.96,109.388,83.477,109.501,83.003,109.501z
	"/>
<path fill="#783741" d="M85.589,111.526c-0.664,0-1.313-0.33-1.693-0.933l-41-65.001c-0.589-0.934-0.31-2.169,0.625-2.758
	c0.934-0.588,2.169-0.31,2.758,0.625l41,64.999c0.59,0.935,0.31,2.17-0.624,2.759C86.322,111.427,85.953,111.526,85.589,111.526z"/>
<path fill="#783741" d="M46,69.5c-1.105,0-2-0.896-2-2v-18c0-1.104,0.895-2,2-2c1.104,0,2,0.896,2,2v18
	C48,68.604,47.104,69.5,46,69.5z"/>
</svg>
